M48
INCH,LZ
;FILE_FORMAT=2:4
;TYPE=PLATED
;Layer: Drill PTH
;EasyEDA v6.4.17, 2021-03-06T12:48:26--8:00
;ee12d80863e34575bd4b21ebeaabd800,b5aacd518854429a9b9924e8a25dcfd8,10
;Gerber Generator version 0.2
;Holesize 1 = 0.0120 inch
T01C0.0120
;Holesize 2 = 0.0400 inch
T02C0.0400
;Holesize 3 = 0.0470 inch
T03C0.0470
%
G05
G90
T01
X020400Y-002200
X038000Y003500
X022300Y009500
X018900Y001400
X002300Y-003500
X006900Y003800
X007900Y005800
X029300Y-009500
X022300Y-010500
X042000Y-005300
X042600Y-005300
X043200Y-005300
X043800Y-005300
X044400Y-005300
X017800Y-013200
X016800Y-013200
X015800Y-013200
X014800Y-013200
X013800Y-013200
X021000Y-010000
X020000Y-011000
X007000Y013400
X009390Y011000
X041600Y005200
X035100Y-006500
X009500Y002750
X010750Y002750
X011000Y015500
X012000Y014500
X024000Y015250
X024000Y014500
X017500Y015250
X017500Y014500
X013250Y015000
X019500Y015250
X013250Y013750
X019500Y013750
X024000Y-002750
X040300Y007000
X039750Y009000
X010500Y014250
X012500Y014250
X044000Y-001000
X008250Y018250
X039700Y000600
X039700Y001400
X039700Y002300
X039750Y005750
T02
X024390Y009500
X025390Y009500
X026390Y009500
X027390Y009500
X028390Y009500
X029390Y009500
X030390Y009500
X023390Y009500
X022390Y-009500
X023390Y-009500
X024390Y-009500
X025390Y-009500
X026390Y-009500
X027390Y-009500
X028390Y-009500
X021390Y-009500
X015390Y009500
X016390Y009500
X017390Y009500
X018390Y009500
X019390Y009500
X020390Y009500
X021390Y009500
X014390Y009500
X013390Y-009500
X014390Y-009500
X015390Y-009500
X016390Y-009500
X017390Y-009500
X018390Y-009500
X019390Y-009500
X012390Y-009500
X004790Y-009500
X005790Y-009500
X006790Y-009500
X007790Y-009500
X008790Y-009500
X009790Y-009500
X010790Y-009500
X003790Y-009500
X032390Y-001500
X031390Y-001500
X032390Y-002500
X031390Y-002500
X032390Y-003500
X031390Y-003500
X032390Y-004500
X031390Y-004500
X032390Y-005500
X031390Y-005500
X032390Y-006500
X031390Y-006500
X032390Y-007500
X031390Y-007500
X032390Y-008500
X031390Y-008500
X032390Y006500
X031390Y006500
X032390Y005500
X031390Y005500
X032390Y004500
X031390Y004500
X032390Y003500
X031390Y003500
X032390Y002500
X031390Y002500
X032390Y001500
X031390Y001500
X032390Y000500
X031390Y000500
X032390Y-000500
X031390Y-000500
X031390Y007500
X032390Y007500
X031390Y-009500
X032390Y-009500
X007390Y009500
X008390Y009500
X009390Y009500
X010390Y009500
X011390Y009500
X012390Y009500
X002790Y-009500
X001790Y-009500
X006390Y009500
X005390Y009500
X020390Y000500
X019390Y000500
X020390Y-000500
X019390Y-000500
X020390Y-001500
X019390Y-001500
X003610Y003700
X004610Y003700
X003610Y004700
X004610Y004700
X003610Y005700
X004610Y005700
X007490Y-006620
X006490Y-006620
X005490Y-006620
X004490Y-006620
T03
X028500Y003500
X028500Y004500
X027500Y003500
X027500Y004500
X026500Y003500
X026500Y004500
X025500Y003500
X025500Y004500
X024500Y003500
X024500Y004500
X023500Y003500
X023500Y004500
X022500Y003500
X022500Y004500
X021500Y003500
X021500Y004500
X020500Y003500
X020500Y004500
X019500Y003500
X019500Y004500
X018500Y003500
X018500Y004500
X017500Y003500
X017500Y004500
X016500Y003500
X016500Y004500
X015500Y003500
X015500Y004500
X014500Y003500
X014500Y004500
X013500Y003500
X013500Y004500
X012500Y003500
X012500Y004500
X011500Y003500
X011500Y004500
X010500Y003500
X010500Y004500
X009500Y003500
X009500Y004500
X028500Y-004500
X028500Y-003500
X027500Y-004500
X027500Y-003500
X026500Y-004500
X026500Y-003500
X025500Y-004500
X025500Y-003500
X024500Y-004500
X024500Y-003500
X023500Y-004500
X023500Y-003500
X022500Y-004500
X022500Y-003500
X021500Y-004500
X021500Y-003500
X020500Y-004500
X020500Y-003500
X019500Y-004500
X019500Y-003500
X018500Y-004500
X018500Y-003500
X017500Y-004500
X017500Y-003500
X016500Y-004500
X016500Y-003500
X015500Y-004500
X015500Y-003500
X014500Y-004500
X014500Y-003500
X013500Y-004500
X013500Y-003500
X012500Y-004500
X012500Y-003500
X011500Y-004500
X011500Y-003500
X010500Y-004500
X010500Y-003500
X009500Y-004500
X009500Y-003500
X039000Y009500
X038000Y009500
X039000Y008500
X038000Y008500
X039000Y007500
X038000Y007500
X039000Y006500
X038000Y006500
X039000Y005500
X038000Y005500
X039000Y004500
X038000Y004500
X039000Y003500
X038000Y003500
X039000Y002500
X038000Y002500
X039000Y001500
X038000Y001500
X039000Y000500
X038000Y000500
X039000Y-000500
X038000Y-000500
X039000Y-001500
X038000Y-001500
X039000Y-002500
X038000Y-002500
X039000Y-003500
X038000Y-003500
X039000Y-004500
X038000Y-004500
X039000Y-005500
X038000Y-005500
X039000Y-006500
X038000Y-006500
X039000Y-007500
X038000Y-007500
X039000Y-008500
X038000Y-008500
X039000Y-009500
X038000Y-009500
M30
