G04 Layer: BottomSolderMaskLayer*
G04 EasyEDA v6.4.17, 2021-03-06T12:48:26--8:00*
G04 ee12d80863e34575bd4b21ebeaabd800,b5aacd518854429a9b9924e8a25dcfd8,10*
G04 Gerber Generator version 0.2*
G04 Scale: 100 percent, Rotated: No, Reflected: No *
G04 Dimensions in inches *
G04 leading zeros omitted , absolute positions ,3 integer and 6 decimal *
%FSLAX36Y36*%
%MOIN*%

%ADD46C,0.0820*%
%ADD47R,0.0820X0.0820*%
%ADD49C,0.0789*%

%LPD*%
G36*
X1745399Y-1655000D02*
G01*
X1745399Y-1513000D01*
X1808400Y-1513000D01*
X1808400Y-1655000D01*
G37*
G36*
X1646899Y-1655000D02*
G01*
X1646899Y-1513000D01*
X1709899Y-1513000D01*
X1709899Y-1655000D01*
G37*
G36*
X1548500Y-1655000D02*
G01*
X1548500Y-1513000D01*
X1611499Y-1513000D01*
X1611499Y-1655000D01*
G37*
G36*
X1450100Y-1655000D02*
G01*
X1450100Y-1513000D01*
X1513100Y-1513000D01*
X1513100Y-1655000D01*
G37*
G36*
X1351599Y-1655000D02*
G01*
X1351599Y-1513000D01*
X1414600Y-1513000D01*
X1414600Y-1655000D01*
G37*
G36*
X1831700Y-1957800D02*
G01*
X1831700Y-1729800D01*
X1930699Y-1729800D01*
X1930699Y-1957800D01*
G37*
G36*
X1229300Y-1957800D02*
G01*
X1229300Y-1729800D01*
X1328299Y-1729800D01*
X1328299Y-1957800D01*
G37*
G36*
X2555399Y-1645000D02*
G01*
X2555399Y-1503000D01*
X2618400Y-1503000D01*
X2618400Y-1645000D01*
G37*
G36*
X2456899Y-1645000D02*
G01*
X2456899Y-1503000D01*
X2519899Y-1503000D01*
X2519899Y-1645000D01*
G37*
G36*
X2358500Y-1645000D02*
G01*
X2358500Y-1503000D01*
X2421499Y-1503000D01*
X2421499Y-1645000D01*
G37*
G36*
X2260100Y-1645000D02*
G01*
X2260100Y-1503000D01*
X2323100Y-1503000D01*
X2323100Y-1645000D01*
G37*
G36*
X2161599Y-1645000D02*
G01*
X2161599Y-1503000D01*
X2224600Y-1503000D01*
X2224600Y-1645000D01*
G37*
G36*
X2641700Y-1947800D02*
G01*
X2641700Y-1719800D01*
X2740699Y-1719800D01*
X2740699Y-1947800D01*
G37*
G36*
X2039300Y-1947800D02*
G01*
X2039300Y-1719800D01*
X2138299Y-1719800D01*
X2138299Y-1947800D01*
G37*
D46*
G01*
X2438999Y950000D03*
G01*
X2538999Y950000D03*
G01*
X2638999Y950000D03*
G01*
X2738999Y950000D03*
G01*
X2838999Y950000D03*
G01*
X2938999Y950000D03*
G01*
X3038999Y950000D03*
G01*
X2338999Y950000D03*
G01*
X2238999Y-950000D03*
G01*
X2338999Y-950000D03*
G01*
X2438999Y-950000D03*
G01*
X2538999Y-950000D03*
G01*
X2638999Y-950000D03*
G01*
X2738999Y-950000D03*
G01*
X2838999Y-950000D03*
G01*
X2138999Y-950000D03*
G01*
X1538999Y950000D03*
G01*
X1638999Y950000D03*
G01*
X1738999Y950000D03*
G01*
X1838999Y950000D03*
G01*
X1938999Y950000D03*
G01*
X2038999Y950000D03*
G01*
X2138999Y950000D03*
G01*
X1438999Y950000D03*
G01*
X1338999Y-950000D03*
G01*
X1438999Y-950000D03*
G01*
X1538999Y-950000D03*
G01*
X1638999Y-950000D03*
G01*
X1738999Y-950000D03*
G01*
X1838999Y-950000D03*
G01*
X1938999Y-950000D03*
G01*
X1238999Y-950000D03*
G01*
X479000Y-950000D03*
G01*
X579000Y-950000D03*
G01*
X679000Y-950000D03*
G01*
X778999Y-950000D03*
G01*
X878999Y-950000D03*
G01*
X978999Y-950000D03*
G01*
X1078999Y-950000D03*
G01*
X379000Y-950000D03*
D47*
G01*
X3238999Y-150000D03*
G01*
X3138999Y-150000D03*
G01*
X3238999Y-250000D03*
G01*
X3138999Y-250000D03*
G01*
X3238999Y-350000D03*
G01*
X3138999Y-350000D03*
G01*
X3238999Y-450000D03*
G01*
X3138999Y-450000D03*
G01*
X3238999Y-550000D03*
G01*
X3138999Y-550000D03*
G01*
X3238999Y-650000D03*
G01*
X3138999Y-650000D03*
G01*
X3238999Y-750000D03*
G01*
X3138999Y-750000D03*
G01*
X3238999Y-850000D03*
G01*
X3138999Y-850000D03*
G01*
X3238999Y650000D03*
G01*
X3138999Y650000D03*
G01*
X3238999Y550000D03*
G01*
X3138999Y550000D03*
G01*
X3238999Y450000D03*
G01*
X3138999Y450000D03*
G01*
X3238999Y350000D03*
G01*
X3138999Y350000D03*
G01*
X3238999Y250000D03*
G01*
X3138999Y250000D03*
G01*
X3238999Y150000D03*
G01*
X3138999Y150000D03*
G01*
X3238999Y50000D03*
G01*
X3138999Y50000D03*
G01*
X3238999Y-50000D03*
G01*
X3138999Y-50000D03*
D46*
G01*
X3138999Y750000D03*
G01*
X3238999Y750000D03*
G01*
X3138999Y-950000D03*
G01*
X3238999Y-950000D03*
G01*
X739000Y950000D03*
G01*
X838999Y950000D03*
G01*
X938999Y950000D03*
G01*
X1038999Y950000D03*
G01*
X1138999Y950000D03*
G01*
X1238999Y950000D03*
G01*
X279000Y-950000D03*
G01*
X179000Y-950000D03*
G01*
X639000Y950000D03*
G01*
X539000Y950000D03*
D47*
G01*
X2038999Y50000D03*
G01*
X1938999Y50000D03*
G01*
X2038999Y-50000D03*
G01*
X1938999Y-50000D03*
G01*
X2038999Y-150000D03*
G01*
X1938999Y-150000D03*
G36*
X320000Y329000D02*
G01*
X320000Y410999D01*
X401999Y410999D01*
X401999Y329000D01*
G37*
G36*
X420000Y329000D02*
G01*
X420000Y410999D01*
X501999Y410999D01*
X501999Y329000D01*
G37*
G36*
X320000Y429000D02*
G01*
X320000Y510999D01*
X401999Y510999D01*
X401999Y429000D01*
G37*
G36*
X420000Y429000D02*
G01*
X420000Y510999D01*
X501999Y510999D01*
X501999Y429000D01*
G37*
G36*
X320000Y529000D02*
G01*
X320000Y610999D01*
X401999Y610999D01*
X401999Y529000D01*
G37*
G36*
X420000Y529000D02*
G01*
X420000Y610999D01*
X501999Y610999D01*
X501999Y529000D01*
G37*
D46*
G01*
X749000Y-661999D03*
G01*
X649000Y-661999D03*
G01*
X549000Y-661999D03*
G01*
X449000Y-661999D03*
G36*
X2810600Y310599D02*
G01*
X2810600Y389400D01*
X2889399Y389400D01*
X2889399Y310599D01*
G37*
D49*
G01*
X2850000Y450000D03*
G01*
X2750000Y350000D03*
G01*
X2750000Y450000D03*
G01*
X2650000Y350000D03*
G01*
X2650000Y450000D03*
G01*
X2550000Y350000D03*
G01*
X2550000Y450000D03*
G01*
X2450000Y350000D03*
G01*
X2450000Y450000D03*
G01*
X2350000Y350000D03*
G01*
X2350000Y450000D03*
G01*
X2250000Y350000D03*
G01*
X2250000Y450000D03*
G01*
X2150000Y350000D03*
G01*
X2150000Y450000D03*
G01*
X2050000Y350000D03*
G01*
X2050000Y450000D03*
G01*
X1950000Y350000D03*
G01*
X1950000Y450000D03*
G01*
X1850000Y350000D03*
G01*
X1850000Y450000D03*
G01*
X1750000Y350000D03*
G01*
X1750000Y450000D03*
G01*
X1650000Y350000D03*
G01*
X1650000Y450000D03*
G01*
X1550000Y350000D03*
G01*
X1550000Y450000D03*
G01*
X1450000Y350000D03*
G01*
X1450000Y450000D03*
G01*
X1350000Y350000D03*
G01*
X1350000Y450000D03*
G01*
X1250000Y350000D03*
G01*
X1250000Y450000D03*
G01*
X1150000Y350000D03*
G01*
X1150000Y450000D03*
G01*
X1050000Y350000D03*
G01*
X1050000Y450000D03*
G01*
X950000Y350000D03*
G01*
X950000Y450000D03*
G36*
X2810600Y-489400D02*
G01*
X2810600Y-410599D01*
X2889399Y-410599D01*
X2889399Y-489400D01*
G37*
G01*
X2850000Y-350000D03*
G01*
X2750000Y-450000D03*
G01*
X2750000Y-350000D03*
G01*
X2650000Y-450000D03*
G01*
X2650000Y-350000D03*
G01*
X2550000Y-450000D03*
G01*
X2550000Y-350000D03*
G01*
X2450000Y-450000D03*
G01*
X2450000Y-350000D03*
G01*
X2350000Y-450000D03*
G01*
X2350000Y-350000D03*
G01*
X2250000Y-450000D03*
G01*
X2250000Y-350000D03*
G01*
X2150000Y-450000D03*
G01*
X2150000Y-350000D03*
G01*
X2050000Y-450000D03*
G01*
X2050000Y-350000D03*
G01*
X1950000Y-450000D03*
G01*
X1950000Y-350000D03*
G01*
X1850000Y-450000D03*
G01*
X1850000Y-350000D03*
G01*
X1750000Y-450000D03*
G01*
X1750000Y-350000D03*
G01*
X1650000Y-450000D03*
G01*
X1650000Y-350000D03*
G01*
X1550000Y-450000D03*
G01*
X1550000Y-350000D03*
G01*
X1450000Y-450000D03*
G01*
X1450000Y-350000D03*
G01*
X1350000Y-450000D03*
G01*
X1350000Y-350000D03*
G01*
X1250000Y-450000D03*
G01*
X1250000Y-350000D03*
G01*
X1150000Y-450000D03*
G01*
X1150000Y-350000D03*
G01*
X1050000Y-450000D03*
G01*
X1050000Y-350000D03*
G01*
X950000Y-450000D03*
G01*
X950000Y-350000D03*
G36*
X3860600Y910599D02*
G01*
X3860600Y989400D01*
X3939399Y989400D01*
X3939399Y910599D01*
G37*
G01*
X3800000Y950000D03*
G01*
X3900000Y850000D03*
G01*
X3800000Y850000D03*
G01*
X3900000Y750000D03*
G01*
X3800000Y750000D03*
G01*
X3900000Y650000D03*
G01*
X3800000Y650000D03*
G01*
X3900000Y550000D03*
G01*
X3800000Y550000D03*
G01*
X3900000Y450000D03*
G01*
X3800000Y450000D03*
G01*
X3900000Y350000D03*
G01*
X3800000Y350000D03*
G01*
X3900000Y250000D03*
G01*
X3800000Y250000D03*
G01*
X3900000Y150000D03*
G01*
X3800000Y150000D03*
G01*
X3900000Y50000D03*
G01*
X3800000Y50000D03*
G01*
X3900000Y-50000D03*
G01*
X3800000Y-50000D03*
G01*
X3900000Y-150000D03*
G01*
X3800000Y-150000D03*
G01*
X3900000Y-250000D03*
G01*
X3800000Y-250000D03*
G01*
X3900000Y-350000D03*
G01*
X3800000Y-350000D03*
G01*
X3900000Y-450000D03*
G01*
X3800000Y-450000D03*
G01*
X3900000Y-550000D03*
G01*
X3800000Y-550000D03*
G01*
X3900000Y-650000D03*
G01*
X3800000Y-650000D03*
G01*
X3900000Y-750000D03*
G01*
X3800000Y-750000D03*
G01*
X3900000Y-850000D03*
G01*
X3800000Y-850000D03*
G01*
X3900000Y-950000D03*
G01*
X3800000Y-950000D03*
M02*
