G04 Layer: BottomSilkLayer*
G04 EasyEDA v6.4.17, 2021-03-06T12:48:26--8:00*
G04 ee12d80863e34575bd4b21ebeaabd800,b5aacd518854429a9b9924e8a25dcfd8,10*
G04 Gerber Generator version 0.2*
G04 Scale: 100 percent, Rotated: No, Reflected: No *
G04 Dimensions in inches *
G04 leading zeros omitted , absolute positions ,3 integer and 6 decimal *
%FSLAX36Y36*%
%MOIN*%

%ADD10C,0.0100*%
%ADD26C,0.0200*%
%ADD27C,0.0060*%
%ADD29C,0.0040*%
%ADD31C,0.0080*%
%ADD34C,0.0059*%
%ADD35C,0.0120*%

%LPD*%
D29*
X2905909Y-1950909D02*
G01*
X2908181Y-1946363D01*
X2912727Y-1941817D01*
X2917272Y-1939544D01*
X2926364Y-1939544D01*
X2930909Y-1941817D01*
X2935455Y-1946363D01*
X2937727Y-1950909D01*
X2940000Y-1957726D01*
X2940000Y-1969090D01*
X2937727Y-1975909D01*
X2935455Y-1980455D01*
X2930909Y-1985000D01*
X2926364Y-1987273D01*
X2917272Y-1987273D01*
X2912727Y-1985000D01*
X2908181Y-1980455D01*
X2905909Y-1975909D01*
X2905909Y-1969090D01*
X2917272Y-1969090D02*
G01*
X2905909Y-1969090D01*
X2890909Y-1939544D02*
G01*
X2890909Y-1987273D01*
X2890909Y-1939544D02*
G01*
X2859090Y-1987273D01*
X2859090Y-1939544D02*
G01*
X2859090Y-1987273D01*
X2844090Y-1939544D02*
G01*
X2844090Y-1987273D01*
X2844090Y-1939544D02*
G01*
X2828181Y-1939544D01*
X2821364Y-1941817D01*
X2816818Y-1946363D01*
X2814544Y-1950909D01*
X2812272Y-1957726D01*
X2812272Y-1969090D01*
X2814544Y-1975909D01*
X2816818Y-1980455D01*
X2821364Y-1985000D01*
X2828181Y-1987273D01*
X2844090Y-1987273D01*
D31*
X1024544Y675000D02*
G01*
X1072272Y656817D01*
X1024544Y638636D02*
G01*
X1072272Y656817D01*
X1024544Y623636D02*
G01*
X1072272Y623636D01*
X1024544Y608636D02*
G01*
X1072272Y608636D01*
X1024544Y608636D02*
G01*
X1072272Y576817D01*
X1024544Y576817D02*
G01*
X1072272Y576817D01*
X935909Y665909D02*
G01*
X931364Y668182D01*
X926818Y672726D01*
X924544Y677273D01*
X924544Y686363D01*
X926818Y690909D01*
X931364Y695455D01*
X935909Y697726D01*
X942727Y700000D01*
X954090Y700000D01*
X960909Y697726D01*
X965455Y695455D01*
X970000Y690909D01*
X972272Y686363D01*
X972272Y677273D01*
X970000Y672726D01*
X965455Y668182D01*
X960909Y665909D01*
X954090Y665909D01*
X954090Y677273D02*
G01*
X954090Y665909D01*
X924544Y650909D02*
G01*
X972272Y650909D01*
X924544Y650909D02*
G01*
X972272Y619090D01*
X924544Y619090D02*
G01*
X972272Y619090D01*
X924544Y604090D02*
G01*
X972272Y604090D01*
X924544Y604090D02*
G01*
X924544Y588182D01*
X926818Y581363D01*
X931364Y576817D01*
X935909Y574544D01*
X942727Y572273D01*
X954090Y572273D01*
X960909Y574544D01*
X965455Y576817D01*
X970000Y581363D01*
X972272Y588182D01*
X972272Y604090D01*
X924544Y245455D02*
G01*
X924544Y220455D01*
X942727Y234090D01*
X942727Y227273D01*
X945000Y222726D01*
X947272Y220455D01*
X954090Y218182D01*
X958635Y218182D01*
X965455Y220455D01*
X970000Y225000D01*
X972272Y231817D01*
X972272Y238636D01*
X970000Y245455D01*
X967727Y247726D01*
X963181Y250000D01*
X960909Y200909D02*
G01*
X963181Y203182D01*
X965455Y200909D01*
X963181Y198636D01*
X960909Y200909D01*
X924544Y179090D02*
G01*
X924544Y154090D01*
X942727Y167726D01*
X942727Y160909D01*
X945000Y156363D01*
X947272Y154090D01*
X954090Y151817D01*
X958635Y151817D01*
X965455Y154090D01*
X970000Y158636D01*
X972272Y165455D01*
X972272Y172273D01*
X970000Y179090D01*
X967727Y181363D01*
X963181Y183636D01*
X924544Y136817D02*
G01*
X972272Y118636D01*
X924544Y100455D02*
G01*
X972272Y118636D01*
X1024544Y222726D02*
G01*
X1024544Y245455D01*
X1045000Y247726D01*
X1042727Y245455D01*
X1040455Y238636D01*
X1040455Y231817D01*
X1042727Y225000D01*
X1047272Y220455D01*
X1054090Y218182D01*
X1058635Y218182D01*
X1065455Y220455D01*
X1070000Y225000D01*
X1072272Y231817D01*
X1072272Y238636D01*
X1070000Y245455D01*
X1067727Y247726D01*
X1063181Y250000D01*
X1024544Y203182D02*
G01*
X1072272Y185000D01*
X1024544Y166817D02*
G01*
X1072272Y185000D01*
X2424544Y725000D02*
G01*
X2472272Y725000D01*
X2424544Y725000D02*
G01*
X2424544Y709090D01*
X2426818Y702273D01*
X2431364Y697726D01*
X2435909Y695455D01*
X2442727Y693182D01*
X2454090Y693182D01*
X2460909Y695455D01*
X2465455Y697726D01*
X2470000Y702273D01*
X2472272Y709090D01*
X2472272Y725000D01*
X2424544Y660000D02*
G01*
X2472272Y678182D01*
X2424544Y660000D02*
G01*
X2472272Y641817D01*
X2456364Y671363D02*
G01*
X2456364Y648636D01*
X2435909Y592726D02*
G01*
X2431364Y595000D01*
X2426818Y599544D01*
X2424544Y604090D01*
X2424544Y613182D01*
X2426818Y617726D01*
X2431364Y622273D01*
X2435909Y624544D01*
X2442727Y626817D01*
X2454090Y626817D01*
X2460909Y624544D01*
X2465455Y622273D01*
X2470000Y617726D01*
X2472272Y613182D01*
X2472272Y604090D01*
X2470000Y599544D01*
X2465455Y595000D01*
X2460909Y592726D01*
X2433635Y577726D02*
G01*
X2431364Y573182D01*
X2424544Y566363D01*
X2472272Y566363D01*
X2424544Y250000D02*
G01*
X2472272Y250000D01*
X2424544Y250000D02*
G01*
X2424544Y234090D01*
X2426818Y227273D01*
X2431364Y222726D01*
X2435909Y220455D01*
X2442727Y218182D01*
X2454090Y218182D01*
X2460909Y220455D01*
X2465455Y222726D01*
X2470000Y227273D01*
X2472272Y234090D01*
X2472272Y250000D01*
X2424544Y185000D02*
G01*
X2472272Y203182D01*
X2424544Y185000D02*
G01*
X2472272Y166817D01*
X2456364Y196363D02*
G01*
X2456364Y173636D01*
X2435909Y117726D02*
G01*
X2431364Y120000D01*
X2426818Y124544D01*
X2424544Y129090D01*
X2424544Y138182D01*
X2426818Y142726D01*
X2431364Y147273D01*
X2435909Y149544D01*
X2442727Y151817D01*
X2454090Y151817D01*
X2460909Y149544D01*
X2465455Y147273D01*
X2470000Y142726D01*
X2472272Y138182D01*
X2472272Y129090D01*
X2470000Y124544D01*
X2465455Y120000D01*
X2460909Y117726D01*
X2424544Y89090D02*
G01*
X2426818Y95909D01*
X2433635Y100455D01*
X2445000Y102726D01*
X2451818Y102726D01*
X2463181Y100455D01*
X2470000Y95909D01*
X2472272Y89090D01*
X2472272Y84544D01*
X2470000Y77726D01*
X2463181Y73182D01*
X2451818Y70909D01*
X2445000Y70909D01*
X2433635Y73182D01*
X2426818Y77726D01*
X2424544Y84544D01*
X2424544Y89090D01*
X2224544Y631817D02*
G01*
X2272272Y650000D01*
X2224544Y631817D02*
G01*
X2272272Y613636D01*
X2256364Y643182D02*
G01*
X2256364Y620455D01*
X2233635Y598636D02*
G01*
X2231364Y594090D01*
X2224544Y587273D01*
X2272272Y587273D01*
X2324544Y631817D02*
G01*
X2372272Y650000D01*
X2324544Y631817D02*
G01*
X2372272Y613636D01*
X2356364Y643182D02*
G01*
X2356364Y620455D01*
X2324544Y594090D02*
G01*
X2324544Y569090D01*
X2342727Y582726D01*
X2342727Y575909D01*
X2345000Y571363D01*
X2347272Y569090D01*
X2354090Y566817D01*
X2358635Y566817D01*
X2365455Y569090D01*
X2370000Y573636D01*
X2372272Y580455D01*
X2372272Y587273D01*
X2370000Y594090D01*
X2367727Y596363D01*
X2363181Y598636D01*
X2224544Y231817D02*
G01*
X2272272Y250000D01*
X2224544Y231817D02*
G01*
X2272272Y213636D01*
X2256364Y243182D02*
G01*
X2256364Y220455D01*
X2233635Y198636D02*
G01*
X2231364Y194090D01*
X2224544Y187273D01*
X2272272Y187273D01*
X2324544Y231817D02*
G01*
X2372272Y250000D01*
X2324544Y231817D02*
G01*
X2372272Y213636D01*
X2356364Y243182D02*
G01*
X2356364Y220455D01*
X2335909Y196363D02*
G01*
X2333635Y196363D01*
X2329090Y194090D01*
X2326818Y191817D01*
X2324544Y187273D01*
X2324544Y178182D01*
X2326818Y173636D01*
X2329090Y171363D01*
X2333635Y169090D01*
X2338181Y169090D01*
X2342727Y171363D01*
X2349544Y175909D01*
X2372272Y198636D01*
X2372272Y166817D01*
X2524544Y622726D02*
G01*
X2524544Y645455D01*
X2545000Y647726D01*
X2542727Y645455D01*
X2540455Y638636D01*
X2540455Y631817D01*
X2542727Y625000D01*
X2547272Y620455D01*
X2554090Y618182D01*
X2558635Y618182D01*
X2565455Y620455D01*
X2570000Y625000D01*
X2572272Y631817D01*
X2572272Y638636D01*
X2570000Y645455D01*
X2567727Y647726D01*
X2563181Y650000D01*
X2524544Y598636D02*
G01*
X2524544Y573636D01*
X2542727Y587273D01*
X2542727Y580455D01*
X2545000Y575909D01*
X2547272Y573636D01*
X2554090Y571363D01*
X2558635Y571363D01*
X2565455Y573636D01*
X2570000Y578182D01*
X2572272Y585000D01*
X2572272Y591817D01*
X2570000Y598636D01*
X2567727Y600909D01*
X2563181Y603182D01*
X2624544Y622726D02*
G01*
X2624544Y645455D01*
X2645000Y647726D01*
X2642727Y645455D01*
X2640455Y638636D01*
X2640455Y631817D01*
X2642727Y625000D01*
X2647272Y620455D01*
X2654090Y618182D01*
X2658635Y618182D01*
X2665455Y620455D01*
X2670000Y625000D01*
X2672272Y631817D01*
X2672272Y638636D01*
X2670000Y645455D01*
X2667727Y647726D01*
X2663181Y650000D01*
X2633635Y603182D02*
G01*
X2631364Y598636D01*
X2624544Y591817D01*
X2672272Y591817D01*
X2724544Y627273D02*
G01*
X2756364Y650000D01*
X2756364Y615909D01*
X2724544Y627273D02*
G01*
X2772272Y627273D01*
X2740455Y571363D02*
G01*
X2747272Y573636D01*
X2751818Y578182D01*
X2754090Y585000D01*
X2754090Y587273D01*
X2751818Y594090D01*
X2747272Y598636D01*
X2740455Y600909D01*
X2738181Y600909D01*
X2731364Y598636D01*
X2726818Y594090D01*
X2724544Y587273D01*
X2724544Y585000D01*
X2726818Y578182D01*
X2731364Y573636D01*
X2740455Y571363D01*
X2751818Y571363D01*
X2763181Y573636D01*
X2770000Y578182D01*
X2772272Y585000D01*
X2772272Y589544D01*
X2770000Y596363D01*
X2765455Y598636D01*
X2824544Y627273D02*
G01*
X2856364Y650000D01*
X2856364Y615909D01*
X2824544Y627273D02*
G01*
X2872272Y627273D01*
X2824544Y569090D02*
G01*
X2872272Y591817D01*
X2824544Y600909D02*
G01*
X2824544Y569090D01*
X2524544Y222726D02*
G01*
X2524544Y245455D01*
X2545000Y247726D01*
X2542727Y245455D01*
X2540455Y238636D01*
X2540455Y231817D01*
X2542727Y225000D01*
X2547272Y220455D01*
X2554090Y218182D01*
X2558635Y218182D01*
X2565455Y220455D01*
X2570000Y225000D01*
X2572272Y231817D01*
X2572272Y238636D01*
X2570000Y245455D01*
X2567727Y247726D01*
X2563181Y250000D01*
X2535909Y200909D02*
G01*
X2533635Y200909D01*
X2529090Y198636D01*
X2526818Y196363D01*
X2524544Y191817D01*
X2524544Y182726D01*
X2526818Y178182D01*
X2529090Y175909D01*
X2533635Y173636D01*
X2538181Y173636D01*
X2542727Y175909D01*
X2549544Y180455D01*
X2572272Y203182D01*
X2572272Y171363D01*
X2624544Y222726D02*
G01*
X2624544Y245455D01*
X2645000Y247726D01*
X2642727Y245455D01*
X2640455Y238636D01*
X2640455Y231817D01*
X2642727Y225000D01*
X2647272Y220455D01*
X2654090Y218182D01*
X2658635Y218182D01*
X2665455Y220455D01*
X2670000Y225000D01*
X2672272Y231817D01*
X2672272Y238636D01*
X2670000Y245455D01*
X2667727Y247726D01*
X2663181Y250000D01*
X2624544Y189544D02*
G01*
X2626818Y196363D01*
X2633635Y200909D01*
X2645000Y203182D01*
X2651818Y203182D01*
X2663181Y200909D01*
X2670000Y196363D01*
X2672272Y189544D01*
X2672272Y185000D01*
X2670000Y178182D01*
X2663181Y173636D01*
X2651818Y171363D01*
X2645000Y171363D01*
X2633635Y173636D01*
X2626818Y178182D01*
X2624544Y185000D01*
X2624544Y189544D01*
X2724544Y227273D02*
G01*
X2756364Y250000D01*
X2756364Y215909D01*
X2724544Y227273D02*
G01*
X2772272Y227273D01*
X2724544Y189544D02*
G01*
X2726818Y196363D01*
X2731364Y198636D01*
X2735909Y198636D01*
X2740455Y196363D01*
X2742727Y191817D01*
X2745000Y182726D01*
X2747272Y175909D01*
X2751818Y171363D01*
X2756364Y169090D01*
X2763181Y169090D01*
X2767727Y171363D01*
X2770000Y173636D01*
X2772272Y180455D01*
X2772272Y189544D01*
X2770000Y196363D01*
X2767727Y198636D01*
X2763181Y200909D01*
X2756364Y200909D01*
X2751818Y198636D01*
X2747272Y194090D01*
X2745000Y187273D01*
X2742727Y178182D01*
X2740455Y173636D01*
X2735909Y171363D01*
X2731364Y171363D01*
X2726818Y173636D01*
X2724544Y180455D01*
X2724544Y189544D01*
X2824544Y227273D02*
G01*
X2856364Y250000D01*
X2856364Y215909D01*
X2824544Y227273D02*
G01*
X2872272Y227273D01*
X2831364Y173636D02*
G01*
X2826818Y175909D01*
X2824544Y182726D01*
X2824544Y187273D01*
X2826818Y194090D01*
X2833635Y198636D01*
X2845000Y200909D01*
X2856364Y200909D01*
X2865455Y198636D01*
X2870000Y194090D01*
X2872272Y187273D01*
X2872272Y185000D01*
X2870000Y178182D01*
X2865455Y173636D01*
X2858635Y171363D01*
X2856364Y171363D01*
X2849544Y173636D01*
X2845000Y178182D01*
X2842727Y185000D01*
X2842727Y187273D01*
X2845000Y194090D01*
X2849544Y198636D01*
X2856364Y200909D01*
X2835909Y-152273D02*
G01*
X2833635Y-152273D01*
X2829090Y-154544D01*
X2826818Y-156817D01*
X2824544Y-161363D01*
X2824544Y-170455D01*
X2826818Y-175000D01*
X2829090Y-177273D01*
X2833635Y-179544D01*
X2838181Y-179544D01*
X2842727Y-177273D01*
X2849544Y-172726D01*
X2872272Y-150000D01*
X2872272Y-181817D01*
X2824544Y-208182D02*
G01*
X2826818Y-201363D01*
X2831364Y-199090D01*
X2835909Y-199090D01*
X2840455Y-201363D01*
X2842727Y-205909D01*
X2845000Y-215000D01*
X2847272Y-221817D01*
X2851818Y-226363D01*
X2856364Y-228636D01*
X2863181Y-228636D01*
X2867727Y-226363D01*
X2870000Y-224090D01*
X2872272Y-217273D01*
X2872272Y-208182D01*
X2870000Y-201363D01*
X2867727Y-199090D01*
X2863181Y-196817D01*
X2856364Y-196817D01*
X2851818Y-199090D01*
X2847272Y-203636D01*
X2845000Y-210455D01*
X2842727Y-219544D01*
X2840455Y-224090D01*
X2835909Y-226363D01*
X2831364Y-226363D01*
X2826818Y-224090D01*
X2824544Y-217273D01*
X2824544Y-208182D01*
X2735909Y-152273D02*
G01*
X2733635Y-152273D01*
X2729090Y-154544D01*
X2726818Y-156817D01*
X2724544Y-161363D01*
X2724544Y-170455D01*
X2726818Y-175000D01*
X2729090Y-177273D01*
X2733635Y-179544D01*
X2738181Y-179544D01*
X2742727Y-177273D01*
X2749544Y-172726D01*
X2772272Y-150000D01*
X2772272Y-181817D01*
X2731364Y-224090D02*
G01*
X2726818Y-221817D01*
X2724544Y-215000D01*
X2724544Y-210455D01*
X2726818Y-203636D01*
X2733635Y-199090D01*
X2745000Y-196817D01*
X2756364Y-196817D01*
X2765455Y-199090D01*
X2770000Y-203636D01*
X2772272Y-210455D01*
X2772272Y-212726D01*
X2770000Y-219544D01*
X2765455Y-224090D01*
X2758635Y-226363D01*
X2756364Y-226363D01*
X2749544Y-224090D01*
X2745000Y-219544D01*
X2742727Y-212726D01*
X2742727Y-210455D01*
X2745000Y-203636D01*
X2749544Y-199090D01*
X2756364Y-196817D01*
X2635909Y-152273D02*
G01*
X2633635Y-152273D01*
X2629090Y-154544D01*
X2626818Y-156817D01*
X2624544Y-161363D01*
X2624544Y-170455D01*
X2626818Y-175000D01*
X2629090Y-177273D01*
X2633635Y-179544D01*
X2638181Y-179544D01*
X2642727Y-177273D01*
X2649544Y-172726D01*
X2672272Y-150000D01*
X2672272Y-181817D01*
X2624544Y-219544D02*
G01*
X2656364Y-196817D01*
X2656364Y-230909D01*
X2624544Y-219544D02*
G01*
X2672272Y-219544D01*
X2535909Y-152273D02*
G01*
X2533635Y-152273D01*
X2529090Y-154544D01*
X2526818Y-156817D01*
X2524544Y-161363D01*
X2524544Y-170455D01*
X2526818Y-175000D01*
X2529090Y-177273D01*
X2533635Y-179544D01*
X2538181Y-179544D01*
X2542727Y-177273D01*
X2549544Y-172726D01*
X2572272Y-150000D01*
X2572272Y-181817D01*
X2535909Y-199090D02*
G01*
X2533635Y-199090D01*
X2529090Y-201363D01*
X2526818Y-203636D01*
X2524544Y-208182D01*
X2524544Y-217273D01*
X2526818Y-221817D01*
X2529090Y-224090D01*
X2533635Y-226363D01*
X2538181Y-226363D01*
X2542727Y-224090D01*
X2549544Y-219544D01*
X2572272Y-196817D01*
X2572272Y-228636D01*
X2435909Y-152273D02*
G01*
X2433635Y-152273D01*
X2429090Y-154544D01*
X2426818Y-156817D01*
X2424544Y-161363D01*
X2424544Y-170455D01*
X2426818Y-175000D01*
X2429090Y-177273D01*
X2433635Y-179544D01*
X2438181Y-179544D01*
X2442727Y-177273D01*
X2449544Y-172726D01*
X2472272Y-150000D01*
X2472272Y-181817D01*
X2424544Y-210455D02*
G01*
X2426818Y-203636D01*
X2433635Y-199090D01*
X2445000Y-196817D01*
X2451818Y-196817D01*
X2463181Y-199090D01*
X2470000Y-203636D01*
X2472272Y-210455D01*
X2472272Y-215000D01*
X2470000Y-221817D01*
X2463181Y-226363D01*
X2451818Y-228636D01*
X2445000Y-228636D01*
X2433635Y-226363D01*
X2426818Y-221817D01*
X2424544Y-215000D01*
X2424544Y-210455D01*
X2333635Y-175000D02*
G01*
X2331364Y-179544D01*
X2324544Y-186363D01*
X2372272Y-186363D01*
X2324544Y-212726D02*
G01*
X2326818Y-205909D01*
X2331364Y-203636D01*
X2335909Y-203636D01*
X2340455Y-205909D01*
X2342727Y-210455D01*
X2345000Y-219544D01*
X2347272Y-226363D01*
X2351818Y-230909D01*
X2356364Y-233182D01*
X2363181Y-233182D01*
X2367727Y-230909D01*
X2370000Y-228636D01*
X2372272Y-221817D01*
X2372272Y-212726D01*
X2370000Y-205909D01*
X2367727Y-203636D01*
X2363181Y-201363D01*
X2356364Y-201363D01*
X2351818Y-203636D01*
X2347272Y-208182D01*
X2345000Y-215000D01*
X2342727Y-224090D01*
X2340455Y-228636D01*
X2335909Y-230909D01*
X2331364Y-230909D01*
X2326818Y-228636D01*
X2324544Y-221817D01*
X2324544Y-212726D01*
X2233635Y-175000D02*
G01*
X2231364Y-179544D01*
X2224544Y-186363D01*
X2272272Y-186363D01*
X2231364Y-228636D02*
G01*
X2226818Y-226363D01*
X2224544Y-219544D01*
X2224544Y-215000D01*
X2226818Y-208182D01*
X2233635Y-203636D01*
X2245000Y-201363D01*
X2256364Y-201363D01*
X2265455Y-203636D01*
X2270000Y-208182D01*
X2272272Y-215000D01*
X2272272Y-217273D01*
X2270000Y-224090D01*
X2265455Y-228636D01*
X2258635Y-230909D01*
X2256364Y-230909D01*
X2249544Y-228636D01*
X2245000Y-224090D01*
X2242727Y-217273D01*
X2242727Y-215000D01*
X2245000Y-208182D01*
X2249544Y-203636D01*
X2256364Y-201363D01*
X2835909Y-577273D02*
G01*
X2833635Y-577273D01*
X2829090Y-579544D01*
X2826818Y-581817D01*
X2824544Y-586363D01*
X2824544Y-595455D01*
X2826818Y-600000D01*
X2829090Y-602273D01*
X2833635Y-604544D01*
X2838181Y-604544D01*
X2842727Y-602273D01*
X2849544Y-597726D01*
X2872272Y-575000D01*
X2872272Y-606817D01*
X2840455Y-651363D02*
G01*
X2847272Y-649090D01*
X2851818Y-644544D01*
X2854090Y-637726D01*
X2854090Y-635455D01*
X2851818Y-628636D01*
X2847272Y-624090D01*
X2840455Y-621817D01*
X2838181Y-621817D01*
X2831364Y-624090D01*
X2826818Y-628636D01*
X2824544Y-635455D01*
X2824544Y-637726D01*
X2826818Y-644544D01*
X2831364Y-649090D01*
X2840455Y-651363D01*
X2851818Y-651363D01*
X2863181Y-649090D01*
X2870000Y-644544D01*
X2872272Y-637726D01*
X2872272Y-633182D01*
X2870000Y-626363D01*
X2865455Y-624090D01*
X2735909Y-577273D02*
G01*
X2733635Y-577273D01*
X2729090Y-579544D01*
X2726818Y-581817D01*
X2724544Y-586363D01*
X2724544Y-595455D01*
X2726818Y-600000D01*
X2729090Y-602273D01*
X2733635Y-604544D01*
X2738181Y-604544D01*
X2742727Y-602273D01*
X2749544Y-597726D01*
X2772272Y-575000D01*
X2772272Y-606817D01*
X2724544Y-653636D02*
G01*
X2772272Y-630909D01*
X2724544Y-621817D02*
G01*
X2724544Y-653636D01*
X2635909Y-577273D02*
G01*
X2633635Y-577273D01*
X2629090Y-579544D01*
X2626818Y-581817D01*
X2624544Y-586363D01*
X2624544Y-595455D01*
X2626818Y-600000D01*
X2629090Y-602273D01*
X2633635Y-604544D01*
X2638181Y-604544D01*
X2642727Y-602273D01*
X2649544Y-597726D01*
X2672272Y-575000D01*
X2672272Y-606817D01*
X2624544Y-649090D02*
G01*
X2624544Y-626363D01*
X2645000Y-624090D01*
X2642727Y-626363D01*
X2640455Y-633182D01*
X2640455Y-640000D01*
X2642727Y-646817D01*
X2647272Y-651363D01*
X2654090Y-653636D01*
X2658635Y-653636D01*
X2665455Y-651363D01*
X2670000Y-646817D01*
X2672272Y-640000D01*
X2672272Y-633182D01*
X2670000Y-626363D01*
X2667727Y-624090D01*
X2663181Y-621817D01*
X2535909Y-577273D02*
G01*
X2533635Y-577273D01*
X2529090Y-579544D01*
X2526818Y-581817D01*
X2524544Y-586363D01*
X2524544Y-595455D01*
X2526818Y-600000D01*
X2529090Y-602273D01*
X2533635Y-604544D01*
X2538181Y-604544D01*
X2542727Y-602273D01*
X2549544Y-597726D01*
X2572272Y-575000D01*
X2572272Y-606817D01*
X2524544Y-626363D02*
G01*
X2524544Y-651363D01*
X2542727Y-637726D01*
X2542727Y-644544D01*
X2545000Y-649090D01*
X2547272Y-651363D01*
X2554090Y-653636D01*
X2558635Y-653636D01*
X2565455Y-651363D01*
X2570000Y-646817D01*
X2572272Y-640000D01*
X2572272Y-633182D01*
X2570000Y-626363D01*
X2567727Y-624090D01*
X2563181Y-621817D01*
X2435909Y-577273D02*
G01*
X2433635Y-577273D01*
X2429090Y-579544D01*
X2426818Y-581817D01*
X2424544Y-586363D01*
X2424544Y-595455D01*
X2426818Y-600000D01*
X2429090Y-602273D01*
X2433635Y-604544D01*
X2438181Y-604544D01*
X2442727Y-602273D01*
X2449544Y-597726D01*
X2472272Y-575000D01*
X2472272Y-606817D01*
X2433635Y-621817D02*
G01*
X2431364Y-626363D01*
X2424544Y-633182D01*
X2472272Y-633182D01*
X2333635Y-575000D02*
G01*
X2331364Y-579544D01*
X2324544Y-586363D01*
X2372272Y-586363D01*
X2340455Y-630909D02*
G01*
X2347272Y-628636D01*
X2351818Y-624090D01*
X2354090Y-617273D01*
X2354090Y-615000D01*
X2351818Y-608182D01*
X2347272Y-603636D01*
X2340455Y-601363D01*
X2338181Y-601363D01*
X2331364Y-603636D01*
X2326818Y-608182D01*
X2324544Y-615000D01*
X2324544Y-617273D01*
X2326818Y-624090D01*
X2331364Y-628636D01*
X2340455Y-630909D01*
X2351818Y-630909D01*
X2363181Y-628636D01*
X2370000Y-624090D01*
X2372272Y-617273D01*
X2372272Y-612726D01*
X2370000Y-605909D01*
X2365455Y-603636D01*
X2233635Y-575000D02*
G01*
X2231364Y-579544D01*
X2224544Y-586363D01*
X2272272Y-586363D01*
X2224544Y-633182D02*
G01*
X2272272Y-610455D01*
X2224544Y-601363D02*
G01*
X2224544Y-633182D01*
X2133635Y-575000D02*
G01*
X2131364Y-579544D01*
X2124544Y-586363D01*
X2172272Y-586363D01*
X2124544Y-628636D02*
G01*
X2124544Y-605909D01*
X2145000Y-603636D01*
X2142727Y-605909D01*
X2140455Y-612726D01*
X2140455Y-619544D01*
X2142727Y-626363D01*
X2147272Y-630909D01*
X2154090Y-633182D01*
X2158635Y-633182D01*
X2165455Y-630909D01*
X2170000Y-626363D01*
X2172272Y-619544D01*
X2172272Y-612726D01*
X2170000Y-605909D01*
X2167727Y-603636D01*
X2163181Y-601363D01*
X1835909Y-609090D02*
G01*
X1831364Y-606817D01*
X1826818Y-602273D01*
X1824544Y-597726D01*
X1824544Y-588636D01*
X1826818Y-584090D01*
X1831364Y-579544D01*
X1835909Y-577273D01*
X1842727Y-575000D01*
X1854090Y-575000D01*
X1860909Y-577273D01*
X1865455Y-579544D01*
X1870000Y-584090D01*
X1872272Y-588636D01*
X1872272Y-597726D01*
X1870000Y-602273D01*
X1865455Y-606817D01*
X1860909Y-609090D01*
X1854090Y-609090D01*
X1854090Y-597726D02*
G01*
X1854090Y-609090D01*
X1824544Y-624090D02*
G01*
X1872272Y-624090D01*
X1824544Y-624090D02*
G01*
X1872272Y-655909D01*
X1824544Y-655909D02*
G01*
X1872272Y-655909D01*
X1824544Y-670909D02*
G01*
X1872272Y-670909D01*
X1824544Y-670909D02*
G01*
X1824544Y-686817D01*
X1826818Y-693636D01*
X1831364Y-698182D01*
X1835909Y-700455D01*
X1842727Y-702726D01*
X1854090Y-702726D01*
X1860909Y-700455D01*
X1865455Y-698182D01*
X1870000Y-693636D01*
X1872272Y-686817D01*
X1872272Y-670909D01*
X1724544Y-579544D02*
G01*
X1724544Y-604544D01*
X1742727Y-590909D01*
X1742727Y-597726D01*
X1745000Y-602273D01*
X1747272Y-604544D01*
X1754090Y-606817D01*
X1758635Y-606817D01*
X1765455Y-604544D01*
X1770000Y-600000D01*
X1772272Y-593182D01*
X1772272Y-586363D01*
X1770000Y-579544D01*
X1767727Y-577273D01*
X1763181Y-575000D01*
X1760909Y-624090D02*
G01*
X1763181Y-621817D01*
X1765455Y-624090D01*
X1763181Y-626363D01*
X1760909Y-624090D01*
X1724544Y-645909D02*
G01*
X1724544Y-670909D01*
X1742727Y-657273D01*
X1742727Y-664090D01*
X1745000Y-668636D01*
X1747272Y-670909D01*
X1754090Y-673182D01*
X1758635Y-673182D01*
X1765455Y-670909D01*
X1770000Y-666363D01*
X1772272Y-659544D01*
X1772272Y-652726D01*
X1770000Y-645909D01*
X1767727Y-643636D01*
X1763181Y-641363D01*
X1724544Y-688182D02*
G01*
X1772272Y-706363D01*
X1724544Y-724544D02*
G01*
X1772272Y-706363D01*
X1631364Y-606817D02*
G01*
X1626818Y-602273D01*
X1624544Y-595455D01*
X1624544Y-586363D01*
X1626818Y-579544D01*
X1631364Y-575000D01*
X1635909Y-575000D01*
X1640455Y-577273D01*
X1642727Y-579544D01*
X1645000Y-584090D01*
X1649544Y-597726D01*
X1651818Y-602273D01*
X1654090Y-604544D01*
X1658635Y-606817D01*
X1665455Y-606817D01*
X1670000Y-602273D01*
X1672272Y-595455D01*
X1672272Y-586363D01*
X1670000Y-579544D01*
X1665455Y-575000D01*
X1624544Y-621817D02*
G01*
X1672272Y-621817D01*
X1624544Y-621817D02*
G01*
X1624544Y-637726D01*
X1626818Y-644544D01*
X1631364Y-649090D01*
X1635909Y-651363D01*
X1642727Y-653636D01*
X1654090Y-653636D01*
X1660909Y-651363D01*
X1665455Y-649090D01*
X1670000Y-644544D01*
X1672272Y-637726D01*
X1672272Y-621817D01*
X1624544Y-686817D02*
G01*
X1672272Y-668636D01*
X1624544Y-686817D02*
G01*
X1672272Y-705000D01*
X1656364Y-675455D02*
G01*
X1656364Y-698182D01*
X1633635Y-720000D02*
G01*
X1631364Y-724544D01*
X1624544Y-731363D01*
X1672272Y-731363D01*
X1524544Y-588636D02*
G01*
X1526818Y-581817D01*
X1533635Y-577273D01*
X1545000Y-575000D01*
X1551818Y-575000D01*
X1563181Y-577273D01*
X1570000Y-581817D01*
X1572272Y-588636D01*
X1572272Y-593182D01*
X1570000Y-600000D01*
X1563181Y-604544D01*
X1551818Y-606817D01*
X1545000Y-606817D01*
X1533635Y-604544D01*
X1526818Y-600000D01*
X1524544Y-593182D01*
X1524544Y-588636D01*
X1435909Y-577273D02*
G01*
X1433635Y-577273D01*
X1429090Y-579544D01*
X1426818Y-581817D01*
X1424544Y-586363D01*
X1424544Y-595455D01*
X1426818Y-600000D01*
X1429090Y-602273D01*
X1433635Y-604544D01*
X1438181Y-604544D01*
X1442727Y-602273D01*
X1449544Y-597726D01*
X1472272Y-575000D01*
X1472272Y-606817D01*
X1324544Y-597726D02*
G01*
X1356364Y-575000D01*
X1356364Y-609090D01*
X1324544Y-597726D02*
G01*
X1372272Y-597726D01*
X1231364Y-602273D02*
G01*
X1226818Y-600000D01*
X1224544Y-593182D01*
X1224544Y-588636D01*
X1226818Y-581817D01*
X1233635Y-577273D01*
X1245000Y-575000D01*
X1256364Y-575000D01*
X1265455Y-577273D01*
X1270000Y-581817D01*
X1272272Y-588636D01*
X1272272Y-590909D01*
X1270000Y-597726D01*
X1265455Y-602273D01*
X1258635Y-604544D01*
X1256364Y-604544D01*
X1249544Y-602273D01*
X1245000Y-597726D01*
X1242727Y-590909D01*
X1242727Y-588636D01*
X1245000Y-581817D01*
X1249544Y-577273D01*
X1256364Y-575000D01*
X1124544Y-586363D02*
G01*
X1126818Y-579544D01*
X1131364Y-577273D01*
X1135909Y-577273D01*
X1140455Y-579544D01*
X1142727Y-584090D01*
X1145000Y-593182D01*
X1147272Y-600000D01*
X1151818Y-604544D01*
X1156364Y-606817D01*
X1163181Y-606817D01*
X1167727Y-604544D01*
X1170000Y-602273D01*
X1172272Y-595455D01*
X1172272Y-586363D01*
X1170000Y-579544D01*
X1167727Y-577273D01*
X1163181Y-575000D01*
X1156364Y-575000D01*
X1151818Y-577273D01*
X1147272Y-581817D01*
X1145000Y-588636D01*
X1142727Y-597726D01*
X1140455Y-602273D01*
X1135909Y-604544D01*
X1131364Y-604544D01*
X1126818Y-602273D01*
X1124544Y-595455D01*
X1124544Y-586363D01*
X1033635Y-575000D02*
G01*
X1031364Y-579544D01*
X1024544Y-586363D01*
X1072272Y-586363D01*
X1024544Y-615000D02*
G01*
X1026818Y-608182D01*
X1033635Y-603636D01*
X1045000Y-601363D01*
X1051818Y-601363D01*
X1063181Y-603636D01*
X1070000Y-608182D01*
X1072272Y-615000D01*
X1072272Y-619544D01*
X1070000Y-626363D01*
X1063181Y-630909D01*
X1051818Y-633182D01*
X1045000Y-633182D01*
X1033635Y-630909D01*
X1026818Y-626363D01*
X1024544Y-619544D01*
X1024544Y-615000D01*
X933635Y-575000D02*
G01*
X931364Y-579544D01*
X924544Y-586363D01*
X972272Y-586363D01*
X935909Y-603636D02*
G01*
X933635Y-603636D01*
X929090Y-605909D01*
X926818Y-608182D01*
X924544Y-612726D01*
X924544Y-621817D01*
X926818Y-626363D01*
X929090Y-628636D01*
X933635Y-630909D01*
X938181Y-630909D01*
X942727Y-628636D01*
X949544Y-624090D01*
X972272Y-601363D01*
X972272Y-633182D01*
X933635Y-175000D02*
G01*
X931364Y-179544D01*
X924544Y-186363D01*
X972272Y-186363D01*
X924544Y-205909D02*
G01*
X924544Y-230909D01*
X942727Y-217273D01*
X942727Y-224090D01*
X945000Y-228636D01*
X947272Y-230909D01*
X954090Y-233182D01*
X958635Y-233182D01*
X965455Y-230909D01*
X970000Y-226363D01*
X972272Y-219544D01*
X972272Y-212726D01*
X970000Y-205909D01*
X967727Y-203636D01*
X963181Y-201363D01*
X1033635Y-200000D02*
G01*
X1031364Y-204544D01*
X1024544Y-211363D01*
X1072272Y-211363D01*
X1033635Y-226363D02*
G01*
X1031364Y-230909D01*
X1024544Y-237726D01*
X1072272Y-237726D01*
X1140455Y-229544D02*
G01*
X1147272Y-227273D01*
X1151818Y-222726D01*
X1154090Y-215909D01*
X1154090Y-213636D01*
X1151818Y-206817D01*
X1147272Y-202273D01*
X1140455Y-200000D01*
X1138181Y-200000D01*
X1131364Y-202273D01*
X1126818Y-206817D01*
X1124544Y-213636D01*
X1124544Y-215909D01*
X1126818Y-222726D01*
X1131364Y-227273D01*
X1140455Y-229544D01*
X1151818Y-229544D01*
X1163181Y-227273D01*
X1170000Y-222726D01*
X1172272Y-215909D01*
X1172272Y-211363D01*
X1170000Y-204544D01*
X1165455Y-202273D01*
X1224544Y-231817D02*
G01*
X1272272Y-209090D01*
X1224544Y-200000D02*
G01*
X1224544Y-231817D01*
X1324544Y-227273D02*
G01*
X1324544Y-204544D01*
X1345000Y-202273D01*
X1342727Y-204544D01*
X1340455Y-211363D01*
X1340455Y-218182D01*
X1342727Y-225000D01*
X1347272Y-229544D01*
X1354090Y-231817D01*
X1358635Y-231817D01*
X1365455Y-229544D01*
X1370000Y-225000D01*
X1372272Y-218182D01*
X1372272Y-211363D01*
X1370000Y-204544D01*
X1367727Y-202273D01*
X1363181Y-200000D01*
X1424544Y-204544D02*
G01*
X1424544Y-229544D01*
X1442727Y-215909D01*
X1442727Y-222726D01*
X1445000Y-227273D01*
X1447272Y-229544D01*
X1454090Y-231817D01*
X1458635Y-231817D01*
X1465455Y-229544D01*
X1470000Y-225000D01*
X1472272Y-218182D01*
X1472272Y-211363D01*
X1470000Y-204544D01*
X1467727Y-202273D01*
X1463181Y-200000D01*
X1533635Y-225000D02*
G01*
X1531364Y-229544D01*
X1524544Y-236363D01*
X1572272Y-236363D01*
X1631364Y-106817D02*
G01*
X1626818Y-102273D01*
X1624544Y-95455D01*
X1624544Y-86363D01*
X1626818Y-79544D01*
X1631364Y-75000D01*
X1635909Y-75000D01*
X1640455Y-77273D01*
X1642727Y-79544D01*
X1645000Y-84090D01*
X1649544Y-97726D01*
X1651818Y-102273D01*
X1654090Y-104544D01*
X1658635Y-106817D01*
X1665455Y-106817D01*
X1670000Y-102273D01*
X1672272Y-95455D01*
X1672272Y-86363D01*
X1670000Y-79544D01*
X1665455Y-75000D01*
X1635909Y-155909D02*
G01*
X1631364Y-153636D01*
X1626818Y-149090D01*
X1624544Y-144544D01*
X1624544Y-135455D01*
X1626818Y-130909D01*
X1631364Y-126363D01*
X1635909Y-124090D01*
X1642727Y-121817D01*
X1654090Y-121817D01*
X1660909Y-124090D01*
X1665455Y-126363D01*
X1670000Y-130909D01*
X1672272Y-135455D01*
X1672272Y-144544D01*
X1670000Y-149090D01*
X1665455Y-153636D01*
X1660909Y-155909D01*
X1624544Y-170909D02*
G01*
X1672272Y-170909D01*
X1672272Y-170909D02*
G01*
X1672272Y-198182D01*
X1633635Y-213182D02*
G01*
X1631364Y-217726D01*
X1624544Y-224544D01*
X1672272Y-224544D01*
X1840909Y-271817D02*
G01*
X1838635Y-274090D01*
X1835227Y-275226D01*
X1830681Y-275226D01*
X1827272Y-274090D01*
X1825000Y-271817D01*
X1825000Y-269544D01*
X1826135Y-267273D01*
X1827272Y-266136D01*
X1829544Y-265000D01*
X1836364Y-262726D01*
X1838635Y-261590D01*
X1839772Y-260455D01*
X1840909Y-258182D01*
X1840909Y-254773D01*
X1838635Y-252500D01*
X1835227Y-251363D01*
X1830681Y-251363D01*
X1827272Y-252500D01*
X1825000Y-254773D01*
X1865455Y-269544D02*
G01*
X1864318Y-271817D01*
X1862044Y-274090D01*
X1859772Y-275226D01*
X1855227Y-275226D01*
X1852955Y-274090D01*
X1850681Y-271817D01*
X1849544Y-269544D01*
X1848409Y-266136D01*
X1848409Y-260455D01*
X1849544Y-257044D01*
X1850681Y-254773D01*
X1852955Y-252500D01*
X1855227Y-251363D01*
X1859772Y-251363D01*
X1862044Y-252500D01*
X1864318Y-254773D01*
X1865455Y-257044D01*
X1872955Y-275226D02*
G01*
X1872955Y-251363D01*
X1888864Y-275226D02*
G01*
X1872955Y-259317D01*
X1878635Y-265000D02*
G01*
X1888864Y-251363D01*
X1925000Y-275226D02*
G01*
X1925000Y-251363D01*
X1925000Y-275226D02*
G01*
X1934090Y-251363D01*
X1943181Y-275226D02*
G01*
X1934090Y-251363D01*
X1943181Y-275226D02*
G01*
X1943181Y-251363D01*
X1950681Y-275226D02*
G01*
X1950681Y-251363D01*
X1974090Y-271817D02*
G01*
X1971818Y-274090D01*
X1968409Y-275226D01*
X1963864Y-275226D01*
X1960455Y-274090D01*
X1958181Y-271817D01*
X1958181Y-269544D01*
X1959318Y-267273D01*
X1960455Y-266136D01*
X1962727Y-265000D01*
X1969544Y-262726D01*
X1971818Y-261590D01*
X1972955Y-260455D01*
X1974090Y-258182D01*
X1974090Y-254773D01*
X1971818Y-252500D01*
X1968409Y-251363D01*
X1963864Y-251363D01*
X1960455Y-252500D01*
X1958181Y-254773D01*
X1988409Y-275226D02*
G01*
X1986135Y-274090D01*
X1983864Y-271817D01*
X1982727Y-269544D01*
X1981590Y-266136D01*
X1981590Y-260455D01*
X1982727Y-257044D01*
X1983864Y-254773D01*
X1986135Y-252500D01*
X1988409Y-251363D01*
X1992955Y-251363D01*
X1995227Y-252500D01*
X1997500Y-254773D01*
X1998635Y-257044D01*
X1999772Y-260455D01*
X1999772Y-266136D01*
X1998635Y-269544D01*
X1997500Y-271817D01*
X1995227Y-274090D01*
X1992955Y-275226D01*
X1988409Y-275226D01*
X2025000Y-275226D02*
G01*
X2025000Y-251363D01*
X2025000Y-275226D02*
G01*
X2034090Y-251363D01*
X2043181Y-275226D02*
G01*
X2034090Y-251363D01*
X2043181Y-275226D02*
G01*
X2043181Y-251363D01*
X2057500Y-275226D02*
G01*
X2055227Y-274090D01*
X2052955Y-271817D01*
X2051818Y-269544D01*
X2050681Y-266136D01*
X2050681Y-260455D01*
X2051818Y-257044D01*
X2052955Y-254773D01*
X2055227Y-252500D01*
X2057500Y-251363D01*
X2062044Y-251363D01*
X2064318Y-252500D01*
X2066590Y-254773D01*
X2067727Y-257044D01*
X2068864Y-260455D01*
X2068864Y-266136D01*
X2067727Y-269544D01*
X2066590Y-271817D01*
X2064318Y-274090D01*
X2062044Y-275226D01*
X2057500Y-275226D01*
X2092272Y-271817D02*
G01*
X2090000Y-274090D01*
X2086590Y-275226D01*
X2082044Y-275226D01*
X2078635Y-274090D01*
X2076364Y-271817D01*
X2076364Y-269544D01*
X2077500Y-267273D01*
X2078635Y-266136D01*
X2080909Y-265000D01*
X2087727Y-262726D01*
X2090000Y-261590D01*
X2091135Y-260455D01*
X2092272Y-258182D01*
X2092272Y-254773D01*
X2090000Y-252500D01*
X2086590Y-251363D01*
X2082044Y-251363D01*
X2078635Y-252500D01*
X2076364Y-254773D01*
X2099772Y-275226D02*
G01*
X2099772Y-251363D01*
X2133635Y-175000D02*
G01*
X2131364Y-179544D01*
X2124544Y-186363D01*
X2172272Y-186363D01*
X2124544Y-224090D02*
G01*
X2156364Y-201363D01*
X2156364Y-235455D01*
X2124544Y-224090D02*
G01*
X2172272Y-224090D01*
X1700000Y-275226D02*
G01*
X1700000Y-251363D01*
X1700000Y-275226D02*
G01*
X1710227Y-275226D01*
X1713635Y-274090D01*
X1714772Y-272955D01*
X1715909Y-270682D01*
X1715909Y-268409D01*
X1714772Y-266136D01*
X1713635Y-265000D01*
X1710227Y-263863D01*
X1700000Y-263863D01*
X1707955Y-263863D02*
G01*
X1715909Y-251363D01*
X1723409Y-275226D02*
G01*
X1723409Y-251363D01*
X1723409Y-275226D02*
G01*
X1738181Y-275226D01*
X1723409Y-263863D02*
G01*
X1732500Y-263863D01*
X1723409Y-251363D02*
G01*
X1738181Y-251363D01*
X1761590Y-271817D02*
G01*
X1759318Y-274090D01*
X1755909Y-275226D01*
X1751364Y-275226D01*
X1747955Y-274090D01*
X1745681Y-271817D01*
X1745681Y-269544D01*
X1746818Y-267273D01*
X1747955Y-266136D01*
X1750227Y-265000D01*
X1757044Y-262726D01*
X1759318Y-261590D01*
X1760455Y-260455D01*
X1761590Y-258182D01*
X1761590Y-254773D01*
X1759318Y-252500D01*
X1755909Y-251363D01*
X1751364Y-251363D01*
X1747955Y-252500D01*
X1745681Y-254773D01*
X1769090Y-275226D02*
G01*
X1769090Y-251363D01*
X1769090Y-275226D02*
G01*
X1783864Y-275226D01*
X1769090Y-263863D02*
G01*
X1778181Y-263863D01*
X1769090Y-251363D02*
G01*
X1783864Y-251363D01*
X1799318Y-275226D02*
G01*
X1799318Y-251363D01*
X1791364Y-275226D02*
G01*
X1807272Y-275226D01*
X4115909Y964090D02*
G01*
X4118181Y968636D01*
X4122727Y973182D01*
X4127272Y975455D01*
X4136364Y975455D01*
X4140909Y973182D01*
X4145455Y968636D01*
X4147727Y964090D01*
X4150000Y957273D01*
X4150000Y945909D01*
X4147727Y939090D01*
X4145455Y934544D01*
X4140909Y930000D01*
X4136364Y927726D01*
X4127272Y927726D01*
X4122727Y930000D01*
X4118181Y934544D01*
X4115909Y939090D01*
X4115909Y945909D01*
X4127272Y945909D02*
G01*
X4115909Y945909D01*
X4100909Y975455D02*
G01*
X4100909Y927726D01*
X4100909Y975455D02*
G01*
X4069090Y927726D01*
X4069090Y975455D02*
G01*
X4069090Y927726D01*
X4054090Y975455D02*
G01*
X4054090Y927726D01*
X4054090Y975455D02*
G01*
X4038181Y975455D01*
X4031364Y973182D01*
X4026818Y968636D01*
X4024544Y964090D01*
X4022272Y957273D01*
X4022272Y945909D01*
X4024544Y939090D01*
X4026818Y934544D01*
X4031364Y930000D01*
X4038181Y927726D01*
X4054090Y927726D01*
X4200000Y875500D02*
G01*
X4200000Y827699D01*
X4171400Y875500D02*
G01*
X4175900Y873200D01*
X4180500Y868600D01*
X4182700Y864099D01*
X4185000Y857300D01*
X4185000Y845900D01*
X4182700Y839099D01*
X4180500Y834499D01*
X4175900Y830000D01*
X4171400Y827699D01*
X4162299Y827699D01*
X4157700Y830000D01*
X4153199Y834499D01*
X4150900Y839099D01*
X4148599Y845900D01*
X4148599Y857300D01*
X4150900Y864099D01*
X4153199Y868600D01*
X4157700Y873200D01*
X4162299Y875500D01*
X4171400Y875500D01*
X4133599Y875500D02*
G01*
X4133599Y827699D01*
X4133599Y875500D02*
G01*
X4113199Y875500D01*
X4106400Y873200D01*
X4104099Y870900D01*
X4101800Y866399D01*
X4101800Y861799D01*
X4104099Y857300D01*
X4106400Y855000D01*
X4113199Y852699D01*
X4133599Y852699D01*
X4117700Y852699D02*
G01*
X4101800Y827699D01*
X4086800Y875500D02*
G01*
X4086800Y827699D01*
X4086800Y875500D02*
G01*
X4057299Y875500D01*
X4086800Y852699D02*
G01*
X4068599Y852699D01*
X4086800Y827699D02*
G01*
X4057299Y827699D01*
X4042299Y875500D02*
G01*
X4042299Y827699D01*
X4042299Y875500D02*
G01*
X4012700Y875500D01*
X4042299Y852699D02*
G01*
X4024099Y852699D01*
X4081800Y775500D02*
G01*
X4100000Y727699D01*
X4081800Y775500D02*
G01*
X4063599Y727699D01*
X4093199Y743600D02*
G01*
X4070500Y743600D01*
X4025900Y775500D02*
G01*
X4048599Y743600D01*
X4014499Y743600D01*
X4025900Y775500D02*
G01*
X4025900Y727699D01*
X4081800Y675500D02*
G01*
X4100000Y627699D01*
X4081800Y675500D02*
G01*
X4063599Y627699D01*
X4093199Y643600D02*
G01*
X4070500Y643600D01*
X4021400Y668600D02*
G01*
X4023599Y673200D01*
X4030500Y675500D01*
X4035000Y675500D01*
X4041800Y673200D01*
X4046400Y666399D01*
X4048599Y655000D01*
X4048599Y643600D01*
X4046400Y634499D01*
X4041800Y630000D01*
X4035000Y627699D01*
X4032700Y627699D01*
X4025900Y630000D01*
X4021400Y634499D01*
X4019099Y641399D01*
X4019099Y643600D01*
X4021400Y650500D01*
X4025900Y655000D01*
X4032700Y657300D01*
X4035000Y657300D01*
X4041800Y655000D01*
X4046400Y650500D01*
X4048599Y643600D01*
X4081800Y575500D02*
G01*
X4100000Y527699D01*
X4081800Y575500D02*
G01*
X4063599Y527699D01*
X4093199Y543600D02*
G01*
X4070500Y543600D01*
X4037299Y575500D02*
G01*
X4044099Y573200D01*
X4046400Y568600D01*
X4046400Y564099D01*
X4044099Y559499D01*
X4039499Y557300D01*
X4030500Y555000D01*
X4023599Y552699D01*
X4019099Y548200D01*
X4016800Y543600D01*
X4016800Y536799D01*
X4019099Y532300D01*
X4021400Y530000D01*
X4028199Y527699D01*
X4037299Y527699D01*
X4044099Y530000D01*
X4046400Y532300D01*
X4048599Y536799D01*
X4048599Y543600D01*
X4046400Y548200D01*
X4041800Y552699D01*
X4035000Y555000D01*
X4025900Y557300D01*
X4021400Y559499D01*
X4019099Y564099D01*
X4019099Y568600D01*
X4021400Y573200D01*
X4028199Y575500D01*
X4037299Y575500D01*
X4106800Y475500D02*
G01*
X4125000Y427699D01*
X4106800Y475500D02*
G01*
X4088599Y427699D01*
X4118199Y443600D02*
G01*
X4095500Y443600D01*
X4073599Y466399D02*
G01*
X4069099Y468600D01*
X4062299Y475500D01*
X4062299Y427699D01*
X4033599Y475500D02*
G01*
X4040500Y473200D01*
X4045000Y466399D01*
X4047299Y455000D01*
X4047299Y448200D01*
X4045000Y436799D01*
X4040500Y430000D01*
X4033599Y427699D01*
X4029099Y427699D01*
X4022299Y430000D01*
X4017700Y436799D01*
X4015500Y448200D01*
X4015500Y455000D01*
X4017700Y466399D01*
X4022299Y473200D01*
X4029099Y475500D01*
X4033599Y475500D01*
X4077299Y375500D02*
G01*
X4100000Y343600D01*
X4065900Y343600D01*
X4077299Y375500D02*
G01*
X4077299Y327699D01*
X4023599Y375500D02*
G01*
X4046400Y375500D01*
X4048599Y355000D01*
X4046400Y357300D01*
X4039499Y359499D01*
X4032700Y359499D01*
X4025900Y357300D01*
X4021400Y352699D01*
X4019099Y345900D01*
X4019099Y341399D01*
X4021400Y334499D01*
X4025900Y330000D01*
X4032700Y327699D01*
X4039499Y327699D01*
X4046400Y330000D01*
X4048599Y332300D01*
X4050900Y336799D01*
X4077299Y275500D02*
G01*
X4100000Y243600D01*
X4065900Y243600D01*
X4077299Y275500D02*
G01*
X4077299Y227699D01*
X4046400Y275500D02*
G01*
X4021400Y275500D01*
X4035000Y257300D01*
X4028199Y257300D01*
X4023599Y255000D01*
X4021400Y252699D01*
X4019099Y245900D01*
X4019099Y241399D01*
X4021400Y234499D01*
X4025900Y230000D01*
X4032700Y227699D01*
X4039499Y227699D01*
X4046400Y230000D01*
X4048599Y232300D01*
X4050900Y236799D01*
X4077299Y175500D02*
G01*
X4100000Y143600D01*
X4065900Y143600D01*
X4077299Y175500D02*
G01*
X4077299Y127699D01*
X4050900Y166399D02*
G01*
X4046400Y168600D01*
X4039499Y175500D01*
X4039499Y127699D01*
X4095500Y75500D02*
G01*
X4070500Y75500D01*
X4084099Y57300D01*
X4077299Y57300D01*
X4072700Y55000D01*
X4070500Y52699D01*
X4068199Y45900D01*
X4068199Y41399D01*
X4070500Y34499D01*
X4075000Y30000D01*
X4081800Y27699D01*
X4088599Y27699D01*
X4095500Y30000D01*
X4097700Y32300D01*
X4100000Y36799D01*
X4023599Y59499D02*
G01*
X4025900Y52699D01*
X4030500Y48200D01*
X4037299Y45900D01*
X4039499Y45900D01*
X4046400Y48200D01*
X4050900Y52699D01*
X4053199Y59499D01*
X4053199Y61799D01*
X4050900Y68600D01*
X4046400Y73200D01*
X4039499Y75500D01*
X4037299Y75500D01*
X4030500Y73200D01*
X4025900Y68600D01*
X4023599Y59499D01*
X4023599Y48200D01*
X4025900Y36799D01*
X4030500Y30000D01*
X4037299Y27699D01*
X4041800Y27699D01*
X4048599Y30000D01*
X4050900Y34499D01*
X4095500Y-24499D02*
G01*
X4070500Y-24499D01*
X4084099Y-42699D01*
X4077299Y-42699D01*
X4072700Y-45000D01*
X4070500Y-47300D01*
X4068199Y-54099D01*
X4068199Y-58600D01*
X4070500Y-65500D01*
X4075000Y-70000D01*
X4081800Y-72300D01*
X4088599Y-72300D01*
X4095500Y-70000D01*
X4097700Y-67699D01*
X4100000Y-63200D01*
X4021400Y-24499D02*
G01*
X4044099Y-72300D01*
X4053199Y-24499D02*
G01*
X4021400Y-24499D01*
X4095500Y-124499D02*
G01*
X4070500Y-124499D01*
X4084099Y-142699D01*
X4077299Y-142699D01*
X4072700Y-145000D01*
X4070500Y-147300D01*
X4068199Y-154099D01*
X4068199Y-158600D01*
X4070500Y-165500D01*
X4075000Y-170000D01*
X4081800Y-172300D01*
X4088599Y-172300D01*
X4095500Y-170000D01*
X4097700Y-167699D01*
X4100000Y-163200D01*
X4025900Y-124499D02*
G01*
X4048599Y-124499D01*
X4050900Y-145000D01*
X4048599Y-142699D01*
X4041800Y-140500D01*
X4035000Y-140500D01*
X4028199Y-142699D01*
X4023599Y-147300D01*
X4021400Y-154099D01*
X4021400Y-158600D01*
X4023599Y-165500D01*
X4028199Y-170000D01*
X4035000Y-172300D01*
X4041800Y-172300D01*
X4048599Y-170000D01*
X4050900Y-167699D01*
X4053199Y-163200D01*
X4095500Y-224499D02*
G01*
X4070500Y-224499D01*
X4084099Y-242699D01*
X4077299Y-242699D01*
X4072700Y-245000D01*
X4070500Y-247300D01*
X4068199Y-254099D01*
X4068199Y-258600D01*
X4070500Y-265500D01*
X4075000Y-270000D01*
X4081800Y-272300D01*
X4088599Y-272300D01*
X4095500Y-270000D01*
X4097700Y-267699D01*
X4100000Y-263200D01*
X4048599Y-224499D02*
G01*
X4023599Y-224499D01*
X4037299Y-242699D01*
X4030500Y-242699D01*
X4025900Y-245000D01*
X4023599Y-247300D01*
X4021400Y-254099D01*
X4021400Y-258600D01*
X4023599Y-265500D01*
X4028199Y-270000D01*
X4035000Y-272300D01*
X4041800Y-272300D01*
X4048599Y-270000D01*
X4050900Y-267699D01*
X4053199Y-263200D01*
X4095500Y-324499D02*
G01*
X4070500Y-324499D01*
X4084099Y-342699D01*
X4077299Y-342699D01*
X4072700Y-345000D01*
X4070500Y-347300D01*
X4068199Y-354099D01*
X4068199Y-358600D01*
X4070500Y-365500D01*
X4075000Y-370000D01*
X4081800Y-372300D01*
X4088599Y-372300D01*
X4095500Y-370000D01*
X4097700Y-367699D01*
X4100000Y-363200D01*
X4053199Y-333600D02*
G01*
X4048599Y-331399D01*
X4041800Y-324499D01*
X4041800Y-372300D01*
X4175000Y-624499D02*
G01*
X4175000Y-672300D01*
X4175000Y-624499D02*
G01*
X4156800Y-672300D01*
X4138599Y-624499D02*
G01*
X4156800Y-672300D01*
X4138599Y-624499D02*
G01*
X4138599Y-672300D01*
X4123599Y-624499D02*
G01*
X4123599Y-672300D01*
X4076800Y-631399D02*
G01*
X4081400Y-626799D01*
X4088199Y-624499D01*
X4097299Y-624499D01*
X4104099Y-626799D01*
X4108599Y-631399D01*
X4108599Y-635900D01*
X4106400Y-640500D01*
X4104099Y-642699D01*
X4099499Y-645000D01*
X4085900Y-649499D01*
X4081400Y-651799D01*
X4079099Y-654099D01*
X4076800Y-658600D01*
X4076800Y-665500D01*
X4081400Y-670000D01*
X4088199Y-672300D01*
X4097299Y-672300D01*
X4104099Y-670000D01*
X4108599Y-665500D01*
X4048199Y-624499D02*
G01*
X4052700Y-626799D01*
X4057299Y-631399D01*
X4059499Y-635900D01*
X4061800Y-642699D01*
X4061800Y-654099D01*
X4059499Y-660900D01*
X4057299Y-665500D01*
X4052700Y-670000D01*
X4048199Y-672300D01*
X4039099Y-672300D01*
X4034499Y-670000D01*
X4030000Y-665500D01*
X4027700Y-660900D01*
X4025500Y-654099D01*
X4025500Y-642699D01*
X4027700Y-635900D01*
X4030000Y-631399D01*
X4034499Y-626799D01*
X4039099Y-624499D01*
X4048199Y-624499D01*
X4275000Y-733636D02*
G01*
X4270455Y-731363D01*
X4263635Y-724544D01*
X4263635Y-772273D01*
X4237272Y-724544D02*
G01*
X4244090Y-726817D01*
X4246364Y-731363D01*
X4246364Y-735909D01*
X4244090Y-740455D01*
X4239544Y-742726D01*
X4230455Y-745000D01*
X4223635Y-747273D01*
X4219090Y-751817D01*
X4216818Y-756363D01*
X4216818Y-763182D01*
X4219090Y-767726D01*
X4221364Y-770000D01*
X4228181Y-772273D01*
X4237272Y-772273D01*
X4244090Y-770000D01*
X4246364Y-767726D01*
X4248635Y-763182D01*
X4248635Y-756363D01*
X4246364Y-751817D01*
X4241818Y-747273D01*
X4235000Y-745000D01*
X4225909Y-742726D01*
X4221364Y-740455D01*
X4219090Y-735909D01*
X4219090Y-731363D01*
X4221364Y-726817D01*
X4228181Y-724544D01*
X4237272Y-724544D01*
X4160909Y-715455D02*
G01*
X4201818Y-788182D01*
X4130000Y-724544D02*
G01*
X4130000Y-772273D01*
X4145909Y-724544D02*
G01*
X4114090Y-724544D01*
X4099090Y-724544D02*
G01*
X4067272Y-772273D01*
X4067272Y-724544D02*
G01*
X4099090Y-772273D01*
X4052272Y-733636D02*
G01*
X4047727Y-731363D01*
X4040909Y-724544D01*
X4040909Y-772273D01*
X4297727Y-835909D02*
G01*
X4297727Y-833636D01*
X4295455Y-829090D01*
X4293181Y-826817D01*
X4288635Y-824544D01*
X4279544Y-824544D01*
X4275000Y-826817D01*
X4272727Y-829090D01*
X4270455Y-833636D01*
X4270455Y-838182D01*
X4272727Y-842726D01*
X4277272Y-849544D01*
X4300000Y-872273D01*
X4268181Y-872273D01*
X4239544Y-824544D02*
G01*
X4246364Y-826817D01*
X4250909Y-833636D01*
X4253181Y-845000D01*
X4253181Y-851817D01*
X4250909Y-863182D01*
X4246364Y-870000D01*
X4239544Y-872273D01*
X4235000Y-872273D01*
X4228181Y-870000D01*
X4223635Y-863182D01*
X4221364Y-851817D01*
X4221364Y-845000D01*
X4223635Y-833636D01*
X4228181Y-826817D01*
X4235000Y-824544D01*
X4239544Y-824544D01*
X4165455Y-815455D02*
G01*
X4206364Y-888182D01*
X4118635Y-831363D02*
G01*
X4123181Y-826817D01*
X4130000Y-824544D01*
X4139090Y-824544D01*
X4145909Y-826817D01*
X4150455Y-831363D01*
X4150455Y-835909D01*
X4148181Y-840455D01*
X4145909Y-842726D01*
X4141364Y-845000D01*
X4127727Y-849544D01*
X4123181Y-851817D01*
X4120909Y-854090D01*
X4118635Y-858636D01*
X4118635Y-865455D01*
X4123181Y-870000D01*
X4130000Y-872273D01*
X4139090Y-872273D01*
X4145909Y-870000D01*
X4150455Y-865455D01*
X4103635Y-824544D02*
G01*
X4103635Y-872273D01*
X4103635Y-824544D02*
G01*
X4087727Y-824544D01*
X4080909Y-826817D01*
X4076364Y-831363D01*
X4074090Y-835909D01*
X4071818Y-842726D01*
X4071818Y-854090D01*
X4074090Y-860909D01*
X4076364Y-865455D01*
X4080909Y-870000D01*
X4087727Y-872273D01*
X4103635Y-872273D01*
X4038635Y-824544D02*
G01*
X4056818Y-872273D01*
X4038635Y-824544D02*
G01*
X4020455Y-872273D01*
X4050000Y-856363D02*
G01*
X4027272Y-856363D01*
X4115909Y-935909D02*
G01*
X4118181Y-931363D01*
X4122727Y-926817D01*
X4127272Y-924544D01*
X4136364Y-924544D01*
X4140909Y-926817D01*
X4145455Y-931363D01*
X4147727Y-935909D01*
X4150000Y-942726D01*
X4150000Y-954090D01*
X4147727Y-960909D01*
X4145455Y-965455D01*
X4140909Y-970000D01*
X4136364Y-972273D01*
X4127272Y-972273D01*
X4122727Y-970000D01*
X4118181Y-965455D01*
X4115909Y-960909D01*
X4115909Y-954090D01*
X4127272Y-954090D02*
G01*
X4115909Y-954090D01*
X4100909Y-924544D02*
G01*
X4100909Y-972273D01*
X4100909Y-924544D02*
G01*
X4069090Y-972273D01*
X4069090Y-924544D02*
G01*
X4069090Y-972273D01*
X4054090Y-924544D02*
G01*
X4054090Y-972273D01*
X4054090Y-924544D02*
G01*
X4038181Y-924544D01*
X4031364Y-926817D01*
X4026818Y-931363D01*
X4024544Y-935909D01*
X4022272Y-942726D01*
X4022272Y-954090D01*
X4024544Y-960909D01*
X4026818Y-965455D01*
X4031364Y-970000D01*
X4038181Y-972273D01*
X4054090Y-972273D01*
X3695500Y975500D02*
G01*
X3670500Y975500D01*
X3684099Y957300D01*
X3677299Y957300D01*
X3672700Y955000D01*
X3670500Y952699D01*
X3668199Y945900D01*
X3668199Y941399D01*
X3670500Y934499D01*
X3675000Y930000D01*
X3681800Y927699D01*
X3688599Y927699D01*
X3695500Y930000D01*
X3697700Y932300D01*
X3700000Y936799D01*
X3650900Y939099D02*
G01*
X3653199Y936799D01*
X3650900Y934499D01*
X3648599Y936799D01*
X3650900Y939099D01*
X3629099Y975500D02*
G01*
X3604099Y975500D01*
X3617700Y957300D01*
X3610900Y957300D01*
X3606400Y955000D01*
X3604099Y952699D01*
X3601800Y945900D01*
X3601800Y941399D01*
X3604099Y934499D01*
X3608599Y930000D01*
X3615500Y927699D01*
X3622299Y927699D01*
X3629099Y930000D01*
X3631400Y932300D01*
X3633599Y936799D01*
X3586800Y975500D02*
G01*
X3568599Y927699D01*
X3550500Y975500D02*
G01*
X3568599Y927699D01*
X3681800Y875500D02*
G01*
X3700000Y827699D01*
X3681800Y875500D02*
G01*
X3663599Y827699D01*
X3693199Y843600D02*
G01*
X3670500Y843600D01*
X3648599Y875500D02*
G01*
X3648599Y827699D01*
X3648599Y875500D02*
G01*
X3628199Y875500D01*
X3621400Y873200D01*
X3619099Y870900D01*
X3616800Y866399D01*
X3616800Y861799D01*
X3619099Y857300D01*
X3621400Y855000D01*
X3628199Y852699D01*
X3648599Y852699D01*
X3632700Y852699D02*
G01*
X3616800Y827699D01*
X3601800Y875500D02*
G01*
X3601800Y827699D01*
X3601800Y875500D02*
G01*
X3572299Y875500D01*
X3601800Y852699D02*
G01*
X3583599Y852699D01*
X3601800Y827699D02*
G01*
X3572299Y827699D01*
X3557299Y875500D02*
G01*
X3557299Y827699D01*
X3557299Y875500D02*
G01*
X3527700Y875500D01*
X3557299Y852699D02*
G01*
X3539099Y852699D01*
X3681800Y775500D02*
G01*
X3700000Y727699D01*
X3681800Y775500D02*
G01*
X3663599Y727699D01*
X3693199Y743600D02*
G01*
X3670500Y743600D01*
X3621400Y775500D02*
G01*
X3644099Y775500D01*
X3646400Y755000D01*
X3644099Y757300D01*
X3637299Y759499D01*
X3630500Y759499D01*
X3623599Y757300D01*
X3619099Y752699D01*
X3616800Y745900D01*
X3616800Y741399D01*
X3619099Y734499D01*
X3623599Y730000D01*
X3630500Y727699D01*
X3637299Y727699D01*
X3644099Y730000D01*
X3646400Y732300D01*
X3648599Y736799D01*
X3681800Y675500D02*
G01*
X3700000Y627699D01*
X3681800Y675500D02*
G01*
X3663599Y627699D01*
X3693199Y643600D02*
G01*
X3670500Y643600D01*
X3616800Y675500D02*
G01*
X3639499Y627699D01*
X3648599Y675500D02*
G01*
X3616800Y675500D01*
X3681800Y575500D02*
G01*
X3700000Y527699D01*
X3681800Y575500D02*
G01*
X3663599Y527699D01*
X3693199Y543600D02*
G01*
X3670500Y543600D01*
X3619099Y559499D02*
G01*
X3621400Y552699D01*
X3625900Y548200D01*
X3632700Y545900D01*
X3635000Y545900D01*
X3641800Y548200D01*
X3646400Y552699D01*
X3648599Y559499D01*
X3648599Y561799D01*
X3646400Y568600D01*
X3641800Y573200D01*
X3635000Y575500D01*
X3632700Y575500D01*
X3625900Y573200D01*
X3621400Y568600D01*
X3619099Y559499D01*
X3619099Y548200D01*
X3621400Y536799D01*
X3625900Y530000D01*
X3632700Y527699D01*
X3637299Y527699D01*
X3644099Y530000D01*
X3646400Y534499D01*
X3681800Y475500D02*
G01*
X3700000Y427699D01*
X3681800Y475500D02*
G01*
X3663599Y427699D01*
X3693199Y443600D02*
G01*
X3670500Y443600D01*
X3648599Y466399D02*
G01*
X3644099Y468600D01*
X3637299Y475500D01*
X3637299Y427699D01*
X3622299Y466399D02*
G01*
X3617700Y468600D01*
X3610900Y475500D01*
X3610900Y427699D01*
X3677299Y375500D02*
G01*
X3700000Y343600D01*
X3665900Y343600D01*
X3677299Y375500D02*
G01*
X3677299Y327699D01*
X3628199Y375500D02*
G01*
X3650900Y343600D01*
X3616800Y343600D01*
X3628199Y375500D02*
G01*
X3628199Y327699D01*
X3677299Y275500D02*
G01*
X3700000Y243600D01*
X3665900Y243600D01*
X3677299Y275500D02*
G01*
X3677299Y227699D01*
X3648599Y264099D02*
G01*
X3648599Y266399D01*
X3646400Y270900D01*
X3644099Y273200D01*
X3639499Y275500D01*
X3630500Y275500D01*
X3625900Y273200D01*
X3623599Y270900D01*
X3621400Y266399D01*
X3621400Y261799D01*
X3623599Y257300D01*
X3628199Y250500D01*
X3650900Y227699D01*
X3619099Y227699D01*
X3677299Y175500D02*
G01*
X3700000Y143600D01*
X3665900Y143600D01*
X3677299Y175500D02*
G01*
X3677299Y127699D01*
X3637299Y175500D02*
G01*
X3644099Y173200D01*
X3648599Y166399D01*
X3650900Y155000D01*
X3650900Y148200D01*
X3648599Y136799D01*
X3644099Y130000D01*
X3637299Y127699D01*
X3632700Y127699D01*
X3625900Y130000D01*
X3621400Y136799D01*
X3619099Y148200D01*
X3619099Y155000D01*
X3621400Y166399D01*
X3625900Y173200D01*
X3632700Y175500D01*
X3637299Y175500D01*
X3695500Y75500D02*
G01*
X3670500Y75500D01*
X3684099Y57300D01*
X3677299Y57300D01*
X3672700Y55000D01*
X3670500Y52699D01*
X3668199Y45900D01*
X3668199Y41399D01*
X3670500Y34499D01*
X3675000Y30000D01*
X3681800Y27699D01*
X3688599Y27699D01*
X3695500Y30000D01*
X3697700Y32300D01*
X3700000Y36799D01*
X3641800Y75500D02*
G01*
X3648599Y73200D01*
X3650900Y68600D01*
X3650900Y64099D01*
X3648599Y59499D01*
X3644099Y57300D01*
X3635000Y55000D01*
X3628199Y52699D01*
X3623599Y48200D01*
X3621400Y43600D01*
X3621400Y36799D01*
X3623599Y32300D01*
X3625900Y30000D01*
X3632700Y27699D01*
X3641800Y27699D01*
X3648599Y30000D01*
X3650900Y32300D01*
X3653199Y36799D01*
X3653199Y43600D01*
X3650900Y48200D01*
X3646400Y52699D01*
X3639499Y55000D01*
X3630500Y57300D01*
X3625900Y59499D01*
X3623599Y64099D01*
X3623599Y68600D01*
X3625900Y73200D01*
X3632700Y75500D01*
X3641800Y75500D01*
X3695500Y-24499D02*
G01*
X3670500Y-24499D01*
X3684099Y-42699D01*
X3677299Y-42699D01*
X3672700Y-45000D01*
X3670500Y-47300D01*
X3668199Y-54099D01*
X3668199Y-58600D01*
X3670500Y-65500D01*
X3675000Y-70000D01*
X3681800Y-72300D01*
X3688599Y-72300D01*
X3695500Y-70000D01*
X3697700Y-67699D01*
X3700000Y-63200D01*
X3625900Y-31399D02*
G01*
X3628199Y-26799D01*
X3635000Y-24499D01*
X3639499Y-24499D01*
X3646400Y-26799D01*
X3650900Y-33600D01*
X3653199Y-45000D01*
X3653199Y-56399D01*
X3650900Y-65500D01*
X3646400Y-70000D01*
X3639499Y-72300D01*
X3637299Y-72300D01*
X3630500Y-70000D01*
X3625900Y-65500D01*
X3623599Y-58600D01*
X3623599Y-56399D01*
X3625900Y-49499D01*
X3630500Y-45000D01*
X3637299Y-42699D01*
X3639499Y-42699D01*
X3646400Y-45000D01*
X3650900Y-49499D01*
X3653199Y-56399D01*
X3695500Y-124499D02*
G01*
X3670500Y-124499D01*
X3684099Y-142699D01*
X3677299Y-142699D01*
X3672700Y-145000D01*
X3670500Y-147300D01*
X3668199Y-154099D01*
X3668199Y-158600D01*
X3670500Y-165500D01*
X3675000Y-170000D01*
X3681800Y-172300D01*
X3688599Y-172300D01*
X3695500Y-170000D01*
X3697700Y-167699D01*
X3700000Y-163200D01*
X3630500Y-124499D02*
G01*
X3653199Y-156399D01*
X3619099Y-156399D01*
X3630500Y-124499D02*
G01*
X3630500Y-172300D01*
X3695500Y-224499D02*
G01*
X3670500Y-224499D01*
X3684099Y-242699D01*
X3677299Y-242699D01*
X3672700Y-245000D01*
X3670500Y-247300D01*
X3668199Y-254099D01*
X3668199Y-258600D01*
X3670500Y-265500D01*
X3675000Y-270000D01*
X3681800Y-272300D01*
X3688599Y-272300D01*
X3695500Y-270000D01*
X3697700Y-267699D01*
X3700000Y-263200D01*
X3650900Y-235900D02*
G01*
X3650900Y-233600D01*
X3648599Y-229099D01*
X3646400Y-226799D01*
X3641800Y-224499D01*
X3632700Y-224499D01*
X3628199Y-226799D01*
X3625900Y-229099D01*
X3623599Y-233600D01*
X3623599Y-238200D01*
X3625900Y-242699D01*
X3630500Y-249499D01*
X3653199Y-272300D01*
X3621400Y-272300D01*
X3695455Y-324544D02*
G01*
X3670455Y-324544D01*
X3684090Y-342726D01*
X3677272Y-342726D01*
X3672727Y-345000D01*
X3670455Y-347273D01*
X3668181Y-354090D01*
X3668181Y-358636D01*
X3670455Y-365455D01*
X3675000Y-370000D01*
X3681818Y-372273D01*
X3688635Y-372273D01*
X3695455Y-370000D01*
X3697727Y-367726D01*
X3700000Y-363182D01*
X3639544Y-324544D02*
G01*
X3646364Y-326817D01*
X3650909Y-333636D01*
X3653181Y-345000D01*
X3653181Y-351817D01*
X3650909Y-363182D01*
X3646364Y-370000D01*
X3639544Y-372273D01*
X3635000Y-372273D01*
X3628181Y-370000D01*
X3623635Y-363182D01*
X3621364Y-351817D01*
X3621364Y-345000D01*
X3623635Y-333636D01*
X3628181Y-326817D01*
X3635000Y-324544D01*
X3639544Y-324544D01*
X3668199Y-531399D02*
G01*
X3672700Y-526799D01*
X3679499Y-524499D01*
X3688599Y-524499D01*
X3695500Y-526799D01*
X3700000Y-531399D01*
X3700000Y-535900D01*
X3697700Y-540500D01*
X3695500Y-542699D01*
X3690900Y-545000D01*
X3677299Y-549499D01*
X3672700Y-551799D01*
X3670500Y-554099D01*
X3668199Y-558600D01*
X3668199Y-565500D01*
X3672700Y-570000D01*
X3679499Y-572300D01*
X3688599Y-572300D01*
X3695500Y-570000D01*
X3700000Y-565500D01*
X3619099Y-535900D02*
G01*
X3621400Y-531399D01*
X3625900Y-526799D01*
X3630500Y-524499D01*
X3639499Y-524499D01*
X3644099Y-526799D01*
X3648599Y-531399D01*
X3650900Y-535900D01*
X3653199Y-542699D01*
X3653199Y-554099D01*
X3650900Y-560900D01*
X3648599Y-565500D01*
X3644099Y-570000D01*
X3639499Y-572300D01*
X3630500Y-572300D01*
X3625900Y-570000D01*
X3621400Y-565500D01*
X3619099Y-560900D01*
X3604099Y-524499D02*
G01*
X3604099Y-572300D01*
X3572299Y-524499D02*
G01*
X3604099Y-556399D01*
X3592700Y-545000D02*
G01*
X3572299Y-572300D01*
X3700000Y-624499D02*
G01*
X3700000Y-672300D01*
X3700000Y-624499D02*
G01*
X3681800Y-672300D01*
X3663599Y-624499D02*
G01*
X3681800Y-672300D01*
X3663599Y-624499D02*
G01*
X3663599Y-672300D01*
X3635000Y-624499D02*
G01*
X3639499Y-626799D01*
X3644099Y-631399D01*
X3646400Y-635900D01*
X3648599Y-642699D01*
X3648599Y-654099D01*
X3646400Y-660900D01*
X3644099Y-665500D01*
X3639499Y-670000D01*
X3635000Y-672300D01*
X3625900Y-672300D01*
X3621400Y-670000D01*
X3616800Y-665500D01*
X3614499Y-660900D01*
X3612299Y-654099D01*
X3612299Y-642699D01*
X3614499Y-635900D01*
X3616800Y-631399D01*
X3621400Y-626799D01*
X3625900Y-624499D01*
X3635000Y-624499D01*
X3565500Y-631399D02*
G01*
X3570000Y-626799D01*
X3576800Y-624499D01*
X3585900Y-624499D01*
X3592700Y-626799D01*
X3597299Y-631399D01*
X3597299Y-635900D01*
X3595000Y-640500D01*
X3592700Y-642699D01*
X3588199Y-645000D01*
X3574499Y-649499D01*
X3570000Y-651799D01*
X3567700Y-654099D01*
X3565500Y-658600D01*
X3565500Y-665500D01*
X3570000Y-670000D01*
X3576800Y-672300D01*
X3585900Y-672300D01*
X3592700Y-670000D01*
X3597299Y-665500D01*
X3550500Y-624499D02*
G01*
X3550500Y-672300D01*
X3672700Y-924499D02*
G01*
X3695500Y-924499D01*
X3697700Y-945000D01*
X3695500Y-942699D01*
X3688599Y-940500D01*
X3681800Y-940500D01*
X3675000Y-942699D01*
X3670500Y-947300D01*
X3668199Y-954099D01*
X3668199Y-958600D01*
X3670500Y-965500D01*
X3675000Y-970000D01*
X3681800Y-972300D01*
X3688599Y-972300D01*
X3695500Y-970000D01*
X3697700Y-967699D01*
X3700000Y-963200D01*
X3653199Y-924499D02*
G01*
X3635000Y-972300D01*
X3616800Y-924499D02*
G01*
X3635000Y-972300D01*
X3700000Y-733636D02*
G01*
X3695455Y-731363D01*
X3688635Y-724544D01*
X3688635Y-772273D01*
X3644090Y-740455D02*
G01*
X3646364Y-747273D01*
X3650909Y-751817D01*
X3657727Y-754090D01*
X3660000Y-754090D01*
X3666818Y-751817D01*
X3671364Y-747273D01*
X3673635Y-740455D01*
X3673635Y-738182D01*
X3671364Y-731363D01*
X3666818Y-726817D01*
X3660000Y-724544D01*
X3657727Y-724544D01*
X3650909Y-726817D01*
X3646364Y-731363D01*
X3644090Y-740455D01*
X3644090Y-751817D01*
X3646364Y-763182D01*
X3650909Y-770000D01*
X3657727Y-772273D01*
X3662272Y-772273D01*
X3669090Y-770000D01*
X3671364Y-765455D01*
X3588181Y-715455D02*
G01*
X3629090Y-788182D01*
X3573181Y-724544D02*
G01*
X3573181Y-772273D01*
X3573181Y-724544D02*
G01*
X3552727Y-724544D01*
X3545909Y-726817D01*
X3543635Y-729090D01*
X3541364Y-733636D01*
X3541364Y-738182D01*
X3543635Y-742726D01*
X3545909Y-745000D01*
X3552727Y-747273D01*
X3573181Y-747273D01*
X3557272Y-747273D02*
G01*
X3541364Y-772273D01*
X3526364Y-724544D02*
G01*
X3494544Y-772273D01*
X3494544Y-724544D02*
G01*
X3526364Y-772273D01*
X3479544Y-733636D02*
G01*
X3475000Y-731363D01*
X3468181Y-724544D01*
X3468181Y-772273D01*
X3697727Y-835909D02*
G01*
X3697727Y-833636D01*
X3695455Y-829090D01*
X3693181Y-826817D01*
X3688635Y-824544D01*
X3679544Y-824544D01*
X3675000Y-826817D01*
X3672727Y-829090D01*
X3670455Y-833636D01*
X3670455Y-838182D01*
X3672727Y-842726D01*
X3677272Y-849544D01*
X3700000Y-872273D01*
X3668181Y-872273D01*
X3653181Y-833636D02*
G01*
X3648635Y-831363D01*
X3641818Y-824544D01*
X3641818Y-872273D01*
X3585909Y-815455D02*
G01*
X3626818Y-888182D01*
X3539090Y-831363D02*
G01*
X3543635Y-826817D01*
X3550455Y-824544D01*
X3559544Y-824544D01*
X3566364Y-826817D01*
X3570909Y-831363D01*
X3570909Y-835909D01*
X3568635Y-840455D01*
X3566364Y-842726D01*
X3561818Y-845000D01*
X3548181Y-849544D01*
X3543635Y-851817D01*
X3541364Y-854090D01*
X3539090Y-858636D01*
X3539090Y-865455D01*
X3543635Y-870000D01*
X3550455Y-872273D01*
X3559544Y-872273D01*
X3566364Y-870000D01*
X3570909Y-865455D01*
X3490000Y-835909D02*
G01*
X3492272Y-831363D01*
X3496818Y-826817D01*
X3501364Y-824544D01*
X3510455Y-824544D01*
X3515000Y-826817D01*
X3519544Y-831363D01*
X3521818Y-835909D01*
X3524090Y-842726D01*
X3524090Y-854090D01*
X3521818Y-860909D01*
X3519544Y-865455D01*
X3515000Y-870000D01*
X3510455Y-872273D01*
X3501364Y-872273D01*
X3496818Y-870000D01*
X3492272Y-865455D01*
X3490000Y-860909D01*
X3475000Y-824544D02*
G01*
X3475000Y-872273D01*
X3475000Y-872273D02*
G01*
X3447727Y-872273D01*
D27*
X2039499Y-1514600D02*
G01*
X2039499Y-1547300D01*
X2041599Y-1553499D01*
X2043599Y-1555500D01*
X2047700Y-1557500D01*
X2051800Y-1557500D01*
X2055900Y-1555500D01*
X2058000Y-1553499D01*
X2060000Y-1547300D01*
X2060000Y-1543200D01*
X1999499Y-1528899D02*
G01*
X2001499Y-1535000D01*
X2005600Y-1539099D01*
X2011700Y-1541199D01*
X2013800Y-1541199D01*
X2019899Y-1539099D01*
X2023999Y-1535000D01*
X2026000Y-1528899D01*
X2026000Y-1526900D01*
X2023999Y-1520700D01*
X2019899Y-1516599D01*
X2013800Y-1514600D01*
X2011700Y-1514600D01*
X2005600Y-1516599D01*
X2001499Y-1520700D01*
X1999499Y-1528899D01*
X1999499Y-1539099D01*
X2001499Y-1549400D01*
X2005600Y-1555500D01*
X2011700Y-1557500D01*
X2015799Y-1557500D01*
X2021999Y-1555500D01*
X2023999Y-1551399D01*
D34*
X1586800Y-1740999D02*
G01*
X1586800Y-1762500D01*
X1595699Y-1746399D02*
G01*
X1577899Y-1757100D01*
X1577899Y-1746399D02*
G01*
X1595699Y-1757100D01*
D27*
X2869499Y-1504600D02*
G01*
X2869499Y-1537300D01*
X2871599Y-1543499D01*
X2873599Y-1545500D01*
X2877700Y-1547500D01*
X2881800Y-1547500D01*
X2885900Y-1545500D01*
X2888000Y-1543499D01*
X2890000Y-1537300D01*
X2890000Y-1533200D01*
X2856000Y-1512800D02*
G01*
X2851999Y-1510700D01*
X2845799Y-1504600D01*
X2845799Y-1547500D01*
X2820000Y-1504600D02*
G01*
X2826199Y-1506599D01*
X2830299Y-1512800D01*
X2832299Y-1523000D01*
X2832299Y-1529099D01*
X2830299Y-1539400D01*
X2826199Y-1545500D01*
X2820000Y-1547500D01*
X2816000Y-1547500D01*
X2809799Y-1545500D01*
X2805699Y-1539400D01*
X2803699Y-1529099D01*
X2803699Y-1523000D01*
X2805699Y-1512800D01*
X2809799Y-1506599D01*
X2816000Y-1504600D01*
X2820000Y-1504600D01*
D34*
X2396800Y-1730999D02*
G01*
X2396800Y-1752500D01*
X2405699Y-1736399D02*
G01*
X2387899Y-1747100D01*
X2387899Y-1736399D02*
G01*
X2405699Y-1747100D01*
D27*
X1955363Y-839090D02*
G01*
X1953545Y-844544D01*
X1948091Y-848182D01*
X1938999Y-850000D01*
X1933545Y-850000D01*
X1924454Y-848182D01*
X1918999Y-844544D01*
X1917182Y-839090D01*
X1917182Y-835455D01*
X1918999Y-830000D01*
X1924454Y-826363D01*
X1933545Y-824544D01*
X1938999Y-824544D01*
X1948091Y-826363D01*
X1953545Y-830000D01*
X1955363Y-835455D01*
X1955363Y-839090D01*
X1848091Y-850000D02*
G01*
X1849908Y-846363D01*
X1855363Y-840909D01*
X1817182Y-840909D01*
X1746300Y-848200D02*
G01*
X1748100Y-848200D01*
X1751700Y-846399D01*
X1753500Y-844499D01*
X1755399Y-840900D01*
X1755399Y-833600D01*
X1753500Y-830000D01*
X1751700Y-828200D01*
X1748100Y-826399D01*
X1744499Y-826399D01*
X1740799Y-828200D01*
X1735399Y-831799D01*
X1717200Y-850000D01*
X1717200Y-824499D01*
X1650399Y-846399D02*
G01*
X1650399Y-826399D01*
X1635799Y-837300D01*
X1635799Y-831799D01*
X1633999Y-828200D01*
X1632200Y-826399D01*
X1626700Y-824499D01*
X1623100Y-824499D01*
X1617600Y-826399D01*
X1613999Y-830000D01*
X1612200Y-835500D01*
X1612200Y-840900D01*
X1613999Y-846399D01*
X1615799Y-848200D01*
X1619499Y-850000D01*
X1555399Y-831799D02*
G01*
X1529899Y-850000D01*
X1529899Y-822699D01*
X1555399Y-831799D02*
G01*
X1517200Y-831799D01*
X1455399Y-828200D02*
G01*
X1455399Y-846399D01*
X1438999Y-848200D01*
X1440799Y-846399D01*
X1442600Y-840900D01*
X1442600Y-835500D01*
X1440799Y-830000D01*
X1437200Y-826399D01*
X1431700Y-824499D01*
X1428100Y-824499D01*
X1422600Y-826399D01*
X1418999Y-830000D01*
X1417200Y-835500D01*
X1417200Y-840900D01*
X1418999Y-846399D01*
X1420799Y-848200D01*
X1424499Y-850000D01*
X1354899Y-828200D02*
G01*
X1358500Y-830000D01*
X1360399Y-835500D01*
X1360399Y-839099D01*
X1358500Y-844499D01*
X1353100Y-848200D01*
X1343999Y-850000D01*
X1334899Y-850000D01*
X1327600Y-848200D01*
X1323999Y-844499D01*
X1322200Y-839099D01*
X1322200Y-837300D01*
X1323999Y-831799D01*
X1327600Y-828200D01*
X1333100Y-826399D01*
X1334899Y-826399D01*
X1340399Y-828200D01*
X1343999Y-831799D01*
X1345799Y-837300D01*
X1345799Y-839099D01*
X1343999Y-844499D01*
X1340399Y-848200D01*
X1334899Y-850000D01*
X1260399Y-829499D02*
G01*
X1222200Y-847699D01*
X1260399Y-855000D02*
G01*
X1260399Y-829499D01*
X1090399Y-840900D02*
G01*
X1088500Y-846399D01*
X1084899Y-848200D01*
X1081300Y-848200D01*
X1077600Y-846399D01*
X1075799Y-842699D01*
X1073999Y-835500D01*
X1072200Y-830000D01*
X1068500Y-826399D01*
X1064899Y-824499D01*
X1059499Y-824499D01*
X1055799Y-826399D01*
X1053999Y-828200D01*
X1052200Y-833600D01*
X1052200Y-840900D01*
X1053999Y-846399D01*
X1055799Y-848200D01*
X1059499Y-850000D01*
X1064899Y-850000D01*
X1068500Y-848200D01*
X1072200Y-844499D01*
X1073999Y-839099D01*
X1075799Y-831799D01*
X1077600Y-828200D01*
X1081300Y-826399D01*
X1084899Y-826399D01*
X1088500Y-828200D01*
X1090399Y-833600D01*
X1090399Y-840900D01*
X977600Y-826399D02*
G01*
X972200Y-828200D01*
X968500Y-831799D01*
X966700Y-837300D01*
X966700Y-839099D01*
X968500Y-844499D01*
X972200Y-848200D01*
X977600Y-850000D01*
X979499Y-850000D01*
X984899Y-848200D01*
X988500Y-844499D01*
X990399Y-839099D01*
X990399Y-837300D01*
X988500Y-831799D01*
X984899Y-828200D01*
X977600Y-826399D01*
X968500Y-826399D01*
X959499Y-828200D01*
X953999Y-831799D01*
X952200Y-837300D01*
X952200Y-840900D01*
X953999Y-846399D01*
X957600Y-848200D01*
X883100Y-850000D02*
G01*
X884899Y-846399D01*
X890399Y-840900D01*
X852200Y-840900D01*
X890399Y-818000D02*
G01*
X888500Y-823499D01*
X883100Y-827100D01*
X873999Y-828899D01*
X868500Y-828899D01*
X859499Y-827100D01*
X853999Y-823499D01*
X852200Y-818000D01*
X852200Y-814400D01*
X853999Y-808899D01*
X859499Y-805300D01*
X868500Y-803499D01*
X873999Y-803499D01*
X883100Y-805300D01*
X888500Y-808899D01*
X890399Y-814400D01*
X890399Y-818000D01*
X778100Y-850000D02*
G01*
X779899Y-846399D01*
X785399Y-840900D01*
X747199Y-840900D01*
X778100Y-828899D02*
G01*
X779899Y-825300D01*
X785399Y-819800D01*
X747199Y-819800D01*
X678099Y-850000D02*
G01*
X679899Y-846399D01*
X685399Y-840900D01*
X647199Y-840900D01*
X676300Y-827100D02*
G01*
X678099Y-827100D01*
X681700Y-825300D01*
X683499Y-823499D01*
X685399Y-819800D01*
X685399Y-812500D01*
X683499Y-808899D01*
X681700Y-807100D01*
X678099Y-805300D01*
X674499Y-805300D01*
X670799Y-807100D01*
X665399Y-810700D01*
X647199Y-828899D01*
X647199Y-803499D01*
X578099Y-850000D02*
G01*
X579899Y-846399D01*
X585399Y-840900D01*
X547199Y-840900D01*
X585399Y-825300D02*
G01*
X585399Y-805300D01*
X570799Y-816199D01*
X570799Y-810700D01*
X569000Y-807100D01*
X567199Y-805300D01*
X561700Y-803499D01*
X558099Y-803499D01*
X552600Y-805300D01*
X549000Y-808899D01*
X547199Y-814400D01*
X547199Y-819800D01*
X549000Y-825300D01*
X550799Y-827100D01*
X554499Y-828899D01*
X2143091Y-850000D02*
G01*
X2144908Y-846363D01*
X2150363Y-840909D01*
X2112182Y-840909D01*
X2150363Y-810727D02*
G01*
X2124908Y-828908D01*
X2124908Y-801635D01*
X2150363Y-810727D02*
G01*
X2112182Y-810727D01*
X2248091Y-850000D02*
G01*
X2249908Y-846363D01*
X2255363Y-840909D01*
X2217182Y-840909D01*
X2255363Y-807091D02*
G01*
X2255363Y-825273D01*
X2238999Y-827091D01*
X2240817Y-825273D01*
X2242636Y-819818D01*
X2242636Y-814364D01*
X2240817Y-808908D01*
X2237182Y-805273D01*
X2231727Y-803454D01*
X2228091Y-803454D01*
X2222636Y-805273D01*
X2218999Y-808908D01*
X2217182Y-814364D01*
X2217182Y-819818D01*
X2218999Y-825273D01*
X2220817Y-827091D01*
X2224454Y-828908D01*
X2348091Y-850000D02*
G01*
X2349908Y-846363D01*
X2355363Y-840909D01*
X2317182Y-840909D01*
X2349908Y-807091D02*
G01*
X2353545Y-808908D01*
X2355363Y-814364D01*
X2355363Y-818000D01*
X2353545Y-823454D01*
X2348091Y-827091D01*
X2338999Y-828908D01*
X2329908Y-828908D01*
X2322636Y-827091D01*
X2318999Y-823454D01*
X2317182Y-818000D01*
X2317182Y-816181D01*
X2318999Y-810727D01*
X2322636Y-807091D01*
X2328091Y-805273D01*
X2329908Y-805273D01*
X2335363Y-807091D01*
X2338999Y-810727D01*
X2340817Y-816181D01*
X2340817Y-818000D01*
X2338999Y-823454D01*
X2335363Y-827091D01*
X2329908Y-828908D01*
X2448091Y-850000D02*
G01*
X2449908Y-846363D01*
X2455363Y-840909D01*
X2417182Y-840909D01*
X2455363Y-803454D02*
G01*
X2417182Y-821635D01*
X2455363Y-828908D02*
G01*
X2455363Y-803454D01*
X2548091Y-850000D02*
G01*
X2549908Y-846363D01*
X2555363Y-840909D01*
X2517182Y-840909D01*
X2555363Y-819818D02*
G01*
X2553545Y-825273D01*
X2549908Y-827091D01*
X2546273Y-827091D01*
X2542636Y-825273D01*
X2540817Y-821635D01*
X2538999Y-814364D01*
X2537182Y-808908D01*
X2533545Y-805273D01*
X2529908Y-803454D01*
X2524454Y-803454D01*
X2520817Y-805273D01*
X2518999Y-807091D01*
X2517182Y-812545D01*
X2517182Y-819818D01*
X2518999Y-825273D01*
X2520817Y-827091D01*
X2524454Y-828908D01*
X2529908Y-828908D01*
X2533545Y-827091D01*
X2537182Y-823454D01*
X2538999Y-818000D01*
X2540817Y-810727D01*
X2542636Y-807091D01*
X2546273Y-805273D01*
X2549908Y-805273D01*
X2553545Y-807091D01*
X2555363Y-812545D01*
X2555363Y-819818D01*
X2643091Y-850000D02*
G01*
X2644908Y-846363D01*
X2650363Y-840909D01*
X2612182Y-840909D01*
X2637636Y-805273D02*
G01*
X2632182Y-807091D01*
X2628545Y-810727D01*
X2626727Y-816181D01*
X2626727Y-818000D01*
X2628545Y-823454D01*
X2632182Y-827091D01*
X2637636Y-828908D01*
X2639454Y-828908D01*
X2644908Y-827091D01*
X2648545Y-823454D01*
X2650363Y-818000D01*
X2650363Y-816181D01*
X2648545Y-810727D01*
X2644908Y-807091D01*
X2637636Y-805273D01*
X2628545Y-805273D01*
X2619454Y-807091D01*
X2613999Y-810727D01*
X2612182Y-816181D01*
X2612182Y-819818D01*
X2613999Y-825273D01*
X2617636Y-827091D01*
X2741273Y-848182D02*
G01*
X2743091Y-848182D01*
X2746727Y-846363D01*
X2748545Y-844544D01*
X2750363Y-840909D01*
X2750363Y-833636D01*
X2748545Y-830000D01*
X2746727Y-828182D01*
X2743091Y-826363D01*
X2739454Y-826363D01*
X2735817Y-828182D01*
X2730363Y-831817D01*
X2712182Y-850000D01*
X2712182Y-824544D01*
X2750363Y-801635D02*
G01*
X2748545Y-807091D01*
X2743091Y-810727D01*
X2733999Y-812545D01*
X2728545Y-812545D01*
X2719454Y-810727D01*
X2713999Y-807091D01*
X2712182Y-801635D01*
X2712182Y-798000D01*
X2713999Y-792545D01*
X2719454Y-788908D01*
X2728545Y-787091D01*
X2733999Y-787091D01*
X2743091Y-788908D01*
X2748545Y-792545D01*
X2750363Y-798000D01*
X2750363Y-801635D01*
X2841273Y-848182D02*
G01*
X2843091Y-848182D01*
X2846727Y-846363D01*
X2848545Y-844544D01*
X2850363Y-840909D01*
X2850363Y-833636D01*
X2848545Y-830000D01*
X2846727Y-828182D01*
X2843091Y-826363D01*
X2839454Y-826363D01*
X2835817Y-828182D01*
X2830363Y-831817D01*
X2812182Y-850000D01*
X2812182Y-824544D01*
X2843091Y-812545D02*
G01*
X2844908Y-808908D01*
X2850363Y-803454D01*
X2812182Y-803454D01*
X2961800Y-851300D02*
G01*
X2961800Y-853099D01*
X2963599Y-856700D01*
X2965500Y-858499D01*
X2969099Y-860399D01*
X2976400Y-860399D01*
X2980000Y-858499D01*
X2981800Y-856700D01*
X2983599Y-853099D01*
X2983599Y-849499D01*
X2981800Y-845799D01*
X2978199Y-840399D01*
X2960000Y-822199D01*
X2985500Y-822199D01*
X2999300Y-851300D02*
G01*
X2999300Y-853099D01*
X3001099Y-856700D01*
X3002899Y-858499D01*
X3006499Y-860399D01*
X3013800Y-860399D01*
X3017500Y-858499D01*
X3019300Y-856700D01*
X3021099Y-853099D01*
X3021099Y-849499D01*
X3019300Y-845799D01*
X3015600Y-840399D01*
X2997500Y-822199D01*
X3022899Y-822199D01*
X2961800Y-751300D02*
G01*
X2961800Y-753099D01*
X2963599Y-756700D01*
X2965500Y-758499D01*
X2969099Y-760399D01*
X2976400Y-760399D01*
X2980000Y-758499D01*
X2981800Y-756700D01*
X2983599Y-753099D01*
X2983599Y-749499D01*
X2981800Y-745799D01*
X2978199Y-740399D01*
X2960000Y-722199D01*
X2985500Y-722199D01*
X3015600Y-760399D02*
G01*
X2997500Y-734899D01*
X3024700Y-734899D01*
X3015600Y-760399D02*
G01*
X3015600Y-722199D01*
X2961800Y-651300D02*
G01*
X2961800Y-653099D01*
X2963599Y-656700D01*
X2965500Y-658499D01*
X2969099Y-660399D01*
X2976400Y-660399D01*
X2980000Y-658499D01*
X2981800Y-656700D01*
X2983599Y-653099D01*
X2983599Y-649499D01*
X2981800Y-645799D01*
X2978199Y-640399D01*
X2960000Y-622199D01*
X2985500Y-622199D01*
X3019300Y-654899D02*
G01*
X3017500Y-658499D01*
X3011999Y-660399D01*
X3008400Y-660399D01*
X3002899Y-658499D01*
X2999300Y-653099D01*
X2997500Y-644000D01*
X2997500Y-634899D01*
X2999300Y-627600D01*
X3002899Y-624000D01*
X3008400Y-622199D01*
X3010200Y-622199D01*
X3015600Y-624000D01*
X3019300Y-627600D01*
X3021099Y-633099D01*
X3021099Y-634899D01*
X3019300Y-640399D01*
X3015600Y-644000D01*
X3010200Y-645799D01*
X3008400Y-645799D01*
X3002899Y-644000D01*
X2999300Y-640399D01*
X2997500Y-634899D01*
X2961800Y-551300D02*
G01*
X2961800Y-553099D01*
X2963599Y-556700D01*
X2965500Y-558499D01*
X2969099Y-560399D01*
X2976400Y-560399D01*
X2980000Y-558499D01*
X2981800Y-556700D01*
X2983599Y-553099D01*
X2983599Y-549499D01*
X2981800Y-545799D01*
X2978199Y-540399D01*
X2960000Y-522199D01*
X2985500Y-522199D01*
X3006499Y-560399D02*
G01*
X3001099Y-558499D01*
X2999300Y-554899D01*
X2999300Y-551300D01*
X3001099Y-547600D01*
X3004700Y-545799D01*
X3011999Y-544000D01*
X3017500Y-542199D01*
X3021099Y-538499D01*
X3022899Y-534899D01*
X3022899Y-529499D01*
X3021099Y-525799D01*
X3019300Y-524000D01*
X3013800Y-522199D01*
X3006499Y-522199D01*
X3001099Y-524000D01*
X2999300Y-525799D01*
X2997500Y-529499D01*
X2997500Y-534899D01*
X2999300Y-538499D01*
X3002899Y-542199D01*
X3008400Y-544000D01*
X3015600Y-545799D01*
X3019300Y-547600D01*
X3021099Y-551300D01*
X3021099Y-554899D01*
X3019300Y-558499D01*
X3013800Y-560399D01*
X3006499Y-560399D01*
X2963599Y-460399D02*
G01*
X2983599Y-460399D01*
X2972700Y-445799D01*
X2978199Y-445799D01*
X2981800Y-444000D01*
X2983599Y-442199D01*
X2985500Y-436700D01*
X2985500Y-433099D01*
X2983599Y-427600D01*
X2980000Y-424000D01*
X2974499Y-422199D01*
X2969099Y-422199D01*
X2963599Y-424000D01*
X2961800Y-425799D01*
X2960000Y-429499D01*
X3008400Y-460399D02*
G01*
X3002899Y-458499D01*
X2999300Y-453099D01*
X2997500Y-444000D01*
X2997500Y-438499D01*
X2999300Y-429499D01*
X3002899Y-424000D01*
X3008400Y-422199D01*
X3011999Y-422199D01*
X3017500Y-424000D01*
X3021099Y-429499D01*
X3022899Y-438499D01*
X3022899Y-444000D01*
X3021099Y-453099D01*
X3017500Y-458499D01*
X3011999Y-460399D01*
X3008400Y-460399D01*
X2963599Y-360399D02*
G01*
X2983599Y-360399D01*
X2972700Y-345799D01*
X2978199Y-345799D01*
X2981800Y-344000D01*
X2983599Y-342199D01*
X2985500Y-336700D01*
X2985500Y-333099D01*
X2983599Y-327600D01*
X2980000Y-324000D01*
X2974499Y-322199D01*
X2969099Y-322199D01*
X2963599Y-324000D01*
X2961800Y-325799D01*
X2960000Y-329499D01*
X2999300Y-351300D02*
G01*
X2999300Y-353099D01*
X3001099Y-356700D01*
X3002899Y-358499D01*
X3006499Y-360399D01*
X3013800Y-360399D01*
X3017500Y-358499D01*
X3019300Y-356700D01*
X3021099Y-353099D01*
X3021099Y-349499D01*
X3019300Y-345799D01*
X3015600Y-340399D01*
X2997500Y-322199D01*
X3022899Y-322199D01*
X2963599Y-260399D02*
G01*
X2983599Y-260399D01*
X2972700Y-245799D01*
X2978199Y-245799D01*
X2981800Y-244000D01*
X2983599Y-242199D01*
X2985500Y-236700D01*
X2985500Y-233099D01*
X2983599Y-227600D01*
X2980000Y-224000D01*
X2974499Y-222199D01*
X2969099Y-222199D01*
X2963599Y-224000D01*
X2961800Y-225799D01*
X2960000Y-229499D01*
X3015600Y-260399D02*
G01*
X2997500Y-234899D01*
X3024700Y-234899D01*
X3015600Y-260399D02*
G01*
X3015600Y-222199D01*
X2963599Y-160399D02*
G01*
X2983599Y-160399D01*
X2972700Y-145799D01*
X2978199Y-145799D01*
X2981800Y-144000D01*
X2983599Y-142199D01*
X2985500Y-136700D01*
X2985500Y-133099D01*
X2983599Y-127600D01*
X2980000Y-124000D01*
X2974499Y-122199D01*
X2969099Y-122199D01*
X2963599Y-124000D01*
X2961800Y-125799D01*
X2960000Y-129499D01*
X3019300Y-154899D02*
G01*
X3017500Y-158499D01*
X3011999Y-160399D01*
X3008400Y-160399D01*
X3002899Y-158499D01*
X2999300Y-153099D01*
X2997500Y-144000D01*
X2997500Y-134899D01*
X2999300Y-127600D01*
X3002899Y-124000D01*
X3008400Y-122199D01*
X3010200Y-122199D01*
X3015600Y-124000D01*
X3019300Y-127600D01*
X3021099Y-133099D01*
X3021099Y-134899D01*
X3019300Y-140399D01*
X3015600Y-144000D01*
X3010200Y-145799D01*
X3008400Y-145799D01*
X3002899Y-144000D01*
X2999300Y-140399D01*
X2997500Y-134899D01*
X2963599Y-60399D02*
G01*
X2983599Y-60399D01*
X2972700Y-45799D01*
X2978199Y-45799D01*
X2981800Y-44000D01*
X2983599Y-42199D01*
X2985500Y-36700D01*
X2985500Y-33099D01*
X2983599Y-27600D01*
X2980000Y-24000D01*
X2974499Y-22199D01*
X2969099Y-22199D01*
X2963599Y-24000D01*
X2961800Y-25799D01*
X2960000Y-29499D01*
X3006499Y-60399D02*
G01*
X3001099Y-58499D01*
X2999300Y-54899D01*
X2999300Y-51300D01*
X3001099Y-47600D01*
X3004700Y-45799D01*
X3011999Y-44000D01*
X3017500Y-42199D01*
X3021099Y-38499D01*
X3022899Y-34899D01*
X3022899Y-29499D01*
X3021099Y-25799D01*
X3019300Y-24000D01*
X3013800Y-22199D01*
X3006499Y-22199D01*
X3001099Y-24000D01*
X2999300Y-25799D01*
X2997500Y-29499D01*
X2997500Y-34899D01*
X2999300Y-38499D01*
X3002899Y-42199D01*
X3008400Y-44000D01*
X3015600Y-45799D01*
X3019300Y-47600D01*
X3021099Y-51300D01*
X3021099Y-54899D01*
X3019300Y-58499D01*
X3013800Y-60399D01*
X3006499Y-60399D01*
X2978199Y39600D02*
G01*
X2960000Y65100D01*
X2987299Y65100D01*
X2978199Y39600D02*
G01*
X2978199Y77800D01*
X3010200Y39600D02*
G01*
X3004700Y41500D01*
X3001099Y46900D01*
X2999300Y55999D01*
X2999300Y61500D01*
X3001099Y70500D01*
X3004700Y75999D01*
X3010200Y77800D01*
X3013800Y77800D01*
X3019300Y75999D01*
X3022899Y70500D01*
X3024700Y61500D01*
X3024700Y55999D01*
X3022899Y46900D01*
X3019300Y41500D01*
X3013800Y39600D01*
X3010200Y39600D01*
X2978199Y139600D02*
G01*
X2960000Y165100D01*
X2987299Y165100D01*
X2978199Y139600D02*
G01*
X2978199Y177800D01*
X3001099Y148699D02*
G01*
X3001099Y146900D01*
X3002899Y143299D01*
X3004700Y141500D01*
X3008400Y139600D01*
X3015600Y139600D01*
X3019300Y141500D01*
X3021099Y143299D01*
X3022899Y146900D01*
X3022899Y150500D01*
X3021099Y154200D01*
X3017500Y159600D01*
X2999300Y177800D01*
X3024700Y177800D01*
X2978199Y239600D02*
G01*
X2960000Y265100D01*
X2987299Y265100D01*
X2978199Y239600D02*
G01*
X2978199Y277800D01*
X3017500Y239600D02*
G01*
X2999300Y265100D01*
X3026499Y265100D01*
X3017500Y239600D02*
G01*
X3017500Y277800D01*
X2978199Y339600D02*
G01*
X2960000Y365100D01*
X2987299Y365100D01*
X2978199Y339600D02*
G01*
X2978199Y377800D01*
X3021099Y345100D02*
G01*
X3019300Y341500D01*
X3013800Y339600D01*
X3010200Y339600D01*
X3004700Y341500D01*
X3001099Y346900D01*
X2999300Y355999D01*
X2999300Y365100D01*
X3001099Y372399D01*
X3004700Y375999D01*
X3010200Y377800D01*
X3011999Y377800D01*
X3017500Y375999D01*
X3021099Y372399D01*
X3022899Y366900D01*
X3022899Y365100D01*
X3021099Y359600D01*
X3017500Y355999D01*
X3011999Y354200D01*
X3010200Y354200D01*
X3004700Y355999D01*
X3001099Y359600D01*
X2999300Y365100D01*
X2981800Y539600D02*
G01*
X2963599Y539600D01*
X2961800Y555999D01*
X2963599Y554200D01*
X2969099Y552399D01*
X2974499Y552399D01*
X2980000Y554200D01*
X2983599Y557800D01*
X2985500Y563299D01*
X2985500Y566900D01*
X2983599Y572399D01*
X2980000Y575999D01*
X2974499Y577800D01*
X2969099Y577800D01*
X2963599Y575999D01*
X2961800Y574200D01*
X2960000Y570500D01*
X3008400Y539600D02*
G01*
X3002899Y541500D01*
X2999300Y546900D01*
X2997500Y555999D01*
X2997500Y561500D01*
X2999300Y570500D01*
X3002899Y575999D01*
X3008400Y577800D01*
X3011999Y577800D01*
X3017500Y575999D01*
X3021099Y570500D01*
X3022899Y561500D01*
X3022899Y555999D01*
X3021099Y546900D01*
X3017500Y541500D01*
X3011999Y539600D01*
X3008400Y539600D01*
X2978199Y439600D02*
G01*
X2960000Y465100D01*
X2987299Y465100D01*
X2978199Y439600D02*
G01*
X2978199Y477800D01*
X3008400Y439600D02*
G01*
X3002899Y441500D01*
X3001099Y445100D01*
X3001099Y448699D01*
X3002899Y452399D01*
X3006499Y454200D01*
X3013800Y455999D01*
X3019300Y457800D01*
X3022899Y461500D01*
X3024700Y465100D01*
X3024700Y470500D01*
X3022899Y474200D01*
X3021099Y475999D01*
X3015600Y477800D01*
X3008400Y477800D01*
X3002899Y475999D01*
X3001099Y474200D01*
X2999300Y470500D01*
X2999300Y465100D01*
X3001099Y461500D01*
X3004700Y457800D01*
X3010200Y455999D01*
X3017500Y454200D01*
X3021099Y452399D01*
X3022899Y448699D01*
X3022899Y445100D01*
X3021099Y441500D01*
X3015600Y439600D01*
X3008400Y439600D01*
X2981800Y639600D02*
G01*
X2963599Y639600D01*
X2961800Y655999D01*
X2963599Y654200D01*
X2969099Y652399D01*
X2974499Y652399D01*
X2980000Y654200D01*
X2983599Y657800D01*
X2985500Y663299D01*
X2985500Y666900D01*
X2983599Y672399D01*
X2980000Y675999D01*
X2974499Y677800D01*
X2969099Y677800D01*
X2963599Y675999D01*
X2961800Y674200D01*
X2960000Y670500D01*
X2999300Y648699D02*
G01*
X2999300Y646900D01*
X3001099Y643299D01*
X3002899Y641500D01*
X3006499Y639600D01*
X3013800Y639600D01*
X3017500Y641500D01*
X3019300Y643299D01*
X3021099Y646900D01*
X3021099Y650500D01*
X3019300Y654200D01*
X3015600Y659600D01*
X2997500Y677800D01*
X3022899Y677800D01*
X3353599Y-460399D02*
G01*
X3373599Y-460399D01*
X3362700Y-445799D01*
X3368199Y-445799D01*
X3371800Y-444000D01*
X3373599Y-442199D01*
X3375500Y-436700D01*
X3375500Y-433099D01*
X3373599Y-427600D01*
X3370000Y-424000D01*
X3364499Y-422199D01*
X3359099Y-422199D01*
X3353599Y-424000D01*
X3351800Y-425799D01*
X3350000Y-429499D01*
X3387500Y-453099D02*
G01*
X3391099Y-454899D01*
X3396499Y-460399D01*
X3396499Y-422199D01*
X3353599Y-360399D02*
G01*
X3373599Y-360399D01*
X3362700Y-345799D01*
X3368199Y-345799D01*
X3371800Y-344000D01*
X3373599Y-342199D01*
X3375500Y-336700D01*
X3375500Y-333099D01*
X3373599Y-327600D01*
X3370000Y-324000D01*
X3364499Y-322199D01*
X3359099Y-322199D01*
X3353599Y-324000D01*
X3351800Y-325799D01*
X3350000Y-329499D01*
X3391099Y-360399D02*
G01*
X3411099Y-360399D01*
X3400200Y-345799D01*
X3405600Y-345799D01*
X3409300Y-344000D01*
X3411099Y-342199D01*
X3412899Y-336700D01*
X3412899Y-333099D01*
X3411099Y-327600D01*
X3407500Y-324000D01*
X3401999Y-322199D01*
X3396499Y-322199D01*
X3391099Y-324000D01*
X3389300Y-325799D01*
X3387500Y-329499D01*
X3353599Y-260399D02*
G01*
X3373599Y-260399D01*
X3362700Y-245799D01*
X3368199Y-245799D01*
X3371800Y-244000D01*
X3373599Y-242199D01*
X3375500Y-236700D01*
X3375500Y-233099D01*
X3373599Y-227600D01*
X3370000Y-224000D01*
X3364499Y-222199D01*
X3359099Y-222199D01*
X3353599Y-224000D01*
X3351800Y-225799D01*
X3350000Y-229499D01*
X3409300Y-260399D02*
G01*
X3391099Y-260399D01*
X3389300Y-244000D01*
X3391099Y-245799D01*
X3396499Y-247600D01*
X3401999Y-247600D01*
X3407500Y-245799D01*
X3411099Y-242199D01*
X3412899Y-236700D01*
X3412899Y-233099D01*
X3411099Y-227600D01*
X3407500Y-224000D01*
X3401999Y-222199D01*
X3396499Y-222199D01*
X3391099Y-224000D01*
X3389300Y-225799D01*
X3387500Y-229499D01*
X3353599Y-160399D02*
G01*
X3373599Y-160399D01*
X3362700Y-145799D01*
X3368199Y-145799D01*
X3371800Y-144000D01*
X3373599Y-142199D01*
X3375500Y-136700D01*
X3375500Y-133099D01*
X3373599Y-127600D01*
X3370000Y-124000D01*
X3364499Y-122199D01*
X3359099Y-122199D01*
X3353599Y-124000D01*
X3351800Y-125799D01*
X3350000Y-129499D01*
X3412899Y-160399D02*
G01*
X3394700Y-122199D01*
X3387500Y-160399D02*
G01*
X3412899Y-160399D01*
X3353599Y-60399D02*
G01*
X3373599Y-60399D01*
X3362700Y-45799D01*
X3368199Y-45799D01*
X3371800Y-44000D01*
X3373599Y-42199D01*
X3375500Y-36700D01*
X3375500Y-33099D01*
X3373599Y-27600D01*
X3370000Y-24000D01*
X3364499Y-22199D01*
X3359099Y-22199D01*
X3353599Y-24000D01*
X3351800Y-25799D01*
X3350000Y-29499D01*
X3411099Y-47600D02*
G01*
X3409300Y-42199D01*
X3405600Y-38499D01*
X3400200Y-36700D01*
X3398400Y-36700D01*
X3392899Y-38499D01*
X3389300Y-42199D01*
X3387500Y-47600D01*
X3387500Y-49499D01*
X3389300Y-54899D01*
X3392899Y-58499D01*
X3398400Y-60399D01*
X3400200Y-60399D01*
X3405600Y-58499D01*
X3409300Y-54899D01*
X3411099Y-47600D01*
X3411099Y-38499D01*
X3409300Y-29499D01*
X3405600Y-24000D01*
X3400200Y-22199D01*
X3396499Y-22199D01*
X3391099Y-24000D01*
X3389300Y-27600D01*
X3368199Y39600D02*
G01*
X3350000Y65100D01*
X3377299Y65100D01*
X3368199Y39600D02*
G01*
X3368199Y77800D01*
X3389300Y46900D02*
G01*
X3392899Y45100D01*
X3398400Y39600D01*
X3398400Y77800D01*
X3368199Y139600D02*
G01*
X3350000Y165100D01*
X3377299Y165100D01*
X3368199Y139600D02*
G01*
X3368199Y177800D01*
X3392899Y139600D02*
G01*
X3412899Y139600D01*
X3401999Y154200D01*
X3407500Y154200D01*
X3411099Y155999D01*
X3412899Y157800D01*
X3414700Y163299D01*
X3414700Y166900D01*
X3412899Y172399D01*
X3409300Y175999D01*
X3403800Y177800D01*
X3398400Y177800D01*
X3392899Y175999D01*
X3391099Y174200D01*
X3389300Y170500D01*
X3368199Y239600D02*
G01*
X3350000Y265100D01*
X3377299Y265100D01*
X3368199Y239600D02*
G01*
X3368199Y277800D01*
X3411099Y239600D02*
G01*
X3392899Y239600D01*
X3391099Y255999D01*
X3392899Y254200D01*
X3398400Y252399D01*
X3403800Y252399D01*
X3409300Y254200D01*
X3412899Y257800D01*
X3414700Y263299D01*
X3414700Y266900D01*
X3412899Y272399D01*
X3409300Y275999D01*
X3403800Y277800D01*
X3398400Y277800D01*
X3392899Y275999D01*
X3391099Y274200D01*
X3389300Y270500D01*
X3368199Y339600D02*
G01*
X3350000Y365100D01*
X3377299Y365100D01*
X3368199Y339600D02*
G01*
X3368199Y377800D01*
X3414700Y339600D02*
G01*
X3396499Y377800D01*
X3389300Y339600D02*
G01*
X3414700Y339600D01*
X3368199Y439600D02*
G01*
X3350000Y465100D01*
X3377299Y465100D01*
X3368199Y439600D02*
G01*
X3368199Y477800D01*
X3412899Y452399D02*
G01*
X3411099Y457800D01*
X3407500Y461500D01*
X3401999Y463299D01*
X3400200Y463299D01*
X3394700Y461500D01*
X3391099Y457800D01*
X3389300Y452399D01*
X3389300Y450500D01*
X3391099Y445100D01*
X3394700Y441500D01*
X3400200Y439600D01*
X3401999Y439600D01*
X3407500Y441500D01*
X3411099Y445100D01*
X3412899Y452399D01*
X3412899Y461500D01*
X3411099Y470500D01*
X3407500Y475999D01*
X3401999Y477800D01*
X3398400Y477800D01*
X3392899Y475999D01*
X3391099Y472399D01*
X3371800Y539600D02*
G01*
X3353599Y539600D01*
X3351800Y555999D01*
X3353599Y554200D01*
X3359099Y552399D01*
X3364499Y552399D01*
X3370000Y554200D01*
X3373599Y557800D01*
X3375500Y563299D01*
X3375500Y566900D01*
X3373599Y572399D01*
X3370000Y575999D01*
X3364499Y577800D01*
X3359099Y577800D01*
X3353599Y575999D01*
X3351800Y574200D01*
X3350000Y570500D01*
X3387500Y546900D02*
G01*
X3391099Y545100D01*
X3396499Y539600D01*
X3396499Y577800D01*
X3371800Y639600D02*
G01*
X3353599Y639600D01*
X3351800Y655999D01*
X3353599Y654200D01*
X3359099Y652399D01*
X3364499Y652399D01*
X3370000Y654200D01*
X3373599Y657800D01*
X3375500Y663299D01*
X3375500Y666900D01*
X3373599Y672399D01*
X3370000Y675999D01*
X3364499Y677800D01*
X3359099Y677800D01*
X3353599Y675999D01*
X3351800Y674200D01*
X3350000Y670500D01*
X3391099Y639600D02*
G01*
X3411099Y639600D01*
X3400200Y654200D01*
X3405600Y654200D01*
X3409300Y655999D01*
X3411099Y657800D01*
X3412899Y663299D01*
X3412899Y666900D01*
X3411099Y672399D01*
X3407500Y675999D01*
X3401999Y677800D01*
X3396499Y677800D01*
X3391099Y675999D01*
X3389300Y674200D01*
X3387500Y670500D01*
X1429600Y835500D02*
G01*
X1467799Y850000D01*
X1429600Y835500D02*
G01*
X1467799Y820900D01*
X1455100Y844499D02*
G01*
X1455100Y826399D01*
X1429600Y798000D02*
G01*
X1431499Y803499D01*
X1436899Y807100D01*
X1446000Y808899D01*
X1451499Y808899D01*
X1460500Y807100D01*
X1466000Y803499D01*
X1467799Y798000D01*
X1467799Y794400D01*
X1466000Y788899D01*
X1460500Y785300D01*
X1451499Y783499D01*
X1446000Y783499D01*
X1436899Y785300D01*
X1431499Y788899D01*
X1429600Y794400D01*
X1429600Y798000D01*
X1519600Y835500D02*
G01*
X1557799Y850000D01*
X1519600Y835500D02*
G01*
X1557799Y820900D01*
X1545100Y844499D02*
G01*
X1545100Y826399D01*
X1526899Y808899D02*
G01*
X1525100Y805300D01*
X1519600Y799800D01*
X1557799Y799800D01*
X1629600Y835500D02*
G01*
X1667799Y850000D01*
X1629600Y835500D02*
G01*
X1667799Y820900D01*
X1655100Y844499D02*
G01*
X1655100Y826399D01*
X1638699Y807100D02*
G01*
X1636899Y807100D01*
X1633299Y805300D01*
X1631499Y803499D01*
X1629600Y799800D01*
X1629600Y792500D01*
X1631499Y788899D01*
X1633299Y787100D01*
X1636899Y785300D01*
X1640500Y785300D01*
X1644200Y787100D01*
X1649600Y790700D01*
X1667799Y808899D01*
X1667799Y783499D01*
X1729600Y835500D02*
G01*
X1767799Y850000D01*
X1729600Y835500D02*
G01*
X1767799Y820900D01*
X1755100Y844499D02*
G01*
X1755100Y826399D01*
X1729600Y805300D02*
G01*
X1729600Y785300D01*
X1744200Y796199D01*
X1744200Y790700D01*
X1746000Y787100D01*
X1747799Y785300D01*
X1753299Y783499D01*
X1756899Y783499D01*
X1762399Y785300D01*
X1766000Y788899D01*
X1767799Y794400D01*
X1767799Y799800D01*
X1766000Y805300D01*
X1764200Y807100D01*
X1760500Y808899D01*
X1829600Y835500D02*
G01*
X1867799Y850000D01*
X1829600Y835500D02*
G01*
X1867799Y820900D01*
X1855100Y844499D02*
G01*
X1855100Y826399D01*
X1829600Y790700D02*
G01*
X1855100Y808899D01*
X1855100Y781599D01*
X1829600Y790700D02*
G01*
X1867799Y790700D01*
X1924600Y835500D02*
G01*
X1962799Y850000D01*
X1924600Y835500D02*
G01*
X1962799Y820900D01*
X1950100Y844499D02*
G01*
X1950100Y826399D01*
X1924600Y787100D02*
G01*
X1924600Y805300D01*
X1941000Y807100D01*
X1939200Y805300D01*
X1937399Y799800D01*
X1937399Y794400D01*
X1939200Y788899D01*
X1942799Y785300D01*
X1948299Y783499D01*
X1951899Y783499D01*
X1957399Y785300D01*
X1961000Y788899D01*
X1962799Y794400D01*
X1962799Y799800D01*
X1961000Y805300D01*
X1959200Y807100D01*
X1955500Y808899D01*
X2024600Y835500D02*
G01*
X2062799Y850000D01*
X2024600Y835500D02*
G01*
X2062799Y820900D01*
X2050100Y844499D02*
G01*
X2050100Y826399D01*
X2030100Y787100D02*
G01*
X2026499Y788899D01*
X2024600Y794400D01*
X2024600Y798000D01*
X2026499Y803499D01*
X2031899Y807100D01*
X2041000Y808899D01*
X2050100Y808899D01*
X2057399Y807100D01*
X2061000Y803499D01*
X2062799Y798000D01*
X2062799Y796199D01*
X2061000Y790700D01*
X2057399Y787100D01*
X2051899Y785300D01*
X2050100Y785300D01*
X2044600Y787100D01*
X2041000Y790700D01*
X2039200Y796199D01*
X2039200Y798000D01*
X2041000Y803499D01*
X2044600Y807100D01*
X2050100Y808899D01*
X2129600Y835500D02*
G01*
X2167799Y850000D01*
X2129600Y835500D02*
G01*
X2167799Y820900D01*
X2155100Y844499D02*
G01*
X2155100Y826399D01*
X2129600Y783499D02*
G01*
X2167799Y801599D01*
X2129600Y808899D02*
G01*
X2129600Y783499D01*
X2329600Y835500D02*
G01*
X2367799Y850000D01*
X2329600Y835500D02*
G01*
X2367799Y820900D01*
X2355100Y844499D02*
G01*
X2355100Y826399D01*
X2329600Y799800D02*
G01*
X2331499Y805300D01*
X2335100Y807100D01*
X2338699Y807100D01*
X2342399Y805300D01*
X2344200Y801599D01*
X2346000Y794400D01*
X2347799Y788899D01*
X2351499Y785300D01*
X2355100Y783499D01*
X2360500Y783499D01*
X2364200Y785300D01*
X2366000Y787100D01*
X2367799Y792500D01*
X2367799Y799800D01*
X2366000Y805300D01*
X2364200Y807100D01*
X2360500Y808899D01*
X2355100Y808899D01*
X2351499Y807100D01*
X2347799Y803499D01*
X2346000Y798000D01*
X2344200Y790700D01*
X2342399Y787100D01*
X2338699Y785300D01*
X2335100Y785300D01*
X2331499Y787100D01*
X2329600Y792500D01*
X2329600Y799800D01*
X2429600Y835500D02*
G01*
X2467799Y850000D01*
X2429600Y835500D02*
G01*
X2467799Y820900D01*
X2455100Y844499D02*
G01*
X2455100Y826399D01*
X2442399Y785300D02*
G01*
X2447799Y787100D01*
X2451499Y790700D01*
X2453299Y796199D01*
X2453299Y798000D01*
X2451499Y803499D01*
X2447799Y807100D01*
X2442399Y808899D01*
X2440500Y808899D01*
X2435100Y807100D01*
X2431499Y803499D01*
X2429600Y798000D01*
X2429600Y796199D01*
X2431499Y790700D01*
X2435100Y787100D01*
X2442399Y785300D01*
X2451499Y785300D01*
X2460500Y787100D01*
X2466000Y790700D01*
X2467799Y796199D01*
X2467799Y799800D01*
X2466000Y805300D01*
X2462399Y807100D01*
X2529600Y835500D02*
G01*
X2567799Y850000D01*
X2529600Y835500D02*
G01*
X2567799Y820900D01*
X2555100Y844499D02*
G01*
X2555100Y826399D01*
X2536899Y808899D02*
G01*
X2535100Y805300D01*
X2529600Y799800D01*
X2567799Y799800D01*
X2529600Y776900D02*
G01*
X2531499Y782399D01*
X2536899Y785999D01*
X2546000Y787800D01*
X2551499Y787800D01*
X2560500Y785999D01*
X2566000Y782399D01*
X2567799Y776900D01*
X2567799Y773299D01*
X2566000Y767800D01*
X2560500Y764200D01*
X2551499Y762399D01*
X2546000Y762399D01*
X2536899Y764200D01*
X2531499Y767800D01*
X2529600Y773299D01*
X2529600Y776900D01*
X2629600Y835500D02*
G01*
X2667799Y850000D01*
X2629600Y835500D02*
G01*
X2667799Y820900D01*
X2655100Y844499D02*
G01*
X2655100Y826399D01*
X2636899Y808899D02*
G01*
X2635100Y805300D01*
X2629600Y799800D01*
X2667799Y799800D01*
X2636899Y787800D02*
G01*
X2635100Y784200D01*
X2629600Y778699D01*
X2667799Y778699D01*
X2729600Y850000D02*
G01*
X2767799Y850000D01*
X2729600Y850000D02*
G01*
X2729600Y837300D01*
X2731499Y831799D01*
X2735100Y828200D01*
X2738699Y826399D01*
X2744200Y824499D01*
X2753299Y824499D01*
X2758699Y826399D01*
X2762399Y828200D01*
X2766000Y831799D01*
X2767799Y837300D01*
X2767799Y850000D01*
X2729600Y798000D02*
G01*
X2767799Y812500D01*
X2729600Y798000D02*
G01*
X2767799Y783499D01*
X2755100Y807100D02*
G01*
X2755100Y788899D01*
X2738699Y744200D02*
G01*
X2735100Y745999D01*
X2731499Y749600D01*
X2729600Y753299D01*
X2729600Y760500D01*
X2731499Y764200D01*
X2735100Y767800D01*
X2738699Y769600D01*
X2744200Y771500D01*
X2753299Y771500D01*
X2758699Y769600D01*
X2762399Y767800D01*
X2766000Y764200D01*
X2767799Y760500D01*
X2767799Y753299D01*
X2766000Y749600D01*
X2762399Y745999D01*
X2758699Y744200D01*
X2729600Y721300D02*
G01*
X2731499Y726700D01*
X2736899Y730399D01*
X2746000Y732199D01*
X2751499Y732199D01*
X2760500Y730399D01*
X2766000Y726700D01*
X2767799Y721300D01*
X2767799Y717600D01*
X2766000Y712199D01*
X2760500Y708499D01*
X2751499Y706700D01*
X2746000Y706700D01*
X2736899Y708499D01*
X2731499Y712199D01*
X2729600Y717600D01*
X2729600Y721300D01*
X2829600Y850000D02*
G01*
X2867799Y850000D01*
X2829600Y850000D02*
G01*
X2829600Y837300D01*
X2831499Y831799D01*
X2835100Y828200D01*
X2838699Y826399D01*
X2844200Y824499D01*
X2853299Y824499D01*
X2858699Y826399D01*
X2862399Y828200D01*
X2866000Y831799D01*
X2867799Y837300D01*
X2867799Y850000D01*
X2829600Y798000D02*
G01*
X2867799Y812500D01*
X2829600Y798000D02*
G01*
X2867799Y783499D01*
X2855100Y807100D02*
G01*
X2855100Y788899D01*
X2838699Y744200D02*
G01*
X2835100Y745999D01*
X2831499Y749600D01*
X2829600Y753299D01*
X2829600Y760500D01*
X2831499Y764200D01*
X2835100Y767800D01*
X2838699Y769600D01*
X2844200Y771500D01*
X2853299Y771500D01*
X2858699Y769600D01*
X2862399Y767800D01*
X2866000Y764200D01*
X2867799Y760500D01*
X2867799Y753299D01*
X2866000Y749600D01*
X2862399Y745999D01*
X2858699Y744200D01*
X2836899Y732199D02*
G01*
X2835100Y728499D01*
X2829600Y723099D01*
X2867799Y723099D01*
X2938699Y822699D02*
G01*
X2935100Y824499D01*
X2931499Y828200D01*
X2929600Y831799D01*
X2929600Y839099D01*
X2931499Y842699D01*
X2935100Y846399D01*
X2938699Y848200D01*
X2944200Y850000D01*
X2953299Y850000D01*
X2958699Y848200D01*
X2962399Y846399D01*
X2966000Y842699D01*
X2967799Y839099D01*
X2967799Y831799D01*
X2966000Y828200D01*
X2962399Y824499D01*
X2958699Y822699D01*
X2929600Y796199D02*
G01*
X2967799Y810700D01*
X2929600Y796199D02*
G01*
X2967799Y781599D01*
X2955100Y805300D02*
G01*
X2955100Y787100D01*
X2929600Y769600D02*
G01*
X2967799Y769600D01*
X2929600Y769600D02*
G01*
X2967799Y744200D01*
X2929600Y744200D02*
G01*
X2967799Y744200D01*
X2929600Y732199D02*
G01*
X2967799Y732199D01*
X2929600Y732199D02*
G01*
X2929600Y715799D01*
X2931499Y710399D01*
X2933299Y708499D01*
X2936899Y706700D01*
X2940500Y706700D01*
X2944200Y708499D01*
X2946000Y710399D01*
X2947799Y715799D01*
X2947799Y732199D01*
X2947799Y719499D02*
G01*
X2967799Y706700D01*
X2929600Y694699D02*
G01*
X2967799Y669299D01*
X2929600Y669299D02*
G01*
X2967799Y694699D01*
X3033699Y822699D02*
G01*
X3030100Y824499D01*
X3026499Y828200D01*
X3024600Y831799D01*
X3024600Y839099D01*
X3026499Y842699D01*
X3030100Y846399D01*
X3033699Y848200D01*
X3039200Y850000D01*
X3048299Y850000D01*
X3053699Y848200D01*
X3057399Y846399D01*
X3061000Y842699D01*
X3062799Y839099D01*
X3062799Y831799D01*
X3061000Y828200D01*
X3057399Y824499D01*
X3053699Y822699D01*
X3024600Y796199D02*
G01*
X3062799Y810700D01*
X3024600Y796199D02*
G01*
X3062799Y781599D01*
X3050100Y805300D02*
G01*
X3050100Y787100D01*
X3024600Y769600D02*
G01*
X3062799Y769600D01*
X3024600Y769600D02*
G01*
X3062799Y744200D01*
X3024600Y744200D02*
G01*
X3062799Y744200D01*
X3024600Y719499D02*
G01*
X3062799Y719499D01*
X3024600Y732199D02*
G01*
X3024600Y706700D01*
X3024600Y694699D02*
G01*
X3062799Y669299D01*
X3024600Y669299D02*
G01*
X3062799Y694699D01*
X3377299Y778699D02*
G01*
X3375500Y775100D01*
X3371800Y771500D01*
X3368199Y769600D01*
X3360900Y769600D01*
X3357299Y771500D01*
X3353599Y775100D01*
X3351800Y778699D01*
X3350000Y784200D01*
X3350000Y793299D01*
X3351800Y798699D01*
X3353599Y802399D01*
X3357299Y805999D01*
X3360900Y807800D01*
X3368199Y807800D01*
X3371800Y805999D01*
X3375500Y802399D01*
X3377299Y798699D01*
X3377299Y793299D01*
X3368199Y793299D02*
G01*
X3377299Y793299D01*
X3389300Y769600D02*
G01*
X3389300Y807800D01*
X3389300Y769600D02*
G01*
X3414700Y807800D01*
X3414700Y769600D02*
G01*
X3414700Y807800D01*
X3426700Y769600D02*
G01*
X3426700Y807800D01*
X3426700Y769600D02*
G01*
X3439499Y769600D01*
X3444899Y771500D01*
X3448500Y775100D01*
X3450399Y778699D01*
X3452200Y784200D01*
X3452200Y793299D01*
X3450399Y798699D01*
X3448500Y802399D01*
X3444899Y805999D01*
X3439499Y807800D01*
X3426700Y807800D01*
X719600Y850000D02*
G01*
X757800Y850000D01*
X719600Y850000D02*
G01*
X719600Y833600D01*
X721500Y828200D01*
X723299Y826399D01*
X726900Y824499D01*
X730500Y824499D01*
X734200Y826399D01*
X735999Y828200D01*
X737800Y833600D01*
X737800Y850000D01*
X737800Y837300D02*
G01*
X757800Y824499D01*
X719600Y812500D02*
G01*
X757800Y812500D01*
X719600Y812500D02*
G01*
X719600Y788899D01*
X737800Y812500D02*
G01*
X737800Y798000D01*
X757800Y812500D02*
G01*
X757800Y788899D01*
X725100Y751500D02*
G01*
X721500Y755100D01*
X719600Y760500D01*
X719600Y767800D01*
X721500Y773299D01*
X725100Y776900D01*
X728699Y776900D01*
X732399Y775100D01*
X734200Y773299D01*
X735999Y769600D01*
X739600Y758699D01*
X741500Y755100D01*
X743299Y753299D01*
X746900Y751500D01*
X752399Y751500D01*
X755999Y755100D01*
X757800Y760500D01*
X757800Y767800D01*
X755999Y773299D01*
X752399Y776900D01*
X719600Y739499D02*
G01*
X757800Y739499D01*
X719600Y739499D02*
G01*
X719600Y715799D01*
X737800Y739499D02*
G01*
X737800Y724899D01*
X757800Y739499D02*
G01*
X757800Y715799D01*
X719600Y691100D02*
G01*
X757800Y691100D01*
X719600Y703800D02*
G01*
X719600Y678400D01*
X819600Y846399D02*
G01*
X819600Y826399D01*
X834200Y837300D01*
X834200Y831799D01*
X836000Y828200D01*
X837799Y826399D01*
X843299Y824499D01*
X846899Y824499D01*
X852399Y826399D01*
X856000Y830000D01*
X857799Y835500D01*
X857799Y840900D01*
X856000Y846399D01*
X854200Y848200D01*
X850500Y850000D01*
X848699Y810700D02*
G01*
X850500Y812500D01*
X852399Y810700D01*
X850500Y808899D01*
X848699Y810700D01*
X819600Y793299D02*
G01*
X819600Y773299D01*
X834200Y784200D01*
X834200Y778699D01*
X836000Y775100D01*
X837799Y773299D01*
X843299Y771500D01*
X846899Y771500D01*
X852399Y773299D01*
X856000Y776900D01*
X857799Y782399D01*
X857799Y787800D01*
X856000Y793299D01*
X854200Y795100D01*
X850500Y796900D01*
X819600Y759499D02*
G01*
X857799Y744899D01*
X819600Y730399D02*
G01*
X857799Y744899D01*
X919600Y828200D02*
G01*
X919600Y846399D01*
X936000Y848200D01*
X934200Y846399D01*
X932399Y840900D01*
X932399Y835500D01*
X934200Y830000D01*
X937799Y826399D01*
X943299Y824499D01*
X946899Y824499D01*
X952399Y826399D01*
X956000Y830000D01*
X957799Y835500D01*
X957799Y840900D01*
X956000Y846399D01*
X954200Y848200D01*
X950500Y850000D01*
X919600Y812500D02*
G01*
X957799Y798000D01*
X919600Y783499D02*
G01*
X957799Y798000D01*
X1028699Y822699D02*
G01*
X1025100Y824499D01*
X1021499Y828200D01*
X1019600Y831799D01*
X1019600Y839099D01*
X1021499Y842699D01*
X1025100Y846399D01*
X1028699Y848200D01*
X1034200Y850000D01*
X1043299Y850000D01*
X1048699Y848200D01*
X1052399Y846399D01*
X1056000Y842699D01*
X1057799Y839099D01*
X1057799Y831799D01*
X1056000Y828200D01*
X1052399Y824499D01*
X1048699Y822699D01*
X1043299Y822699D01*
X1043299Y831799D02*
G01*
X1043299Y822699D01*
X1019600Y810700D02*
G01*
X1057799Y810700D01*
X1019600Y810700D02*
G01*
X1057799Y785300D01*
X1019600Y785300D02*
G01*
X1057799Y785300D01*
X1019600Y773299D02*
G01*
X1057799Y773299D01*
X1019600Y773299D02*
G01*
X1019600Y760500D01*
X1021499Y755100D01*
X1025100Y751500D01*
X1028699Y749600D01*
X1034200Y747800D01*
X1043299Y747800D01*
X1048699Y749600D01*
X1052399Y751500D01*
X1056000Y755100D01*
X1057799Y760500D01*
X1057799Y773299D01*
X1128699Y822699D02*
G01*
X1125100Y824499D01*
X1121499Y828200D01*
X1119600Y831799D01*
X1119600Y839099D01*
X1121499Y842699D01*
X1125100Y846399D01*
X1128699Y848200D01*
X1134200Y850000D01*
X1143299Y850000D01*
X1148699Y848200D01*
X1152399Y846399D01*
X1156000Y842699D01*
X1157799Y839099D01*
X1157799Y831799D01*
X1156000Y828200D01*
X1152399Y824499D01*
X1148699Y822699D01*
X1143299Y822699D01*
X1143299Y831799D02*
G01*
X1143299Y822699D01*
X1119600Y810700D02*
G01*
X1157799Y810700D01*
X1119600Y810700D02*
G01*
X1157799Y785300D01*
X1119600Y785300D02*
G01*
X1157799Y785300D01*
X1119600Y773299D02*
G01*
X1157799Y773299D01*
X1119600Y773299D02*
G01*
X1119600Y760500D01*
X1121499Y755100D01*
X1125100Y751500D01*
X1128699Y749600D01*
X1134200Y747800D01*
X1143299Y747800D01*
X1148699Y749600D01*
X1152399Y751500D01*
X1156000Y755100D01*
X1157799Y760500D01*
X1157799Y773299D01*
X1219600Y850000D02*
G01*
X1257799Y835500D01*
X1219600Y820900D02*
G01*
X1257799Y835500D01*
X1219600Y808899D02*
G01*
X1221499Y807100D01*
X1219600Y805300D01*
X1217799Y807100D01*
X1219600Y808899D01*
X1232399Y807100D02*
G01*
X1257799Y807100D01*
X1232399Y793299D02*
G01*
X1257799Y793299D01*
X1239600Y793299D02*
G01*
X1234200Y787800D01*
X1232399Y784200D01*
X1232399Y778699D01*
X1234200Y775100D01*
X1239600Y773299D01*
X1257799Y773299D01*
X476300Y-822699D02*
G01*
X479899Y-824499D01*
X483499Y-828200D01*
X485399Y-831799D01*
X485399Y-839099D01*
X483499Y-842699D01*
X479899Y-846399D01*
X476300Y-848200D01*
X470799Y-850000D01*
X461700Y-850000D01*
X456300Y-848200D01*
X452600Y-846399D01*
X449000Y-842699D01*
X447199Y-839099D01*
X447199Y-831799D01*
X449000Y-828200D01*
X452600Y-824499D01*
X456300Y-822699D01*
X461700Y-822699D01*
X461700Y-831799D02*
G01*
X461700Y-822699D01*
X485399Y-810700D02*
G01*
X447199Y-810700D01*
X485399Y-810700D02*
G01*
X447199Y-785300D01*
X485399Y-785300D02*
G01*
X447199Y-785300D01*
X485399Y-773299D02*
G01*
X447199Y-773299D01*
X485399Y-773299D02*
G01*
X485399Y-760500D01*
X483499Y-755100D01*
X479899Y-751500D01*
X476300Y-749600D01*
X470799Y-747800D01*
X461700Y-747800D01*
X456300Y-749600D01*
X452600Y-751500D01*
X449000Y-755100D01*
X447199Y-760500D01*
X447199Y-773299D01*
X390399Y-835500D02*
G01*
X352199Y-850000D01*
X390399Y-835500D02*
G01*
X352199Y-820900D01*
X364899Y-844499D02*
G01*
X364899Y-826399D01*
X390399Y-808899D02*
G01*
X352199Y-808899D01*
X390399Y-808899D02*
G01*
X390399Y-792500D01*
X388499Y-787100D01*
X386700Y-785300D01*
X383099Y-783499D01*
X379499Y-783499D01*
X375799Y-785300D01*
X374000Y-787100D01*
X372199Y-792500D01*
X372199Y-808899D01*
X372199Y-796199D02*
G01*
X352199Y-783499D01*
X390399Y-771500D02*
G01*
X352199Y-771500D01*
X390399Y-771500D02*
G01*
X390399Y-747800D01*
X372199Y-771500D02*
G01*
X372199Y-756900D01*
X352199Y-771500D02*
G01*
X352199Y-747800D01*
X390399Y-735799D02*
G01*
X352199Y-735799D01*
X390399Y-735799D02*
G01*
X390399Y-712199D01*
X372199Y-735799D02*
G01*
X372199Y-721300D01*
X2981800Y-1000399D02*
G01*
X2963599Y-1000399D01*
X2961800Y-984000D01*
X2963599Y-985799D01*
X2969099Y-987600D01*
X2974499Y-987600D01*
X2980000Y-985799D01*
X2983599Y-982199D01*
X2985500Y-976700D01*
X2985500Y-973099D01*
X2983599Y-967600D01*
X2980000Y-964000D01*
X2974499Y-962199D01*
X2969099Y-962199D01*
X2963599Y-964000D01*
X2961800Y-965799D01*
X2960000Y-969499D01*
X2997500Y-1000399D02*
G01*
X3011999Y-962199D01*
X3026499Y-1000399D02*
G01*
X3011999Y-962199D01*
D10*
X579099Y-30700D02*
G01*
X550000Y45599D01*
X579099Y-30700D02*
G01*
X608200Y45599D01*
X560900Y20199D02*
G01*
X597300Y20199D01*
X632199Y-30700D02*
G01*
X632199Y45599D01*
X632199Y-30700D02*
G01*
X664899Y-30700D01*
X675799Y-27100D01*
X679499Y-23499D01*
X683099Y-16199D01*
X683099Y-8899D01*
X679499Y-1599D01*
X675799Y1999D01*
X664899Y5599D01*
X632199Y5599D01*
X657600Y5599D02*
G01*
X683099Y45599D01*
X707100Y-30700D02*
G01*
X707100Y45599D01*
X707100Y-30700D02*
G01*
X732500Y-30700D01*
X743499Y-27100D01*
X750700Y-19800D01*
X754400Y-12500D01*
X758000Y-1599D01*
X758000Y16500D01*
X754400Y27500D01*
X750700Y34699D01*
X743499Y41999D01*
X732500Y45599D01*
X707100Y45599D01*
X781999Y-30700D02*
G01*
X781999Y23800D01*
X785600Y34699D01*
X792899Y41999D01*
X803800Y45599D01*
X811099Y45599D01*
X821999Y41999D01*
X829300Y34699D01*
X832899Y23800D01*
X832899Y-30700D01*
X856899Y-30700D02*
G01*
X856899Y45599D01*
X880900Y-30700D02*
G01*
X880900Y45599D01*
X880900Y-30700D02*
G01*
X931800Y45599D01*
X931800Y-30700D02*
G01*
X931800Y45599D01*
X977600Y-30700D02*
G01*
X970399Y-27100D01*
X963100Y-19800D01*
X959499Y-12500D01*
X955799Y-1599D01*
X955799Y16500D01*
X959499Y27500D01*
X963100Y34699D01*
X970399Y41999D01*
X977600Y45599D01*
X992200Y45599D01*
X999499Y41999D01*
X1006700Y34699D01*
X1010399Y27500D01*
X1013999Y16500D01*
X1013999Y-1599D01*
X1010399Y-12500D01*
X1006700Y-19800D01*
X999499Y-27100D01*
X992200Y-30700D01*
X977600Y-30700D01*
X1093999Y-30700D02*
G01*
X1093999Y45599D01*
X1093999Y-30700D02*
G01*
X1119499Y-30700D01*
X1130399Y-27100D01*
X1137600Y-19800D01*
X1141300Y-12500D01*
X1144899Y-1599D01*
X1144899Y16500D01*
X1141300Y27500D01*
X1137600Y34699D01*
X1130399Y41999D01*
X1119499Y45599D01*
X1093999Y45599D01*
X1168900Y-30700D02*
G01*
X1168900Y23800D01*
X1172500Y34699D01*
X1179799Y41999D01*
X1190699Y45599D01*
X1198000Y45599D01*
X1208900Y41999D01*
X1216199Y34699D01*
X1219799Y23800D01*
X1219799Y-30700D01*
X1243800Y-30700D02*
G01*
X1243800Y45599D01*
X1243800Y-30700D02*
G01*
X1291099Y-30700D01*
X1243800Y5599D02*
G01*
X1272899Y5599D01*
X1243800Y45599D02*
G01*
X1291099Y45599D01*
D27*
X1875000Y134636D02*
G01*
X1875000Y172818D01*
X1875000Y134636D02*
G01*
X1887727Y134636D01*
X1893181Y136455D01*
X1896818Y140091D01*
X1898635Y143726D01*
X1900455Y149182D01*
X1900455Y158272D01*
X1898635Y163726D01*
X1896818Y167363D01*
X1893181Y170999D01*
X1887727Y172818D01*
X1875000Y172818D01*
X1912455Y134636D02*
G01*
X1912455Y161909D01*
X1914273Y167363D01*
X1917908Y170999D01*
X1923364Y172818D01*
X1926999Y172818D01*
X1932455Y170999D01*
X1936090Y167363D01*
X1937908Y161909D01*
X1937908Y134636D01*
X1949908Y134636D02*
G01*
X1949908Y172818D01*
X1949908Y134636D02*
G01*
X1973545Y134636D01*
X1949908Y152818D02*
G01*
X1964454Y152818D01*
X1949908Y172818D02*
G01*
X1973545Y172818D01*
X2011000Y140091D02*
G01*
X2007363Y136455D01*
X2001908Y134636D01*
X1994636Y134636D01*
X1989182Y136455D01*
X1985545Y140091D01*
X1985545Y143726D01*
X1987363Y147363D01*
X1989182Y149182D01*
X1992817Y150999D01*
X2003726Y154636D01*
X2007363Y156455D01*
X2009182Y158272D01*
X2011000Y161909D01*
X2011000Y167363D01*
X2007363Y170999D01*
X2001908Y172818D01*
X1994636Y172818D01*
X1989182Y170999D01*
X1985545Y167363D01*
X2023000Y134636D02*
G01*
X2023000Y172818D01*
X2023000Y134636D02*
G01*
X2039363Y134636D01*
X2044817Y136455D01*
X2046635Y138272D01*
X2048455Y141909D01*
X2048455Y147363D01*
X2046635Y150999D01*
X2044817Y152818D01*
X2039363Y154636D01*
X2023000Y154636D01*
X2060455Y134636D02*
G01*
X2060455Y172818D01*
X300000Y659636D02*
G01*
X300000Y697818D01*
X300000Y659636D02*
G01*
X312726Y659636D01*
X318182Y661455D01*
X321817Y665091D01*
X323636Y668726D01*
X325455Y674182D01*
X325455Y683272D01*
X323636Y688726D01*
X321817Y692363D01*
X318182Y695999D01*
X312726Y697818D01*
X300000Y697818D01*
X337454Y659636D02*
G01*
X337454Y686909D01*
X339272Y692363D01*
X342908Y695999D01*
X348364Y697818D01*
X351999Y697818D01*
X357454Y695999D01*
X361091Y692363D01*
X362908Y686909D01*
X362908Y659636D01*
X374908Y659636D02*
G01*
X374908Y697818D01*
X374908Y659636D02*
G01*
X398544Y659636D01*
X374908Y677818D02*
G01*
X389454Y677818D01*
X374908Y697818D02*
G01*
X398544Y697818D01*
X410545Y659636D02*
G01*
X410545Y697818D01*
X449818Y668726D02*
G01*
X448000Y665091D01*
X444364Y661455D01*
X440727Y659636D01*
X433454Y659636D01*
X429818Y661455D01*
X426181Y665091D01*
X424364Y668726D01*
X422545Y674182D01*
X422545Y683272D01*
X424364Y688726D01*
X426181Y692363D01*
X429818Y695999D01*
X433454Y697818D01*
X440727Y697818D01*
X444364Y695999D01*
X448000Y692363D01*
X449818Y688726D01*
X487273Y665091D02*
G01*
X483636Y661455D01*
X478182Y659636D01*
X470909Y659636D01*
X465455Y661455D01*
X461817Y665091D01*
X461817Y668726D01*
X463636Y672363D01*
X465455Y674182D01*
X469090Y675999D01*
X480000Y679636D01*
X483636Y681455D01*
X485455Y683272D01*
X487273Y686909D01*
X487273Y692363D01*
X483636Y695999D01*
X478182Y697818D01*
X470909Y697818D01*
X465455Y695999D01*
X461817Y692363D01*
X499272Y659636D02*
G01*
X499272Y697818D01*
X499272Y659636D02*
G01*
X515635Y659636D01*
X521091Y661455D01*
X522908Y663272D01*
X524726Y666909D01*
X524726Y672363D01*
X522908Y675999D01*
X521091Y677818D01*
X515635Y679636D01*
X499272Y679636D01*
X75000Y-665363D02*
G01*
X75000Y-627181D01*
X75000Y-665363D02*
G01*
X87726Y-665363D01*
X93182Y-663544D01*
X96817Y-659908D01*
X98636Y-656273D01*
X100455Y-650817D01*
X100455Y-641727D01*
X98636Y-636273D01*
X96817Y-632636D01*
X93182Y-629000D01*
X87726Y-627181D01*
X75000Y-627181D01*
X112454Y-665363D02*
G01*
X112454Y-638090D01*
X114272Y-632636D01*
X117908Y-629000D01*
X123364Y-627181D01*
X126999Y-627181D01*
X132454Y-629000D01*
X136091Y-632636D01*
X137908Y-638090D01*
X137908Y-665363D01*
X149908Y-665363D02*
G01*
X149908Y-627181D01*
X149908Y-665363D02*
G01*
X173544Y-665363D01*
X149908Y-647181D02*
G01*
X164454Y-647181D01*
X149908Y-627181D02*
G01*
X173544Y-627181D01*
X185545Y-665363D02*
G01*
X185545Y-627181D01*
X185545Y-665363D02*
G01*
X198272Y-665363D01*
X203726Y-663544D01*
X207363Y-659908D01*
X209182Y-656273D01*
X210999Y-650817D01*
X210999Y-641727D01*
X209182Y-636273D01*
X207363Y-632636D01*
X203726Y-629000D01*
X198272Y-627181D01*
X185545Y-627181D01*
X223000Y-665363D02*
G01*
X223000Y-627181D01*
X223000Y-665363D02*
G01*
X246635Y-665363D01*
X223000Y-647181D02*
G01*
X237545Y-647181D01*
X223000Y-627181D02*
G01*
X246635Y-627181D01*
X258636Y-665363D02*
G01*
X258636Y-627181D01*
X258636Y-665363D02*
G01*
X275000Y-665363D01*
X280455Y-663544D01*
X282273Y-661727D01*
X284090Y-658090D01*
X284090Y-654454D01*
X282273Y-650817D01*
X280455Y-649000D01*
X275000Y-647181D01*
X258636Y-647181D02*
G01*
X275000Y-647181D01*
X280455Y-645363D01*
X282273Y-643544D01*
X284090Y-639908D01*
X284090Y-634454D01*
X282273Y-630817D01*
X280455Y-629000D01*
X275000Y-627181D01*
X258636Y-627181D01*
X296091Y-665363D02*
G01*
X296091Y-638090D01*
X297908Y-632636D01*
X301545Y-629000D01*
X306999Y-627181D01*
X310635Y-627181D01*
X316091Y-629000D01*
X319726Y-632636D01*
X321545Y-638090D01*
X321545Y-665363D01*
X360817Y-656273D02*
G01*
X359000Y-659908D01*
X355363Y-663544D01*
X351727Y-665363D01*
X344454Y-665363D01*
X340817Y-663544D01*
X337181Y-659908D01*
X335363Y-656273D01*
X333544Y-650817D01*
X333544Y-641727D01*
X335363Y-636273D01*
X337181Y-632636D01*
X340817Y-629000D01*
X344454Y-627181D01*
X351727Y-627181D01*
X355363Y-629000D01*
X359000Y-632636D01*
X360817Y-636273D01*
X360817Y-641727D01*
X351727Y-641727D02*
G01*
X360817Y-641727D01*
X3352799Y-550300D02*
G01*
X3352799Y-552100D01*
X3354600Y-555700D01*
X3356499Y-557500D01*
X3360100Y-559400D01*
X3367399Y-559400D01*
X3371000Y-557500D01*
X3372799Y-555700D01*
X3374600Y-552100D01*
X3374600Y-548499D01*
X3372799Y-544800D01*
X3369200Y-539400D01*
X3351000Y-521199D01*
X3376499Y-521199D01*
X3412100Y-546599D02*
G01*
X3410299Y-541199D01*
X3406599Y-537500D01*
X3401199Y-535700D01*
X3399399Y-535700D01*
X3393900Y-537500D01*
X3390299Y-541199D01*
X3388500Y-546599D01*
X3388500Y-548499D01*
X3390299Y-553899D01*
X3393900Y-557500D01*
X3399399Y-559400D01*
X3401199Y-559400D01*
X3406599Y-557500D01*
X3410299Y-553899D01*
X3412100Y-546599D01*
X3412100Y-537500D01*
X3410299Y-528499D01*
X3406599Y-523000D01*
X3401199Y-521199D01*
X3397500Y-521199D01*
X3392100Y-523000D01*
X3390299Y-526599D01*
X3352799Y-650300D02*
G01*
X3352799Y-652100D01*
X3354600Y-655700D01*
X3356499Y-657500D01*
X3360100Y-659400D01*
X3367399Y-659400D01*
X3371000Y-657500D01*
X3372799Y-655700D01*
X3374600Y-652100D01*
X3374600Y-648499D01*
X3372799Y-644800D01*
X3369200Y-639400D01*
X3351000Y-621199D01*
X3376499Y-621199D01*
X3413900Y-659400D02*
G01*
X3395699Y-621199D01*
X3388500Y-659400D02*
G01*
X3413900Y-659400D01*
X3352799Y-750300D02*
G01*
X3352799Y-752100D01*
X3354600Y-755700D01*
X3356499Y-757500D01*
X3360100Y-759400D01*
X3367399Y-759400D01*
X3371000Y-757500D01*
X3372799Y-755700D01*
X3374600Y-752100D01*
X3374600Y-748499D01*
X3372799Y-744800D01*
X3369200Y-739400D01*
X3351000Y-721199D01*
X3376499Y-721199D01*
X3410299Y-759400D02*
G01*
X3392100Y-759400D01*
X3390299Y-743000D01*
X3392100Y-744800D01*
X3397500Y-746599D01*
X3403000Y-746599D01*
X3408500Y-744800D01*
X3412100Y-741199D01*
X3413900Y-735700D01*
X3413900Y-732100D01*
X3412100Y-726599D01*
X3408500Y-723000D01*
X3403000Y-721199D01*
X3397500Y-721199D01*
X3392100Y-723000D01*
X3390299Y-724800D01*
X3388500Y-728499D01*
X3352799Y-850300D02*
G01*
X3352799Y-852100D01*
X3354600Y-855700D01*
X3356499Y-857500D01*
X3360100Y-859400D01*
X3367399Y-859400D01*
X3371000Y-857500D01*
X3372799Y-855700D01*
X3374600Y-852100D01*
X3374600Y-848499D01*
X3372799Y-844800D01*
X3369200Y-839400D01*
X3351000Y-821199D01*
X3376499Y-821199D01*
X3392100Y-859400D02*
G01*
X3412100Y-859400D01*
X3401199Y-844800D01*
X3406599Y-844800D01*
X3410299Y-843000D01*
X3412100Y-841199D01*
X3413900Y-835700D01*
X3413900Y-832100D01*
X3412100Y-826599D01*
X3408500Y-823000D01*
X3403000Y-821199D01*
X3397500Y-821199D01*
X3392100Y-823000D01*
X3390299Y-824800D01*
X3388500Y-828499D01*
X190900Y-824499D02*
G01*
X194499Y-828200D01*
X196399Y-833600D01*
X196399Y-840900D01*
X194499Y-846399D01*
X190900Y-850000D01*
X187300Y-850000D01*
X183600Y-848200D01*
X181799Y-846399D01*
X180000Y-842699D01*
X176399Y-831799D01*
X174499Y-828200D01*
X172699Y-826399D01*
X169099Y-824499D01*
X163600Y-824499D01*
X160000Y-828200D01*
X158200Y-833600D01*
X158200Y-840900D01*
X160000Y-846399D01*
X163600Y-850000D01*
X187300Y-785300D02*
G01*
X190900Y-787100D01*
X194499Y-790700D01*
X196399Y-794400D01*
X196399Y-801599D01*
X194499Y-805300D01*
X190900Y-808899D01*
X187300Y-810700D01*
X181799Y-812500D01*
X172699Y-812500D01*
X167300Y-810700D01*
X163600Y-808899D01*
X160000Y-805300D01*
X158200Y-801599D01*
X158200Y-794400D01*
X160000Y-790700D01*
X163600Y-787100D01*
X167300Y-785300D01*
X196399Y-773299D02*
G01*
X158200Y-773299D01*
X158200Y-773299D02*
G01*
X158200Y-751500D01*
X189099Y-739499D02*
G01*
X190900Y-735799D01*
X196399Y-730399D01*
X158200Y-730399D01*
X285900Y-824499D02*
G01*
X289499Y-828200D01*
X291399Y-833600D01*
X291399Y-840900D01*
X289499Y-846399D01*
X285900Y-850000D01*
X282300Y-850000D01*
X278600Y-848200D01*
X276799Y-846399D01*
X275000Y-842699D01*
X271399Y-831799D01*
X269499Y-828200D01*
X267699Y-826399D01*
X264099Y-824499D01*
X258600Y-824499D01*
X255000Y-828200D01*
X253200Y-833600D01*
X253200Y-840900D01*
X255000Y-846399D01*
X258600Y-850000D01*
X291399Y-812500D02*
G01*
X253200Y-812500D01*
X291399Y-812500D02*
G01*
X291399Y-799800D01*
X289499Y-794400D01*
X285900Y-790700D01*
X282300Y-788899D01*
X276799Y-787100D01*
X267699Y-787100D01*
X262300Y-788899D01*
X258600Y-790700D01*
X255000Y-794400D01*
X253200Y-799800D01*
X253200Y-812500D01*
X291399Y-760500D02*
G01*
X253200Y-775100D01*
X291399Y-760500D02*
G01*
X253200Y-745999D01*
X265900Y-769600D02*
G01*
X265900Y-751500D01*
X284099Y-734000D02*
G01*
X285900Y-730399D01*
X291399Y-724899D01*
X253200Y-724899D01*
X620599Y850999D02*
G01*
X658800Y850999D01*
X620599Y828099D02*
G01*
X622500Y831700D01*
X626100Y835399D01*
X629699Y837199D01*
X635199Y839000D01*
X644299Y839000D01*
X649699Y837199D01*
X653400Y835399D01*
X656999Y831700D01*
X658800Y828099D01*
X658800Y820799D01*
X656999Y817199D01*
X653400Y813499D01*
X649699Y811700D01*
X644299Y809899D01*
X635199Y809899D01*
X629699Y811700D01*
X626100Y813499D01*
X622500Y817199D01*
X620599Y820799D01*
X620599Y828099D01*
X620599Y797899D02*
G01*
X658800Y797899D01*
X620599Y797899D02*
G01*
X620599Y781500D01*
X622500Y776100D01*
X624299Y774299D01*
X627899Y772500D01*
X631500Y772500D01*
X635199Y774299D01*
X636999Y776100D01*
X638800Y781500D01*
X638800Y797899D01*
X638800Y785199D02*
G01*
X658800Y772500D01*
X620599Y760500D02*
G01*
X658800Y760500D01*
X620599Y760500D02*
G01*
X620599Y736799D01*
X638800Y760500D02*
G01*
X638800Y745900D01*
X658800Y760500D02*
G01*
X658800Y736799D01*
X620599Y724800D02*
G01*
X658800Y724800D01*
X620599Y724800D02*
G01*
X620599Y701199D01*
X638800Y724800D02*
G01*
X638800Y710300D01*
X100000Y359636D02*
G01*
X100000Y397818D01*
X100000Y359636D02*
G01*
X114544Y397818D01*
X129090Y359636D02*
G01*
X114544Y397818D01*
X129090Y359636D02*
G01*
X129090Y397818D01*
X141091Y359636D02*
G01*
X141091Y397818D01*
X178544Y365091D02*
G01*
X174908Y361455D01*
X169454Y359636D01*
X162181Y359636D01*
X156727Y361455D01*
X153090Y365091D01*
X153090Y368726D01*
X154908Y372363D01*
X156727Y374182D01*
X160363Y375999D01*
X171273Y379636D01*
X174908Y381455D01*
X176727Y383272D01*
X178544Y386909D01*
X178544Y392363D01*
X174908Y395999D01*
X169454Y397818D01*
X162181Y397818D01*
X156727Y395999D01*
X153090Y392363D01*
X201455Y359636D02*
G01*
X197818Y361455D01*
X194182Y365091D01*
X192363Y368726D01*
X190545Y374182D01*
X190545Y383272D01*
X192363Y388726D01*
X194182Y392363D01*
X197818Y395999D01*
X201455Y397818D01*
X208726Y397818D01*
X212363Y395999D01*
X215999Y392363D01*
X217818Y388726D01*
X219636Y383272D01*
X219636Y374182D01*
X217818Y368726D01*
X215999Y365091D01*
X212363Y361455D01*
X208726Y359636D01*
X201455Y359636D01*
X233454Y368726D02*
G01*
X233454Y366909D01*
X235273Y363272D01*
X237091Y361455D01*
X240727Y359636D01*
X248000Y359636D01*
X251635Y361455D01*
X253454Y363272D01*
X255273Y366909D01*
X255273Y370545D01*
X253454Y374182D01*
X249818Y379636D01*
X231635Y397818D01*
X257091Y397818D01*
X150455Y465091D02*
G01*
X146817Y461455D01*
X141363Y459636D01*
X134090Y459636D01*
X128636Y461455D01*
X125000Y465091D01*
X125000Y468726D01*
X126817Y472363D01*
X128636Y474182D01*
X132273Y475999D01*
X143182Y479636D01*
X146817Y481455D01*
X148636Y483272D01*
X150455Y486909D01*
X150455Y492363D01*
X146817Y495999D01*
X141363Y497818D01*
X134090Y497818D01*
X128636Y495999D01*
X125000Y492363D01*
X189726Y468726D02*
G01*
X187908Y465091D01*
X184272Y461455D01*
X180635Y459636D01*
X173364Y459636D01*
X169726Y461455D01*
X166091Y465091D01*
X164272Y468726D01*
X162454Y474182D01*
X162454Y483272D01*
X164272Y488726D01*
X166091Y492363D01*
X169726Y495999D01*
X173364Y497818D01*
X180635Y497818D01*
X184272Y495999D01*
X187908Y492363D01*
X189726Y488726D01*
X201727Y459636D02*
G01*
X201727Y497818D01*
X227181Y459636D02*
G01*
X201727Y485091D01*
X210817Y475999D02*
G01*
X227181Y497818D01*
X240999Y468726D02*
G01*
X240999Y466909D01*
X242818Y463272D01*
X244636Y461455D01*
X248272Y459636D01*
X255545Y459636D01*
X259182Y461455D01*
X260999Y463272D01*
X262818Y466909D01*
X262818Y470545D01*
X260999Y474182D01*
X257363Y479636D01*
X239182Y497818D01*
X264636Y497818D01*
X50000Y559636D02*
G01*
X50000Y597818D01*
X50000Y559636D02*
G01*
X66363Y559636D01*
X71817Y561455D01*
X73636Y563272D01*
X75455Y566909D01*
X75455Y570545D01*
X73636Y574182D01*
X71817Y575999D01*
X66363Y577818D01*
X50000Y577818D01*
X62726Y577818D02*
G01*
X75455Y597818D01*
X87454Y559636D02*
G01*
X87454Y597818D01*
X87454Y559636D02*
G01*
X111091Y559636D01*
X87454Y577818D02*
G01*
X101999Y577818D01*
X87454Y597818D02*
G01*
X111091Y597818D01*
X148544Y565091D02*
G01*
X144908Y561455D01*
X139454Y559636D01*
X132181Y559636D01*
X126727Y561455D01*
X123090Y565091D01*
X123090Y568726D01*
X124908Y572363D01*
X126727Y574182D01*
X130363Y575999D01*
X141273Y579636D01*
X144908Y581455D01*
X146727Y583272D01*
X148544Y586909D01*
X148544Y592363D01*
X144908Y595999D01*
X139454Y597818D01*
X132181Y597818D01*
X126727Y595999D01*
X123090Y592363D01*
X160545Y559636D02*
G01*
X160545Y597818D01*
X160545Y559636D02*
G01*
X184182Y559636D01*
X160545Y577818D02*
G01*
X175091Y577818D01*
X160545Y597818D02*
G01*
X184182Y597818D01*
X208908Y559636D02*
G01*
X208908Y597818D01*
X196181Y559636D02*
G01*
X221635Y559636D01*
X235455Y568726D02*
G01*
X235455Y566909D01*
X237273Y563272D01*
X239090Y561455D01*
X242726Y559636D01*
X250000Y559636D01*
X253636Y561455D01*
X255455Y563272D01*
X257273Y566909D01*
X257273Y570545D01*
X255455Y574182D01*
X251817Y579636D01*
X233636Y597818D01*
X259090Y597818D01*
X597273Y568726D02*
G01*
X595455Y565091D01*
X591817Y561455D01*
X588182Y559636D01*
X580909Y559636D01*
X577273Y561455D01*
X573636Y565091D01*
X571817Y568726D01*
X570000Y574182D01*
X570000Y583272D01*
X571817Y588726D01*
X573636Y592363D01*
X577273Y595999D01*
X580909Y597818D01*
X588182Y597818D01*
X591817Y595999D01*
X595455Y592363D01*
X597273Y588726D01*
X597273Y583272D01*
X588182Y583272D02*
G01*
X597273Y583272D01*
X609272Y559636D02*
G01*
X609272Y597818D01*
X609272Y559636D02*
G01*
X634726Y597818D01*
X634726Y559636D02*
G01*
X634726Y597818D01*
X646727Y559636D02*
G01*
X646727Y597818D01*
X646727Y559636D02*
G01*
X659454Y559636D01*
X664908Y561455D01*
X668544Y565091D01*
X670363Y568726D01*
X672181Y574182D01*
X672181Y583272D01*
X670363Y588726D01*
X668544Y592363D01*
X664908Y595999D01*
X659454Y597818D01*
X646727Y597818D01*
X570000Y459636D02*
G01*
X570000Y497818D01*
X570000Y459636D02*
G01*
X584544Y497818D01*
X599090Y459636D02*
G01*
X584544Y497818D01*
X599090Y459636D02*
G01*
X599090Y497818D01*
X621999Y459636D02*
G01*
X618364Y461455D01*
X614726Y465091D01*
X612908Y468726D01*
X611091Y474182D01*
X611091Y483272D01*
X612908Y488726D01*
X614726Y492363D01*
X618364Y495999D01*
X621999Y497818D01*
X629272Y497818D01*
X632908Y495999D01*
X636545Y492363D01*
X638364Y488726D01*
X640181Y483272D01*
X640181Y474182D01*
X638364Y468726D01*
X636545Y465091D01*
X632908Y461455D01*
X629272Y459636D01*
X621999Y459636D01*
X677636Y465091D02*
G01*
X674000Y461455D01*
X668544Y459636D01*
X661273Y459636D01*
X655817Y461455D01*
X652181Y465091D01*
X652181Y468726D01*
X654000Y472363D01*
X655817Y474182D01*
X659454Y475999D01*
X670363Y479636D01*
X674000Y481455D01*
X675817Y483272D01*
X677636Y486909D01*
X677636Y492363D01*
X674000Y495999D01*
X668544Y497818D01*
X661273Y497818D01*
X655817Y495999D01*
X652181Y492363D01*
X689636Y459636D02*
G01*
X689636Y497818D01*
X703454Y468726D02*
G01*
X703454Y466909D01*
X705273Y463272D01*
X707091Y461455D01*
X710727Y459636D01*
X718000Y459636D01*
X721635Y461455D01*
X723454Y463272D01*
X725273Y466909D01*
X725273Y470545D01*
X723454Y474182D01*
X719818Y479636D01*
X701635Y497818D01*
X727091Y497818D01*
X591817Y359636D02*
G01*
X573636Y359636D01*
X571817Y375999D01*
X573636Y374182D01*
X579090Y372363D01*
X584544Y372363D01*
X590000Y374182D01*
X593636Y377818D01*
X595455Y383272D01*
X595455Y386909D01*
X593636Y392363D01*
X590000Y395999D01*
X584544Y397818D01*
X579090Y397818D01*
X573636Y395999D01*
X571817Y394182D01*
X570000Y390545D01*
X607454Y359636D02*
G01*
X621999Y397818D01*
X636545Y359636D02*
G01*
X621999Y397818D01*
X1725000Y-165399D02*
G01*
X1725000Y-127199D01*
X1725000Y-165399D02*
G01*
X1739499Y-127199D01*
X1754099Y-165399D02*
G01*
X1739499Y-127199D01*
X1754099Y-165399D02*
G01*
X1754099Y-127199D01*
X1766099Y-165399D02*
G01*
X1766099Y-127199D01*
X1803500Y-159899D02*
G01*
X1799899Y-163499D01*
X1794499Y-165399D01*
X1787200Y-165399D01*
X1781700Y-163499D01*
X1778100Y-159899D01*
X1778100Y-156300D01*
X1779899Y-152600D01*
X1781700Y-150799D01*
X1785399Y-149000D01*
X1796300Y-145399D01*
X1799899Y-143499D01*
X1801700Y-141700D01*
X1803500Y-138099D01*
X1803500Y-132600D01*
X1799899Y-129000D01*
X1794499Y-127199D01*
X1787200Y-127199D01*
X1781700Y-129000D01*
X1778100Y-132600D01*
X1826499Y-165399D02*
G01*
X1822799Y-163499D01*
X1819200Y-159899D01*
X1817399Y-156300D01*
X1815500Y-150799D01*
X1815500Y-141700D01*
X1817399Y-136300D01*
X1819200Y-132600D01*
X1822799Y-129000D01*
X1826499Y-127199D01*
X1833699Y-127199D01*
X1837399Y-129000D01*
X1841000Y-132600D01*
X1842799Y-136300D01*
X1844600Y-141700D01*
X1844600Y-150799D01*
X1842799Y-156300D01*
X1841000Y-159899D01*
X1837399Y-163499D01*
X1833699Y-165399D01*
X1826499Y-165399D01*
X1775500Y-59899D02*
G01*
X1771800Y-63499D01*
X1766400Y-65399D01*
X1759099Y-65399D01*
X1753599Y-63499D01*
X1750000Y-59899D01*
X1750000Y-56300D01*
X1751800Y-52600D01*
X1753599Y-50799D01*
X1757299Y-49000D01*
X1768199Y-45399D01*
X1771800Y-43499D01*
X1773599Y-41700D01*
X1775500Y-38099D01*
X1775500Y-32600D01*
X1771800Y-29000D01*
X1766400Y-27199D01*
X1759099Y-27199D01*
X1753599Y-29000D01*
X1750000Y-32600D01*
X1814700Y-56300D02*
G01*
X1812899Y-59899D01*
X1809300Y-63499D01*
X1805600Y-65399D01*
X1798400Y-65399D01*
X1794700Y-63499D01*
X1791099Y-59899D01*
X1789300Y-56300D01*
X1787500Y-50799D01*
X1787500Y-41700D01*
X1789300Y-36300D01*
X1791099Y-32600D01*
X1794700Y-29000D01*
X1798400Y-27199D01*
X1805600Y-27199D01*
X1809300Y-29000D01*
X1812899Y-32600D01*
X1814700Y-36300D01*
X1826700Y-65399D02*
G01*
X1826700Y-27199D01*
X1852200Y-65399D02*
G01*
X1826700Y-39899D01*
X1835799Y-49000D02*
G01*
X1852200Y-27199D01*
X1675000Y34600D02*
G01*
X1675000Y72800D01*
X1675000Y34600D02*
G01*
X1691400Y34600D01*
X1696800Y36500D01*
X1698599Y38299D01*
X1700500Y41900D01*
X1700500Y45500D01*
X1698599Y49200D01*
X1696800Y50999D01*
X1691400Y52800D01*
X1675000Y52800D01*
X1687700Y52800D02*
G01*
X1700500Y72800D01*
X1712500Y34600D02*
G01*
X1712500Y72800D01*
X1712500Y34600D02*
G01*
X1736099Y34600D01*
X1712500Y52800D02*
G01*
X1726999Y52800D01*
X1712500Y72800D02*
G01*
X1736099Y72800D01*
X1773500Y40100D02*
G01*
X1769899Y36500D01*
X1764499Y34600D01*
X1757200Y34600D01*
X1751700Y36500D01*
X1748100Y40100D01*
X1748100Y43699D01*
X1749899Y47399D01*
X1751700Y49200D01*
X1755399Y50999D01*
X1766300Y54600D01*
X1769899Y56500D01*
X1771700Y58299D01*
X1773500Y61900D01*
X1773500Y67399D01*
X1769899Y70999D01*
X1764499Y72800D01*
X1757200Y72800D01*
X1751700Y70999D01*
X1748100Y67399D01*
X1785500Y34600D02*
G01*
X1785500Y72800D01*
X1785500Y34600D02*
G01*
X1809200Y34600D01*
X1785500Y52800D02*
G01*
X1800100Y52800D01*
X1785500Y72800D02*
G01*
X1809200Y72800D01*
X1833900Y34600D02*
G01*
X1833900Y72800D01*
X1821199Y34600D02*
G01*
X1846599Y34600D01*
X2146800Y-165399D02*
G01*
X2128599Y-165399D01*
X2126800Y-149000D01*
X2128599Y-150799D01*
X2134099Y-152600D01*
X2139499Y-152600D01*
X2145000Y-150799D01*
X2148599Y-147199D01*
X2150500Y-141700D01*
X2150500Y-138099D01*
X2148599Y-132600D01*
X2145000Y-129000D01*
X2139499Y-127199D01*
X2134099Y-127199D01*
X2128599Y-129000D01*
X2126800Y-130799D01*
X2125000Y-134499D01*
X2162500Y-165399D02*
G01*
X2176999Y-127199D01*
X2191499Y-165399D02*
G01*
X2176999Y-127199D01*
X2125000Y-65399D02*
G01*
X2125000Y-27199D01*
X2125000Y-65399D02*
G01*
X2139499Y-27199D01*
X2154099Y-65399D02*
G01*
X2139499Y-27199D01*
X2154099Y-65399D02*
G01*
X2154099Y-27199D01*
X2176999Y-65399D02*
G01*
X2173400Y-63499D01*
X2169700Y-59899D01*
X2167899Y-56300D01*
X2166099Y-50799D01*
X2166099Y-41700D01*
X2167899Y-36300D01*
X2169700Y-32600D01*
X2173400Y-29000D01*
X2176999Y-27199D01*
X2184300Y-27199D01*
X2187899Y-29000D01*
X2191499Y-32600D01*
X2193400Y-36300D01*
X2195200Y-41700D01*
X2195200Y-50799D01*
X2193400Y-56300D01*
X2191499Y-59899D01*
X2187899Y-63499D01*
X2184300Y-65399D01*
X2176999Y-65399D01*
X2232600Y-59899D02*
G01*
X2228999Y-63499D01*
X2223500Y-65399D01*
X2216300Y-65399D01*
X2210799Y-63499D01*
X2207200Y-59899D01*
X2207200Y-56300D01*
X2208999Y-52600D01*
X2210799Y-50799D01*
X2214499Y-49000D01*
X2225399Y-45399D01*
X2228999Y-43499D01*
X2230799Y-41700D01*
X2232600Y-38099D01*
X2232600Y-32600D01*
X2228999Y-29000D01*
X2223500Y-27199D01*
X2216300Y-27199D01*
X2210799Y-29000D01*
X2207200Y-32600D01*
X2244600Y-65399D02*
G01*
X2244600Y-27199D01*
X2152299Y43699D02*
G01*
X2150500Y40100D01*
X2146800Y36500D01*
X2143199Y34600D01*
X2135900Y34600D01*
X2132299Y36500D01*
X2128599Y40100D01*
X2126800Y43699D01*
X2125000Y49200D01*
X2125000Y58299D01*
X2126800Y63699D01*
X2128599Y67399D01*
X2132299Y70999D01*
X2135900Y72800D01*
X2143199Y72800D01*
X2146800Y70999D01*
X2150500Y67399D01*
X2152299Y63699D01*
X2152299Y58299D01*
X2143199Y58299D02*
G01*
X2152299Y58299D01*
X2164300Y34600D02*
G01*
X2164300Y72800D01*
X2164300Y34600D02*
G01*
X2189700Y72800D01*
X2189700Y34600D02*
G01*
X2189700Y72800D01*
X2201700Y34600D02*
G01*
X2201700Y72800D01*
X2201700Y34600D02*
G01*
X2214499Y34600D01*
X2219899Y36500D01*
X2223500Y40100D01*
X2225399Y43699D01*
X2227200Y49200D01*
X2227200Y58299D01*
X2225399Y63699D01*
X2223500Y67399D01*
X2219899Y70999D01*
X2214499Y72800D01*
X2201700Y72800D01*
X756300Y-547699D02*
G01*
X759899Y-549499D01*
X763500Y-553200D01*
X765399Y-556799D01*
X765399Y-564099D01*
X763500Y-567699D01*
X759899Y-571399D01*
X756300Y-573200D01*
X750799Y-575000D01*
X741700Y-575000D01*
X736300Y-573200D01*
X732600Y-571399D01*
X729000Y-567699D01*
X727199Y-564099D01*
X727199Y-556799D01*
X729000Y-553200D01*
X732600Y-549499D01*
X736300Y-547699D01*
X741700Y-547699D01*
X741700Y-556799D02*
G01*
X741700Y-547699D01*
X765399Y-535700D02*
G01*
X727199Y-535700D01*
X765399Y-535700D02*
G01*
X727199Y-510300D01*
X765399Y-510300D02*
G01*
X727199Y-510300D01*
X765399Y-498299D02*
G01*
X727199Y-498299D01*
X765399Y-498299D02*
G01*
X765399Y-485500D01*
X763500Y-480100D01*
X759899Y-476500D01*
X756300Y-474600D01*
X750799Y-472800D01*
X741700Y-472800D01*
X736300Y-474600D01*
X732600Y-476500D01*
X729000Y-480100D01*
X727199Y-485500D01*
X727199Y-498299D01*
X659899Y-549499D02*
G01*
X663499Y-553200D01*
X665399Y-558600D01*
X665399Y-565900D01*
X663499Y-571399D01*
X659899Y-575000D01*
X656300Y-575000D01*
X652600Y-573200D01*
X650799Y-571399D01*
X649000Y-567699D01*
X645399Y-556799D01*
X643499Y-553200D01*
X641700Y-551399D01*
X638099Y-549499D01*
X632600Y-549499D01*
X629000Y-553200D01*
X627199Y-558600D01*
X627199Y-565900D01*
X629000Y-571399D01*
X632600Y-575000D01*
X665399Y-537500D02*
G01*
X627199Y-528499D01*
X665399Y-519400D02*
G01*
X627199Y-528499D01*
X665399Y-519400D02*
G01*
X627199Y-510300D01*
X665399Y-501199D02*
G01*
X627199Y-510300D01*
X656300Y-461900D02*
G01*
X659899Y-463699D01*
X663499Y-467399D01*
X665399Y-470999D01*
X665399Y-478299D01*
X663499Y-481900D01*
X659899Y-485500D01*
X656300Y-487399D01*
X650799Y-489200D01*
X641700Y-489200D01*
X636300Y-487399D01*
X632600Y-485500D01*
X629000Y-481900D01*
X627199Y-478299D01*
X627199Y-470999D01*
X629000Y-467399D01*
X632600Y-463699D01*
X636300Y-461900D01*
X665399Y-449899D02*
G01*
X627199Y-449899D01*
X627199Y-449899D02*
G01*
X627199Y-428099D01*
X665399Y-416100D02*
G01*
X627199Y-416100D01*
X665399Y-390599D02*
G01*
X639899Y-416100D01*
X649000Y-406999D02*
G01*
X627199Y-390599D01*
X559899Y-549499D02*
G01*
X563499Y-553200D01*
X565399Y-558600D01*
X565399Y-565900D01*
X563499Y-571399D01*
X559899Y-575000D01*
X556300Y-575000D01*
X552600Y-573200D01*
X550799Y-571399D01*
X549000Y-567699D01*
X545399Y-556799D01*
X543499Y-553200D01*
X541700Y-551399D01*
X538099Y-549499D01*
X532600Y-549499D01*
X529000Y-553200D01*
X527199Y-558600D01*
X527199Y-565900D01*
X529000Y-571399D01*
X532600Y-575000D01*
X565399Y-537500D02*
G01*
X527199Y-528499D01*
X565399Y-519400D02*
G01*
X527199Y-528499D01*
X565399Y-519400D02*
G01*
X527199Y-510300D01*
X565399Y-501199D02*
G01*
X527199Y-510300D01*
X565399Y-489200D02*
G01*
X527199Y-489200D01*
X565399Y-489200D02*
G01*
X565399Y-476500D01*
X563499Y-470999D01*
X559899Y-467399D01*
X556300Y-465500D01*
X550799Y-463699D01*
X541700Y-463699D01*
X536300Y-465500D01*
X532600Y-467399D01*
X529000Y-470999D01*
X527199Y-476500D01*
X527199Y-489200D01*
X565399Y-451700D02*
G01*
X527199Y-451700D01*
X565399Y-428800D02*
G01*
X563499Y-432500D01*
X559899Y-436100D01*
X556300Y-437899D01*
X550799Y-439699D01*
X541700Y-439699D01*
X536300Y-437899D01*
X532600Y-436100D01*
X529000Y-432500D01*
X527199Y-428800D01*
X527199Y-421500D01*
X529000Y-417899D01*
X532600Y-414299D01*
X536300Y-412500D01*
X541700Y-410599D01*
X550799Y-410599D01*
X556300Y-412500D01*
X559899Y-414299D01*
X563499Y-417899D01*
X565399Y-421500D01*
X565399Y-428800D01*
X465399Y-575000D02*
G01*
X427199Y-575000D01*
X465399Y-575000D02*
G01*
X465399Y-558600D01*
X463499Y-553200D01*
X461700Y-551399D01*
X458099Y-549499D01*
X454499Y-549499D01*
X450799Y-551399D01*
X449000Y-553200D01*
X447199Y-558600D01*
X447199Y-575000D01*
X447199Y-562300D02*
G01*
X427199Y-549499D01*
X465399Y-537500D02*
G01*
X427199Y-537500D01*
X465399Y-537500D02*
G01*
X465399Y-513899D01*
X447199Y-537500D02*
G01*
X447199Y-523000D01*
X427199Y-537500D02*
G01*
X427199Y-513899D01*
X459899Y-476500D02*
G01*
X463499Y-480100D01*
X465399Y-485500D01*
X465399Y-492800D01*
X463499Y-498299D01*
X459899Y-501900D01*
X456300Y-501900D01*
X452600Y-500100D01*
X450799Y-498299D01*
X449000Y-494600D01*
X445399Y-483699D01*
X443499Y-480100D01*
X441700Y-478299D01*
X438099Y-476500D01*
X432600Y-476500D01*
X429000Y-480100D01*
X427199Y-485500D01*
X427199Y-492800D01*
X429000Y-498299D01*
X432600Y-501900D01*
X465399Y-464499D02*
G01*
X427199Y-464499D01*
X465399Y-464499D02*
G01*
X465399Y-440799D01*
X447199Y-464499D02*
G01*
X447199Y-449899D01*
X427199Y-464499D02*
G01*
X427199Y-440799D01*
X465399Y-416100D02*
G01*
X427199Y-416100D01*
X465399Y-428800D02*
G01*
X465399Y-403400D01*
X804591Y500000D02*
G01*
X847545Y500000D01*
X804591Y471363D02*
G01*
X847545Y471363D01*
X825045Y500000D02*
G01*
X825045Y471363D01*
X812772Y457863D02*
G01*
X810726Y453773D01*
X804591Y447636D01*
X847545Y447636D01*
X804591Y-300000D02*
G01*
X847545Y-300000D01*
X804591Y-328636D02*
G01*
X847545Y-328636D01*
X825045Y-300000D02*
G01*
X825045Y-328636D01*
X814817Y-344182D02*
G01*
X812772Y-344182D01*
X808681Y-346226D01*
X806635Y-348272D01*
X804591Y-352363D01*
X804591Y-360545D01*
X806635Y-364636D01*
X808681Y-366682D01*
X812772Y-368726D01*
X816863Y-368726D01*
X820955Y-366682D01*
X827091Y-362591D01*
X847545Y-342136D01*
X847545Y-370772D01*
X3950000Y1095408D02*
G01*
X3950000Y1052455D01*
X3921364Y1095408D02*
G01*
X3921364Y1052455D01*
X3950000Y1074955D02*
G01*
X3921364Y1074955D01*
X3903773Y1095408D02*
G01*
X3881273Y1095408D01*
X3893545Y1079045D01*
X3887408Y1079045D01*
X3883317Y1076999D01*
X3881273Y1074955D01*
X3879227Y1068818D01*
X3879227Y1064726D01*
X3881273Y1058591D01*
X3885363Y1054499D01*
X3891499Y1052455D01*
X3897636Y1052455D01*
X3903773Y1054499D01*
X3905817Y1056545D01*
X3907863Y1060635D01*
D26*
X1970000Y-1520000D02*
G01*
X1970000Y-1995000D01*
X2780000Y-1520000D02*
G01*
X2780000Y-1995000D01*
X3950000Y1025000D02*
G01*
X3750000Y1025000D01*
X875000Y500000D02*
G01*
X875000Y300000D01*
X875000Y-300000D02*
G01*
X875000Y-500000D01*
D27*
X1885000Y-1966909D02*
G01*
X1885000Y-1994499D01*
X1275000Y-1994499D01*
X1275000Y-1966909D01*
X1275000Y-1720709D02*
G01*
X1275000Y-1545500D01*
X1342550Y-1545500D01*
X1817449Y-1545500D02*
G01*
X1885000Y-1545500D01*
X1885000Y-1720709D01*
X1719020Y-1545500D02*
G01*
X1736250Y-1545500D01*
X1620600Y-1545500D02*
G01*
X1637830Y-1545500D01*
X1522169Y-1545500D02*
G01*
X1539399Y-1545500D01*
X1423750Y-1545500D02*
G01*
X1440979Y-1545500D01*
X2695000Y-1956909D02*
G01*
X2695000Y-1984499D01*
X2085000Y-1984499D01*
X2085000Y-1956909D01*
X2085000Y-1710709D02*
G01*
X2085000Y-1535500D01*
X2152550Y-1535500D01*
X2627449Y-1535500D02*
G01*
X2695000Y-1535500D01*
X2695000Y-1710709D01*
X2529020Y-1535500D02*
G01*
X2546250Y-1535500D01*
X2430600Y-1535500D02*
G01*
X2447830Y-1535500D01*
X2332169Y-1535500D02*
G01*
X2349399Y-1535500D01*
X2233750Y-1535500D02*
G01*
X2250979Y-1535500D01*
D35*
X3020000Y-1028000D02*
G01*
X3138999Y-1028000D01*
X3238999Y830000D02*
G01*
X3356999Y830000D01*
X3138999Y803000D02*
G01*
X3138999Y831999D01*
X3238999Y831999D01*
X3238999Y830000D01*
X3238999Y801999D01*
X3138999Y-1003000D02*
G01*
X3138999Y-1028000D01*
X3238999Y-1028000D02*
G01*
X3238999Y-1001999D01*
X3138999Y-1028000D02*
G01*
X3238999Y-1028000D01*
D10*
X2900000Y300000D02*
G01*
X2900000Y500000D01*
X900000Y500000D01*
X900000Y300000D01*
X2900000Y300000D01*
X2900000Y400000D02*
G01*
X2800000Y400000D01*
X2800000Y300000D01*
X2900000Y-500000D02*
G01*
X2900000Y-300000D01*
X900000Y-300000D01*
X900000Y-500000D01*
X2900000Y-500000D01*
X2900000Y-400000D02*
G01*
X2800000Y-400000D01*
X2800000Y-500000D01*
X3950000Y1000000D02*
G01*
X3750000Y1000000D01*
X3750000Y-1000000D01*
X3950000Y-1000000D01*
X3950000Y1000000D01*
X3850000Y1000000D02*
G01*
X3850000Y900000D01*
X3950000Y900000D01*
D27*
G75*
G01*
X2075000Y-1573960D02*
G03*
X2075000Y-1574130I-15000J-85D01*
G75*
G01*
X1265000Y-1583960D02*
G03*
X1265000Y-1584130I-15000J-85D01*
G75*
G01*
X1895000Y-1583960D02*
G02*
X1895000Y-1584130I15000J-85D01*
G75*
G01*
X2705000Y-1573960D02*
G02*
X2705000Y-1574130I15000J-85D01*
M02*
