G04 Layer: TopPasteMaskLayer*
G04 EasyEDA v6.4.17, 2021-03-06T12:48:26--8:00*
G04 ee12d80863e34575bd4b21ebeaabd800,b5aacd518854429a9b9924e8a25dcfd8,10*
G04 Gerber Generator version 0.2*
G04 Scale: 100 percent, Rotated: No, Reflected: No *
G04 Dimensions in inches *
G04 leading zeros omitted , absolute positions ,3 integer and 6 decimal *
%FSLAX36Y36*%
%MOIN*%

%ADD12R,0.0315X0.0472*%
%ADD13R,0.0315X0.0480*%
%ADD14R,0.0630X0.0827*%
%ADD15R,0.0433X0.0394*%
%ADD16R,0.0217X0.0394*%
%ADD17R,0.0433X0.0276*%
%ADD18R,0.0748X0.0512*%
%ADD19R,0.0472X0.0315*%
%ADD20R,0.0480X0.0315*%
%ADD21R,0.0827X0.0630*%

%LPD*%
G36*
X2165649Y-1506970D02*
G01*
X2220649Y-1506970D01*
X2220649Y-1640959D01*
X2165649Y-1640959D01*
G37*
G36*
X2264080Y-1506970D02*
G01*
X2319070Y-1506970D01*
X2319070Y-1640959D01*
X2264080Y-1640959D01*
G37*
G36*
X2362500Y-1506970D02*
G01*
X2417500Y-1506970D01*
X2417500Y-1640959D01*
X2362500Y-1640959D01*
G37*
G36*
X2460929Y-1506970D02*
G01*
X2515919Y-1506970D01*
X2515919Y-1640959D01*
X2460929Y-1640959D01*
G37*
G36*
X2559350Y-1506970D02*
G01*
X2614350Y-1506970D01*
X2614350Y-1640959D01*
X2559350Y-1640959D01*
G37*
G36*
X2043320Y-1723809D02*
G01*
X2134319Y-1723809D01*
X2134319Y-1943809D01*
X2043320Y-1943809D01*
G37*
G36*
X2645680Y-1723809D02*
G01*
X2736679Y-1723809D01*
X2736679Y-1943809D01*
X2645680Y-1943809D01*
G37*
G36*
X1355649Y-1516970D02*
G01*
X1410649Y-1516970D01*
X1410649Y-1650959D01*
X1355649Y-1650959D01*
G37*
G36*
X1454080Y-1516970D02*
G01*
X1509070Y-1516970D01*
X1509070Y-1650959D01*
X1454080Y-1650959D01*
G37*
G36*
X1552500Y-1516970D02*
G01*
X1607500Y-1516970D01*
X1607500Y-1650959D01*
X1552500Y-1650959D01*
G37*
G36*
X1650929Y-1516970D02*
G01*
X1705919Y-1516970D01*
X1705919Y-1650959D01*
X1650929Y-1650959D01*
G37*
G36*
X1749350Y-1516970D02*
G01*
X1804350Y-1516970D01*
X1804350Y-1650959D01*
X1749350Y-1650959D01*
G37*
G36*
X1233320Y-1733809D02*
G01*
X1324319Y-1733809D01*
X1324319Y-1953809D01*
X1233320Y-1953809D01*
G37*
G36*
X1835680Y-1733809D02*
G01*
X1926679Y-1733809D01*
X1926679Y-1953809D01*
X1835680Y-1953809D01*
G37*
D12*
G01*
X742319Y-1729050D03*
G01*
X801369Y-1729050D03*
G01*
X919480Y-1729050D03*
D13*
G01*
X860429Y-1729050D03*
D12*
G01*
X978540Y-1729050D03*
G01*
X1037590Y-1729050D03*
D14*
G01*
X635509Y-1934090D03*
G01*
X1145910Y-1934090D03*
D15*
G01*
X860000Y-1511493D03*
G01*
X860000Y-1448503D03*
G01*
X980000Y-1511493D03*
G01*
X980000Y-1448503D03*
D16*
G01*
X867397Y-1369058D03*
G01*
X792596Y-1369058D03*
G01*
X792596Y-1250947D03*
G01*
X829997Y-1250947D03*
G01*
X867397Y-1250947D03*
G01*
X1047397Y-1369058D03*
G01*
X972596Y-1369058D03*
G01*
X972596Y-1250947D03*
G01*
X1009997Y-1250947D03*
G01*
X1047397Y-1250947D03*
D17*
G01*
X4240000Y-304879D03*
G01*
X4240000Y-245830D03*
G01*
X4240000Y-127719D03*
G01*
X4240000Y-186770D03*
G01*
X4240000Y-68659D03*
G01*
X4240000Y-9609D03*
G01*
X4240000Y49450D03*
G01*
X4240000Y108499D03*
D18*
G01*
X4445039Y-406729D03*
G01*
X4445039Y210349D03*
D19*
G01*
X4229049Y522319D03*
G01*
X4229049Y581370D03*
G01*
X4229049Y699479D03*
D20*
G01*
X4229049Y640430D03*
D19*
G01*
X4229049Y758539D03*
G01*
X4229049Y817590D03*
D21*
G01*
X4434089Y415509D03*
G01*
X4434089Y925909D03*
G36*
X980000Y1910000D02*
G01*
X1020000Y1910000D01*
X1020000Y1730000D01*
X980000Y1730000D01*
G37*
G36*
X1080000Y1910000D02*
G01*
X1120000Y1910000D01*
X1120000Y1730000D01*
X1080000Y1730000D01*
G37*
G36*
X1180000Y1910000D02*
G01*
X1220000Y1910000D01*
X1220000Y1730000D01*
X1180000Y1730000D01*
G37*
G36*
X1280000Y1910000D02*
G01*
X1320000Y1910000D01*
X1320000Y1730000D01*
X1280000Y1730000D01*
G37*
G36*
X2280000Y1910000D02*
G01*
X2320000Y1910000D01*
X2320000Y1730000D01*
X2280000Y1730000D01*
G37*
G36*
X2380000Y1910000D02*
G01*
X2420000Y1910000D01*
X2420000Y1730000D01*
X2380000Y1730000D01*
G37*
G36*
X2480000Y1910000D02*
G01*
X2520000Y1910000D01*
X2520000Y1730000D01*
X2480000Y1730000D01*
G37*
G36*
X2580000Y1910000D02*
G01*
X2620000Y1910000D01*
X2620000Y1730000D01*
X2580000Y1730000D01*
G37*
G36*
X1630000Y1910000D02*
G01*
X1670000Y1910000D01*
X1670000Y1730000D01*
X1630000Y1730000D01*
G37*
G36*
X1730000Y1910000D02*
G01*
X1770000Y1910000D01*
X1770000Y1730000D01*
X1730000Y1730000D01*
G37*
G36*
X1830000Y1910000D02*
G01*
X1870000Y1910000D01*
X1870000Y1730000D01*
X1830000Y1730000D01*
G37*
G36*
X1930000Y1910000D02*
G01*
X1970000Y1910000D01*
X1970000Y1730000D01*
X1930000Y1730000D01*
G37*
M02*
