G04 Layer: TopSilkLayer*
G04 EasyEDA v6.4.17, 2021-03-06T13:06:27--8:00*
G04 8048d1b9ce964284ad8fe1d85055880a,b5aacd518854429a9b9924e8a25dcfd8,10*
G04 Gerber Generator version 0.2*
G04 Scale: 100 percent, Rotated: No, Reflected: No *
G04 Dimensions in inches *
G04 leading zeros omitted , absolute positions ,3 integer and 6 decimal *
%FSLAX36Y36*%
%MOIN*%

%ADD10C,0.0100*%
%ADD11C,0.0150*%
%ADD35C,0.0200*%
%ADD36C,0.0039*%
%ADD37C,0.0050*%
%ADD38C,0.0079*%
%ADD39C,0.0158*%
%ADD40C,0.0040*%
%ADD41C,0.0080*%
%ADD42C,0.0120*%
%ADD43C,0.0060*%

%LPD*%
D40*
X3024499Y-1056799D02*
G01*
X3072299Y-1075000D01*
X3024499Y-1056799D02*
G01*
X3072299Y-1038600D01*
X3056400Y-1068200D02*
G01*
X3056400Y-1045500D01*
X3024499Y-1023600D02*
G01*
X3072299Y-1023600D01*
X3024499Y-1023600D02*
G01*
X3024499Y-1007699D01*
X3026800Y-1000900D01*
X3031400Y-996399D01*
X3035900Y-994099D01*
X3042700Y-991799D01*
X3054099Y-991799D01*
X3060900Y-994099D01*
X3065500Y-996399D01*
X3070000Y-1000900D01*
X3072299Y-1007699D01*
X3072299Y-1023600D01*
X3024499Y-976799D02*
G01*
X3072299Y-976799D01*
X3024499Y-976799D02*
G01*
X3024499Y-960900D01*
X3026800Y-954099D01*
X3031400Y-949499D01*
X3035900Y-947300D01*
X3042700Y-945000D01*
X3054099Y-945000D01*
X3060900Y-947300D01*
X3065500Y-949499D01*
X3070000Y-954099D01*
X3072299Y-960900D01*
X3072299Y-976799D01*
X3024499Y-930000D02*
G01*
X3072299Y-930000D01*
X3024499Y-930000D02*
G01*
X3024499Y-909499D01*
X3026800Y-902699D01*
X3029099Y-900500D01*
X3033599Y-898200D01*
X3038199Y-898200D01*
X3042700Y-900500D01*
X3045000Y-902699D01*
X3047299Y-909499D01*
X3047299Y-930000D01*
X3047299Y-914099D02*
G01*
X3072299Y-898200D01*
X3024499Y-878600D02*
G01*
X3024499Y-853600D01*
X3042700Y-867300D01*
X3042700Y-860500D01*
X3045000Y-855900D01*
X3047299Y-853600D01*
X3054099Y-851399D01*
X3058599Y-851399D01*
X3065500Y-853600D01*
X3070000Y-858200D01*
X3072299Y-865000D01*
X3072299Y-871799D01*
X3070000Y-878600D01*
X3067700Y-880900D01*
X3063199Y-883200D01*
X1824499Y-1056799D02*
G01*
X1872299Y-1075000D01*
X1824499Y-1056799D02*
G01*
X1872299Y-1038600D01*
X1856400Y-1068200D02*
G01*
X1856400Y-1045500D01*
X1824499Y-1023600D02*
G01*
X1872299Y-1023600D01*
X1824499Y-1023600D02*
G01*
X1824499Y-1007699D01*
X1826800Y-1000900D01*
X1831400Y-996399D01*
X1835900Y-994099D01*
X1842700Y-991799D01*
X1854099Y-991799D01*
X1860900Y-994099D01*
X1865500Y-996399D01*
X1870000Y-1000900D01*
X1872299Y-1007699D01*
X1872299Y-1023600D01*
X1824499Y-976799D02*
G01*
X1872299Y-976799D01*
X1824499Y-976799D02*
G01*
X1824499Y-960900D01*
X1826800Y-954099D01*
X1831400Y-949499D01*
X1835900Y-947300D01*
X1842700Y-945000D01*
X1854099Y-945000D01*
X1860900Y-947300D01*
X1865500Y-949499D01*
X1870000Y-954099D01*
X1872299Y-960900D01*
X1872299Y-976799D01*
X1824499Y-930000D02*
G01*
X1872299Y-930000D01*
X1824499Y-930000D02*
G01*
X1824499Y-909499D01*
X1826800Y-902699D01*
X1829099Y-900500D01*
X1833599Y-898200D01*
X1838199Y-898200D01*
X1842700Y-900500D01*
X1845000Y-902699D01*
X1847299Y-909499D01*
X1847299Y-930000D01*
X1847299Y-914099D02*
G01*
X1872299Y-898200D01*
X1835900Y-880900D02*
G01*
X1833599Y-880900D01*
X1829099Y-878600D01*
X1826800Y-876399D01*
X1824499Y-871799D01*
X1824499Y-862699D01*
X1826800Y-858200D01*
X1829099Y-855900D01*
X1833599Y-853600D01*
X1838199Y-853600D01*
X1842700Y-855900D01*
X1849499Y-860500D01*
X1872299Y-883200D01*
X1872299Y-851399D01*
X2375500Y1056799D02*
G01*
X2327700Y1075000D01*
X2375500Y1056799D02*
G01*
X2327700Y1038600D01*
X2343599Y1068200D02*
G01*
X2343599Y1045500D01*
X2375500Y1023600D02*
G01*
X2327700Y1023600D01*
X2375500Y1023600D02*
G01*
X2375500Y1007699D01*
X2373199Y1000900D01*
X2368599Y996399D01*
X2364099Y994099D01*
X2357299Y991799D01*
X2345900Y991799D01*
X2339099Y994099D01*
X2334499Y996399D01*
X2330000Y1000900D01*
X2327700Y1007699D01*
X2327700Y1023600D01*
X2375500Y976799D02*
G01*
X2327700Y976799D01*
X2375500Y976799D02*
G01*
X2375500Y960900D01*
X2373199Y954099D01*
X2368599Y949499D01*
X2364099Y947300D01*
X2357299Y945000D01*
X2345900Y945000D01*
X2339099Y947300D01*
X2334499Y949499D01*
X2330000Y954099D01*
X2327700Y960900D01*
X2327700Y976799D01*
X2375500Y930000D02*
G01*
X2327700Y930000D01*
X2375500Y930000D02*
G01*
X2375500Y909499D01*
X2373199Y902699D01*
X2370900Y900500D01*
X2366400Y898200D01*
X2361800Y898200D01*
X2357299Y900500D01*
X2355000Y902699D01*
X2352700Y909499D01*
X2352700Y930000D01*
X2352700Y914099D02*
G01*
X2327700Y898200D01*
X2375500Y869499D02*
G01*
X2373199Y876399D01*
X2366400Y880900D01*
X2355000Y883200D01*
X2348199Y883200D01*
X2336800Y880900D01*
X2330000Y876399D01*
X2327700Y869499D01*
X2327700Y865000D01*
X2330000Y858200D01*
X2336800Y853600D01*
X2348199Y851399D01*
X2355000Y851399D01*
X2366400Y853600D01*
X2373199Y858200D01*
X2375500Y865000D01*
X2375500Y869499D01*
X1175500Y1056799D02*
G01*
X1127700Y1075000D01*
X1175500Y1056799D02*
G01*
X1127700Y1038600D01*
X1143599Y1068200D02*
G01*
X1143599Y1045500D01*
X1175500Y1023600D02*
G01*
X1127700Y1023600D01*
X1175500Y1023600D02*
G01*
X1175500Y1007699D01*
X1173199Y1000900D01*
X1168599Y996399D01*
X1164099Y994099D01*
X1157299Y991799D01*
X1145900Y991799D01*
X1139099Y994099D01*
X1134499Y996399D01*
X1130000Y1000900D01*
X1127700Y1007699D01*
X1127700Y1023600D01*
X1175500Y976799D02*
G01*
X1127700Y976799D01*
X1175500Y976799D02*
G01*
X1175500Y960900D01*
X1173199Y954099D01*
X1168599Y949499D01*
X1164099Y947300D01*
X1157299Y945000D01*
X1145900Y945000D01*
X1139099Y947300D01*
X1134499Y949499D01*
X1130000Y954099D01*
X1127700Y960900D01*
X1127700Y976799D01*
X1175500Y930000D02*
G01*
X1127700Y930000D01*
X1175500Y930000D02*
G01*
X1175500Y909499D01*
X1173199Y902699D01*
X1170900Y900500D01*
X1166400Y898200D01*
X1161800Y898200D01*
X1157299Y900500D01*
X1155000Y902699D01*
X1152700Y909499D01*
X1152700Y930000D01*
X1152700Y914099D02*
G01*
X1127700Y898200D01*
X1166400Y883200D02*
G01*
X1168599Y878600D01*
X1175500Y871799D01*
X1127700Y871799D01*
D41*
X749499Y-2025000D02*
G01*
X797299Y-2025000D01*
X749499Y-2025000D02*
G01*
X797299Y-2006799D01*
X749499Y-1988600D02*
G01*
X797299Y-2006799D01*
X749499Y-1988600D02*
G01*
X797299Y-1988600D01*
X760900Y-1971399D02*
G01*
X758600Y-1971399D01*
X754099Y-1969099D01*
X751799Y-1966799D01*
X749499Y-1962300D01*
X749499Y-1953200D01*
X751799Y-1948600D01*
X754099Y-1946399D01*
X758600Y-1944099D01*
X763199Y-1944099D01*
X767700Y-1946399D01*
X774499Y-1950900D01*
X797299Y-1973600D01*
X797299Y-1941799D01*
X749499Y-1926799D02*
G01*
X797299Y-1926799D01*
X749499Y-1926799D02*
G01*
X749499Y-1906399D01*
X751799Y-1899499D01*
X754099Y-1897300D01*
X758600Y-1895000D01*
X763199Y-1895000D01*
X767700Y-1897300D01*
X770000Y-1899499D01*
X772299Y-1906399D01*
X772299Y-1926799D02*
G01*
X772299Y-1906399D01*
X774499Y-1899499D01*
X776800Y-1897300D01*
X781400Y-1895000D01*
X788199Y-1895000D01*
X792700Y-1897300D01*
X795000Y-1899499D01*
X797299Y-1906399D01*
X797299Y-1926799D01*
X649499Y-2025000D02*
G01*
X697300Y-2025000D01*
X649499Y-2025000D02*
G01*
X697300Y-2006799D01*
X649499Y-1988600D02*
G01*
X697300Y-2006799D01*
X649499Y-1988600D02*
G01*
X697300Y-1988600D01*
X660900Y-1971399D02*
G01*
X658600Y-1971399D01*
X654099Y-1969099D01*
X651799Y-1966799D01*
X649499Y-1962300D01*
X649499Y-1953200D01*
X651799Y-1948600D01*
X654099Y-1946399D01*
X658600Y-1944099D01*
X663200Y-1944099D01*
X667699Y-1946399D01*
X674499Y-1950900D01*
X697300Y-1973600D01*
X697300Y-1941799D01*
X649499Y-1908600D02*
G01*
X697300Y-1926799D01*
X649499Y-1908600D02*
G01*
X697300Y-1890500D01*
X681399Y-1920000D02*
G01*
X681399Y-1897300D01*
X549499Y-2025000D02*
G01*
X597300Y-2025000D01*
X549499Y-2025000D02*
G01*
X597300Y-2006799D01*
X549499Y-1988600D02*
G01*
X597300Y-2006799D01*
X549499Y-1988600D02*
G01*
X597300Y-1988600D01*
X558600Y-1973600D02*
G01*
X556399Y-1969099D01*
X549499Y-1962300D01*
X597300Y-1962300D01*
X549499Y-1929099D02*
G01*
X597300Y-1947300D01*
X549499Y-1929099D02*
G01*
X597300Y-1910900D01*
X581399Y-1940500D02*
G01*
X581399Y-1917699D01*
X449499Y-2025000D02*
G01*
X497300Y-2025000D01*
X449499Y-2025000D02*
G01*
X497300Y-2006799D01*
X449499Y-1988600D02*
G01*
X497300Y-2006799D01*
X449499Y-1988600D02*
G01*
X497300Y-1988600D01*
X458600Y-1973600D02*
G01*
X456399Y-1969099D01*
X449499Y-1962300D01*
X497300Y-1962300D01*
X449499Y-1947300D02*
G01*
X497300Y-1947300D01*
X449499Y-1947300D02*
G01*
X449499Y-1926799D01*
X451799Y-1920000D01*
X454099Y-1917699D01*
X458600Y-1915500D01*
X463200Y-1915500D01*
X467699Y-1917699D01*
X470000Y-1920000D01*
X472300Y-1926799D01*
X472300Y-1947300D02*
G01*
X472300Y-1926799D01*
X474499Y-1920000D01*
X476799Y-1917699D01*
X481399Y-1915500D01*
X488200Y-1915500D01*
X492699Y-1917699D01*
X495000Y-1920000D01*
X497300Y-1926799D01*
X497300Y-1947300D01*
X2675500Y1725000D02*
G01*
X2627700Y1725000D01*
X2675500Y1725000D02*
G01*
X2627700Y1706799D01*
X2675500Y1688600D02*
G01*
X2627700Y1706799D01*
X2675500Y1688600D02*
G01*
X2627700Y1688600D01*
X2664099Y1671399D02*
G01*
X2666400Y1671399D01*
X2670900Y1669099D01*
X2673199Y1666799D01*
X2675500Y1662300D01*
X2675500Y1653200D01*
X2673199Y1648600D01*
X2670900Y1646399D01*
X2666400Y1644099D01*
X2661800Y1644099D01*
X2657299Y1646399D01*
X2650500Y1650900D01*
X2627700Y1673600D01*
X2627700Y1641799D01*
X2675500Y1626799D02*
G01*
X2627700Y1626799D01*
X2675500Y1626799D02*
G01*
X2675500Y1606399D01*
X2673199Y1599499D01*
X2670900Y1597300D01*
X2666400Y1595000D01*
X2661800Y1595000D01*
X2657299Y1597300D01*
X2655000Y1599499D01*
X2652700Y1606399D01*
X2652700Y1626799D02*
G01*
X2652700Y1606399D01*
X2650500Y1599499D01*
X2648199Y1597300D01*
X2643599Y1595000D01*
X2636800Y1595000D01*
X2632299Y1597300D01*
X2630000Y1599499D01*
X2627700Y1606399D01*
X2627700Y1626799D01*
X2775500Y1725000D02*
G01*
X2727700Y1725000D01*
X2775500Y1725000D02*
G01*
X2727700Y1706799D01*
X2775500Y1688600D02*
G01*
X2727700Y1706799D01*
X2775500Y1688600D02*
G01*
X2727700Y1688600D01*
X2764099Y1671399D02*
G01*
X2766400Y1671399D01*
X2770900Y1669099D01*
X2773199Y1666799D01*
X2775500Y1662300D01*
X2775500Y1653200D01*
X2773199Y1648600D01*
X2770900Y1646399D01*
X2766400Y1644099D01*
X2761800Y1644099D01*
X2757299Y1646399D01*
X2750500Y1650900D01*
X2727700Y1673600D01*
X2727700Y1641799D01*
X2775500Y1608600D02*
G01*
X2727700Y1626799D01*
X2775500Y1608600D02*
G01*
X2727700Y1590500D01*
X2743599Y1620000D02*
G01*
X2743599Y1597300D01*
X2875500Y1700000D02*
G01*
X2827700Y1700000D01*
X2875500Y1700000D02*
G01*
X2827700Y1681799D01*
X2875500Y1663600D02*
G01*
X2827700Y1681799D01*
X2875500Y1663600D02*
G01*
X2827700Y1663600D01*
X2866400Y1648600D02*
G01*
X2868599Y1644099D01*
X2875500Y1637300D01*
X2827700Y1637300D01*
X2875500Y1604099D02*
G01*
X2827700Y1622300D01*
X2875500Y1604099D02*
G01*
X2827700Y1585900D01*
X2843599Y1615500D02*
G01*
X2843599Y1592699D01*
X2975500Y1700000D02*
G01*
X2927700Y1700000D01*
X2975500Y1700000D02*
G01*
X2927700Y1681799D01*
X2975500Y1663600D02*
G01*
X2927700Y1681799D01*
X2975500Y1663600D02*
G01*
X2927700Y1663600D01*
X2966400Y1648600D02*
G01*
X2968599Y1644099D01*
X2975500Y1637300D01*
X2927700Y1637300D01*
X2975500Y1622300D02*
G01*
X2927700Y1622300D01*
X2975500Y1622300D02*
G01*
X2975500Y1601799D01*
X2973199Y1595000D01*
X2970900Y1592699D01*
X2966400Y1590500D01*
X2961800Y1590500D01*
X2957299Y1592699D01*
X2955000Y1595000D01*
X2952700Y1601799D01*
X2952700Y1622300D02*
G01*
X2952700Y1601799D01*
X2950500Y1595000D01*
X2948199Y1592699D01*
X2943599Y1590500D01*
X2936800Y1590500D01*
X2932299Y1592699D01*
X2930000Y1595000D01*
X2927700Y1601799D01*
X2927700Y1622300D01*
X2975500Y800000D02*
G01*
X2941400Y800000D01*
X2934499Y797699D01*
X2930000Y793200D01*
X2927700Y786399D01*
X2927700Y781799D01*
X2930000Y775000D01*
X2934499Y770500D01*
X2941400Y768200D01*
X2975500Y768200D01*
X2975500Y735000D02*
G01*
X2927700Y753200D01*
X2975500Y735000D02*
G01*
X2927700Y716799D01*
X2943599Y746399D02*
G01*
X2943599Y723600D01*
X2975500Y701799D02*
G01*
X2927700Y701799D01*
X2975500Y701799D02*
G01*
X2975500Y681399D01*
X2973199Y674499D01*
X2970900Y672300D01*
X2966400Y670000D01*
X2961800Y670000D01*
X2957299Y672300D01*
X2955000Y674499D01*
X2952700Y681399D01*
X2952700Y701799D01*
X2952700Y685900D02*
G01*
X2927700Y670000D01*
X2975500Y639099D02*
G01*
X2927700Y639099D01*
X2975500Y655000D02*
G01*
X2975500Y623200D01*
X3064099Y797699D02*
G01*
X3066400Y797699D01*
X3070900Y795500D01*
X3073199Y793200D01*
X3075500Y788600D01*
X3075500Y779499D01*
X3073199Y775000D01*
X3070900Y772699D01*
X3066400Y770500D01*
X3061800Y770500D01*
X3057299Y772699D01*
X3050500Y777300D01*
X3027700Y800000D01*
X3027700Y768200D01*
X3068599Y725900D02*
G01*
X3073199Y728200D01*
X3075500Y735000D01*
X3075500Y739499D01*
X3073199Y746399D01*
X3066400Y750900D01*
X3055000Y753200D01*
X3043599Y753200D01*
X3034499Y750900D01*
X3030000Y746399D01*
X3027700Y739499D01*
X3027700Y737300D01*
X3030000Y730500D01*
X3034499Y725900D01*
X3041400Y723600D01*
X3043599Y723600D01*
X3050500Y725900D01*
X3055000Y730500D01*
X3057299Y737300D01*
X3057299Y739499D01*
X3055000Y746399D01*
X3050500Y750900D01*
X3043599Y753200D01*
X3164099Y797699D02*
G01*
X3166400Y797699D01*
X3170900Y795500D01*
X3173199Y793200D01*
X3175500Y788600D01*
X3175500Y779499D01*
X3173199Y775000D01*
X3170900Y772699D01*
X3166400Y770500D01*
X3161800Y770500D01*
X3157299Y772699D01*
X3150500Y777300D01*
X3127700Y800000D01*
X3127700Y768200D01*
X3175500Y741799D02*
G01*
X3173199Y748600D01*
X3168599Y750900D01*
X3164099Y750900D01*
X3159499Y748600D01*
X3157299Y744099D01*
X3155000Y735000D01*
X3152700Y728200D01*
X3148199Y723600D01*
X3143599Y721399D01*
X3136800Y721399D01*
X3132299Y723600D01*
X3130000Y725900D01*
X3127700Y732699D01*
X3127700Y741799D01*
X3130000Y748600D01*
X3132299Y750900D01*
X3136800Y753200D01*
X3143599Y753200D01*
X3148199Y750900D01*
X3152700Y746399D01*
X3155000Y739499D01*
X3157299Y730500D01*
X3159499Y725900D01*
X3164099Y723600D01*
X3168599Y723600D01*
X3173199Y725900D01*
X3175500Y732699D01*
X3175500Y741799D01*
X1475500Y1725000D02*
G01*
X1427700Y1725000D01*
X1475500Y1725000D02*
G01*
X1427700Y1706799D01*
X1475500Y1688600D02*
G01*
X1427700Y1706799D01*
X1475500Y1688600D02*
G01*
X1427700Y1688600D01*
X1464099Y1671399D02*
G01*
X1466400Y1671399D01*
X1470900Y1669099D01*
X1473199Y1666799D01*
X1475500Y1662300D01*
X1475500Y1653200D01*
X1473199Y1648600D01*
X1470900Y1646399D01*
X1466400Y1644099D01*
X1461800Y1644099D01*
X1457299Y1646399D01*
X1450500Y1650900D01*
X1427700Y1673600D01*
X1427700Y1641799D01*
X1475500Y1626799D02*
G01*
X1427700Y1626799D01*
X1475500Y1626799D02*
G01*
X1475500Y1606399D01*
X1473199Y1599499D01*
X1470900Y1597300D01*
X1466400Y1595000D01*
X1461800Y1595000D01*
X1457299Y1597300D01*
X1455000Y1599499D01*
X1452700Y1606399D01*
X1452700Y1626799D02*
G01*
X1452700Y1606399D01*
X1450500Y1599499D01*
X1448199Y1597300D01*
X1443599Y1595000D01*
X1436800Y1595000D01*
X1432299Y1597300D01*
X1430000Y1599499D01*
X1427700Y1606399D01*
X1427700Y1626799D01*
X1575500Y1725000D02*
G01*
X1527700Y1725000D01*
X1575500Y1725000D02*
G01*
X1527700Y1706799D01*
X1575500Y1688600D02*
G01*
X1527700Y1706799D01*
X1575500Y1688600D02*
G01*
X1527700Y1688600D01*
X1564099Y1671399D02*
G01*
X1566400Y1671399D01*
X1570900Y1669099D01*
X1573199Y1666799D01*
X1575500Y1662300D01*
X1575500Y1653200D01*
X1573199Y1648600D01*
X1570900Y1646399D01*
X1566400Y1644099D01*
X1561800Y1644099D01*
X1557299Y1646399D01*
X1550500Y1650900D01*
X1527700Y1673600D01*
X1527700Y1641799D01*
X1575500Y1608600D02*
G01*
X1527700Y1626799D01*
X1575500Y1608600D02*
G01*
X1527700Y1590500D01*
X1543599Y1620000D02*
G01*
X1543599Y1597300D01*
X1675500Y1700000D02*
G01*
X1627700Y1700000D01*
X1675500Y1700000D02*
G01*
X1627700Y1681799D01*
X1675500Y1663600D02*
G01*
X1627700Y1681799D01*
X1675500Y1663600D02*
G01*
X1627700Y1663600D01*
X1666400Y1648600D02*
G01*
X1668599Y1644099D01*
X1675500Y1637300D01*
X1627700Y1637300D01*
X1675500Y1604099D02*
G01*
X1627700Y1622300D01*
X1675500Y1604099D02*
G01*
X1627700Y1585900D01*
X1643599Y1615500D02*
G01*
X1643599Y1592699D01*
X1775500Y1700000D02*
G01*
X1727700Y1700000D01*
X1775500Y1700000D02*
G01*
X1727700Y1681799D01*
X1775500Y1663600D02*
G01*
X1727700Y1681799D01*
X1775500Y1663600D02*
G01*
X1727700Y1663600D01*
X1766400Y1648600D02*
G01*
X1768599Y1644099D01*
X1775500Y1637300D01*
X1727700Y1637300D01*
X1775500Y1622300D02*
G01*
X1727700Y1622300D01*
X1775500Y1622300D02*
G01*
X1775500Y1601799D01*
X1773199Y1595000D01*
X1770900Y1592699D01*
X1766400Y1590500D01*
X1761800Y1590500D01*
X1757299Y1592699D01*
X1755000Y1595000D01*
X1752700Y1601799D01*
X1752700Y1622300D02*
G01*
X1752700Y1601799D01*
X1750500Y1595000D01*
X1748199Y1592699D01*
X1743599Y1590500D01*
X1736800Y1590500D01*
X1732299Y1592699D01*
X1730000Y1595000D01*
X1727700Y1601799D01*
X1727700Y1622300D01*
X1675500Y800000D02*
G01*
X1641400Y800000D01*
X1634499Y797699D01*
X1630000Y793200D01*
X1627700Y786399D01*
X1627700Y781799D01*
X1630000Y775000D01*
X1634499Y770500D01*
X1641400Y768200D01*
X1675500Y768200D01*
X1675500Y735000D02*
G01*
X1627700Y753200D01*
X1675500Y735000D02*
G01*
X1627700Y716799D01*
X1643599Y746399D02*
G01*
X1643599Y723600D01*
X1675500Y701799D02*
G01*
X1627700Y701799D01*
X1675500Y701799D02*
G01*
X1675500Y681399D01*
X1673199Y674499D01*
X1670900Y672300D01*
X1666400Y670000D01*
X1661800Y670000D01*
X1657299Y672300D01*
X1655000Y674499D01*
X1652700Y681399D01*
X1652700Y701799D01*
X1652700Y685900D02*
G01*
X1627700Y670000D01*
X1675500Y639099D02*
G01*
X1627700Y639099D01*
X1675500Y655000D02*
G01*
X1675500Y623200D01*
X1775500Y800000D02*
G01*
X1741400Y800000D01*
X1734499Y797699D01*
X1730000Y793200D01*
X1727700Y786399D01*
X1727700Y781799D01*
X1730000Y775000D01*
X1734499Y770500D01*
X1741400Y768200D01*
X1775500Y768200D01*
X1775500Y735000D02*
G01*
X1727700Y753200D01*
X1775500Y735000D02*
G01*
X1727700Y716799D01*
X1743599Y746399D02*
G01*
X1743599Y723600D01*
X1775500Y701799D02*
G01*
X1727700Y701799D01*
X1775500Y701799D02*
G01*
X1775500Y681399D01*
X1773199Y674499D01*
X1770900Y672300D01*
X1766400Y670000D01*
X1761800Y670000D01*
X1757299Y672300D01*
X1755000Y674499D01*
X1752700Y681399D01*
X1752700Y701799D01*
X1752700Y685900D02*
G01*
X1727700Y670000D01*
X1775500Y639099D02*
G01*
X1727700Y639099D01*
X1775500Y655000D02*
G01*
X1775500Y623200D01*
X1864099Y797699D02*
G01*
X1866400Y797699D01*
X1870900Y795500D01*
X1873199Y793200D01*
X1875500Y788600D01*
X1875500Y779499D01*
X1873199Y775000D01*
X1870900Y772699D01*
X1866400Y770500D01*
X1861800Y770500D01*
X1857299Y772699D01*
X1850500Y777300D01*
X1827700Y800000D01*
X1827700Y768200D01*
X1864099Y750900D02*
G01*
X1866400Y750900D01*
X1870900Y748600D01*
X1873199Y746399D01*
X1875500Y741799D01*
X1875500Y732699D01*
X1873199Y728200D01*
X1870900Y725900D01*
X1866400Y723600D01*
X1861800Y723600D01*
X1857299Y725900D01*
X1850500Y730500D01*
X1827700Y753200D01*
X1827700Y721399D01*
X1964099Y797699D02*
G01*
X1966400Y797699D01*
X1970900Y795500D01*
X1973199Y793200D01*
X1975500Y788600D01*
X1975500Y779499D01*
X1973199Y775000D01*
X1970900Y772699D01*
X1966400Y770500D01*
X1961800Y770500D01*
X1957299Y772699D01*
X1950500Y777300D01*
X1927700Y800000D01*
X1927700Y768200D01*
X1975500Y730500D02*
G01*
X1943599Y753200D01*
X1943599Y719099D01*
X1975500Y730500D02*
G01*
X1927700Y730500D01*
X2724499Y-1725000D02*
G01*
X2772299Y-1725000D01*
X2724499Y-1725000D02*
G01*
X2772299Y-1706799D01*
X2724499Y-1688600D02*
G01*
X2772299Y-1706799D01*
X2724499Y-1688600D02*
G01*
X2772299Y-1688600D01*
X2735900Y-1671399D02*
G01*
X2733599Y-1671399D01*
X2729099Y-1669099D01*
X2726800Y-1666799D01*
X2724499Y-1662300D01*
X2724499Y-1653200D01*
X2726800Y-1648600D01*
X2729099Y-1646399D01*
X2733599Y-1644099D01*
X2738199Y-1644099D01*
X2742700Y-1646399D01*
X2749499Y-1650900D01*
X2772299Y-1673600D01*
X2772299Y-1641799D01*
X2724499Y-1626799D02*
G01*
X2772299Y-1626799D01*
X2724499Y-1626799D02*
G01*
X2724499Y-1606399D01*
X2726800Y-1599499D01*
X2729099Y-1597300D01*
X2733599Y-1595000D01*
X2738199Y-1595000D01*
X2742700Y-1597300D01*
X2745000Y-1599499D01*
X2747299Y-1606399D01*
X2747299Y-1626799D02*
G01*
X2747299Y-1606399D01*
X2749499Y-1599499D01*
X2751800Y-1597300D01*
X2756400Y-1595000D01*
X2763199Y-1595000D01*
X2767700Y-1597300D01*
X2770000Y-1599499D01*
X2772299Y-1606399D01*
X2772299Y-1626799D01*
X2624499Y-1725000D02*
G01*
X2672299Y-1725000D01*
X2624499Y-1725000D02*
G01*
X2672299Y-1706799D01*
X2624499Y-1688600D02*
G01*
X2672299Y-1706799D01*
X2624499Y-1688600D02*
G01*
X2672299Y-1688600D01*
X2635900Y-1671399D02*
G01*
X2633599Y-1671399D01*
X2629099Y-1669099D01*
X2626800Y-1666799D01*
X2624499Y-1662300D01*
X2624499Y-1653200D01*
X2626800Y-1648600D01*
X2629099Y-1646399D01*
X2633599Y-1644099D01*
X2638199Y-1644099D01*
X2642700Y-1646399D01*
X2649499Y-1650900D01*
X2672299Y-1673600D01*
X2672299Y-1641799D01*
X2624499Y-1608600D02*
G01*
X2672299Y-1626799D01*
X2624499Y-1608600D02*
G01*
X2672299Y-1590500D01*
X2656400Y-1620000D02*
G01*
X2656400Y-1597300D01*
X2524499Y-1700000D02*
G01*
X2572299Y-1700000D01*
X2524499Y-1700000D02*
G01*
X2572299Y-1681799D01*
X2524499Y-1663600D02*
G01*
X2572299Y-1681799D01*
X2524499Y-1663600D02*
G01*
X2572299Y-1663600D01*
X2533599Y-1648600D02*
G01*
X2531400Y-1644099D01*
X2524499Y-1637300D01*
X2572299Y-1637300D01*
X2524499Y-1604099D02*
G01*
X2572299Y-1622300D01*
X2524499Y-1604099D02*
G01*
X2572299Y-1585900D01*
X2556400Y-1615500D02*
G01*
X2556400Y-1592699D01*
X2424499Y-1700000D02*
G01*
X2472299Y-1700000D01*
X2424499Y-1700000D02*
G01*
X2472299Y-1681799D01*
X2424499Y-1663600D02*
G01*
X2472299Y-1681799D01*
X2424499Y-1663600D02*
G01*
X2472299Y-1663600D01*
X2433599Y-1648600D02*
G01*
X2431400Y-1644099D01*
X2424499Y-1637300D01*
X2472299Y-1637300D01*
X2424499Y-1622300D02*
G01*
X2472299Y-1622300D01*
X2424499Y-1622300D02*
G01*
X2424499Y-1601799D01*
X2426800Y-1595000D01*
X2429099Y-1592699D01*
X2433599Y-1590500D01*
X2438199Y-1590500D01*
X2442700Y-1592699D01*
X2445000Y-1595000D01*
X2447299Y-1601799D01*
X2447299Y-1622300D02*
G01*
X2447299Y-1601799D01*
X2449499Y-1595000D01*
X2451800Y-1592699D01*
X2456400Y-1590500D01*
X2463199Y-1590500D01*
X2467700Y-1592699D01*
X2470000Y-1595000D01*
X2472299Y-1601799D01*
X2472299Y-1622300D01*
X1524499Y-1725000D02*
G01*
X1572299Y-1725000D01*
X1524499Y-1725000D02*
G01*
X1572299Y-1706799D01*
X1524499Y-1688600D02*
G01*
X1572299Y-1706799D01*
X1524499Y-1688600D02*
G01*
X1572299Y-1688600D01*
X1535900Y-1671399D02*
G01*
X1533599Y-1671399D01*
X1529099Y-1669099D01*
X1526800Y-1666799D01*
X1524499Y-1662300D01*
X1524499Y-1653200D01*
X1526800Y-1648600D01*
X1529099Y-1646399D01*
X1533599Y-1644099D01*
X1538199Y-1644099D01*
X1542700Y-1646399D01*
X1549499Y-1650900D01*
X1572299Y-1673600D01*
X1572299Y-1641799D01*
X1524499Y-1626799D02*
G01*
X1572299Y-1626799D01*
X1524499Y-1626799D02*
G01*
X1524499Y-1606399D01*
X1526800Y-1599499D01*
X1529099Y-1597300D01*
X1533599Y-1595000D01*
X1538199Y-1595000D01*
X1542700Y-1597300D01*
X1545000Y-1599499D01*
X1547299Y-1606399D01*
X1547299Y-1626799D02*
G01*
X1547299Y-1606399D01*
X1549499Y-1599499D01*
X1551800Y-1597300D01*
X1556400Y-1595000D01*
X1563199Y-1595000D01*
X1567700Y-1597300D01*
X1570000Y-1599499D01*
X1572299Y-1606399D01*
X1572299Y-1626799D01*
X1424499Y-1725000D02*
G01*
X1472299Y-1725000D01*
X1424499Y-1725000D02*
G01*
X1472299Y-1706799D01*
X1424499Y-1688600D02*
G01*
X1472299Y-1706799D01*
X1424499Y-1688600D02*
G01*
X1472299Y-1688600D01*
X1435900Y-1671399D02*
G01*
X1433599Y-1671399D01*
X1429099Y-1669099D01*
X1426800Y-1666799D01*
X1424499Y-1662300D01*
X1424499Y-1653200D01*
X1426800Y-1648600D01*
X1429099Y-1646399D01*
X1433599Y-1644099D01*
X1438199Y-1644099D01*
X1442700Y-1646399D01*
X1449499Y-1650900D01*
X1472299Y-1673600D01*
X1472299Y-1641799D01*
X1424499Y-1608600D02*
G01*
X1472299Y-1626799D01*
X1424499Y-1608600D02*
G01*
X1472299Y-1590500D01*
X1456400Y-1620000D02*
G01*
X1456400Y-1597300D01*
X1324499Y-1700000D02*
G01*
X1372299Y-1700000D01*
X1324499Y-1700000D02*
G01*
X1372299Y-1681799D01*
X1324499Y-1663600D02*
G01*
X1372299Y-1681799D01*
X1324499Y-1663600D02*
G01*
X1372299Y-1663600D01*
X1333599Y-1648600D02*
G01*
X1331400Y-1644099D01*
X1324499Y-1637300D01*
X1372299Y-1637300D01*
X1324499Y-1604099D02*
G01*
X1372299Y-1622300D01*
X1324499Y-1604099D02*
G01*
X1372299Y-1585900D01*
X1356400Y-1615500D02*
G01*
X1356400Y-1592699D01*
X1224499Y-1700000D02*
G01*
X1272299Y-1700000D01*
X1224499Y-1700000D02*
G01*
X1272299Y-1681799D01*
X1224499Y-1663600D02*
G01*
X1272299Y-1681799D01*
X1224499Y-1663600D02*
G01*
X1272299Y-1663600D01*
X1233599Y-1648600D02*
G01*
X1231400Y-1644099D01*
X1224499Y-1637300D01*
X1272299Y-1637300D01*
X1224499Y-1622300D02*
G01*
X1272299Y-1622300D01*
X1224499Y-1622300D02*
G01*
X1224499Y-1601799D01*
X1226800Y-1595000D01*
X1229099Y-1592699D01*
X1233599Y-1590500D01*
X1238199Y-1590500D01*
X1242700Y-1592699D01*
X1245000Y-1595000D01*
X1247299Y-1601799D01*
X1247299Y-1622300D02*
G01*
X1247299Y-1601799D01*
X1249499Y-1595000D01*
X1251800Y-1592699D01*
X1256400Y-1590500D01*
X1263199Y-1590500D01*
X1267700Y-1592699D01*
X1270000Y-1595000D01*
X1272299Y-1601799D01*
X1272299Y-1622300D01*
X2235900Y-797699D02*
G01*
X2233599Y-797699D01*
X2229099Y-795500D01*
X2226800Y-793200D01*
X2224499Y-788600D01*
X2224499Y-779499D01*
X2226800Y-775000D01*
X2229099Y-772699D01*
X2233599Y-770500D01*
X2238199Y-770500D01*
X2242700Y-772699D01*
X2249499Y-777300D01*
X2272299Y-800000D01*
X2272299Y-768200D01*
X2224499Y-721399D02*
G01*
X2272299Y-744099D01*
X2224499Y-753200D02*
G01*
X2224499Y-721399D01*
X2335900Y-797699D02*
G01*
X2333599Y-797699D01*
X2329099Y-795500D01*
X2326800Y-793200D01*
X2324499Y-788600D01*
X2324499Y-779499D01*
X2326800Y-775000D01*
X2329099Y-772699D01*
X2333599Y-770500D01*
X2338199Y-770500D01*
X2342700Y-772699D01*
X2349499Y-777300D01*
X2372299Y-800000D01*
X2372299Y-768200D01*
X2340500Y-723600D02*
G01*
X2347299Y-725900D01*
X2351800Y-730500D01*
X2354099Y-737300D01*
X2354099Y-739499D01*
X2351800Y-746399D01*
X2347299Y-750900D01*
X2340500Y-753200D01*
X2338199Y-753200D01*
X2331400Y-750900D01*
X2326800Y-746399D01*
X2324499Y-739499D01*
X2324499Y-737300D01*
X2326800Y-730500D01*
X2331400Y-725900D01*
X2340500Y-723600D01*
X2351800Y-723600D01*
X2363199Y-725900D01*
X2370000Y-730500D01*
X2372299Y-737300D01*
X2372299Y-741799D01*
X2370000Y-748600D01*
X2365500Y-750900D01*
X1324499Y-800000D02*
G01*
X1358599Y-800000D01*
X1365500Y-797699D01*
X1370000Y-793200D01*
X1372299Y-786399D01*
X1372299Y-781799D01*
X1370000Y-775000D01*
X1365500Y-770500D01*
X1358599Y-768200D01*
X1324499Y-768200D01*
X1324499Y-735000D02*
G01*
X1372299Y-753200D01*
X1324499Y-735000D02*
G01*
X1372299Y-716799D01*
X1356400Y-746399D02*
G01*
X1356400Y-723600D01*
X1324499Y-701799D02*
G01*
X1372299Y-701799D01*
X1324499Y-701799D02*
G01*
X1324499Y-681399D01*
X1326800Y-674499D01*
X1329099Y-672300D01*
X1333599Y-670000D01*
X1338199Y-670000D01*
X1342700Y-672300D01*
X1345000Y-674499D01*
X1347299Y-681399D01*
X1347299Y-701799D01*
X1347299Y-685900D02*
G01*
X1372299Y-670000D01*
X1324499Y-639099D02*
G01*
X1372299Y-639099D01*
X1324499Y-655000D02*
G01*
X1324499Y-623200D01*
X1224499Y-800000D02*
G01*
X1258599Y-800000D01*
X1265500Y-797699D01*
X1270000Y-793200D01*
X1272299Y-786399D01*
X1272299Y-781799D01*
X1270000Y-775000D01*
X1265500Y-770500D01*
X1258599Y-768200D01*
X1224499Y-768200D01*
X1224499Y-735000D02*
G01*
X1272299Y-753200D01*
X1224499Y-735000D02*
G01*
X1272299Y-716799D01*
X1256400Y-746399D02*
G01*
X1256400Y-723600D01*
X1224499Y-701799D02*
G01*
X1272299Y-701799D01*
X1224499Y-701799D02*
G01*
X1224499Y-681399D01*
X1226800Y-674499D01*
X1229099Y-672300D01*
X1233599Y-670000D01*
X1238199Y-670000D01*
X1242700Y-672300D01*
X1245000Y-674499D01*
X1247299Y-681399D01*
X1247299Y-701799D01*
X1247299Y-685900D02*
G01*
X1272299Y-670000D01*
X1224499Y-639099D02*
G01*
X1272299Y-639099D01*
X1224499Y-655000D02*
G01*
X1224499Y-623200D01*
X1135900Y-797699D02*
G01*
X1133599Y-797699D01*
X1129099Y-795500D01*
X1126800Y-793200D01*
X1124499Y-788600D01*
X1124499Y-779499D01*
X1126800Y-775000D01*
X1129099Y-772699D01*
X1133599Y-770500D01*
X1138199Y-770500D01*
X1142700Y-772699D01*
X1149499Y-777300D01*
X1172299Y-800000D01*
X1172299Y-768200D01*
X1124499Y-725900D02*
G01*
X1124499Y-748600D01*
X1145000Y-750900D01*
X1142700Y-748600D01*
X1140500Y-741799D01*
X1140500Y-735000D01*
X1142700Y-728200D01*
X1147299Y-723600D01*
X1154099Y-721399D01*
X1158599Y-721399D01*
X1165500Y-723600D01*
X1170000Y-728200D01*
X1172299Y-735000D01*
X1172299Y-741799D01*
X1170000Y-748600D01*
X1167700Y-750900D01*
X1163199Y-753200D01*
X1035900Y-797699D02*
G01*
X1033599Y-797699D01*
X1029099Y-795500D01*
X1026800Y-793200D01*
X1024499Y-788600D01*
X1024499Y-779499D01*
X1026800Y-775000D01*
X1029099Y-772699D01*
X1033599Y-770500D01*
X1038199Y-770500D01*
X1042700Y-772699D01*
X1049499Y-777300D01*
X1072299Y-800000D01*
X1072299Y-768200D01*
X1024499Y-748600D02*
G01*
X1024499Y-723600D01*
X1042700Y-737300D01*
X1042700Y-730500D01*
X1045000Y-725900D01*
X1047299Y-723600D01*
X1054099Y-721399D01*
X1058599Y-721399D01*
X1065500Y-723600D01*
X1070000Y-728200D01*
X1072299Y-735000D01*
X1072299Y-741799D01*
X1070000Y-748600D01*
X1067700Y-750900D01*
X1063199Y-753200D01*
D40*
X66399Y-225000D02*
G01*
X68600Y-229499D01*
X75500Y-236399D01*
X27699Y-236399D01*
X64099Y-253600D02*
G01*
X66399Y-253600D01*
X70900Y-255900D01*
X73200Y-258200D01*
X75500Y-262699D01*
X75500Y-271799D01*
X73200Y-276399D01*
X70900Y-278600D01*
X66399Y-280900D01*
X61799Y-280900D01*
X57300Y-278600D01*
X50500Y-274099D01*
X27699Y-251399D01*
X27699Y-283200D01*
X75500Y-298200D02*
G01*
X27699Y-316399D01*
X75500Y-334499D02*
G01*
X27699Y-316399D01*
D41*
X4020500Y948499D02*
G01*
X4019099Y951199D01*
X4016400Y953899D01*
X4013599Y955300D01*
X4008199Y955300D01*
X4005500Y953899D01*
X4002700Y951199D01*
X4001400Y948499D01*
X4000000Y944400D01*
X4000000Y937500D01*
X4001400Y933499D01*
X4002700Y930700D01*
X4005500Y928000D01*
X4008199Y926599D01*
X4013599Y926599D01*
X4016400Y928000D01*
X4019099Y930700D01*
X4020500Y933499D01*
X4020500Y937500D01*
X4013599Y937500D02*
G01*
X4020500Y937500D01*
X4029499Y955300D02*
G01*
X4029499Y926599D01*
X4029499Y955300D02*
G01*
X4048500Y926599D01*
X4048500Y955300D02*
G01*
X4048500Y926599D01*
X4057500Y955300D02*
G01*
X4057500Y926599D01*
X4057500Y955300D02*
G01*
X4067100Y955300D01*
X4071199Y953899D01*
X4073900Y951199D01*
X4075299Y948499D01*
X4076599Y944400D01*
X4076599Y937500D01*
X4075299Y933499D01*
X4073900Y930700D01*
X4071199Y928000D01*
X4067100Y926599D01*
X4057500Y926599D01*
X4000000Y875500D02*
G01*
X4000000Y827699D01*
X4028599Y875500D02*
G01*
X4024099Y873200D01*
X4019499Y868600D01*
X4017299Y864099D01*
X4015000Y857300D01*
X4015000Y845900D01*
X4017299Y839099D01*
X4019499Y834499D01*
X4024099Y830000D01*
X4028599Y827699D01*
X4037700Y827699D01*
X4042299Y830000D01*
X4046800Y834499D01*
X4049099Y839099D01*
X4051400Y845900D01*
X4051400Y857300D01*
X4049099Y864099D01*
X4046800Y868600D01*
X4042299Y873200D01*
X4037700Y875500D01*
X4028599Y875500D01*
X4066400Y875500D02*
G01*
X4066400Y827699D01*
X4066400Y875500D02*
G01*
X4086800Y875500D01*
X4093599Y873200D01*
X4095900Y870900D01*
X4098199Y866399D01*
X4098199Y861799D01*
X4095900Y857300D01*
X4093599Y855000D01*
X4086800Y852699D01*
X4066400Y852699D01*
X4082299Y852699D02*
G01*
X4098199Y827699D01*
X4113199Y875500D02*
G01*
X4113199Y827699D01*
X4113199Y875500D02*
G01*
X4142700Y875500D01*
X4113199Y852699D02*
G01*
X4131400Y852699D01*
X4113199Y827699D02*
G01*
X4142700Y827699D01*
X4157700Y875500D02*
G01*
X4157700Y827699D01*
X4157700Y875500D02*
G01*
X4187299Y875500D01*
X4157700Y852699D02*
G01*
X4175900Y852699D01*
D40*
X4449799Y927300D02*
G01*
X4449799Y939800D01*
X4458900Y933000D01*
X4458900Y936399D01*
X4460000Y938600D01*
X4461099Y939800D01*
X4464499Y940900D01*
X4466800Y940900D01*
X4470200Y939800D01*
X4472500Y937500D01*
X4473599Y934099D01*
X4473599Y930700D01*
X4472500Y927300D01*
X4471400Y926100D01*
X4469099Y925000D01*
X4468000Y949499D02*
G01*
X4469099Y948400D01*
X4470200Y949499D01*
X4469099Y950700D01*
X4468000Y949499D01*
X4449799Y960500D02*
G01*
X4449799Y973000D01*
X4458900Y966100D01*
X4458900Y969499D01*
X4460000Y971799D01*
X4461099Y973000D01*
X4464499Y974099D01*
X4466800Y974099D01*
X4470200Y973000D01*
X4472500Y970700D01*
X4473599Y967300D01*
X4473599Y963899D01*
X4472500Y960500D01*
X4471400Y959299D01*
X4469099Y958200D01*
X4449799Y981599D02*
G01*
X4473599Y990700D01*
X4449799Y999800D02*
G01*
X4473599Y990700D01*
X3700000Y1291399D02*
G01*
X3704499Y1293600D01*
X3711400Y1300500D01*
X3711400Y1252699D01*
X3728599Y1289099D02*
G01*
X3728599Y1291399D01*
X3730900Y1295900D01*
X3733199Y1298200D01*
X3737700Y1300500D01*
X3746800Y1300500D01*
X3751400Y1298200D01*
X3753599Y1295900D01*
X3755900Y1291399D01*
X3755900Y1286799D01*
X3753599Y1282300D01*
X3749099Y1275500D01*
X3726400Y1252699D01*
X3758199Y1252699D01*
X3773199Y1300500D02*
G01*
X3791400Y1252699D01*
X3809499Y1300500D02*
G01*
X3791400Y1252699D01*
X3891400Y1293600D02*
G01*
X3886800Y1298200D01*
X3880000Y1300500D01*
X3870900Y1300500D01*
X3864099Y1298200D01*
X3859499Y1293600D01*
X3859499Y1289099D01*
X3861800Y1284499D01*
X3864099Y1282300D01*
X3868599Y1280000D01*
X3882299Y1275500D01*
X3886800Y1273200D01*
X3889099Y1270900D01*
X3891400Y1266399D01*
X3891400Y1259499D01*
X3886800Y1255000D01*
X3880000Y1252699D01*
X3870900Y1252699D01*
X3864099Y1255000D01*
X3859499Y1259499D01*
X3906400Y1284499D02*
G01*
X3906400Y1261799D01*
X3908599Y1255000D01*
X3913199Y1252699D01*
X3920000Y1252699D01*
X3924499Y1255000D01*
X3931400Y1261799D01*
X3931400Y1284499D02*
G01*
X3931400Y1252699D01*
X3946400Y1284499D02*
G01*
X3946400Y1236799D01*
X3946400Y1277699D02*
G01*
X3950900Y1282300D01*
X3955500Y1284499D01*
X3962299Y1284499D01*
X3966800Y1282300D01*
X3971400Y1277699D01*
X3973599Y1270900D01*
X3973599Y1266399D01*
X3971400Y1259499D01*
X3966800Y1255000D01*
X3962299Y1252699D01*
X3955500Y1252699D01*
X3950900Y1255000D01*
X3946400Y1259499D01*
X3988599Y1284499D02*
G01*
X3988599Y1236799D01*
X3988599Y1277699D02*
G01*
X3993199Y1282300D01*
X3997700Y1284499D01*
X4004499Y1284499D01*
X4009099Y1282300D01*
X4013599Y1277699D01*
X4015900Y1270900D01*
X4015900Y1266399D01*
X4013599Y1259499D01*
X4009099Y1255000D01*
X4004499Y1252699D01*
X3997700Y1252699D01*
X3993199Y1255000D01*
X3988599Y1259499D01*
X4030900Y1300500D02*
G01*
X4030900Y1252699D01*
X4048199Y1284499D02*
G01*
X4061800Y1252699D01*
X4075500Y1284499D02*
G01*
X4061800Y1252699D01*
X4057299Y1243600D01*
X4052700Y1239099D01*
X4048199Y1236799D01*
X4045900Y1236799D01*
D41*
X3925000Y1416399D02*
G01*
X3929499Y1418600D01*
X3936400Y1425500D01*
X3936400Y1377699D01*
X3953599Y1414099D02*
G01*
X3953599Y1416399D01*
X3955900Y1420900D01*
X3958199Y1423200D01*
X3962700Y1425500D01*
X3971800Y1425500D01*
X3976400Y1423200D01*
X3978599Y1420900D01*
X3980900Y1416399D01*
X3980900Y1411799D01*
X3978599Y1407300D01*
X3974099Y1400500D01*
X3951400Y1377699D01*
X3983199Y1377699D01*
X3998199Y1425500D02*
G01*
X4016400Y1377699D01*
X4034499Y1425500D02*
G01*
X4016400Y1377699D01*
X3959099Y1514099D02*
G01*
X3956800Y1518600D01*
X3952299Y1523200D01*
X3947700Y1525500D01*
X3938599Y1525500D01*
X3934099Y1523200D01*
X3929499Y1518600D01*
X3927299Y1514099D01*
X3925000Y1507300D01*
X3925000Y1495900D01*
X3927299Y1489099D01*
X3929499Y1484499D01*
X3934099Y1480000D01*
X3938599Y1477699D01*
X3947700Y1477699D01*
X3952299Y1480000D01*
X3956800Y1484499D01*
X3959099Y1489099D01*
X3959099Y1495900D01*
X3947700Y1495900D02*
G01*
X3959099Y1495900D01*
X3974099Y1525500D02*
G01*
X3974099Y1477699D01*
X3974099Y1525500D02*
G01*
X4005900Y1477699D01*
X4005900Y1525500D02*
G01*
X4005900Y1477699D01*
X4020900Y1525500D02*
G01*
X4020900Y1477699D01*
X4020900Y1525500D02*
G01*
X4036800Y1525500D01*
X4043599Y1523200D01*
X4048199Y1518600D01*
X4050500Y1514099D01*
X4052700Y1507300D01*
X4052700Y1495900D01*
X4050500Y1489099D01*
X4048199Y1484499D01*
X4043599Y1480000D01*
X4036800Y1477699D01*
X4020900Y1477699D01*
X3959099Y1614099D02*
G01*
X3956800Y1618600D01*
X3952299Y1623200D01*
X3947700Y1625500D01*
X3938599Y1625500D01*
X3934099Y1623200D01*
X3929499Y1618600D01*
X3927299Y1614099D01*
X3925000Y1607300D01*
X3925000Y1595900D01*
X3927299Y1589099D01*
X3929499Y1584499D01*
X3934099Y1580000D01*
X3938599Y1577699D01*
X3947700Y1577699D01*
X3952299Y1580000D01*
X3956800Y1584499D01*
X3959099Y1589099D01*
X3959099Y1595900D01*
X3947700Y1595900D02*
G01*
X3959099Y1595900D01*
X3974099Y1625500D02*
G01*
X3974099Y1577699D01*
X3974099Y1625500D02*
G01*
X4005900Y1577699D01*
X4005900Y1625500D02*
G01*
X4005900Y1577699D01*
X4020900Y1625500D02*
G01*
X4020900Y1577699D01*
X4020900Y1625500D02*
G01*
X4036800Y1625500D01*
X4043599Y1623200D01*
X4048199Y1618600D01*
X4050500Y1614099D01*
X4052700Y1607300D01*
X4052700Y1595900D01*
X4050500Y1589099D01*
X4048199Y1584499D01*
X4043599Y1580000D01*
X4036800Y1577699D01*
X4020900Y1577699D01*
X3925000Y1716399D02*
G01*
X3929499Y1718600D01*
X3936400Y1725500D01*
X3936400Y1677699D01*
X3953599Y1714099D02*
G01*
X3953599Y1716399D01*
X3955900Y1720900D01*
X3958199Y1723200D01*
X3962700Y1725500D01*
X3971800Y1725500D01*
X3976400Y1723200D01*
X3978599Y1720900D01*
X3980900Y1716399D01*
X3980900Y1711799D01*
X3978599Y1707300D01*
X3974099Y1700500D01*
X3951400Y1677699D01*
X3983199Y1677699D01*
X3998199Y1725500D02*
G01*
X4016400Y1677699D01*
X4034499Y1725500D02*
G01*
X4016400Y1677699D01*
D40*
X4454300Y1025000D02*
G01*
X4453199Y1027300D01*
X4449799Y1030700D01*
X4473599Y1030700D01*
X4455500Y1039299D02*
G01*
X4454300Y1039299D01*
X4451999Y1040500D01*
X4450900Y1041599D01*
X4449799Y1043899D01*
X4449799Y1048400D01*
X4450900Y1050700D01*
X4451999Y1051799D01*
X4454300Y1053000D01*
X4456599Y1053000D01*
X4458900Y1051799D01*
X4462299Y1049499D01*
X4473599Y1038200D01*
X4473599Y1054099D01*
X4449799Y1061599D02*
G01*
X4473599Y1070700D01*
X4449799Y1079800D02*
G01*
X4473599Y1070700D01*
X2124499Y-1400000D02*
G01*
X2172299Y-1400000D01*
X2124499Y-1400000D02*
G01*
X2124499Y-1384099D01*
X2126800Y-1377300D01*
X2131400Y-1372699D01*
X2135900Y-1370500D01*
X2142700Y-1368200D01*
X2154099Y-1368200D01*
X2160900Y-1370500D01*
X2165500Y-1372699D01*
X2170000Y-1377300D01*
X2172299Y-1384099D01*
X2172299Y-1400000D01*
X2140500Y-1353200D02*
G01*
X2172299Y-1353200D01*
X2154099Y-1353200D02*
G01*
X2147299Y-1350900D01*
X2142700Y-1346399D01*
X2140500Y-1341799D01*
X2140500Y-1335000D01*
X2124499Y-1320000D02*
G01*
X2126800Y-1317699D01*
X2124499Y-1315500D01*
X2122299Y-1317699D01*
X2124499Y-1320000D01*
X2140500Y-1317699D02*
G01*
X2172299Y-1317699D01*
X2140500Y-1300500D02*
G01*
X2172299Y-1286799D01*
X2140500Y-1273200D02*
G01*
X2172299Y-1286799D01*
X2154099Y-1258200D02*
G01*
X2154099Y-1230900D01*
X2149499Y-1230900D01*
X2145000Y-1233200D01*
X2142700Y-1235500D01*
X2140500Y-1240000D01*
X2140500Y-1246799D01*
X2142700Y-1251399D01*
X2147299Y-1255900D01*
X2154099Y-1258200D01*
X2158599Y-1258200D01*
X2165500Y-1255900D01*
X2170000Y-1251399D01*
X2172299Y-1246799D01*
X2172299Y-1240000D01*
X2170000Y-1235500D01*
X2165500Y-1230900D01*
X2140500Y-1215900D02*
G01*
X2172299Y-1215900D01*
X2154099Y-1215900D02*
G01*
X2147299Y-1213600D01*
X2142700Y-1209099D01*
X2140500Y-1204499D01*
X2140500Y-1197699D01*
X2124499Y-1125000D02*
G01*
X2156400Y-1147699D01*
X2156400Y-1113600D01*
X2124499Y-1125000D02*
G01*
X2172299Y-1125000D01*
X924499Y-1400000D02*
G01*
X972299Y-1400000D01*
X924499Y-1400000D02*
G01*
X924499Y-1384099D01*
X926800Y-1377300D01*
X931400Y-1372699D01*
X935900Y-1370500D01*
X942700Y-1368200D01*
X954099Y-1368200D01*
X960900Y-1370500D01*
X965500Y-1372699D01*
X970000Y-1377300D01*
X972299Y-1384099D01*
X972299Y-1400000D01*
X940500Y-1353200D02*
G01*
X972299Y-1353200D01*
X954099Y-1353200D02*
G01*
X947299Y-1350900D01*
X942700Y-1346399D01*
X940500Y-1341799D01*
X940500Y-1335000D01*
X924499Y-1320000D02*
G01*
X926800Y-1317699D01*
X924499Y-1315500D01*
X922299Y-1317699D01*
X924499Y-1320000D01*
X940500Y-1317699D02*
G01*
X972299Y-1317699D01*
X940500Y-1300500D02*
G01*
X972299Y-1286799D01*
X940500Y-1273200D02*
G01*
X972299Y-1286799D01*
X954099Y-1258200D02*
G01*
X954099Y-1230900D01*
X949499Y-1230900D01*
X945000Y-1233200D01*
X942700Y-1235500D01*
X940500Y-1240000D01*
X940500Y-1246799D01*
X942700Y-1251399D01*
X947299Y-1255900D01*
X954099Y-1258200D01*
X958599Y-1258200D01*
X965500Y-1255900D01*
X970000Y-1251399D01*
X972299Y-1246799D01*
X972299Y-1240000D01*
X970000Y-1235500D01*
X965500Y-1230900D01*
X940500Y-1215900D02*
G01*
X972299Y-1215900D01*
X954099Y-1215900D02*
G01*
X947299Y-1213600D01*
X942700Y-1209099D01*
X940500Y-1204499D01*
X940500Y-1197699D01*
X924499Y-1143200D02*
G01*
X924499Y-1118200D01*
X942700Y-1131799D01*
X942700Y-1125000D01*
X945000Y-1120500D01*
X947299Y-1118200D01*
X954099Y-1115900D01*
X958599Y-1115900D01*
X965500Y-1118200D01*
X970000Y-1122699D01*
X972299Y-1129499D01*
X972299Y-1136399D01*
X970000Y-1143200D01*
X967700Y-1145500D01*
X963199Y-1147699D01*
X2075500Y1400000D02*
G01*
X2027700Y1400000D01*
X2075500Y1400000D02*
G01*
X2075500Y1384099D01*
X2073199Y1377300D01*
X2068599Y1372699D01*
X2064099Y1370500D01*
X2057299Y1368200D01*
X2045900Y1368200D01*
X2039099Y1370500D01*
X2034499Y1372699D01*
X2030000Y1377300D01*
X2027700Y1384099D01*
X2027700Y1400000D01*
X2059499Y1353200D02*
G01*
X2027700Y1353200D01*
X2045900Y1353200D02*
G01*
X2052700Y1350900D01*
X2057299Y1346399D01*
X2059499Y1341799D01*
X2059499Y1335000D01*
X2075500Y1320000D02*
G01*
X2073199Y1317699D01*
X2075500Y1315500D01*
X2077700Y1317699D01*
X2075500Y1320000D01*
X2059499Y1317699D02*
G01*
X2027700Y1317699D01*
X2059499Y1300500D02*
G01*
X2027700Y1286799D01*
X2059499Y1273200D02*
G01*
X2027700Y1286799D01*
X2045900Y1258200D02*
G01*
X2045900Y1230900D01*
X2050500Y1230900D01*
X2055000Y1233200D01*
X2057299Y1235500D01*
X2059499Y1240000D01*
X2059499Y1246799D01*
X2057299Y1251399D01*
X2052700Y1255900D01*
X2045900Y1258200D01*
X2041400Y1258200D01*
X2034499Y1255900D01*
X2030000Y1251399D01*
X2027700Y1246799D01*
X2027700Y1240000D01*
X2030000Y1235500D01*
X2034499Y1230900D01*
X2059499Y1215900D02*
G01*
X2027700Y1215900D01*
X2045900Y1215900D02*
G01*
X2052700Y1213600D01*
X2057299Y1209099D01*
X2059499Y1204499D01*
X2059499Y1197699D01*
X2064099Y1145500D02*
G01*
X2066400Y1145500D01*
X2070900Y1143200D01*
X2073199Y1140900D01*
X2075500Y1136399D01*
X2075500Y1127300D01*
X2073199Y1122699D01*
X2070900Y1120500D01*
X2066400Y1118200D01*
X2061800Y1118200D01*
X2057299Y1120500D01*
X2050500Y1125000D01*
X2027700Y1147699D01*
X2027700Y1115900D01*
X3275500Y1400000D02*
G01*
X3227700Y1400000D01*
X3275500Y1400000D02*
G01*
X3275500Y1384099D01*
X3273199Y1377300D01*
X3268599Y1372699D01*
X3264099Y1370500D01*
X3257299Y1368200D01*
X3245900Y1368200D01*
X3239099Y1370500D01*
X3234499Y1372699D01*
X3230000Y1377300D01*
X3227700Y1384099D01*
X3227700Y1400000D01*
X3259499Y1353200D02*
G01*
X3227700Y1353200D01*
X3245900Y1353200D02*
G01*
X3252700Y1350900D01*
X3257299Y1346399D01*
X3259499Y1341799D01*
X3259499Y1335000D01*
X3275500Y1320000D02*
G01*
X3273199Y1317699D01*
X3275500Y1315500D01*
X3277700Y1317699D01*
X3275500Y1320000D01*
X3259499Y1317699D02*
G01*
X3227700Y1317699D01*
X3259499Y1300500D02*
G01*
X3227700Y1286799D01*
X3259499Y1273200D02*
G01*
X3227700Y1286799D01*
X3245900Y1258200D02*
G01*
X3245900Y1230900D01*
X3250500Y1230900D01*
X3255000Y1233200D01*
X3257299Y1235500D01*
X3259499Y1240000D01*
X3259499Y1246799D01*
X3257299Y1251399D01*
X3252700Y1255900D01*
X3245900Y1258200D01*
X3241400Y1258200D01*
X3234499Y1255900D01*
X3230000Y1251399D01*
X3227700Y1246799D01*
X3227700Y1240000D01*
X3230000Y1235500D01*
X3234499Y1230900D01*
X3259499Y1215900D02*
G01*
X3227700Y1215900D01*
X3245900Y1215900D02*
G01*
X3252700Y1213600D01*
X3257299Y1209099D01*
X3259499Y1204499D01*
X3259499Y1197699D01*
X3266400Y1147699D02*
G01*
X3268599Y1143200D01*
X3275500Y1136399D01*
X3227700Y1136399D01*
X456799Y-1806399D02*
G01*
X452300Y-1801799D01*
X445500Y-1799499D01*
X436399Y-1799499D01*
X429499Y-1801799D01*
X425000Y-1806399D01*
X425000Y-1810900D01*
X427300Y-1815500D01*
X429499Y-1817699D01*
X434099Y-1820000D01*
X447699Y-1824499D01*
X452300Y-1826799D01*
X454499Y-1829099D01*
X456799Y-1833600D01*
X456799Y-1840500D01*
X452300Y-1845000D01*
X445500Y-1847300D01*
X436399Y-1847300D01*
X429499Y-1845000D01*
X425000Y-1840500D01*
X478600Y-1799499D02*
G01*
X478600Y-1838200D01*
X480900Y-1845000D01*
X485500Y-1847300D01*
X490000Y-1847300D01*
X471799Y-1815500D02*
G01*
X487699Y-1815500D01*
X505000Y-1829099D02*
G01*
X532300Y-1829099D01*
X532300Y-1824499D01*
X530000Y-1820000D01*
X527699Y-1817699D01*
X523200Y-1815500D01*
X516399Y-1815500D01*
X511799Y-1817699D01*
X507300Y-1822300D01*
X505000Y-1829099D01*
X505000Y-1833600D01*
X507300Y-1840500D01*
X511799Y-1845000D01*
X516399Y-1847300D01*
X523200Y-1847300D01*
X527699Y-1845000D01*
X532300Y-1840500D01*
X547300Y-1815500D02*
G01*
X547300Y-1863200D01*
X547300Y-1822300D02*
G01*
X551799Y-1817699D01*
X556399Y-1815500D01*
X563200Y-1815500D01*
X567699Y-1817699D01*
X572300Y-1822300D01*
X574499Y-1829099D01*
X574499Y-1833600D01*
X572300Y-1840500D01*
X567699Y-1845000D01*
X563200Y-1847300D01*
X556399Y-1847300D01*
X551799Y-1845000D01*
X547300Y-1840500D01*
X589499Y-1815500D02*
G01*
X589499Y-1863200D01*
X589499Y-1822300D02*
G01*
X594099Y-1817699D01*
X598600Y-1815500D01*
X605500Y-1815500D01*
X610000Y-1817699D01*
X614499Y-1822300D01*
X616799Y-1829099D01*
X616799Y-1833600D01*
X614499Y-1840500D01*
X610000Y-1845000D01*
X605500Y-1847300D01*
X598600Y-1847300D01*
X594099Y-1845000D01*
X589499Y-1840500D01*
X631799Y-1829099D02*
G01*
X659099Y-1829099D01*
X659099Y-1824499D01*
X656799Y-1820000D01*
X654499Y-1817699D01*
X650000Y-1815500D01*
X643200Y-1815500D01*
X638600Y-1817699D01*
X634099Y-1822300D01*
X631799Y-1829099D01*
X631799Y-1833600D01*
X634099Y-1840500D01*
X638600Y-1845000D01*
X643200Y-1847300D01*
X650000Y-1847300D01*
X654499Y-1845000D01*
X659099Y-1840500D01*
X674099Y-1815500D02*
G01*
X674099Y-1847300D01*
X674099Y-1829099D02*
G01*
X676399Y-1822300D01*
X680900Y-1817699D01*
X685500Y-1815500D01*
X692300Y-1815500D01*
X765000Y-1799499D02*
G01*
X742300Y-1831399D01*
X776400Y-1831399D01*
X765000Y-1799499D02*
G01*
X765000Y-1847300D01*
X456799Y-1056399D02*
G01*
X452300Y-1051799D01*
X445500Y-1049499D01*
X436399Y-1049499D01*
X429499Y-1051799D01*
X425000Y-1056399D01*
X425000Y-1060900D01*
X427300Y-1065500D01*
X429499Y-1067699D01*
X434099Y-1070000D01*
X447699Y-1074499D01*
X452300Y-1076799D01*
X454499Y-1079099D01*
X456799Y-1083600D01*
X456799Y-1090500D01*
X452300Y-1095000D01*
X445500Y-1097300D01*
X436399Y-1097300D01*
X429499Y-1095000D01*
X425000Y-1090500D01*
X478600Y-1049499D02*
G01*
X478600Y-1088200D01*
X480900Y-1095000D01*
X485500Y-1097300D01*
X490000Y-1097300D01*
X471799Y-1065500D02*
G01*
X487699Y-1065500D01*
X505000Y-1079099D02*
G01*
X532300Y-1079099D01*
X532300Y-1074499D01*
X530000Y-1070000D01*
X527699Y-1067699D01*
X523200Y-1065500D01*
X516399Y-1065500D01*
X511799Y-1067699D01*
X507300Y-1072300D01*
X505000Y-1079099D01*
X505000Y-1083600D01*
X507300Y-1090500D01*
X511799Y-1095000D01*
X516399Y-1097300D01*
X523200Y-1097300D01*
X527699Y-1095000D01*
X532300Y-1090500D01*
X547300Y-1065500D02*
G01*
X547300Y-1113200D01*
X547300Y-1072300D02*
G01*
X551799Y-1067699D01*
X556399Y-1065500D01*
X563200Y-1065500D01*
X567699Y-1067699D01*
X572300Y-1072300D01*
X574499Y-1079099D01*
X574499Y-1083600D01*
X572300Y-1090500D01*
X567699Y-1095000D01*
X563200Y-1097300D01*
X556399Y-1097300D01*
X551799Y-1095000D01*
X547300Y-1090500D01*
X589499Y-1065500D02*
G01*
X589499Y-1113200D01*
X589499Y-1072300D02*
G01*
X594099Y-1067699D01*
X598600Y-1065500D01*
X605500Y-1065500D01*
X610000Y-1067699D01*
X614499Y-1072300D01*
X616799Y-1079099D01*
X616799Y-1083600D01*
X614499Y-1090500D01*
X610000Y-1095000D01*
X605500Y-1097300D01*
X598600Y-1097300D01*
X594099Y-1095000D01*
X589499Y-1090500D01*
X631799Y-1079099D02*
G01*
X659099Y-1079099D01*
X659099Y-1074499D01*
X656799Y-1070000D01*
X654499Y-1067699D01*
X650000Y-1065500D01*
X643200Y-1065500D01*
X638600Y-1067699D01*
X634099Y-1072300D01*
X631799Y-1079099D01*
X631799Y-1083600D01*
X634099Y-1090500D01*
X638600Y-1095000D01*
X643200Y-1097300D01*
X650000Y-1097300D01*
X654499Y-1095000D01*
X659099Y-1090500D01*
X674099Y-1065500D02*
G01*
X674099Y-1097300D01*
X674099Y-1079099D02*
G01*
X676399Y-1072300D01*
X680900Y-1067699D01*
X685500Y-1065500D01*
X692300Y-1065500D01*
X746799Y-1049499D02*
G01*
X771800Y-1049499D01*
X758200Y-1067699D01*
X765000Y-1067699D01*
X769499Y-1070000D01*
X771800Y-1072300D01*
X774099Y-1079099D01*
X774099Y-1083600D01*
X771800Y-1090500D01*
X767299Y-1095000D01*
X760500Y-1097300D01*
X753600Y-1097300D01*
X746799Y-1095000D01*
X744499Y-1092699D01*
X742300Y-1088200D01*
X469299Y543600D02*
G01*
X464800Y548200D01*
X458000Y550500D01*
X448899Y550500D01*
X441999Y548200D01*
X437500Y543600D01*
X437500Y539099D01*
X439800Y534499D01*
X441999Y532300D01*
X446599Y530000D01*
X460199Y525500D01*
X464800Y523200D01*
X466999Y520900D01*
X469299Y516399D01*
X469299Y509499D01*
X464800Y505000D01*
X458000Y502699D01*
X448899Y502699D01*
X441999Y505000D01*
X437500Y509499D01*
X491100Y550500D02*
G01*
X491100Y511799D01*
X493400Y505000D01*
X498000Y502699D01*
X502500Y502699D01*
X484299Y534499D02*
G01*
X500199Y534499D01*
X517500Y520900D02*
G01*
X544800Y520900D01*
X544800Y525500D01*
X542500Y530000D01*
X540199Y532300D01*
X535700Y534499D01*
X528899Y534499D01*
X524299Y532300D01*
X519800Y527699D01*
X517500Y520900D01*
X517500Y516399D01*
X519800Y509499D01*
X524299Y505000D01*
X528899Y502699D01*
X535700Y502699D01*
X540199Y505000D01*
X544800Y509499D01*
X559800Y534499D02*
G01*
X559800Y486799D01*
X559800Y527699D02*
G01*
X564299Y532300D01*
X568899Y534499D01*
X575700Y534499D01*
X580199Y532300D01*
X584800Y527699D01*
X586999Y520900D01*
X586999Y516399D01*
X584800Y509499D01*
X580199Y505000D01*
X575700Y502699D01*
X568899Y502699D01*
X564299Y505000D01*
X559800Y509499D01*
X601999Y534499D02*
G01*
X601999Y486799D01*
X601999Y527699D02*
G01*
X606599Y532300D01*
X611100Y534499D01*
X618000Y534499D01*
X622500Y532300D01*
X626999Y527699D01*
X629299Y520900D01*
X629299Y516399D01*
X626999Y509499D01*
X622500Y505000D01*
X618000Y502699D01*
X611100Y502699D01*
X606599Y505000D01*
X601999Y509499D01*
X644299Y520900D02*
G01*
X671599Y520900D01*
X671599Y525500D01*
X669299Y530000D01*
X666999Y532300D01*
X662500Y534499D01*
X655700Y534499D01*
X651100Y532300D01*
X646599Y527699D01*
X644299Y520900D01*
X644299Y516399D01*
X646599Y509499D01*
X651100Y505000D01*
X655700Y502699D01*
X662500Y502699D01*
X666999Y505000D01*
X671599Y509499D01*
X686599Y534499D02*
G01*
X686599Y502699D01*
X686599Y520900D02*
G01*
X688899Y527699D01*
X693400Y532300D01*
X698000Y534499D01*
X704800Y534499D01*
X756999Y539099D02*
G01*
X756999Y541399D01*
X759299Y545900D01*
X761599Y548200D01*
X766099Y550500D01*
X775200Y550500D01*
X779799Y548200D01*
X781999Y545900D01*
X784300Y541399D01*
X784300Y536799D01*
X781999Y532300D01*
X777500Y525500D01*
X754800Y502699D01*
X786599Y502699D01*
X456799Y1293600D02*
G01*
X452300Y1298200D01*
X445500Y1300500D01*
X436399Y1300500D01*
X429499Y1298200D01*
X425000Y1293600D01*
X425000Y1289099D01*
X427300Y1284499D01*
X429499Y1282300D01*
X434099Y1280000D01*
X447699Y1275500D01*
X452300Y1273200D01*
X454499Y1270900D01*
X456799Y1266399D01*
X456799Y1259499D01*
X452300Y1255000D01*
X445500Y1252699D01*
X436399Y1252699D01*
X429499Y1255000D01*
X425000Y1259499D01*
X478600Y1300500D02*
G01*
X478600Y1261799D01*
X480900Y1255000D01*
X485500Y1252699D01*
X490000Y1252699D01*
X471799Y1284499D02*
G01*
X487699Y1284499D01*
X505000Y1270900D02*
G01*
X532300Y1270900D01*
X532300Y1275500D01*
X530000Y1280000D01*
X527699Y1282300D01*
X523200Y1284499D01*
X516399Y1284499D01*
X511799Y1282300D01*
X507300Y1277699D01*
X505000Y1270900D01*
X505000Y1266399D01*
X507300Y1259499D01*
X511799Y1255000D01*
X516399Y1252699D01*
X523200Y1252699D01*
X527699Y1255000D01*
X532300Y1259499D01*
X547300Y1284499D02*
G01*
X547300Y1236799D01*
X547300Y1277699D02*
G01*
X551799Y1282300D01*
X556399Y1284499D01*
X563200Y1284499D01*
X567699Y1282300D01*
X572300Y1277699D01*
X574499Y1270900D01*
X574499Y1266399D01*
X572300Y1259499D01*
X567699Y1255000D01*
X563200Y1252699D01*
X556399Y1252699D01*
X551799Y1255000D01*
X547300Y1259499D01*
X589499Y1284499D02*
G01*
X589499Y1236799D01*
X589499Y1277699D02*
G01*
X594099Y1282300D01*
X598600Y1284499D01*
X605500Y1284499D01*
X610000Y1282300D01*
X614499Y1277699D01*
X616799Y1270900D01*
X616799Y1266399D01*
X614499Y1259499D01*
X610000Y1255000D01*
X605500Y1252699D01*
X598600Y1252699D01*
X594099Y1255000D01*
X589499Y1259499D01*
X631799Y1270900D02*
G01*
X659099Y1270900D01*
X659099Y1275500D01*
X656799Y1280000D01*
X654499Y1282300D01*
X650000Y1284499D01*
X643200Y1284499D01*
X638600Y1282300D01*
X634099Y1277699D01*
X631799Y1270900D01*
X631799Y1266399D01*
X634099Y1259499D01*
X638600Y1255000D01*
X643200Y1252699D01*
X650000Y1252699D01*
X654499Y1255000D01*
X659099Y1259499D01*
X674099Y1284499D02*
G01*
X674099Y1252699D01*
X674099Y1270900D02*
G01*
X676399Y1277699D01*
X680900Y1282300D01*
X685500Y1284499D01*
X692300Y1284499D01*
X742300Y1291399D02*
G01*
X746799Y1293600D01*
X753600Y1300500D01*
X753600Y1252699D01*
D41*
X425000Y-1374499D02*
G01*
X425000Y-1422300D01*
X425000Y-1374499D02*
G01*
X443200Y-1422300D01*
X461399Y-1374499D02*
G01*
X443200Y-1422300D01*
X461399Y-1374499D02*
G01*
X461399Y-1422300D01*
X476399Y-1383600D02*
G01*
X480900Y-1381399D01*
X487699Y-1374499D01*
X487699Y-1422300D01*
X502699Y-1374499D02*
G01*
X502699Y-1422300D01*
X502699Y-1374499D02*
G01*
X523200Y-1374499D01*
X530000Y-1376799D01*
X532300Y-1379099D01*
X534499Y-1383600D01*
X534499Y-1388200D01*
X532300Y-1392699D01*
X530000Y-1395000D01*
X523200Y-1397300D01*
X502699Y-1397300D02*
G01*
X523200Y-1397300D01*
X530000Y-1399499D01*
X532300Y-1401799D01*
X534499Y-1406399D01*
X534499Y-1413200D01*
X532300Y-1417699D01*
X530000Y-1420000D01*
X523200Y-1422300D01*
X502699Y-1422300D01*
X425000Y-1474499D02*
G01*
X425000Y-1522300D01*
X425000Y-1474499D02*
G01*
X443200Y-1522300D01*
X461399Y-1474499D02*
G01*
X443200Y-1522300D01*
X461399Y-1474499D02*
G01*
X461399Y-1522300D01*
X476399Y-1483600D02*
G01*
X480900Y-1481399D01*
X487699Y-1474499D01*
X487699Y-1522300D01*
X520900Y-1474499D02*
G01*
X502699Y-1522300D01*
X520900Y-1474499D02*
G01*
X539099Y-1522300D01*
X509499Y-1506399D02*
G01*
X532300Y-1506399D01*
X425000Y-1574499D02*
G01*
X425000Y-1622300D01*
X425000Y-1574499D02*
G01*
X443200Y-1622300D01*
X461399Y-1574499D02*
G01*
X443200Y-1622300D01*
X461399Y-1574499D02*
G01*
X461399Y-1622300D01*
X478600Y-1585900D02*
G01*
X478600Y-1583600D01*
X480900Y-1579099D01*
X483200Y-1576799D01*
X487699Y-1574499D01*
X496799Y-1574499D01*
X501399Y-1576799D01*
X503600Y-1579099D01*
X505900Y-1583600D01*
X505900Y-1588200D01*
X503600Y-1592699D01*
X499099Y-1599499D01*
X476399Y-1622300D01*
X508200Y-1622300D01*
X541399Y-1574499D02*
G01*
X523200Y-1622300D01*
X541399Y-1574499D02*
G01*
X559499Y-1622300D01*
X530000Y-1606399D02*
G01*
X552699Y-1606399D01*
X425000Y-1674499D02*
G01*
X425000Y-1722300D01*
X425000Y-1674499D02*
G01*
X443200Y-1722300D01*
X461399Y-1674499D02*
G01*
X443200Y-1722300D01*
X461399Y-1674499D02*
G01*
X461399Y-1722300D01*
X478600Y-1685900D02*
G01*
X478600Y-1683600D01*
X480900Y-1679099D01*
X483200Y-1676799D01*
X487699Y-1674499D01*
X496799Y-1674499D01*
X501399Y-1676799D01*
X503600Y-1679099D01*
X505900Y-1683600D01*
X505900Y-1688200D01*
X503600Y-1692699D01*
X499099Y-1699499D01*
X476399Y-1722300D01*
X508200Y-1722300D01*
X523200Y-1674499D02*
G01*
X523200Y-1722300D01*
X523200Y-1674499D02*
G01*
X543600Y-1674499D01*
X550500Y-1676799D01*
X552699Y-1679099D01*
X555000Y-1683600D01*
X555000Y-1688200D01*
X552699Y-1692699D01*
X550500Y-1695000D01*
X543600Y-1697300D01*
X523200Y-1697300D02*
G01*
X543600Y-1697300D01*
X550500Y-1699499D01*
X552699Y-1701799D01*
X555000Y-1706399D01*
X555000Y-1713200D01*
X552699Y-1717699D01*
X550500Y-1720000D01*
X543600Y-1722300D01*
X523200Y-1722300D01*
X425000Y-624499D02*
G01*
X425000Y-672300D01*
X425000Y-624499D02*
G01*
X443200Y-672300D01*
X461399Y-624499D02*
G01*
X443200Y-672300D01*
X461399Y-624499D02*
G01*
X461399Y-672300D01*
X476399Y-633600D02*
G01*
X480900Y-631399D01*
X487699Y-624499D01*
X487699Y-672300D01*
X502699Y-624499D02*
G01*
X502699Y-672300D01*
X502699Y-624499D02*
G01*
X523200Y-624499D01*
X530000Y-626799D01*
X532300Y-629099D01*
X534499Y-633600D01*
X534499Y-638200D01*
X532300Y-642699D01*
X530000Y-645000D01*
X523200Y-647300D01*
X502699Y-647300D02*
G01*
X523200Y-647300D01*
X530000Y-649499D01*
X532300Y-651799D01*
X534499Y-656399D01*
X534499Y-663200D01*
X532300Y-667699D01*
X530000Y-670000D01*
X523200Y-672300D01*
X502699Y-672300D01*
X425000Y-724499D02*
G01*
X425000Y-772300D01*
X425000Y-724499D02*
G01*
X443200Y-772300D01*
X461399Y-724499D02*
G01*
X443200Y-772300D01*
X461399Y-724499D02*
G01*
X461399Y-772300D01*
X476399Y-733600D02*
G01*
X480900Y-731399D01*
X487699Y-724499D01*
X487699Y-772300D01*
X520900Y-724499D02*
G01*
X502699Y-772300D01*
X520900Y-724499D02*
G01*
X539099Y-772300D01*
X509499Y-756399D02*
G01*
X532300Y-756399D01*
X425000Y-824499D02*
G01*
X425000Y-872300D01*
X425000Y-824499D02*
G01*
X443200Y-872300D01*
X461399Y-824499D02*
G01*
X443200Y-872300D01*
X461399Y-824499D02*
G01*
X461399Y-872300D01*
X478600Y-835900D02*
G01*
X478600Y-833600D01*
X480900Y-829099D01*
X483200Y-826799D01*
X487699Y-824499D01*
X496799Y-824499D01*
X501399Y-826799D01*
X503600Y-829099D01*
X505900Y-833600D01*
X505900Y-838200D01*
X503600Y-842699D01*
X499099Y-849499D01*
X476399Y-872300D01*
X508200Y-872300D01*
X541399Y-824499D02*
G01*
X523200Y-872300D01*
X541399Y-824499D02*
G01*
X559499Y-872300D01*
X530000Y-856399D02*
G01*
X552699Y-856399D01*
X425000Y-924499D02*
G01*
X425000Y-972300D01*
X425000Y-924499D02*
G01*
X443200Y-972300D01*
X461399Y-924499D02*
G01*
X443200Y-972300D01*
X461399Y-924499D02*
G01*
X461399Y-972300D01*
X478600Y-935900D02*
G01*
X478600Y-933600D01*
X480900Y-929099D01*
X483200Y-926799D01*
X487699Y-924499D01*
X496799Y-924499D01*
X501399Y-926799D01*
X503600Y-929099D01*
X505900Y-933600D01*
X505900Y-938200D01*
X503600Y-942699D01*
X499099Y-949499D01*
X476399Y-972300D01*
X508200Y-972300D01*
X523200Y-924499D02*
G01*
X523200Y-972300D01*
X523200Y-924499D02*
G01*
X543600Y-924499D01*
X550500Y-926799D01*
X552699Y-929099D01*
X555000Y-933600D01*
X555000Y-938200D01*
X552699Y-942699D01*
X550500Y-945000D01*
X543600Y-947300D01*
X523200Y-947300D02*
G01*
X543600Y-947300D01*
X550500Y-949499D01*
X552699Y-951799D01*
X555000Y-956399D01*
X555000Y-963200D01*
X552699Y-967699D01*
X550500Y-970000D01*
X543600Y-972300D01*
X523200Y-972300D01*
X437500Y975500D02*
G01*
X437500Y927699D01*
X437500Y975500D02*
G01*
X455700Y927699D01*
X473899Y975500D02*
G01*
X455700Y927699D01*
X473899Y975500D02*
G01*
X473899Y927699D01*
X488899Y966399D02*
G01*
X493400Y968600D01*
X500199Y975500D01*
X500199Y927699D01*
X515199Y975500D02*
G01*
X515199Y927699D01*
X515199Y975500D02*
G01*
X535700Y975500D01*
X542500Y973200D01*
X544800Y970900D01*
X546999Y966399D01*
X546999Y961799D01*
X544800Y957300D01*
X542500Y955000D01*
X535700Y952699D01*
X515199Y952699D02*
G01*
X535700Y952699D01*
X542500Y950500D01*
X544800Y948200D01*
X546999Y943600D01*
X546999Y936799D01*
X544800Y932300D01*
X542500Y930000D01*
X535700Y927699D01*
X515199Y927699D01*
X437500Y875500D02*
G01*
X437500Y827699D01*
X437500Y875500D02*
G01*
X455700Y827699D01*
X473899Y875500D02*
G01*
X455700Y827699D01*
X473899Y875500D02*
G01*
X473899Y827699D01*
X488899Y866399D02*
G01*
X493400Y868600D01*
X500199Y875500D01*
X500199Y827699D01*
X533400Y875500D02*
G01*
X515199Y827699D01*
X533400Y875500D02*
G01*
X551599Y827699D01*
X521999Y843600D02*
G01*
X544800Y843600D01*
X437500Y775500D02*
G01*
X437500Y727699D01*
X437500Y775500D02*
G01*
X455700Y727699D01*
X473899Y775500D02*
G01*
X455700Y727699D01*
X473899Y775500D02*
G01*
X473899Y727699D01*
X491100Y764099D02*
G01*
X491100Y766399D01*
X493400Y770900D01*
X495700Y773200D01*
X500199Y775500D01*
X509299Y775500D01*
X513899Y773200D01*
X516100Y770900D01*
X518400Y766399D01*
X518400Y761799D01*
X516100Y757300D01*
X511599Y750500D01*
X488899Y727699D01*
X520700Y727699D01*
X553899Y775500D02*
G01*
X535700Y727699D01*
X553899Y775500D02*
G01*
X571999Y727699D01*
X542500Y743600D02*
G01*
X565199Y743600D01*
X437500Y675500D02*
G01*
X437500Y627699D01*
X437500Y675500D02*
G01*
X455700Y627699D01*
X473899Y675500D02*
G01*
X455700Y627699D01*
X473899Y675500D02*
G01*
X473899Y627699D01*
X491100Y664099D02*
G01*
X491100Y666399D01*
X493400Y670900D01*
X495700Y673200D01*
X500199Y675500D01*
X509299Y675500D01*
X513899Y673200D01*
X516100Y670900D01*
X518400Y666399D01*
X518400Y661799D01*
X516100Y657300D01*
X511599Y650500D01*
X488899Y627699D01*
X520700Y627699D01*
X535700Y675500D02*
G01*
X535700Y627699D01*
X535700Y675500D02*
G01*
X556100Y675500D01*
X563000Y673200D01*
X565199Y670900D01*
X567500Y666399D01*
X567500Y661799D01*
X565199Y657300D01*
X563000Y655000D01*
X556100Y652699D01*
X535700Y652699D02*
G01*
X556100Y652699D01*
X563000Y650500D01*
X565199Y648200D01*
X567500Y643600D01*
X567500Y636799D01*
X565199Y632300D01*
X563000Y630000D01*
X556100Y627699D01*
X535700Y627699D01*
X425000Y1425500D02*
G01*
X425000Y1377699D01*
X425000Y1425500D02*
G01*
X443200Y1377699D01*
X461399Y1425500D02*
G01*
X443200Y1377699D01*
X461399Y1425500D02*
G01*
X461399Y1377699D01*
X478600Y1414099D02*
G01*
X478600Y1416399D01*
X480900Y1420900D01*
X483200Y1423200D01*
X487699Y1425500D01*
X496799Y1425500D01*
X501399Y1423200D01*
X503600Y1420900D01*
X505900Y1416399D01*
X505900Y1411799D01*
X503600Y1407300D01*
X499099Y1400500D01*
X476399Y1377699D01*
X508200Y1377699D01*
X523200Y1425500D02*
G01*
X523200Y1377699D01*
X523200Y1425500D02*
G01*
X543600Y1425500D01*
X550500Y1423200D01*
X552699Y1420900D01*
X555000Y1416399D01*
X555000Y1411799D01*
X552699Y1407300D01*
X550500Y1405000D01*
X543600Y1402699D01*
X523200Y1402699D02*
G01*
X543600Y1402699D01*
X550500Y1400500D01*
X552699Y1398200D01*
X555000Y1393600D01*
X555000Y1386799D01*
X552699Y1382300D01*
X550500Y1380000D01*
X543600Y1377699D01*
X523200Y1377699D01*
X425000Y1525500D02*
G01*
X425000Y1477699D01*
X425000Y1525500D02*
G01*
X443200Y1477699D01*
X461399Y1525500D02*
G01*
X443200Y1477699D01*
X461399Y1525500D02*
G01*
X461399Y1477699D01*
X478600Y1514099D02*
G01*
X478600Y1516399D01*
X480900Y1520900D01*
X483200Y1523200D01*
X487699Y1525500D01*
X496799Y1525500D01*
X501399Y1523200D01*
X503600Y1520900D01*
X505900Y1516399D01*
X505900Y1511799D01*
X503600Y1507300D01*
X499099Y1500500D01*
X476399Y1477699D01*
X508200Y1477699D01*
X541399Y1525500D02*
G01*
X523200Y1477699D01*
X541399Y1525500D02*
G01*
X559499Y1477699D01*
X530000Y1493600D02*
G01*
X552699Y1493600D01*
X425000Y1625500D02*
G01*
X425000Y1577699D01*
X425000Y1625500D02*
G01*
X443200Y1577699D01*
X461399Y1625500D02*
G01*
X443200Y1577699D01*
X461399Y1625500D02*
G01*
X461399Y1577699D01*
X476399Y1616399D02*
G01*
X480900Y1618600D01*
X487699Y1625500D01*
X487699Y1577699D01*
X520900Y1625500D02*
G01*
X502699Y1577699D01*
X520900Y1625500D02*
G01*
X539099Y1577699D01*
X509499Y1593600D02*
G01*
X532300Y1593600D01*
X425000Y1725500D02*
G01*
X425000Y1677699D01*
X425000Y1725500D02*
G01*
X443200Y1677699D01*
X461399Y1725500D02*
G01*
X443200Y1677699D01*
X461399Y1725500D02*
G01*
X461399Y1677699D01*
X476399Y1716399D02*
G01*
X480900Y1718600D01*
X487699Y1725500D01*
X487699Y1677699D01*
X502699Y1725500D02*
G01*
X502699Y1677699D01*
X502699Y1725500D02*
G01*
X523200Y1725500D01*
X530000Y1723200D01*
X532300Y1720900D01*
X534499Y1716399D01*
X534499Y1711799D01*
X532300Y1707300D01*
X530000Y1705000D01*
X523200Y1702699D01*
X502699Y1702699D02*
G01*
X523200Y1702699D01*
X530000Y1700500D01*
X532300Y1698200D01*
X534499Y1693600D01*
X534499Y1686799D01*
X532300Y1682300D01*
X530000Y1680000D01*
X523200Y1677699D01*
X502699Y1677699D01*
D10*
X1133599Y150000D02*
G01*
X1131400Y154499D01*
X1124499Y161399D01*
X1172299Y161399D01*
X1135900Y178600D02*
G01*
X1133599Y178600D01*
X1129099Y180900D01*
X1126800Y183200D01*
X1124499Y187699D01*
X1124499Y196799D01*
X1126800Y201399D01*
X1129099Y203600D01*
X1133599Y205900D01*
X1138199Y205900D01*
X1142700Y203600D01*
X1149499Y199099D01*
X1172299Y176399D01*
X1172299Y208200D01*
X1124499Y223200D02*
G01*
X1172299Y241399D01*
X1124499Y259499D02*
G01*
X1172299Y241399D01*
X1133599Y550000D02*
G01*
X1131400Y554499D01*
X1124499Y561399D01*
X1172299Y561399D01*
X1135900Y578600D02*
G01*
X1133599Y578600D01*
X1129099Y580900D01*
X1126800Y583200D01*
X1124499Y587699D01*
X1124499Y596799D01*
X1126800Y601399D01*
X1129099Y603600D01*
X1133599Y605900D01*
X1138199Y605900D01*
X1142700Y603600D01*
X1149499Y599099D01*
X1172299Y576399D01*
X1172299Y608200D01*
X1124499Y623200D02*
G01*
X1172299Y641399D01*
X1124499Y659499D02*
G01*
X1172299Y641399D01*
D41*
X4240100Y-1849499D02*
G01*
X4236499Y-1853200D01*
X4234600Y-1858600D01*
X4234600Y-1865900D01*
X4236499Y-1871399D01*
X4240100Y-1875000D01*
X4243699Y-1875000D01*
X4247399Y-1873200D01*
X4249200Y-1871399D01*
X4251000Y-1867699D01*
X4254600Y-1856799D01*
X4256499Y-1853200D01*
X4258299Y-1851399D01*
X4261899Y-1849499D01*
X4267399Y-1849499D01*
X4271000Y-1853200D01*
X4272799Y-1858600D01*
X4272799Y-1865900D01*
X4271000Y-1871399D01*
X4267399Y-1875000D01*
X4234600Y-1832100D02*
G01*
X4265500Y-1832100D01*
X4271000Y-1830300D01*
X4272799Y-1826599D01*
X4272799Y-1823000D01*
X4247399Y-1837500D02*
G01*
X4247399Y-1824800D01*
X4247399Y-1789200D02*
G01*
X4272799Y-1789200D01*
X4252799Y-1789200D02*
G01*
X4249200Y-1792800D01*
X4247399Y-1796500D01*
X4247399Y-1801900D01*
X4249200Y-1805500D01*
X4252799Y-1809200D01*
X4258299Y-1810999D01*
X4261899Y-1810999D01*
X4267399Y-1809200D01*
X4271000Y-1805500D01*
X4272799Y-1801900D01*
X4272799Y-1796500D01*
X4271000Y-1792800D01*
X4267399Y-1789200D01*
X4247399Y-1777199D02*
G01*
X4272799Y-1777199D01*
X4254600Y-1777199D02*
G01*
X4249200Y-1771700D01*
X4247399Y-1768099D01*
X4247399Y-1762600D01*
X4249200Y-1759000D01*
X4254600Y-1757199D01*
X4272799Y-1757199D01*
X4234600Y-1730599D02*
G01*
X4234600Y-1734299D01*
X4236499Y-1737899D01*
X4241899Y-1739699D01*
X4272799Y-1739699D01*
X4247399Y-1745199D02*
G01*
X4247399Y-1732500D01*
X4247399Y-1709499D02*
G01*
X4249200Y-1713200D01*
X4252799Y-1716799D01*
X4258299Y-1718600D01*
X4261899Y-1718600D01*
X4267399Y-1716799D01*
X4271000Y-1713200D01*
X4272799Y-1709499D01*
X4272799Y-1704099D01*
X4271000Y-1700500D01*
X4267399Y-1696799D01*
X4261899Y-1695000D01*
X4258299Y-1695000D01*
X4252799Y-1696799D01*
X4249200Y-1700500D01*
X4247399Y-1704099D01*
X4247399Y-1709499D01*
X4247399Y-1683000D02*
G01*
X4272799Y-1683000D01*
X4258299Y-1683000D02*
G01*
X4252799Y-1681199D01*
X4249200Y-1677500D01*
X4247399Y-1673899D01*
X4247399Y-1668499D01*
X4234600Y-1634600D02*
G01*
X4272799Y-1634600D01*
X4252799Y-1634600D02*
G01*
X4249200Y-1638299D01*
X4247399Y-1641900D01*
X4247399Y-1647399D01*
X4249200Y-1650999D01*
X4252799Y-1654600D01*
X4258299Y-1656500D01*
X4261899Y-1656500D01*
X4267399Y-1654600D01*
X4271000Y-1650999D01*
X4272799Y-1647399D01*
X4272799Y-1641900D01*
X4271000Y-1638299D01*
X4267399Y-1634600D01*
X4234600Y-1594600D02*
G01*
X4261899Y-1594600D01*
X4267399Y-1592800D01*
X4271000Y-1589200D01*
X4272799Y-1583699D01*
X4272799Y-1580100D01*
X4271000Y-1574600D01*
X4267399Y-1570999D01*
X4261899Y-1569200D01*
X4234600Y-1569200D01*
X4247399Y-1557199D02*
G01*
X4272799Y-1557199D01*
X4254600Y-1557199D02*
G01*
X4249200Y-1551700D01*
X4247399Y-1548099D01*
X4247399Y-1542600D01*
X4249200Y-1539000D01*
X4254600Y-1537199D01*
X4272799Y-1537199D01*
X4234600Y-1525199D02*
G01*
X4236499Y-1523400D01*
X4234600Y-1521500D01*
X4232799Y-1523400D01*
X4234600Y-1525199D01*
X4247399Y-1523400D02*
G01*
X4272799Y-1523400D01*
X4247399Y-1509499D02*
G01*
X4272799Y-1498600D01*
X4247399Y-1487699D02*
G01*
X4272799Y-1498600D01*
X4258299Y-1475700D02*
G01*
X4258299Y-1453899D01*
X4254600Y-1453899D01*
X4251000Y-1455700D01*
X4249200Y-1457500D01*
X4247399Y-1461199D01*
X4247399Y-1466599D01*
X4249200Y-1470300D01*
X4252799Y-1473899D01*
X4258299Y-1475700D01*
X4261899Y-1475700D01*
X4267399Y-1473899D01*
X4271000Y-1470300D01*
X4272799Y-1466599D01*
X4272799Y-1461199D01*
X4271000Y-1457500D01*
X4267399Y-1453899D01*
X4247399Y-1441900D02*
G01*
X4272799Y-1441900D01*
X4258299Y-1441900D02*
G01*
X4252799Y-1440100D01*
X4249200Y-1436500D01*
X4247399Y-1432800D01*
X4247399Y-1427399D01*
X4252799Y-1395399D02*
G01*
X4249200Y-1397199D01*
X4247399Y-1402600D01*
X4247399Y-1408099D01*
X4249200Y-1413499D01*
X4252799Y-1415399D01*
X4256499Y-1413499D01*
X4258299Y-1409899D01*
X4260100Y-1400799D01*
X4261899Y-1397199D01*
X4265500Y-1395399D01*
X4267399Y-1395399D01*
X4271000Y-1397199D01*
X4272799Y-1402600D01*
X4272799Y-1408099D01*
X4271000Y-1413499D01*
X4267399Y-1415399D01*
X4234600Y-1383400D02*
G01*
X4236499Y-1381500D01*
X4234600Y-1379699D01*
X4232799Y-1381500D01*
X4234600Y-1383400D01*
X4247399Y-1381500D02*
G01*
X4272799Y-1381500D01*
X4234600Y-1362300D02*
G01*
X4265500Y-1362300D01*
X4271000Y-1360500D01*
X4272799Y-1356799D01*
X4272799Y-1353200D01*
X4247399Y-1367699D02*
G01*
X4247399Y-1355000D01*
X4247399Y-1339400D02*
G01*
X4272799Y-1328499D01*
X4247399Y-1317500D02*
G01*
X4272799Y-1328499D01*
X4280100Y-1332100D01*
X4283699Y-1335700D01*
X4285500Y-1339400D01*
X4285500Y-1341199D01*
D42*
X3958500Y-1875000D02*
G01*
X3996700Y-1858600D01*
X3958500Y-1842300D02*
G01*
X3996700Y-1858600D01*
X3939499Y-1807899D02*
G01*
X3942200Y-1816100D01*
X3950399Y-1821500D01*
X3963999Y-1824299D01*
X3972200Y-1824299D01*
X3985799Y-1821500D01*
X3993999Y-1816100D01*
X3996700Y-1807899D01*
X3996700Y-1802500D01*
X3993999Y-1794299D01*
X3985799Y-1788800D01*
X3972200Y-1786100D01*
X3963999Y-1786100D01*
X3950399Y-1788800D01*
X3942200Y-1794299D01*
X3939499Y-1802500D01*
X3939499Y-1807899D01*
X3983100Y-1765399D02*
G01*
X3985799Y-1768099D01*
X3988500Y-1765399D01*
X3985799Y-1762600D01*
X3983100Y-1765399D01*
X3939499Y-1717399D02*
G01*
X3977600Y-1744600D01*
X3977600Y-1703699D01*
X3939499Y-1717399D02*
G01*
X3996700Y-1717399D01*
X3983100Y-1683000D02*
G01*
X3985799Y-1685700D01*
X3988500Y-1683000D01*
X3985799Y-1680300D01*
X3983100Y-1683000D01*
X3939499Y-1645900D02*
G01*
X3942200Y-1654099D01*
X3950399Y-1659499D01*
X3963999Y-1662300D01*
X3972200Y-1662300D01*
X3985799Y-1659499D01*
X3993999Y-1654099D01*
X3996700Y-1645900D01*
X3996700Y-1640500D01*
X3993999Y-1632300D01*
X3985799Y-1626799D01*
X3972200Y-1624099D01*
X3963999Y-1624099D01*
X3950399Y-1626799D01*
X3942200Y-1632300D01*
X3939499Y-1640500D01*
X3939499Y-1645900D01*
X3939499Y-1542300D02*
G01*
X3939499Y-1547699D01*
X3942200Y-1553200D01*
X3950399Y-1555900D01*
X3996700Y-1555900D01*
X3958500Y-1564099D02*
G01*
X3958500Y-1545000D01*
X3958500Y-1510599D02*
G01*
X3961300Y-1516100D01*
X3966700Y-1521500D01*
X3974899Y-1524299D01*
X3980399Y-1524299D01*
X3988500Y-1521500D01*
X3993999Y-1516100D01*
X3996700Y-1510599D01*
X3996700Y-1502500D01*
X3993999Y-1496999D01*
X3988500Y-1491500D01*
X3980399Y-1488800D01*
X3974899Y-1488800D01*
X3966700Y-1491500D01*
X3961300Y-1496999D01*
X3958500Y-1502500D01*
X3958500Y-1510599D01*
X3958500Y-1470799D02*
G01*
X3996700Y-1470799D01*
X3974899Y-1470799D02*
G01*
X3966700Y-1468099D01*
X3961300Y-1462600D01*
X3958500Y-1457199D01*
X3958500Y-1449000D01*
X3947600Y-1350799D02*
G01*
X3942200Y-1356300D01*
X3939499Y-1364499D01*
X3939499Y-1375399D01*
X3942200Y-1383499D01*
X3947600Y-1389000D01*
X3953100Y-1389000D01*
X3958500Y-1386300D01*
X3961300Y-1383499D01*
X3963999Y-1378099D01*
X3969499Y-1361700D01*
X3972200Y-1356300D01*
X3974899Y-1353499D01*
X3980399Y-1350799D01*
X3988500Y-1350799D01*
X3993999Y-1356300D01*
X3996700Y-1364499D01*
X3996700Y-1375399D01*
X3993999Y-1383499D01*
X3988500Y-1389000D01*
X3958500Y-1300100D02*
G01*
X4015799Y-1300100D01*
X3966700Y-1300100D02*
G01*
X3961300Y-1305500D01*
X3958500Y-1310999D01*
X3958500Y-1319200D01*
X3961300Y-1324600D01*
X3966700Y-1330100D01*
X3974899Y-1332800D01*
X3980399Y-1332800D01*
X3988500Y-1330100D01*
X3993999Y-1324600D01*
X3996700Y-1319200D01*
X3996700Y-1310999D01*
X3993999Y-1305500D01*
X3988500Y-1300100D01*
X3958500Y-1282100D02*
G01*
X3985799Y-1282100D01*
X3993999Y-1279400D01*
X3996700Y-1273899D01*
X3996700Y-1265700D01*
X3993999Y-1260300D01*
X3985799Y-1252100D01*
X3958500Y-1252100D02*
G01*
X3996700Y-1252100D01*
X3939499Y-1234099D02*
G01*
X3942200Y-1231399D01*
X3939499Y-1228600D01*
X3936700Y-1231399D01*
X3939499Y-1234099D01*
X3958500Y-1231399D02*
G01*
X3996700Y-1231399D01*
X3939499Y-1177899D02*
G01*
X3996700Y-1177899D01*
X3966700Y-1177899D02*
G01*
X3961300Y-1183400D01*
X3958500Y-1188800D01*
X3958500Y-1196999D01*
X3961300Y-1202500D01*
X3966700Y-1207899D01*
X3974899Y-1210599D01*
X3980399Y-1210599D01*
X3988500Y-1207899D01*
X3993999Y-1202500D01*
X3996700Y-1196999D01*
X3996700Y-1188800D01*
X3993999Y-1183400D01*
X3988500Y-1177899D01*
D11*
X3566300Y-1875000D02*
G01*
X3620399Y-1851799D01*
X3566300Y-1828600D02*
G01*
X3620399Y-1851799D01*
X3539200Y-1780000D02*
G01*
X3543100Y-1791500D01*
X3554700Y-1799299D01*
X3573999Y-1803099D01*
X3585600Y-1803099D01*
X3604899Y-1799299D01*
X3616499Y-1791500D01*
X3620399Y-1780000D01*
X3620399Y-1772199D01*
X3616499Y-1760599D01*
X3604899Y-1752899D01*
X3585600Y-1749000D01*
X3573999Y-1749000D01*
X3554700Y-1752899D01*
X3543100Y-1760599D01*
X3539200Y-1772199D01*
X3539200Y-1780000D01*
X3601000Y-1719699D02*
G01*
X3604899Y-1723499D01*
X3608800Y-1719699D01*
X3604899Y-1715799D01*
X3601000Y-1719699D01*
X3558500Y-1686500D02*
G01*
X3554700Y-1686500D01*
X3546999Y-1682600D01*
X3543100Y-1678699D01*
X3539200Y-1670999D01*
X3539200Y-1655500D01*
X3543100Y-1647800D01*
X3546999Y-1644000D01*
X3554700Y-1640100D01*
X3562399Y-1640100D01*
X3570100Y-1644000D01*
X3581700Y-1651700D01*
X3620399Y-1690300D01*
X3620399Y-1636199D01*
X3601000Y-1606900D02*
G01*
X3604899Y-1610700D01*
X3608800Y-1606900D01*
X3604899Y-1603000D01*
X3601000Y-1606900D01*
X3539200Y-1554299D02*
G01*
X3543100Y-1565900D01*
X3554700Y-1573600D01*
X3573999Y-1577500D01*
X3585600Y-1577500D01*
X3604899Y-1573600D01*
X3616499Y-1565900D01*
X3620399Y-1554299D01*
X3620399Y-1546599D01*
X3616499Y-1535000D01*
X3604899Y-1527300D01*
X3585600Y-1523400D01*
X3573999Y-1523400D01*
X3554700Y-1527300D01*
X3543100Y-1535000D01*
X3539200Y-1546599D01*
X3539200Y-1554299D01*
X3550799Y-1384299D02*
G01*
X3543100Y-1391999D01*
X3539200Y-1403600D01*
X3539200Y-1419099D01*
X3543100Y-1430700D01*
X3550799Y-1438400D01*
X3558500Y-1438400D01*
X3566300Y-1434499D01*
X3570100Y-1430700D01*
X3573999Y-1423000D01*
X3581700Y-1399800D01*
X3585600Y-1391999D01*
X3589499Y-1388200D01*
X3597200Y-1384299D01*
X3608800Y-1384299D01*
X3616499Y-1391999D01*
X3620399Y-1403600D01*
X3620399Y-1419099D01*
X3616499Y-1430700D01*
X3608800Y-1438400D01*
X3539200Y-1347199D02*
G01*
X3604899Y-1347199D01*
X3616499Y-1343400D01*
X3620399Y-1335599D01*
X3620399Y-1327899D01*
X3566300Y-1358800D02*
G01*
X3566300Y-1331799D01*
X3566300Y-1255999D02*
G01*
X3620399Y-1255999D01*
X3577899Y-1255999D02*
G01*
X3570100Y-1263800D01*
X3566300Y-1271500D01*
X3566300Y-1283099D01*
X3570100Y-1290799D01*
X3577899Y-1298499D01*
X3589499Y-1302399D01*
X3597200Y-1302399D01*
X3608800Y-1298499D01*
X3616499Y-1290799D01*
X3620399Y-1283099D01*
X3620399Y-1271500D01*
X3616499Y-1263800D01*
X3608800Y-1255999D01*
X3577899Y-1184200D02*
G01*
X3570100Y-1191900D01*
X3566300Y-1199600D01*
X3566300Y-1211199D01*
X3570100Y-1219000D01*
X3577899Y-1226700D01*
X3589499Y-1230500D01*
X3597200Y-1230500D01*
X3608800Y-1226700D01*
X3616499Y-1219000D01*
X3620399Y-1211199D01*
X3620399Y-1199600D01*
X3616499Y-1191900D01*
X3608800Y-1184200D01*
X3539200Y-1158699D02*
G01*
X3620399Y-1158699D01*
X3566300Y-1120000D02*
G01*
X3604899Y-1158699D01*
X3589499Y-1143200D02*
G01*
X3620399Y-1116199D01*
D41*
X3452299Y-835900D02*
G01*
X3452299Y-833600D01*
X3454499Y-829099D01*
X3456800Y-826799D01*
X3461400Y-824499D01*
X3470500Y-824499D01*
X3475000Y-826799D01*
X3477299Y-829099D01*
X3479499Y-833600D01*
X3479499Y-838200D01*
X3477299Y-842699D01*
X3472700Y-849499D01*
X3450000Y-872300D01*
X3481800Y-872300D01*
X3496800Y-833600D02*
G01*
X3501400Y-831399D01*
X3508199Y-824499D01*
X3508199Y-872300D01*
X3564099Y-815500D02*
G01*
X3523199Y-888200D01*
X3610900Y-831399D02*
G01*
X3606400Y-826799D01*
X3599499Y-824499D01*
X3590500Y-824499D01*
X3583599Y-826799D01*
X3579099Y-831399D01*
X3579099Y-835900D01*
X3581400Y-840500D01*
X3583599Y-842699D01*
X3588199Y-845000D01*
X3601800Y-849499D01*
X3606400Y-851799D01*
X3608599Y-854099D01*
X3610900Y-858600D01*
X3610900Y-865500D01*
X3606400Y-870000D01*
X3599499Y-872300D01*
X3590500Y-872300D01*
X3583599Y-870000D01*
X3579099Y-865500D01*
X3660000Y-835900D02*
G01*
X3657700Y-831399D01*
X3653199Y-826799D01*
X3648599Y-824499D01*
X3639499Y-824499D01*
X3635000Y-826799D01*
X3630500Y-831399D01*
X3628199Y-835900D01*
X3625900Y-842699D01*
X3625900Y-854099D01*
X3628199Y-860900D01*
X3630500Y-865500D01*
X3635000Y-870000D01*
X3639499Y-872300D01*
X3648599Y-872300D01*
X3653199Y-870000D01*
X3657700Y-865500D01*
X3660000Y-860900D01*
X3675000Y-824499D02*
G01*
X3675000Y-872300D01*
X3675000Y-872300D02*
G01*
X3702299Y-872300D01*
X3450000Y-733600D02*
G01*
X3454499Y-731399D01*
X3461400Y-724499D01*
X3461400Y-772300D01*
X3505900Y-740500D02*
G01*
X3503599Y-747300D01*
X3499099Y-751799D01*
X3492299Y-754099D01*
X3490000Y-754099D01*
X3483199Y-751799D01*
X3478599Y-747300D01*
X3476400Y-740500D01*
X3476400Y-738200D01*
X3478599Y-731399D01*
X3483199Y-726799D01*
X3490000Y-724499D01*
X3492299Y-724499D01*
X3499099Y-726799D01*
X3503599Y-731399D01*
X3505900Y-740500D01*
X3505900Y-751799D01*
X3503599Y-763200D01*
X3499099Y-770000D01*
X3492299Y-772300D01*
X3487700Y-772300D01*
X3480900Y-770000D01*
X3478599Y-765500D01*
X3561800Y-715500D02*
G01*
X3520900Y-788200D01*
X3576800Y-724499D02*
G01*
X3576800Y-772300D01*
X3576800Y-724499D02*
G01*
X3597299Y-724499D01*
X3604099Y-726799D01*
X3606400Y-729099D01*
X3608599Y-733600D01*
X3608599Y-738200D01*
X3606400Y-742699D01*
X3604099Y-745000D01*
X3597299Y-747300D01*
X3576800Y-747300D01*
X3592700Y-747300D02*
G01*
X3608599Y-772300D01*
X3623599Y-724499D02*
G01*
X3655500Y-772300D01*
X3655500Y-724499D02*
G01*
X3623599Y-772300D01*
X3670500Y-733600D02*
G01*
X3675000Y-731399D01*
X3681800Y-724499D01*
X3681800Y-772300D01*
X3652299Y-924499D02*
G01*
X3629499Y-924499D01*
X3627299Y-945000D01*
X3629499Y-942699D01*
X3636400Y-940500D01*
X3643199Y-940500D01*
X3650000Y-942699D01*
X3654499Y-947300D01*
X3656800Y-954099D01*
X3656800Y-958600D01*
X3654499Y-965500D01*
X3650000Y-970000D01*
X3643199Y-972300D01*
X3636400Y-972300D01*
X3629499Y-970000D01*
X3627299Y-967699D01*
X3625000Y-963200D01*
X3671800Y-924499D02*
G01*
X3690000Y-972300D01*
X3708199Y-924499D02*
G01*
X3690000Y-972300D01*
X3550000Y-624499D02*
G01*
X3550000Y-672300D01*
X3550000Y-624499D02*
G01*
X3568199Y-672300D01*
X3586400Y-624499D02*
G01*
X3568199Y-672300D01*
X3586400Y-624499D02*
G01*
X3586400Y-672300D01*
X3615000Y-624499D02*
G01*
X3610500Y-626799D01*
X3605900Y-631399D01*
X3603599Y-635900D01*
X3601400Y-642699D01*
X3601400Y-654099D01*
X3603599Y-660900D01*
X3605900Y-665500D01*
X3610500Y-670000D01*
X3615000Y-672300D01*
X3624099Y-672300D01*
X3628599Y-670000D01*
X3633199Y-665500D01*
X3635500Y-660900D01*
X3637700Y-654099D01*
X3637700Y-642699D01*
X3635500Y-635900D01*
X3633199Y-631399D01*
X3628599Y-626799D01*
X3624099Y-624499D01*
X3615000Y-624499D01*
X3684499Y-631399D02*
G01*
X3680000Y-626799D01*
X3673199Y-624499D01*
X3664099Y-624499D01*
X3657299Y-626799D01*
X3652700Y-631399D01*
X3652700Y-635900D01*
X3655000Y-640500D01*
X3657299Y-642699D01*
X3661800Y-645000D01*
X3675500Y-649499D01*
X3680000Y-651799D01*
X3682299Y-654099D01*
X3684499Y-658600D01*
X3684499Y-665500D01*
X3680000Y-670000D01*
X3673199Y-672300D01*
X3664099Y-672300D01*
X3657299Y-670000D01*
X3652700Y-665500D01*
X3699499Y-624499D02*
G01*
X3699499Y-672300D01*
X3606800Y-531399D02*
G01*
X3602299Y-526799D01*
X3595500Y-524499D01*
X3586400Y-524499D01*
X3579499Y-526799D01*
X3575000Y-531399D01*
X3575000Y-535900D01*
X3577299Y-540500D01*
X3579499Y-542699D01*
X3584099Y-545000D01*
X3597700Y-549499D01*
X3602299Y-551799D01*
X3604499Y-554099D01*
X3606800Y-558600D01*
X3606800Y-565500D01*
X3602299Y-570000D01*
X3595500Y-572300D01*
X3586400Y-572300D01*
X3579499Y-570000D01*
X3575000Y-565500D01*
X3655900Y-535900D02*
G01*
X3653599Y-531399D01*
X3649099Y-526799D01*
X3644499Y-524499D01*
X3635500Y-524499D01*
X3630900Y-526799D01*
X3626400Y-531399D01*
X3624099Y-535900D01*
X3621800Y-542699D01*
X3621800Y-554099D01*
X3624099Y-560900D01*
X3626400Y-565500D01*
X3630900Y-570000D01*
X3635500Y-572300D01*
X3644499Y-572300D01*
X3649099Y-570000D01*
X3653599Y-565500D01*
X3655900Y-560900D01*
X3670900Y-524499D02*
G01*
X3670900Y-572300D01*
X3702700Y-524499D02*
G01*
X3670900Y-556399D01*
X3682299Y-545000D02*
G01*
X3702700Y-572300D01*
X3629499Y-324499D02*
G01*
X3654499Y-324499D01*
X3640900Y-342699D01*
X3647700Y-342699D01*
X3652299Y-345000D01*
X3654499Y-347300D01*
X3656800Y-354099D01*
X3656800Y-358600D01*
X3654499Y-365500D01*
X3650000Y-370000D01*
X3643199Y-372300D01*
X3636400Y-372300D01*
X3629499Y-370000D01*
X3627299Y-367699D01*
X3625000Y-363200D01*
X3685500Y-324499D02*
G01*
X3678599Y-326799D01*
X3674099Y-333600D01*
X3671800Y-345000D01*
X3671800Y-351799D01*
X3674099Y-363200D01*
X3678599Y-370000D01*
X3685500Y-372300D01*
X3690000Y-372300D01*
X3696800Y-370000D01*
X3701400Y-363200D01*
X3703599Y-351799D01*
X3703599Y-345000D01*
X3701400Y-333600D01*
X3696800Y-326799D01*
X3690000Y-324499D01*
X3685500Y-324499D01*
X3629499Y-224499D02*
G01*
X3654499Y-224499D01*
X3640900Y-242699D01*
X3647700Y-242699D01*
X3652299Y-245000D01*
X3654499Y-247300D01*
X3656800Y-254099D01*
X3656800Y-258600D01*
X3654499Y-265500D01*
X3650000Y-270000D01*
X3643199Y-272300D01*
X3636400Y-272300D01*
X3629499Y-270000D01*
X3627299Y-267699D01*
X3625000Y-263200D01*
X3674099Y-235900D02*
G01*
X3674099Y-233600D01*
X3676400Y-229099D01*
X3678599Y-226799D01*
X3683199Y-224499D01*
X3692299Y-224499D01*
X3696800Y-226799D01*
X3699099Y-229099D01*
X3701400Y-233600D01*
X3701400Y-238200D01*
X3699099Y-242699D01*
X3694499Y-249499D01*
X3671800Y-272300D01*
X3703599Y-272300D01*
X3629499Y-124499D02*
G01*
X3654499Y-124499D01*
X3640900Y-142699D01*
X3647700Y-142699D01*
X3652299Y-145000D01*
X3654499Y-147300D01*
X3656800Y-154099D01*
X3656800Y-158600D01*
X3654499Y-165500D01*
X3650000Y-170000D01*
X3643199Y-172300D01*
X3636400Y-172300D01*
X3629499Y-170000D01*
X3627299Y-167699D01*
X3625000Y-163200D01*
X3694499Y-124499D02*
G01*
X3671800Y-156399D01*
X3705900Y-156399D01*
X3694499Y-124499D02*
G01*
X3694499Y-172300D01*
X3629499Y-24499D02*
G01*
X3654499Y-24499D01*
X3640900Y-42699D01*
X3647700Y-42699D01*
X3652299Y-45000D01*
X3654499Y-47300D01*
X3656800Y-54099D01*
X3656800Y-58600D01*
X3654499Y-65500D01*
X3650000Y-70000D01*
X3643199Y-72300D01*
X3636400Y-72300D01*
X3629499Y-70000D01*
X3627299Y-67699D01*
X3625000Y-63200D01*
X3699099Y-31399D02*
G01*
X3696800Y-26799D01*
X3690000Y-24499D01*
X3685500Y-24499D01*
X3678599Y-26799D01*
X3674099Y-33600D01*
X3671800Y-45000D01*
X3671800Y-56399D01*
X3674099Y-65500D01*
X3678599Y-70000D01*
X3685500Y-72300D01*
X3687700Y-72300D01*
X3694499Y-70000D01*
X3699099Y-65500D01*
X3701400Y-58600D01*
X3701400Y-56399D01*
X3699099Y-49499D01*
X3694499Y-45000D01*
X3687700Y-42699D01*
X3685500Y-42699D01*
X3678599Y-45000D01*
X3674099Y-49499D01*
X3671800Y-56399D01*
X3629499Y75500D02*
G01*
X3654499Y75500D01*
X3640900Y57300D01*
X3647700Y57300D01*
X3652299Y55000D01*
X3654499Y52699D01*
X3656800Y45900D01*
X3656800Y41399D01*
X3654499Y34499D01*
X3650000Y30000D01*
X3643199Y27699D01*
X3636400Y27699D01*
X3629499Y30000D01*
X3627299Y32300D01*
X3625000Y36799D01*
X3683199Y75500D02*
G01*
X3676400Y73200D01*
X3674099Y68600D01*
X3674099Y64099D01*
X3676400Y59499D01*
X3680900Y57300D01*
X3690000Y55000D01*
X3696800Y52699D01*
X3701400Y48200D01*
X3703599Y43600D01*
X3703599Y36799D01*
X3701400Y32300D01*
X3699099Y30000D01*
X3692299Y27699D01*
X3683199Y27699D01*
X3676400Y30000D01*
X3674099Y32300D01*
X3671800Y36799D01*
X3671800Y43600D01*
X3674099Y48200D01*
X3678599Y52699D01*
X3685500Y55000D01*
X3694499Y57300D01*
X3699099Y59499D01*
X3701400Y64099D01*
X3701400Y68600D01*
X3699099Y73200D01*
X3692299Y75500D01*
X3683199Y75500D01*
X3647700Y175500D02*
G01*
X3625000Y143600D01*
X3659099Y143600D01*
X3647700Y175500D02*
G01*
X3647700Y127699D01*
X3687700Y175500D02*
G01*
X3680900Y173200D01*
X3676400Y166399D01*
X3674099Y155000D01*
X3674099Y148200D01*
X3676400Y136799D01*
X3680900Y130000D01*
X3687700Y127699D01*
X3692299Y127699D01*
X3699099Y130000D01*
X3703599Y136799D01*
X3705900Y148200D01*
X3705900Y155000D01*
X3703599Y166399D01*
X3699099Y173200D01*
X3692299Y175500D01*
X3687700Y175500D01*
X3647700Y275500D02*
G01*
X3625000Y243600D01*
X3659099Y243600D01*
X3647700Y275500D02*
G01*
X3647700Y227699D01*
X3676400Y264099D02*
G01*
X3676400Y266399D01*
X3678599Y270900D01*
X3680900Y273200D01*
X3685500Y275500D01*
X3694499Y275500D01*
X3699099Y273200D01*
X3701400Y270900D01*
X3703599Y266399D01*
X3703599Y261799D01*
X3701400Y257300D01*
X3696800Y250500D01*
X3674099Y227699D01*
X3705900Y227699D01*
X3647700Y375500D02*
G01*
X3625000Y343600D01*
X3659099Y343600D01*
X3647700Y375500D02*
G01*
X3647700Y327699D01*
X3696800Y375500D02*
G01*
X3674099Y343600D01*
X3708199Y343600D01*
X3696800Y375500D02*
G01*
X3696800Y327699D01*
X3643199Y475500D02*
G01*
X3625000Y427699D01*
X3643199Y475500D02*
G01*
X3661400Y427699D01*
X3631800Y443600D02*
G01*
X3654499Y443600D01*
X3676400Y466399D02*
G01*
X3680900Y468600D01*
X3687700Y475500D01*
X3687700Y427699D01*
X3702700Y466399D02*
G01*
X3707299Y468600D01*
X3714099Y475500D01*
X3714099Y427699D01*
X3643199Y575500D02*
G01*
X3625000Y527699D01*
X3643199Y575500D02*
G01*
X3661400Y527699D01*
X3631800Y543600D02*
G01*
X3654499Y543600D01*
X3705900Y559499D02*
G01*
X3703599Y552699D01*
X3699099Y548200D01*
X3692299Y545900D01*
X3690000Y545900D01*
X3683199Y548200D01*
X3678599Y552699D01*
X3676400Y559499D01*
X3676400Y561799D01*
X3678599Y568600D01*
X3683199Y573200D01*
X3690000Y575500D01*
X3692299Y575500D01*
X3699099Y573200D01*
X3703599Y568600D01*
X3705900Y559499D01*
X3705900Y548200D01*
X3703599Y536799D01*
X3699099Y530000D01*
X3692299Y527699D01*
X3687700Y527699D01*
X3680900Y530000D01*
X3678599Y534499D01*
X3643199Y675500D02*
G01*
X3625000Y627699D01*
X3643199Y675500D02*
G01*
X3661400Y627699D01*
X3631800Y643600D02*
G01*
X3654499Y643600D01*
X3708199Y675500D02*
G01*
X3685500Y627699D01*
X3676400Y675500D02*
G01*
X3708199Y675500D01*
X3643199Y775500D02*
G01*
X3625000Y727699D01*
X3643199Y775500D02*
G01*
X3661400Y727699D01*
X3631800Y743600D02*
G01*
X3654499Y743600D01*
X3703599Y775500D02*
G01*
X3680900Y775500D01*
X3678599Y755000D01*
X3680900Y757300D01*
X3687700Y759499D01*
X3694499Y759499D01*
X3701400Y757300D01*
X3705900Y752699D01*
X3708199Y745900D01*
X3708199Y741399D01*
X3705900Y734499D01*
X3701400Y730000D01*
X3694499Y727699D01*
X3687700Y727699D01*
X3680900Y730000D01*
X3678599Y732300D01*
X3676400Y736799D01*
X3568199Y875500D02*
G01*
X3550000Y827699D01*
X3568199Y875500D02*
G01*
X3586400Y827699D01*
X3556800Y843600D02*
G01*
X3579499Y843600D01*
X3601400Y875500D02*
G01*
X3601400Y827699D01*
X3601400Y875500D02*
G01*
X3621800Y875500D01*
X3628599Y873200D01*
X3630900Y870900D01*
X3633199Y866399D01*
X3633199Y861799D01*
X3630900Y857300D01*
X3628599Y855000D01*
X3621800Y852699D01*
X3601400Y852699D01*
X3617299Y852699D02*
G01*
X3633199Y827699D01*
X3648199Y875500D02*
G01*
X3648199Y827699D01*
X3648199Y875500D02*
G01*
X3677700Y875500D01*
X3648199Y852699D02*
G01*
X3666400Y852699D01*
X3648199Y827699D02*
G01*
X3677700Y827699D01*
X3692700Y875500D02*
G01*
X3692700Y827699D01*
X3692700Y875500D02*
G01*
X3722299Y875500D01*
X3692700Y852699D02*
G01*
X3710900Y852699D01*
D10*
X3554499Y975500D02*
G01*
X3579499Y975500D01*
X3565900Y957300D01*
X3572700Y957300D01*
X3577299Y955000D01*
X3579499Y952699D01*
X3581800Y945900D01*
X3581800Y941399D01*
X3579499Y934499D01*
X3575000Y930000D01*
X3568199Y927699D01*
X3561400Y927699D01*
X3554499Y930000D01*
X3552299Y932300D01*
X3550000Y936799D01*
X3599099Y939099D02*
G01*
X3596800Y936799D01*
X3599099Y934499D01*
X3601400Y936799D01*
X3599099Y939099D01*
X3620900Y975500D02*
G01*
X3645900Y975500D01*
X3632299Y957300D01*
X3639099Y957300D01*
X3643599Y955000D01*
X3645900Y952699D01*
X3648199Y945900D01*
X3648199Y941399D01*
X3645900Y934499D01*
X3641400Y930000D01*
X3634499Y927699D01*
X3627700Y927699D01*
X3620900Y930000D01*
X3618599Y932300D01*
X3616400Y936799D01*
X3663199Y975500D02*
G01*
X3681400Y927699D01*
X3699499Y975500D02*
G01*
X3681400Y927699D01*
X4034099Y-935900D02*
G01*
X4031800Y-931399D01*
X4027299Y-926799D01*
X4022700Y-924499D01*
X4013599Y-924499D01*
X4009099Y-926799D01*
X4004499Y-931399D01*
X4002299Y-935900D01*
X4000000Y-942699D01*
X4000000Y-954099D01*
X4002299Y-960900D01*
X4004499Y-965500D01*
X4009099Y-970000D01*
X4013599Y-972300D01*
X4022700Y-972300D01*
X4027299Y-970000D01*
X4031800Y-965500D01*
X4034099Y-960900D01*
X4034099Y-954099D01*
X4022700Y-954099D02*
G01*
X4034099Y-954099D01*
X4049099Y-924499D02*
G01*
X4049099Y-972300D01*
X4049099Y-924499D02*
G01*
X4080900Y-972300D01*
X4080900Y-924499D02*
G01*
X4080900Y-972300D01*
X4095900Y-924499D02*
G01*
X4095900Y-972300D01*
X4095900Y-924499D02*
G01*
X4111800Y-924499D01*
X4118599Y-926799D01*
X4123199Y-931399D01*
X4125500Y-935900D01*
X4127700Y-942699D01*
X4127700Y-954099D01*
X4125500Y-960900D01*
X4123199Y-965500D01*
X4118599Y-970000D01*
X4111800Y-972300D01*
X4095900Y-972300D01*
D41*
X4002299Y-835900D02*
G01*
X4002299Y-833600D01*
X4004499Y-829099D01*
X4006800Y-826799D01*
X4011400Y-824499D01*
X4020500Y-824499D01*
X4025000Y-826799D01*
X4027299Y-829099D01*
X4029499Y-833600D01*
X4029499Y-838200D01*
X4027299Y-842699D01*
X4022700Y-849499D01*
X4000000Y-872300D01*
X4031800Y-872300D01*
X4060500Y-824499D02*
G01*
X4053599Y-826799D01*
X4049099Y-833600D01*
X4046800Y-845000D01*
X4046800Y-851799D01*
X4049099Y-863200D01*
X4053599Y-870000D01*
X4060500Y-872300D01*
X4065000Y-872300D01*
X4071800Y-870000D01*
X4076400Y-863200D01*
X4078599Y-851799D01*
X4078599Y-845000D01*
X4076400Y-833600D01*
X4071800Y-826799D01*
X4065000Y-824499D01*
X4060500Y-824499D01*
X4134499Y-815500D02*
G01*
X4093599Y-888200D01*
X4181400Y-831399D02*
G01*
X4176800Y-826799D01*
X4170000Y-824499D01*
X4160900Y-824499D01*
X4154099Y-826799D01*
X4149499Y-831399D01*
X4149499Y-835900D01*
X4151800Y-840500D01*
X4154099Y-842699D01*
X4158599Y-845000D01*
X4172299Y-849499D01*
X4176800Y-851799D01*
X4179099Y-854099D01*
X4181400Y-858600D01*
X4181400Y-865500D01*
X4176800Y-870000D01*
X4170000Y-872300D01*
X4160900Y-872300D01*
X4154099Y-870000D01*
X4149499Y-865500D01*
X4196400Y-824499D02*
G01*
X4196400Y-872300D01*
X4196400Y-824499D02*
G01*
X4212299Y-824499D01*
X4219099Y-826799D01*
X4223599Y-831399D01*
X4225900Y-835900D01*
X4228199Y-842699D01*
X4228199Y-854099D01*
X4225900Y-860900D01*
X4223599Y-865500D01*
X4219099Y-870000D01*
X4212299Y-872300D01*
X4196400Y-872300D01*
X4261400Y-824499D02*
G01*
X4243199Y-872300D01*
X4261400Y-824499D02*
G01*
X4279499Y-872300D01*
X4250000Y-856399D02*
G01*
X4272700Y-856399D01*
X4000000Y-733600D02*
G01*
X4004499Y-731399D01*
X4011400Y-724499D01*
X4011400Y-772300D01*
X4037700Y-724499D02*
G01*
X4030900Y-726799D01*
X4028599Y-731399D01*
X4028599Y-735900D01*
X4030900Y-740500D01*
X4035500Y-742699D01*
X4044499Y-745000D01*
X4051400Y-747300D01*
X4055900Y-751799D01*
X4058199Y-756399D01*
X4058199Y-763200D01*
X4055900Y-767699D01*
X4053599Y-770000D01*
X4046800Y-772300D01*
X4037700Y-772300D01*
X4030900Y-770000D01*
X4028599Y-767699D01*
X4026400Y-763200D01*
X4026400Y-756399D01*
X4028599Y-751799D01*
X4033199Y-747300D01*
X4040000Y-745000D01*
X4049099Y-742699D01*
X4053599Y-740500D01*
X4055900Y-735900D01*
X4055900Y-731399D01*
X4053599Y-726799D01*
X4046800Y-724499D01*
X4037700Y-724499D01*
X4114099Y-715500D02*
G01*
X4073199Y-788200D01*
X4145000Y-724499D02*
G01*
X4145000Y-772300D01*
X4129099Y-724499D02*
G01*
X4160900Y-724499D01*
X4175900Y-724499D02*
G01*
X4207700Y-772300D01*
X4207700Y-724499D02*
G01*
X4175900Y-772300D01*
X4222700Y-733600D02*
G01*
X4227299Y-731399D01*
X4234099Y-724499D01*
X4234099Y-772300D01*
X4000000Y-624499D02*
G01*
X4000000Y-672300D01*
X4000000Y-624499D02*
G01*
X4018199Y-672300D01*
X4036400Y-624499D02*
G01*
X4018199Y-672300D01*
X4036400Y-624499D02*
G01*
X4036400Y-672300D01*
X4051400Y-624499D02*
G01*
X4051400Y-672300D01*
X4098199Y-631399D02*
G01*
X4093599Y-626799D01*
X4086800Y-624499D01*
X4077700Y-624499D01*
X4070900Y-626799D01*
X4066400Y-631399D01*
X4066400Y-635900D01*
X4068599Y-640500D01*
X4070900Y-642699D01*
X4075500Y-645000D01*
X4089099Y-649499D01*
X4093599Y-651799D01*
X4095900Y-654099D01*
X4098199Y-658600D01*
X4098199Y-665500D01*
X4093599Y-670000D01*
X4086800Y-672300D01*
X4077700Y-672300D01*
X4070900Y-670000D01*
X4066400Y-665500D01*
X4126800Y-624499D02*
G01*
X4122299Y-626799D01*
X4117700Y-631399D01*
X4115500Y-635900D01*
X4113199Y-642699D01*
X4113199Y-654099D01*
X4115500Y-660900D01*
X4117700Y-665500D01*
X4122299Y-670000D01*
X4126800Y-672300D01*
X4135900Y-672300D01*
X4140500Y-670000D01*
X4145000Y-665500D01*
X4147299Y-660900D01*
X4149499Y-654099D01*
X4149499Y-642699D01*
X4147299Y-635900D01*
X4145000Y-631399D01*
X4140500Y-626799D01*
X4135900Y-624499D01*
X4126800Y-624499D01*
X4004499Y-324499D02*
G01*
X4029499Y-324499D01*
X4015900Y-342699D01*
X4022700Y-342699D01*
X4027299Y-345000D01*
X4029499Y-347300D01*
X4031800Y-354099D01*
X4031800Y-358600D01*
X4029499Y-365500D01*
X4025000Y-370000D01*
X4018199Y-372300D01*
X4011400Y-372300D01*
X4004499Y-370000D01*
X4002299Y-367699D01*
X4000000Y-363200D01*
X4046800Y-333600D02*
G01*
X4051400Y-331399D01*
X4058199Y-324499D01*
X4058199Y-372300D01*
X4004499Y-224499D02*
G01*
X4029499Y-224499D01*
X4015900Y-242699D01*
X4022700Y-242699D01*
X4027299Y-245000D01*
X4029499Y-247300D01*
X4031800Y-254099D01*
X4031800Y-258600D01*
X4029499Y-265500D01*
X4025000Y-270000D01*
X4018199Y-272300D01*
X4011400Y-272300D01*
X4004499Y-270000D01*
X4002299Y-267699D01*
X4000000Y-263200D01*
X4051400Y-224499D02*
G01*
X4076400Y-224499D01*
X4062700Y-242699D01*
X4069499Y-242699D01*
X4074099Y-245000D01*
X4076400Y-247300D01*
X4078599Y-254099D01*
X4078599Y-258600D01*
X4076400Y-265500D01*
X4071800Y-270000D01*
X4065000Y-272300D01*
X4058199Y-272300D01*
X4051400Y-270000D01*
X4049099Y-267699D01*
X4046800Y-263200D01*
X4004499Y-124499D02*
G01*
X4029499Y-124499D01*
X4015900Y-142699D01*
X4022700Y-142699D01*
X4027299Y-145000D01*
X4029499Y-147300D01*
X4031800Y-154099D01*
X4031800Y-158600D01*
X4029499Y-165500D01*
X4025000Y-170000D01*
X4018199Y-172300D01*
X4011400Y-172300D01*
X4004499Y-170000D01*
X4002299Y-167699D01*
X4000000Y-163200D01*
X4074099Y-124499D02*
G01*
X4051400Y-124499D01*
X4049099Y-145000D01*
X4051400Y-142699D01*
X4058199Y-140500D01*
X4065000Y-140500D01*
X4071800Y-142699D01*
X4076400Y-147300D01*
X4078599Y-154099D01*
X4078599Y-158600D01*
X4076400Y-165500D01*
X4071800Y-170000D01*
X4065000Y-172300D01*
X4058199Y-172300D01*
X4051400Y-170000D01*
X4049099Y-167699D01*
X4046800Y-163200D01*
X4004499Y-24499D02*
G01*
X4029499Y-24499D01*
X4015900Y-42699D01*
X4022700Y-42699D01*
X4027299Y-45000D01*
X4029499Y-47300D01*
X4031800Y-54099D01*
X4031800Y-58600D01*
X4029499Y-65500D01*
X4025000Y-70000D01*
X4018199Y-72300D01*
X4011400Y-72300D01*
X4004499Y-70000D01*
X4002299Y-67699D01*
X4000000Y-63200D01*
X4078599Y-24499D02*
G01*
X4055900Y-72300D01*
X4046800Y-24499D02*
G01*
X4078599Y-24499D01*
X4004499Y75500D02*
G01*
X4029499Y75500D01*
X4015900Y57300D01*
X4022700Y57300D01*
X4027299Y55000D01*
X4029499Y52699D01*
X4031800Y45900D01*
X4031800Y41399D01*
X4029499Y34499D01*
X4025000Y30000D01*
X4018199Y27699D01*
X4011400Y27699D01*
X4004499Y30000D01*
X4002299Y32300D01*
X4000000Y36799D01*
X4076400Y59499D02*
G01*
X4074099Y52699D01*
X4069499Y48200D01*
X4062700Y45900D01*
X4060500Y45900D01*
X4053599Y48200D01*
X4049099Y52699D01*
X4046800Y59499D01*
X4046800Y61799D01*
X4049099Y68600D01*
X4053599Y73200D01*
X4060500Y75500D01*
X4062700Y75500D01*
X4069499Y73200D01*
X4074099Y68600D01*
X4076400Y59499D01*
X4076400Y48200D01*
X4074099Y36799D01*
X4069499Y30000D01*
X4062700Y27699D01*
X4058199Y27699D01*
X4051400Y30000D01*
X4049099Y34499D01*
X4022700Y175500D02*
G01*
X4000000Y143600D01*
X4034099Y143600D01*
X4022700Y175500D02*
G01*
X4022700Y127699D01*
X4049099Y166399D02*
G01*
X4053599Y168600D01*
X4060500Y175500D01*
X4060500Y127699D01*
X4022700Y275500D02*
G01*
X4000000Y243600D01*
X4034099Y243600D01*
X4022700Y275500D02*
G01*
X4022700Y227699D01*
X4053599Y275500D02*
G01*
X4078599Y275500D01*
X4065000Y257300D01*
X4071800Y257300D01*
X4076400Y255000D01*
X4078599Y252699D01*
X4080900Y245900D01*
X4080900Y241399D01*
X4078599Y234499D01*
X4074099Y230000D01*
X4067299Y227699D01*
X4060500Y227699D01*
X4053599Y230000D01*
X4051400Y232300D01*
X4049099Y236799D01*
X4022700Y375500D02*
G01*
X4000000Y343600D01*
X4034099Y343600D01*
X4022700Y375500D02*
G01*
X4022700Y327699D01*
X4076400Y375500D02*
G01*
X4053599Y375500D01*
X4051400Y355000D01*
X4053599Y357300D01*
X4060500Y359499D01*
X4067299Y359499D01*
X4074099Y357300D01*
X4078599Y352699D01*
X4080900Y345900D01*
X4080900Y341399D01*
X4078599Y334499D01*
X4074099Y330000D01*
X4067299Y327699D01*
X4060500Y327699D01*
X4053599Y330000D01*
X4051400Y332300D01*
X4049099Y336799D01*
X4018199Y475500D02*
G01*
X4000000Y427699D01*
X4018199Y475500D02*
G01*
X4036400Y427699D01*
X4006800Y443600D02*
G01*
X4029499Y443600D01*
X4051400Y466399D02*
G01*
X4055900Y468600D01*
X4062700Y475500D01*
X4062700Y427699D01*
X4091400Y475500D02*
G01*
X4084499Y473200D01*
X4080000Y466399D01*
X4077700Y455000D01*
X4077700Y448200D01*
X4080000Y436799D01*
X4084499Y430000D01*
X4091400Y427699D01*
X4095900Y427699D01*
X4102700Y430000D01*
X4107299Y436799D01*
X4109499Y448200D01*
X4109499Y455000D01*
X4107299Y466399D01*
X4102700Y473200D01*
X4095900Y475500D01*
X4091400Y475500D01*
X4018199Y575500D02*
G01*
X4000000Y527699D01*
X4018199Y575500D02*
G01*
X4036400Y527699D01*
X4006800Y543600D02*
G01*
X4029499Y543600D01*
X4062700Y575500D02*
G01*
X4055900Y573200D01*
X4053599Y568600D01*
X4053599Y564099D01*
X4055900Y559499D01*
X4060500Y557300D01*
X4069499Y555000D01*
X4076400Y552699D01*
X4080900Y548200D01*
X4083199Y543600D01*
X4083199Y536799D01*
X4080900Y532300D01*
X4078599Y530000D01*
X4071800Y527699D01*
X4062700Y527699D01*
X4055900Y530000D01*
X4053599Y532300D01*
X4051400Y536799D01*
X4051400Y543600D01*
X4053599Y548200D01*
X4058199Y552699D01*
X4065000Y555000D01*
X4074099Y557300D01*
X4078599Y559499D01*
X4080900Y564099D01*
X4080900Y568600D01*
X4078599Y573200D01*
X4071800Y575500D01*
X4062700Y575500D01*
X4018199Y675500D02*
G01*
X4000000Y627699D01*
X4018199Y675500D02*
G01*
X4036400Y627699D01*
X4006800Y643600D02*
G01*
X4029499Y643600D01*
X4078599Y668600D02*
G01*
X4076400Y673200D01*
X4069499Y675500D01*
X4065000Y675500D01*
X4058199Y673200D01*
X4053599Y666399D01*
X4051400Y655000D01*
X4051400Y643600D01*
X4053599Y634499D01*
X4058199Y630000D01*
X4065000Y627699D01*
X4067299Y627699D01*
X4074099Y630000D01*
X4078599Y634499D01*
X4080900Y641399D01*
X4080900Y643600D01*
X4078599Y650500D01*
X4074099Y655000D01*
X4067299Y657300D01*
X4065000Y657300D01*
X4058199Y655000D01*
X4053599Y650500D01*
X4051400Y643600D01*
X4018199Y775500D02*
G01*
X4000000Y727699D01*
X4018199Y775500D02*
G01*
X4036400Y727699D01*
X4006800Y743600D02*
G01*
X4029499Y743600D01*
X4074099Y775500D02*
G01*
X4051400Y743600D01*
X4085500Y743600D01*
X4074099Y775500D02*
G01*
X4074099Y727699D01*
D11*
X3389200Y-1851799D02*
G01*
X3393100Y-1859499D01*
X3400799Y-1867300D01*
X3408500Y-1871100D01*
X3420100Y-1875000D01*
X3439499Y-1875000D01*
X3451000Y-1871100D01*
X3458800Y-1867300D01*
X3466499Y-1859499D01*
X3470399Y-1851799D01*
X3470399Y-1836399D01*
X3466499Y-1828600D01*
X3458800Y-1820900D01*
X3451000Y-1816999D01*
X3439499Y-1813200D01*
X3420100Y-1813200D01*
X3408500Y-1816999D01*
X3400799Y-1820900D01*
X3393100Y-1828600D01*
X3389200Y-1836399D01*
X3389200Y-1851799D01*
X3427899Y-1741300D02*
G01*
X3420100Y-1749000D01*
X3416300Y-1756799D01*
X3416300Y-1768400D01*
X3420100Y-1776100D01*
X3427899Y-1783800D01*
X3439499Y-1787699D01*
X3447200Y-1787699D01*
X3458800Y-1783800D01*
X3466499Y-1776100D01*
X3470399Y-1768400D01*
X3470399Y-1756799D01*
X3466499Y-1749000D01*
X3458800Y-1741300D01*
X3389200Y-1704200D02*
G01*
X3454899Y-1704200D01*
X3466499Y-1700399D01*
X3470399Y-1692600D01*
X3470399Y-1684899D01*
X3416300Y-1715799D02*
G01*
X3416300Y-1688800D01*
X3416300Y-1640100D02*
G01*
X3420100Y-1647800D01*
X3427899Y-1655500D01*
X3439499Y-1659400D01*
X3447200Y-1659400D01*
X3458800Y-1655500D01*
X3466499Y-1647800D01*
X3470399Y-1640100D01*
X3470399Y-1628499D01*
X3466499Y-1620799D01*
X3458800Y-1613000D01*
X3447200Y-1609200D01*
X3439499Y-1609200D01*
X3427899Y-1613000D01*
X3420100Y-1620799D01*
X3416300Y-1628499D01*
X3416300Y-1640100D01*
X3416300Y-1583699D02*
G01*
X3497399Y-1583699D01*
X3427899Y-1583699D02*
G01*
X3420100Y-1575999D01*
X3416300Y-1568200D01*
X3416300Y-1556599D01*
X3420100Y-1548899D01*
X3427899Y-1541199D01*
X3439499Y-1537300D01*
X3447200Y-1537300D01*
X3458800Y-1541199D01*
X3466499Y-1548899D01*
X3470399Y-1556599D01*
X3470399Y-1568200D01*
X3466499Y-1575999D01*
X3458800Y-1583699D01*
X3389200Y-1511799D02*
G01*
X3393100Y-1508000D01*
X3389200Y-1504099D01*
X3385399Y-1508000D01*
X3389200Y-1511799D01*
X3416300Y-1508000D02*
G01*
X3470399Y-1508000D01*
X3389200Y-1419099D02*
G01*
X3470399Y-1419099D01*
X3389200Y-1419099D02*
G01*
X3389200Y-1391999D01*
X3393100Y-1380500D01*
X3400799Y-1372699D01*
X3408500Y-1368899D01*
X3420100Y-1365000D01*
X3439499Y-1365000D01*
X3451000Y-1368899D01*
X3458800Y-1372699D01*
X3466499Y-1380500D01*
X3470399Y-1391999D01*
X3470399Y-1419099D01*
X3416300Y-1339499D02*
G01*
X3470399Y-1339499D01*
X3439499Y-1339499D02*
G01*
X3427899Y-1335599D01*
X3420100Y-1327899D01*
X3416300Y-1320199D01*
X3416300Y-1308600D01*
X3389200Y-1283099D02*
G01*
X3393100Y-1279200D01*
X3389200Y-1275399D01*
X3385399Y-1279200D01*
X3389200Y-1283099D01*
X3416300Y-1279200D02*
G01*
X3470399Y-1279200D01*
X3416300Y-1249899D02*
G01*
X3470399Y-1226700D01*
X3416300Y-1203499D02*
G01*
X3470399Y-1226700D01*
X3439499Y-1178000D02*
G01*
X3439499Y-1131599D01*
X3431700Y-1131599D01*
X3423999Y-1135500D01*
X3420100Y-1139400D01*
X3416300Y-1147100D01*
X3416300Y-1158699D01*
X3420100Y-1166399D01*
X3427899Y-1174099D01*
X3439499Y-1178000D01*
X3447200Y-1178000D01*
X3458800Y-1174099D01*
X3466499Y-1166399D01*
X3470399Y-1158699D01*
X3470399Y-1147100D01*
X3466499Y-1139400D01*
X3458800Y-1131599D01*
X3416300Y-1106100D02*
G01*
X3470399Y-1106100D01*
X3439499Y-1106100D02*
G01*
X3427899Y-1102300D01*
X3420100Y-1094499D01*
X3416300Y-1086799D01*
X3416300Y-1075199D01*
D42*
X3814499Y-1875000D02*
G01*
X3871700Y-1875000D01*
X3814499Y-1875000D02*
G01*
X3871700Y-1853200D01*
X3814499Y-1831399D02*
G01*
X3871700Y-1853200D01*
X3814499Y-1831399D02*
G01*
X3871700Y-1831399D01*
X3833500Y-1799699D02*
G01*
X3836300Y-1805199D01*
X3841700Y-1810599D01*
X3849899Y-1813400D01*
X3855399Y-1813400D01*
X3863500Y-1810599D01*
X3868999Y-1805199D01*
X3871700Y-1799699D01*
X3871700Y-1791500D01*
X3868999Y-1786100D01*
X3863500Y-1780599D01*
X3855399Y-1777899D01*
X3849899Y-1777899D01*
X3841700Y-1780599D01*
X3836300Y-1786100D01*
X3833500Y-1791500D01*
X3833500Y-1799699D01*
X3814499Y-1751700D02*
G01*
X3860799Y-1751700D01*
X3868999Y-1749000D01*
X3871700Y-1743499D01*
X3871700Y-1738099D01*
X3833500Y-1759899D02*
G01*
X3833500Y-1740799D01*
X3814499Y-1720100D02*
G01*
X3817200Y-1717399D01*
X3814499Y-1714600D01*
X3811700Y-1717399D01*
X3814499Y-1720100D01*
X3833500Y-1717399D02*
G01*
X3871700Y-1717399D01*
X3833500Y-1683000D02*
G01*
X3836300Y-1688499D01*
X3841700Y-1693899D01*
X3849899Y-1696599D01*
X3855399Y-1696599D01*
X3863500Y-1693899D01*
X3868999Y-1688499D01*
X3871700Y-1683000D01*
X3871700Y-1674800D01*
X3868999Y-1669400D01*
X3863500Y-1663899D01*
X3855399Y-1661199D01*
X3849899Y-1661199D01*
X3841700Y-1663899D01*
X3836300Y-1669400D01*
X3833500Y-1674800D01*
X3833500Y-1683000D01*
X3833500Y-1643200D02*
G01*
X3871700Y-1643200D01*
X3844499Y-1643200D02*
G01*
X3836300Y-1635000D01*
X3833500Y-1629499D01*
X3833500Y-1621399D01*
X3836300Y-1615900D01*
X3844499Y-1613200D01*
X3871700Y-1613200D01*
X3814499Y-1553200D02*
G01*
X3871700Y-1553200D01*
X3814499Y-1553200D02*
G01*
X3814499Y-1528600D01*
X3817200Y-1520500D01*
X3819899Y-1517699D01*
X3825399Y-1515000D01*
X3833500Y-1515000D01*
X3838999Y-1517699D01*
X3841700Y-1520500D01*
X3844499Y-1528600D01*
X3844499Y-1553200D01*
X3814499Y-1496999D02*
G01*
X3871700Y-1496999D01*
X3833500Y-1446300D02*
G01*
X3871700Y-1446300D01*
X3841700Y-1446300D02*
G01*
X3836300Y-1451700D01*
X3833500Y-1457199D01*
X3833500Y-1465399D01*
X3836300Y-1470799D01*
X3841700Y-1476300D01*
X3849899Y-1479000D01*
X3855399Y-1479000D01*
X3863500Y-1476300D01*
X3868999Y-1470799D01*
X3871700Y-1465399D01*
X3871700Y-1457199D01*
X3868999Y-1451700D01*
X3863500Y-1446300D01*
X3833500Y-1428299D02*
G01*
X3871700Y-1428299D01*
X3844499Y-1428299D02*
G01*
X3836300Y-1420100D01*
X3833500Y-1414600D01*
X3833500Y-1406500D01*
X3836300Y-1400999D01*
X3844499Y-1398299D01*
X3871700Y-1398299D01*
X3849899Y-1380300D02*
G01*
X3849899Y-1347500D01*
X3844499Y-1347500D01*
X3838999Y-1350300D01*
X3836300Y-1353000D01*
X3833500Y-1358499D01*
X3833500Y-1366599D01*
X3836300Y-1372100D01*
X3841700Y-1377500D01*
X3849899Y-1380300D01*
X3855399Y-1380300D01*
X3863500Y-1377500D01*
X3868999Y-1372100D01*
X3871700Y-1366599D01*
X3871700Y-1358499D01*
X3868999Y-1353000D01*
X3863500Y-1347500D01*
D41*
X4159600Y-1875000D02*
G01*
X4197799Y-1875000D01*
X4159600Y-1875000D02*
G01*
X4159600Y-1858600D01*
X4161499Y-1853200D01*
X4163299Y-1851399D01*
X4166899Y-1849499D01*
X4172399Y-1849499D01*
X4176000Y-1851399D01*
X4177799Y-1853200D01*
X4179600Y-1858600D01*
X4179600Y-1875000D01*
X4172399Y-1837500D02*
G01*
X4197799Y-1837500D01*
X4183299Y-1837500D02*
G01*
X4177799Y-1835700D01*
X4174200Y-1832100D01*
X4172399Y-1828499D01*
X4172399Y-1823000D01*
X4172399Y-1789200D02*
G01*
X4197799Y-1789200D01*
X4177799Y-1789200D02*
G01*
X4174200Y-1792800D01*
X4172399Y-1796500D01*
X4172399Y-1801900D01*
X4174200Y-1805500D01*
X4177799Y-1809200D01*
X4183299Y-1810999D01*
X4186899Y-1810999D01*
X4192399Y-1809200D01*
X4196000Y-1805500D01*
X4197799Y-1801900D01*
X4197799Y-1796500D01*
X4196000Y-1792800D01*
X4192399Y-1789200D01*
X4159600Y-1777199D02*
G01*
X4197799Y-1777199D01*
X4172399Y-1759000D02*
G01*
X4190500Y-1777199D01*
X4183299Y-1769899D02*
G01*
X4197799Y-1757199D01*
X4172399Y-1723400D02*
G01*
X4197799Y-1723400D01*
X4177799Y-1723400D02*
G01*
X4174200Y-1726999D01*
X4172399Y-1730599D01*
X4172399Y-1736100D01*
X4174200Y-1739699D01*
X4177799Y-1743400D01*
X4183299Y-1745199D01*
X4186899Y-1745199D01*
X4192399Y-1743400D01*
X4196000Y-1739699D01*
X4197799Y-1736100D01*
X4197799Y-1730599D01*
X4196000Y-1726999D01*
X4192399Y-1723400D01*
X4177799Y-1691399D02*
G01*
X4174200Y-1693200D01*
X4172399Y-1698600D01*
X4172399Y-1704099D01*
X4174200Y-1709499D01*
X4177799Y-1711399D01*
X4181499Y-1709499D01*
X4183299Y-1705900D01*
X4185100Y-1696799D01*
X4186899Y-1693200D01*
X4190500Y-1691399D01*
X4192399Y-1691399D01*
X4196000Y-1693200D01*
X4197799Y-1698600D01*
X4197799Y-1704099D01*
X4196000Y-1709499D01*
X4192399Y-1711399D01*
X4159600Y-1679400D02*
G01*
X4197799Y-1679400D01*
X4179600Y-1679400D02*
G01*
X4174200Y-1673899D01*
X4172399Y-1670300D01*
X4172399Y-1664800D01*
X4174200Y-1661199D01*
X4179600Y-1659400D01*
X4197799Y-1659400D01*
X4159600Y-1619400D02*
G01*
X4197799Y-1619400D01*
X4197799Y-1619400D02*
G01*
X4197799Y-1597500D01*
X4172399Y-1563699D02*
G01*
X4197799Y-1563699D01*
X4177799Y-1563699D02*
G01*
X4174200Y-1567399D01*
X4172399Y-1570999D01*
X4172399Y-1576500D01*
X4174200Y-1580100D01*
X4177799Y-1583699D01*
X4183299Y-1585500D01*
X4186899Y-1585500D01*
X4192399Y-1583699D01*
X4196000Y-1580100D01*
X4197799Y-1576500D01*
X4197799Y-1570999D01*
X4196000Y-1567399D01*
X4192399Y-1563699D01*
X4159600Y-1551700D02*
G01*
X4197799Y-1551700D01*
X4177799Y-1551700D02*
G01*
X4174200Y-1548099D01*
X4172399Y-1544499D01*
X4172399Y-1539000D01*
X4174200Y-1535399D01*
X4177799Y-1531700D01*
X4183299Y-1529899D01*
X4186899Y-1529899D01*
X4192399Y-1531700D01*
X4196000Y-1535399D01*
X4197799Y-1539000D01*
X4197799Y-1544499D01*
X4196000Y-1548099D01*
X4192399Y-1551700D01*
X4152399Y-1457199D02*
G01*
X4210500Y-1489899D01*
X4159600Y-1406300D02*
G01*
X4161499Y-1409899D01*
X4165100Y-1413499D01*
X4168699Y-1415399D01*
X4174200Y-1417199D01*
X4183299Y-1417199D01*
X4188699Y-1415399D01*
X4192399Y-1413499D01*
X4196000Y-1409899D01*
X4197799Y-1406300D01*
X4197799Y-1399000D01*
X4196000Y-1395399D01*
X4192399Y-1391700D01*
X4188699Y-1389899D01*
X4183299Y-1388099D01*
X4174200Y-1388099D01*
X4168699Y-1389899D01*
X4165100Y-1391700D01*
X4161499Y-1395399D01*
X4159600Y-1399000D01*
X4159600Y-1406300D01*
X4177799Y-1354299D02*
G01*
X4174200Y-1357899D01*
X4172399Y-1361500D01*
X4172399Y-1366999D01*
X4174200Y-1370599D01*
X4177799Y-1374299D01*
X4183299Y-1376100D01*
X4186899Y-1376100D01*
X4192399Y-1374299D01*
X4196000Y-1370599D01*
X4197799Y-1366999D01*
X4197799Y-1361500D01*
X4196000Y-1357899D01*
X4192399Y-1354299D01*
X4159600Y-1336799D02*
G01*
X4190500Y-1336799D01*
X4196000Y-1335000D01*
X4197799Y-1331399D01*
X4197799Y-1327699D01*
X4172399Y-1342300D02*
G01*
X4172399Y-1329499D01*
X4172399Y-1306599D02*
G01*
X4174200Y-1310300D01*
X4177799Y-1313899D01*
X4183299Y-1315700D01*
X4186899Y-1315700D01*
X4192399Y-1313899D01*
X4196000Y-1310300D01*
X4197799Y-1306599D01*
X4197799Y-1301199D01*
X4196000Y-1297500D01*
X4192399Y-1293899D01*
X4186899Y-1292100D01*
X4183299Y-1292100D01*
X4177799Y-1293899D01*
X4174200Y-1297500D01*
X4172399Y-1301199D01*
X4172399Y-1306599D01*
X4172399Y-1280100D02*
G01*
X4210500Y-1280100D01*
X4177799Y-1280100D02*
G01*
X4174200Y-1276500D01*
X4172399Y-1272800D01*
X4172399Y-1267399D01*
X4174200Y-1263699D01*
X4177799Y-1260100D01*
X4183299Y-1258299D01*
X4186899Y-1258299D01*
X4192399Y-1260100D01*
X4196000Y-1263699D01*
X4197799Y-1267399D01*
X4197799Y-1272800D01*
X4196000Y-1276500D01*
X4192399Y-1280100D01*
X4159600Y-1246300D02*
G01*
X4161499Y-1244499D01*
X4159600Y-1242600D01*
X4157799Y-1244499D01*
X4159600Y-1246300D01*
X4172399Y-1244499D02*
G01*
X4197799Y-1244499D01*
X4159600Y-1189899D02*
G01*
X4197799Y-1189899D01*
X4159600Y-1202600D02*
G01*
X4159600Y-1177199D01*
X4183299Y-1165199D02*
G01*
X4183299Y-1143400D01*
X4179600Y-1143400D01*
X4176000Y-1145199D01*
X4174200Y-1146999D01*
X4172399Y-1150599D01*
X4172399Y-1156100D01*
X4174200Y-1159699D01*
X4177799Y-1163400D01*
X4183299Y-1165199D01*
X4186899Y-1165199D01*
X4192399Y-1163400D01*
X4196000Y-1159699D01*
X4197799Y-1156100D01*
X4197799Y-1150599D01*
X4196000Y-1146999D01*
X4192399Y-1143400D01*
X4172399Y-1109499D02*
G01*
X4197799Y-1109499D01*
X4177799Y-1109499D02*
G01*
X4174200Y-1113200D01*
X4172399Y-1116799D01*
X4172399Y-1122300D01*
X4174200Y-1125900D01*
X4177799Y-1129499D01*
X4183299Y-1131399D01*
X4186899Y-1131399D01*
X4192399Y-1129499D01*
X4196000Y-1125900D01*
X4197799Y-1122300D01*
X4197799Y-1116799D01*
X4196000Y-1113200D01*
X4192399Y-1109499D01*
X4172399Y-1097500D02*
G01*
X4197799Y-1097500D01*
X4179600Y-1097500D02*
G01*
X4174200Y-1092100D01*
X4172399Y-1088499D01*
X4172399Y-1083000D01*
X4174200Y-1079400D01*
X4179600Y-1077500D01*
X4197799Y-1077500D01*
X4179600Y-1077500D02*
G01*
X4174200Y-1072100D01*
X4172399Y-1068499D01*
X4172399Y-1063000D01*
X4174200Y-1059400D01*
X4179600Y-1057500D01*
X4197799Y-1057500D01*
D10*
X4004499Y-524499D02*
G01*
X4029499Y-524499D01*
X4015900Y-542699D01*
X4022700Y-542699D01*
X4027299Y-545000D01*
X4029499Y-547300D01*
X4031800Y-554099D01*
X4031800Y-558600D01*
X4029499Y-565500D01*
X4025000Y-570000D01*
X4018199Y-572300D01*
X4011400Y-572300D01*
X4004499Y-570000D01*
X4002299Y-567699D01*
X4000000Y-563200D01*
X4049099Y-560900D02*
G01*
X4046800Y-563200D01*
X4049099Y-565500D01*
X4051400Y-563200D01*
X4049099Y-560900D01*
X4070900Y-524499D02*
G01*
X4095900Y-524499D01*
X4082299Y-542699D01*
X4089099Y-542699D01*
X4093599Y-545000D01*
X4095900Y-547300D01*
X4098199Y-554099D01*
X4098199Y-558600D01*
X4095900Y-565500D01*
X4091400Y-570000D01*
X4084499Y-572300D01*
X4077700Y-572300D01*
X4070900Y-570000D01*
X4068599Y-567699D01*
X4066400Y-563200D01*
X4113199Y-524499D02*
G01*
X4131400Y-572300D01*
X4149499Y-524499D02*
G01*
X4131400Y-572300D01*
D41*
X2824544Y572726D02*
G01*
X2856364Y550000D01*
X2856364Y584090D01*
X2824544Y572726D02*
G01*
X2872272Y572726D01*
X2824544Y630909D02*
G01*
X2872272Y608182D01*
X2824544Y599090D02*
G01*
X2824544Y630909D01*
X2724544Y572726D02*
G01*
X2756364Y550000D01*
X2756364Y584090D01*
X2724544Y572726D02*
G01*
X2772272Y572726D01*
X2740455Y628636D02*
G01*
X2747272Y626363D01*
X2751818Y621817D01*
X2754090Y615000D01*
X2754090Y612726D01*
X2751818Y605909D01*
X2747272Y601363D01*
X2740455Y599090D01*
X2738181Y599090D01*
X2731364Y601363D01*
X2726818Y605909D01*
X2724544Y612726D01*
X2724544Y615000D01*
X2726818Y621817D01*
X2731364Y626363D01*
X2740455Y628636D01*
X2751818Y628636D01*
X2763181Y626363D01*
X2770000Y621817D01*
X2772272Y615000D01*
X2772272Y610455D01*
X2770000Y603636D01*
X2765455Y601363D01*
X2624544Y577273D02*
G01*
X2624544Y554544D01*
X2645000Y552273D01*
X2642727Y554544D01*
X2640455Y561363D01*
X2640455Y568182D01*
X2642727Y575000D01*
X2647272Y579544D01*
X2654090Y581817D01*
X2658635Y581817D01*
X2665455Y579544D01*
X2670000Y575000D01*
X2672272Y568182D01*
X2672272Y561363D01*
X2670000Y554544D01*
X2667727Y552273D01*
X2663181Y550000D01*
X2633635Y596817D02*
G01*
X2631364Y601363D01*
X2624544Y608182D01*
X2672272Y608182D01*
X2524544Y577273D02*
G01*
X2524544Y554544D01*
X2545000Y552273D01*
X2542727Y554544D01*
X2540455Y561363D01*
X2540455Y568182D01*
X2542727Y575000D01*
X2547272Y579544D01*
X2554090Y581817D01*
X2558635Y581817D01*
X2565455Y579544D01*
X2570000Y575000D01*
X2572272Y568182D01*
X2572272Y561363D01*
X2570000Y554544D01*
X2567727Y552273D01*
X2563181Y550000D01*
X2524544Y601363D02*
G01*
X2524544Y626363D01*
X2542727Y612726D01*
X2542727Y619544D01*
X2545000Y624090D01*
X2547272Y626363D01*
X2554090Y628636D01*
X2558635Y628636D01*
X2565455Y626363D01*
X2570000Y621817D01*
X2572272Y615000D01*
X2572272Y608182D01*
X2570000Y601363D01*
X2567727Y599090D01*
X2563181Y596817D01*
X2324544Y568182D02*
G01*
X2372272Y550000D01*
X2324544Y568182D02*
G01*
X2372272Y586363D01*
X2356364Y556817D02*
G01*
X2356364Y579544D01*
X2324544Y605909D02*
G01*
X2324544Y630909D01*
X2342727Y617273D01*
X2342727Y624090D01*
X2345000Y628636D01*
X2347272Y630909D01*
X2354090Y633182D01*
X2358635Y633182D01*
X2365455Y630909D01*
X2370000Y626363D01*
X2372272Y619544D01*
X2372272Y612726D01*
X2370000Y605909D01*
X2367727Y603636D01*
X2363181Y601363D01*
X2224544Y568182D02*
G01*
X2272272Y550000D01*
X2224544Y568182D02*
G01*
X2272272Y586363D01*
X2256364Y556817D02*
G01*
X2256364Y579544D01*
X2233635Y601363D02*
G01*
X2231364Y605909D01*
X2224544Y612726D01*
X2272272Y612726D01*
X2424544Y550000D02*
G01*
X2472272Y550000D01*
X2424544Y550000D02*
G01*
X2424544Y565909D01*
X2426818Y572726D01*
X2431364Y577273D01*
X2435909Y579544D01*
X2442727Y581817D01*
X2454090Y581817D01*
X2460909Y579544D01*
X2465455Y577273D01*
X2470000Y572726D01*
X2472272Y565909D01*
X2472272Y550000D01*
X2424544Y615000D02*
G01*
X2472272Y596817D01*
X2424544Y615000D02*
G01*
X2472272Y633182D01*
X2456364Y603636D02*
G01*
X2456364Y626363D01*
X2435909Y682273D02*
G01*
X2431364Y680000D01*
X2426818Y675455D01*
X2424544Y670909D01*
X2424544Y661817D01*
X2426818Y657273D01*
X2431364Y652726D01*
X2435909Y650455D01*
X2442727Y648182D01*
X2454090Y648182D01*
X2460909Y650455D01*
X2465455Y652726D01*
X2470000Y657273D01*
X2472272Y661817D01*
X2472272Y670909D01*
X2470000Y675455D01*
X2465455Y680000D01*
X2460909Y682273D01*
X2433635Y697273D02*
G01*
X2431364Y701817D01*
X2424544Y708636D01*
X2472272Y708636D01*
D10*
X935909Y584090D02*
G01*
X931364Y581817D01*
X926818Y577273D01*
X924544Y572726D01*
X924544Y563636D01*
X926818Y559090D01*
X931364Y554544D01*
X935909Y552273D01*
X942727Y550000D01*
X954090Y550000D01*
X960909Y552273D01*
X965455Y554544D01*
X970000Y559090D01*
X972272Y563636D01*
X972272Y572726D01*
X970000Y577273D01*
X965455Y581817D01*
X960909Y584090D01*
X954090Y584090D01*
X954090Y572726D02*
G01*
X954090Y584090D01*
X924544Y599090D02*
G01*
X972272Y599090D01*
X924544Y599090D02*
G01*
X972272Y630909D01*
X924544Y630909D02*
G01*
X972272Y630909D01*
X924544Y645909D02*
G01*
X972272Y645909D01*
X924544Y645909D02*
G01*
X924544Y661817D01*
X926818Y668636D01*
X931364Y673182D01*
X935909Y675455D01*
X942727Y677726D01*
X954090Y677726D01*
X960909Y675455D01*
X965455Y673182D01*
X970000Y668636D01*
X972272Y661817D01*
X972272Y645909D01*
D41*
X1024544Y550000D02*
G01*
X1072272Y568182D01*
X1024544Y586363D02*
G01*
X1072272Y568182D01*
X1024544Y601363D02*
G01*
X1072272Y601363D01*
X1024544Y616363D02*
G01*
X1072272Y616363D01*
X1024544Y616363D02*
G01*
X1072272Y648182D01*
X1024544Y648182D02*
G01*
X1072272Y648182D01*
X2824544Y197726D02*
G01*
X2856364Y175000D01*
X2856364Y209090D01*
X2824544Y197726D02*
G01*
X2872272Y197726D01*
X2831364Y251363D02*
G01*
X2826818Y249090D01*
X2824544Y242273D01*
X2824544Y237726D01*
X2826818Y230909D01*
X2833635Y226363D01*
X2845000Y224090D01*
X2856364Y224090D01*
X2865455Y226363D01*
X2870000Y230909D01*
X2872272Y237726D01*
X2872272Y240000D01*
X2870000Y246817D01*
X2865455Y251363D01*
X2858635Y253636D01*
X2856364Y253636D01*
X2849544Y251363D01*
X2845000Y246817D01*
X2842727Y240000D01*
X2842727Y237726D01*
X2845000Y230909D01*
X2849544Y226363D01*
X2856364Y224090D01*
X2724544Y197726D02*
G01*
X2756364Y175000D01*
X2756364Y209090D01*
X2724544Y197726D02*
G01*
X2772272Y197726D01*
X2724544Y235455D02*
G01*
X2726818Y228636D01*
X2731364Y226363D01*
X2735909Y226363D01*
X2740455Y228636D01*
X2742727Y233182D01*
X2745000Y242273D01*
X2747272Y249090D01*
X2751818Y253636D01*
X2756364Y255909D01*
X2763181Y255909D01*
X2767727Y253636D01*
X2770000Y251363D01*
X2772272Y244544D01*
X2772272Y235455D01*
X2770000Y228636D01*
X2767727Y226363D01*
X2763181Y224090D01*
X2756364Y224090D01*
X2751818Y226363D01*
X2747272Y230909D01*
X2745000Y237726D01*
X2742727Y246817D01*
X2740455Y251363D01*
X2735909Y253636D01*
X2731364Y253636D01*
X2726818Y251363D01*
X2724544Y244544D01*
X2724544Y235455D01*
X2624544Y202273D02*
G01*
X2624544Y179544D01*
X2645000Y177273D01*
X2642727Y179544D01*
X2640455Y186363D01*
X2640455Y193182D01*
X2642727Y200000D01*
X2647272Y204544D01*
X2654090Y206817D01*
X2658635Y206817D01*
X2665455Y204544D01*
X2670000Y200000D01*
X2672272Y193182D01*
X2672272Y186363D01*
X2670000Y179544D01*
X2667727Y177273D01*
X2663181Y175000D01*
X2624544Y235455D02*
G01*
X2626818Y228636D01*
X2633635Y224090D01*
X2645000Y221817D01*
X2651818Y221817D01*
X2663181Y224090D01*
X2670000Y228636D01*
X2672272Y235455D01*
X2672272Y240000D01*
X2670000Y246817D01*
X2663181Y251363D01*
X2651818Y253636D01*
X2645000Y253636D01*
X2633635Y251363D01*
X2626818Y246817D01*
X2624544Y240000D01*
X2624544Y235455D01*
X2524544Y202273D02*
G01*
X2524544Y179544D01*
X2545000Y177273D01*
X2542727Y179544D01*
X2540455Y186363D01*
X2540455Y193182D01*
X2542727Y200000D01*
X2547272Y204544D01*
X2554090Y206817D01*
X2558635Y206817D01*
X2565455Y204544D01*
X2570000Y200000D01*
X2572272Y193182D01*
X2572272Y186363D01*
X2570000Y179544D01*
X2567727Y177273D01*
X2563181Y175000D01*
X2535909Y224090D02*
G01*
X2533635Y224090D01*
X2529090Y226363D01*
X2526818Y228636D01*
X2524544Y233182D01*
X2524544Y242273D01*
X2526818Y246817D01*
X2529090Y249090D01*
X2533635Y251363D01*
X2538181Y251363D01*
X2542727Y249090D01*
X2549544Y244544D01*
X2572272Y221817D01*
X2572272Y253636D01*
X2324544Y193182D02*
G01*
X2372272Y175000D01*
X2324544Y193182D02*
G01*
X2372272Y211363D01*
X2356364Y181817D02*
G01*
X2356364Y204544D01*
X2335909Y228636D02*
G01*
X2333635Y228636D01*
X2329090Y230909D01*
X2326818Y233182D01*
X2324544Y237726D01*
X2324544Y246817D01*
X2326818Y251363D01*
X2329090Y253636D01*
X2333635Y255909D01*
X2338181Y255909D01*
X2342727Y253636D01*
X2349544Y249090D01*
X2372272Y226363D01*
X2372272Y258182D01*
X2224544Y193182D02*
G01*
X2272272Y175000D01*
X2224544Y193182D02*
G01*
X2272272Y211363D01*
X2256364Y181817D02*
G01*
X2256364Y204544D01*
X2233635Y226363D02*
G01*
X2231364Y230909D01*
X2224544Y237726D01*
X2272272Y237726D01*
X2424544Y75000D02*
G01*
X2472272Y75000D01*
X2424544Y75000D02*
G01*
X2424544Y90909D01*
X2426818Y97726D01*
X2431364Y102273D01*
X2435909Y104544D01*
X2442727Y106817D01*
X2454090Y106817D01*
X2460909Y104544D01*
X2465455Y102273D01*
X2470000Y97726D01*
X2472272Y90909D01*
X2472272Y75000D01*
X2424544Y140000D02*
G01*
X2472272Y121817D01*
X2424544Y140000D02*
G01*
X2472272Y158182D01*
X2456364Y128636D02*
G01*
X2456364Y151363D01*
X2435909Y207273D02*
G01*
X2431364Y205000D01*
X2426818Y200455D01*
X2424544Y195909D01*
X2424544Y186817D01*
X2426818Y182273D01*
X2431364Y177726D01*
X2435909Y175455D01*
X2442727Y173182D01*
X2454090Y173182D01*
X2460909Y175455D01*
X2465455Y177726D01*
X2470000Y182273D01*
X2472272Y186817D01*
X2472272Y195909D01*
X2470000Y200455D01*
X2465455Y205000D01*
X2460909Y207273D01*
X2424544Y235909D02*
G01*
X2426818Y229090D01*
X2433635Y224544D01*
X2445000Y222273D01*
X2451818Y222273D01*
X2463181Y224544D01*
X2470000Y229090D01*
X2472272Y235909D01*
X2472272Y240455D01*
X2470000Y247273D01*
X2463181Y251817D01*
X2451818Y254090D01*
X2445000Y254090D01*
X2433635Y251817D01*
X2426818Y247273D01*
X2424544Y240455D01*
X2424544Y235909D01*
X1024544Y202273D02*
G01*
X1024544Y179544D01*
X1045000Y177273D01*
X1042727Y179544D01*
X1040455Y186363D01*
X1040455Y193182D01*
X1042727Y200000D01*
X1047272Y204544D01*
X1054090Y206817D01*
X1058635Y206817D01*
X1065455Y204544D01*
X1070000Y200000D01*
X1072272Y193182D01*
X1072272Y186363D01*
X1070000Y179544D01*
X1067727Y177273D01*
X1063181Y175000D01*
X1024544Y221817D02*
G01*
X1072272Y240000D01*
X1024544Y258182D02*
G01*
X1072272Y240000D01*
D10*
X924544Y104544D02*
G01*
X924544Y129544D01*
X942727Y115909D01*
X942727Y122726D01*
X945000Y127273D01*
X947272Y129544D01*
X954090Y131817D01*
X958635Y131817D01*
X965455Y129544D01*
X970000Y125000D01*
X972272Y118182D01*
X972272Y111363D01*
X970000Y104544D01*
X967727Y102273D01*
X963181Y100000D01*
X960909Y149090D02*
G01*
X963181Y146817D01*
X965455Y149090D01*
X963181Y151363D01*
X960909Y149090D01*
X924544Y170909D02*
G01*
X924544Y195909D01*
X942727Y182273D01*
X942727Y189090D01*
X945000Y193636D01*
X947272Y195909D01*
X954090Y198182D01*
X958635Y198182D01*
X965455Y195909D01*
X970000Y191363D01*
X972272Y184544D01*
X972272Y177726D01*
X970000Y170909D01*
X967727Y168636D01*
X963181Y166363D01*
X924544Y213182D02*
G01*
X972272Y231363D01*
X924544Y249544D02*
G01*
X972272Y231363D01*
X933635Y-600000D02*
G01*
X931364Y-595455D01*
X924544Y-588636D01*
X972272Y-588636D01*
X935909Y-571363D02*
G01*
X933635Y-571363D01*
X929090Y-569090D01*
X926818Y-566817D01*
X924544Y-562273D01*
X924544Y-553182D01*
X926818Y-548636D01*
X929090Y-546363D01*
X933635Y-544090D01*
X938181Y-544090D01*
X942727Y-546363D01*
X949544Y-550909D01*
X972272Y-573636D01*
X972272Y-541817D01*
X1033635Y-600000D02*
G01*
X1031364Y-595455D01*
X1024544Y-588636D01*
X1072272Y-588636D01*
X1024544Y-560000D02*
G01*
X1026818Y-566817D01*
X1033635Y-571363D01*
X1045000Y-573636D01*
X1051818Y-573636D01*
X1063181Y-571363D01*
X1070000Y-566817D01*
X1072272Y-560000D01*
X1072272Y-555455D01*
X1070000Y-548636D01*
X1063181Y-544090D01*
X1051818Y-541817D01*
X1045000Y-541817D01*
X1033635Y-544090D01*
X1026818Y-548636D01*
X1024544Y-555455D01*
X1024544Y-560000D01*
X1124544Y-563636D02*
G01*
X1126818Y-570455D01*
X1131364Y-572726D01*
X1135909Y-572726D01*
X1140455Y-570455D01*
X1142727Y-565909D01*
X1145000Y-556817D01*
X1147272Y-550000D01*
X1151818Y-545455D01*
X1156364Y-543182D01*
X1163181Y-543182D01*
X1167727Y-545455D01*
X1170000Y-547726D01*
X1172272Y-554544D01*
X1172272Y-563636D01*
X1170000Y-570455D01*
X1167727Y-572726D01*
X1163181Y-575000D01*
X1156364Y-575000D01*
X1151818Y-572726D01*
X1147272Y-568182D01*
X1145000Y-561363D01*
X1142727Y-552273D01*
X1140455Y-547726D01*
X1135909Y-545455D01*
X1131364Y-545455D01*
X1126818Y-547726D01*
X1124544Y-554544D01*
X1124544Y-563636D01*
X1231364Y-547726D02*
G01*
X1226818Y-550000D01*
X1224544Y-556817D01*
X1224544Y-561363D01*
X1226818Y-568182D01*
X1233635Y-572726D01*
X1245000Y-575000D01*
X1256364Y-575000D01*
X1265455Y-572726D01*
X1270000Y-568182D01*
X1272272Y-561363D01*
X1272272Y-559090D01*
X1270000Y-552273D01*
X1265455Y-547726D01*
X1258635Y-545455D01*
X1256364Y-545455D01*
X1249544Y-547726D01*
X1245000Y-552273D01*
X1242727Y-559090D01*
X1242727Y-561363D01*
X1245000Y-568182D01*
X1249544Y-572726D01*
X1256364Y-575000D01*
X1324544Y-552273D02*
G01*
X1356364Y-575000D01*
X1356364Y-540909D01*
X1324544Y-552273D02*
G01*
X1372272Y-552273D01*
X1435909Y-572726D02*
G01*
X1433635Y-572726D01*
X1429090Y-570455D01*
X1426818Y-568182D01*
X1424544Y-563636D01*
X1424544Y-554544D01*
X1426818Y-550000D01*
X1429090Y-547726D01*
X1433635Y-545455D01*
X1438181Y-545455D01*
X1442727Y-547726D01*
X1449544Y-552273D01*
X1472272Y-575000D01*
X1472272Y-543182D01*
D41*
X1524544Y-561363D02*
G01*
X1526818Y-568182D01*
X1533635Y-572726D01*
X1545000Y-575000D01*
X1551818Y-575000D01*
X1563181Y-572726D01*
X1570000Y-568182D01*
X1572272Y-561363D01*
X1572272Y-556817D01*
X1570000Y-550000D01*
X1563181Y-545455D01*
X1551818Y-543182D01*
X1545000Y-543182D01*
X1533635Y-545455D01*
X1526818Y-550000D01*
X1524544Y-556817D01*
X1524544Y-561363D01*
X1631364Y-668182D02*
G01*
X1626818Y-672726D01*
X1624544Y-679544D01*
X1624544Y-688636D01*
X1626818Y-695455D01*
X1631364Y-700000D01*
X1635909Y-700000D01*
X1640455Y-697726D01*
X1642727Y-695455D01*
X1645000Y-690909D01*
X1649544Y-677273D01*
X1651818Y-672726D01*
X1654090Y-670455D01*
X1658635Y-668182D01*
X1665455Y-668182D01*
X1670000Y-672726D01*
X1672272Y-679544D01*
X1672272Y-688636D01*
X1670000Y-695455D01*
X1665455Y-700000D01*
X1624544Y-653182D02*
G01*
X1672272Y-653182D01*
X1624544Y-653182D02*
G01*
X1624544Y-637273D01*
X1626818Y-630455D01*
X1631364Y-625909D01*
X1635909Y-623636D01*
X1642727Y-621363D01*
X1654090Y-621363D01*
X1660909Y-623636D01*
X1665455Y-625909D01*
X1670000Y-630455D01*
X1672272Y-637273D01*
X1672272Y-653182D01*
X1624544Y-588182D02*
G01*
X1672272Y-606363D01*
X1624544Y-588182D02*
G01*
X1672272Y-570000D01*
X1656364Y-599544D02*
G01*
X1656364Y-576817D01*
X1633635Y-555000D02*
G01*
X1631364Y-550455D01*
X1624544Y-543636D01*
X1672272Y-543636D01*
X1724544Y-695455D02*
G01*
X1724544Y-670455D01*
X1742727Y-684090D01*
X1742727Y-677273D01*
X1745000Y-672726D01*
X1747272Y-670455D01*
X1754090Y-668182D01*
X1758635Y-668182D01*
X1765455Y-670455D01*
X1770000Y-675000D01*
X1772272Y-681817D01*
X1772272Y-688636D01*
X1770000Y-695455D01*
X1767727Y-697726D01*
X1763181Y-700000D01*
X1760909Y-650909D02*
G01*
X1763181Y-653182D01*
X1765455Y-650909D01*
X1763181Y-648636D01*
X1760909Y-650909D01*
X1724544Y-629090D02*
G01*
X1724544Y-604090D01*
X1742727Y-617726D01*
X1742727Y-610909D01*
X1745000Y-606363D01*
X1747272Y-604090D01*
X1754090Y-601817D01*
X1758635Y-601817D01*
X1765455Y-604090D01*
X1770000Y-608636D01*
X1772272Y-615455D01*
X1772272Y-622273D01*
X1770000Y-629090D01*
X1767727Y-631363D01*
X1763181Y-633636D01*
X1724544Y-586817D02*
G01*
X1772272Y-568636D01*
X1724544Y-550455D02*
G01*
X1772272Y-568636D01*
X1835909Y-640909D02*
G01*
X1831364Y-643182D01*
X1826818Y-647726D01*
X1824544Y-652273D01*
X1824544Y-661363D01*
X1826818Y-665909D01*
X1831364Y-670455D01*
X1835909Y-672726D01*
X1842727Y-675000D01*
X1854090Y-675000D01*
X1860909Y-672726D01*
X1865455Y-670455D01*
X1870000Y-665909D01*
X1872272Y-661363D01*
X1872272Y-652273D01*
X1870000Y-647726D01*
X1865455Y-643182D01*
X1860909Y-640909D01*
X1854090Y-640909D01*
X1854090Y-652273D02*
G01*
X1854090Y-640909D01*
X1824544Y-625909D02*
G01*
X1872272Y-625909D01*
X1824544Y-625909D02*
G01*
X1872272Y-594090D01*
X1824544Y-594090D02*
G01*
X1872272Y-594090D01*
X1824544Y-579090D02*
G01*
X1872272Y-579090D01*
X1824544Y-579090D02*
G01*
X1824544Y-563182D01*
X1826818Y-556363D01*
X1831364Y-551817D01*
X1835909Y-549544D01*
X1842727Y-547273D01*
X1854090Y-547273D01*
X1860909Y-549544D01*
X1865455Y-551817D01*
X1870000Y-556363D01*
X1872272Y-563182D01*
X1872272Y-579090D01*
D10*
X2124499Y-675000D02*
G01*
X2172299Y-675000D01*
X2124499Y-675000D02*
G01*
X2124499Y-654499D01*
X2126800Y-647699D01*
X2129099Y-645500D01*
X2133599Y-643200D01*
X2138199Y-643200D01*
X2142700Y-645500D01*
X2145000Y-647699D01*
X2147299Y-654499D01*
X2147299Y-675000D01*
X2147299Y-659099D02*
G01*
X2172299Y-643200D01*
X2124499Y-628200D02*
G01*
X2172299Y-596399D01*
X2124499Y-596399D02*
G01*
X2172299Y-628200D01*
X2124499Y-576799D02*
G01*
X2124499Y-551799D01*
X2142700Y-565500D01*
X2142700Y-558600D01*
X2145000Y-554099D01*
X2147299Y-551799D01*
X2154099Y-549499D01*
X2158599Y-549499D01*
X2165500Y-551799D01*
X2170000Y-556399D01*
X2172299Y-563200D01*
X2172299Y-570000D01*
X2170000Y-576799D01*
X2167700Y-579099D01*
X2163199Y-581399D01*
D41*
X2224499Y-675000D02*
G01*
X2272299Y-675000D01*
X2224499Y-675000D02*
G01*
X2224499Y-654499D01*
X2226800Y-647699D01*
X2229099Y-645500D01*
X2233599Y-643200D01*
X2238199Y-643200D01*
X2242700Y-645500D01*
X2245000Y-647699D01*
X2247299Y-654499D01*
X2247299Y-675000D01*
X2247299Y-659099D02*
G01*
X2272299Y-643200D01*
X2224499Y-628200D02*
G01*
X2272299Y-596399D01*
X2224499Y-596399D02*
G01*
X2272299Y-628200D01*
X2235900Y-579099D02*
G01*
X2233599Y-579099D01*
X2229099Y-576799D01*
X2226800Y-574499D01*
X2224499Y-570000D01*
X2224499Y-560900D01*
X2226800Y-556399D01*
X2229099Y-554099D01*
X2233599Y-551799D01*
X2238199Y-551799D01*
X2242700Y-554099D01*
X2249499Y-558600D01*
X2272299Y-581399D01*
X2272299Y-549499D01*
X2324499Y-650000D02*
G01*
X2372299Y-650000D01*
X2324499Y-650000D02*
G01*
X2324499Y-629499D01*
X2326800Y-622699D01*
X2329099Y-620500D01*
X2333599Y-618200D01*
X2338199Y-618200D01*
X2342700Y-620500D01*
X2345000Y-622699D01*
X2347299Y-629499D01*
X2347299Y-650000D01*
X2347299Y-634099D02*
G01*
X2372299Y-618200D01*
X2324499Y-603200D02*
G01*
X2372299Y-571399D01*
X2324499Y-571399D02*
G01*
X2372299Y-603200D01*
X2333599Y-556399D02*
G01*
X2331400Y-551799D01*
X2324499Y-545000D01*
X2372299Y-545000D01*
X2431400Y-643200D02*
G01*
X2426800Y-647699D01*
X2424499Y-654499D01*
X2424499Y-663600D01*
X2426800Y-670500D01*
X2431400Y-675000D01*
X2435900Y-675000D01*
X2440500Y-672699D01*
X2442700Y-670500D01*
X2445000Y-665900D01*
X2449499Y-652300D01*
X2451800Y-647699D01*
X2454099Y-645500D01*
X2458599Y-643200D01*
X2465500Y-643200D01*
X2470000Y-647699D01*
X2472299Y-654499D01*
X2472299Y-663600D01*
X2470000Y-670500D01*
X2465500Y-675000D01*
X2435900Y-594099D02*
G01*
X2431400Y-596399D01*
X2426800Y-600900D01*
X2424499Y-605500D01*
X2424499Y-614499D01*
X2426800Y-619099D01*
X2431400Y-623600D01*
X2435900Y-625900D01*
X2442700Y-628200D01*
X2454099Y-628200D01*
X2460900Y-625900D01*
X2465500Y-623600D01*
X2470000Y-619099D01*
X2472299Y-614499D01*
X2472299Y-605500D01*
X2470000Y-600900D01*
X2465500Y-596399D01*
X2460900Y-594099D01*
X2424499Y-579099D02*
G01*
X2472299Y-579099D01*
X2472299Y-579099D02*
G01*
X2472299Y-551799D01*
D10*
X2535909Y-622726D02*
G01*
X2533635Y-622726D01*
X2529090Y-620455D01*
X2526818Y-618182D01*
X2524544Y-613636D01*
X2524544Y-604544D01*
X2526818Y-600000D01*
X2529090Y-597726D01*
X2533635Y-595455D01*
X2538181Y-595455D01*
X2542727Y-597726D01*
X2549544Y-602273D01*
X2572272Y-625000D01*
X2572272Y-593182D01*
X2524544Y-573636D02*
G01*
X2524544Y-548636D01*
X2542727Y-562273D01*
X2542727Y-555455D01*
X2545000Y-550909D01*
X2547272Y-548636D01*
X2554090Y-546363D01*
X2558635Y-546363D01*
X2565455Y-548636D01*
X2570000Y-553182D01*
X2572272Y-560000D01*
X2572272Y-566817D01*
X2570000Y-573636D01*
X2567727Y-575909D01*
X2563181Y-578182D01*
X2635909Y-622726D02*
G01*
X2633635Y-622726D01*
X2629090Y-620455D01*
X2626818Y-618182D01*
X2624544Y-613636D01*
X2624544Y-604544D01*
X2626818Y-600000D01*
X2629090Y-597726D01*
X2633635Y-595455D01*
X2638181Y-595455D01*
X2642727Y-597726D01*
X2649544Y-602273D01*
X2672272Y-625000D01*
X2672272Y-593182D01*
X2624544Y-550909D02*
G01*
X2624544Y-573636D01*
X2645000Y-575909D01*
X2642727Y-573636D01*
X2640455Y-566817D01*
X2640455Y-560000D01*
X2642727Y-553182D01*
X2647272Y-548636D01*
X2654090Y-546363D01*
X2658635Y-546363D01*
X2665455Y-548636D01*
X2670000Y-553182D01*
X2672272Y-560000D01*
X2672272Y-566817D01*
X2670000Y-573636D01*
X2667727Y-575909D01*
X2663181Y-578182D01*
X2735909Y-622726D02*
G01*
X2733635Y-622726D01*
X2729090Y-620455D01*
X2726818Y-618182D01*
X2724544Y-613636D01*
X2724544Y-604544D01*
X2726818Y-600000D01*
X2729090Y-597726D01*
X2733635Y-595455D01*
X2738181Y-595455D01*
X2742727Y-597726D01*
X2749544Y-602273D01*
X2772272Y-625000D01*
X2772272Y-593182D01*
X2724544Y-546363D02*
G01*
X2772272Y-569090D01*
X2724544Y-578182D02*
G01*
X2724544Y-546363D01*
X2835909Y-622726D02*
G01*
X2833635Y-622726D01*
X2829090Y-620455D01*
X2826818Y-618182D01*
X2824544Y-613636D01*
X2824544Y-604544D01*
X2826818Y-600000D01*
X2829090Y-597726D01*
X2833635Y-595455D01*
X2838181Y-595455D01*
X2842727Y-597726D01*
X2849544Y-602273D01*
X2872272Y-625000D01*
X2872272Y-593182D01*
X2840455Y-548636D02*
G01*
X2847272Y-550909D01*
X2851818Y-555455D01*
X2854090Y-562273D01*
X2854090Y-564544D01*
X2851818Y-571363D01*
X2847272Y-575909D01*
X2840455Y-578182D01*
X2838181Y-578182D01*
X2831364Y-575909D01*
X2826818Y-571363D01*
X2824544Y-564544D01*
X2824544Y-562273D01*
X2826818Y-555455D01*
X2831364Y-550909D01*
X2840455Y-548636D01*
X2851818Y-548636D01*
X2863181Y-550909D01*
X2870000Y-555455D01*
X2872272Y-562273D01*
X2872272Y-566817D01*
X2870000Y-573636D01*
X2865455Y-575909D01*
X2124499Y-234099D02*
G01*
X2172299Y-234099D01*
X2124499Y-250000D02*
G01*
X2124499Y-218200D01*
X2124499Y-203200D02*
G01*
X2172299Y-171399D01*
X2124499Y-171399D02*
G01*
X2172299Y-203200D01*
X2124499Y-151799D02*
G01*
X2124499Y-126799D01*
X2142700Y-140500D01*
X2142700Y-133600D01*
X2145000Y-129099D01*
X2147299Y-126799D01*
X2154099Y-124499D01*
X2158599Y-124499D01*
X2165500Y-126799D01*
X2170000Y-131399D01*
X2172299Y-138200D01*
X2172299Y-145000D01*
X2170000Y-151799D01*
X2167700Y-154099D01*
X2163199Y-156399D01*
D41*
X1631364Y-218182D02*
G01*
X1626818Y-222726D01*
X1624544Y-229544D01*
X1624544Y-238636D01*
X1626818Y-245455D01*
X1631364Y-250000D01*
X1635909Y-250000D01*
X1640455Y-247726D01*
X1642727Y-245455D01*
X1645000Y-240909D01*
X1649544Y-227273D01*
X1651818Y-222726D01*
X1654090Y-220455D01*
X1658635Y-218182D01*
X1665455Y-218182D01*
X1670000Y-222726D01*
X1672272Y-229544D01*
X1672272Y-238636D01*
X1670000Y-245455D01*
X1665455Y-250000D01*
X1635909Y-169090D02*
G01*
X1631364Y-171363D01*
X1626818Y-175909D01*
X1624544Y-180455D01*
X1624544Y-189544D01*
X1626818Y-194090D01*
X1631364Y-198636D01*
X1635909Y-200909D01*
X1642727Y-203182D01*
X1654090Y-203182D01*
X1660909Y-200909D01*
X1665455Y-198636D01*
X1670000Y-194090D01*
X1672272Y-189544D01*
X1672272Y-180455D01*
X1670000Y-175909D01*
X1665455Y-171363D01*
X1660909Y-169090D01*
X1624544Y-154090D02*
G01*
X1672272Y-154090D01*
X1672272Y-154090D02*
G01*
X1672272Y-126817D01*
X1633635Y-111817D02*
G01*
X1631364Y-107273D01*
X1624544Y-100455D01*
X1672272Y-100455D01*
X1533635Y-250000D02*
G01*
X1531364Y-245455D01*
X1524544Y-238636D01*
X1572272Y-238636D01*
D10*
X1424544Y-245455D02*
G01*
X1424544Y-220455D01*
X1442727Y-234090D01*
X1442727Y-227273D01*
X1445000Y-222726D01*
X1447272Y-220455D01*
X1454090Y-218182D01*
X1458635Y-218182D01*
X1465455Y-220455D01*
X1470000Y-225000D01*
X1472272Y-231817D01*
X1472272Y-238636D01*
X1470000Y-245455D01*
X1467727Y-247726D01*
X1463181Y-250000D01*
X1324544Y-222726D02*
G01*
X1324544Y-245455D01*
X1345000Y-247726D01*
X1342727Y-245455D01*
X1340455Y-238636D01*
X1340455Y-231817D01*
X1342727Y-225000D01*
X1347272Y-220455D01*
X1354090Y-218182D01*
X1358635Y-218182D01*
X1365455Y-220455D01*
X1370000Y-225000D01*
X1372272Y-231817D01*
X1372272Y-238636D01*
X1370000Y-245455D01*
X1367727Y-247726D01*
X1363181Y-250000D01*
X1224544Y-218182D02*
G01*
X1272272Y-240909D01*
X1224544Y-250000D02*
G01*
X1224544Y-218182D01*
X1140455Y-220455D02*
G01*
X1147272Y-222726D01*
X1151818Y-227273D01*
X1154090Y-234090D01*
X1154090Y-236363D01*
X1151818Y-243182D01*
X1147272Y-247726D01*
X1140455Y-250000D01*
X1138181Y-250000D01*
X1131364Y-247726D01*
X1126818Y-243182D01*
X1124544Y-236363D01*
X1124544Y-234090D01*
X1126818Y-227273D01*
X1131364Y-222726D01*
X1140455Y-220455D01*
X1151818Y-220455D01*
X1163181Y-222726D01*
X1170000Y-227273D01*
X1172272Y-234090D01*
X1172272Y-238636D01*
X1170000Y-245455D01*
X1165455Y-247726D01*
X1033635Y-250000D02*
G01*
X1031364Y-245455D01*
X1024544Y-238636D01*
X1072272Y-238636D01*
X1033635Y-223636D02*
G01*
X1031364Y-219090D01*
X1024544Y-212273D01*
X1072272Y-212273D01*
X933635Y-250000D02*
G01*
X931364Y-245455D01*
X924544Y-238636D01*
X972272Y-238636D01*
X924544Y-219090D02*
G01*
X924544Y-194090D01*
X942727Y-207726D01*
X942727Y-200909D01*
X945000Y-196363D01*
X947272Y-194090D01*
X954090Y-191817D01*
X958635Y-191817D01*
X965455Y-194090D01*
X970000Y-198636D01*
X972272Y-205455D01*
X972272Y-212273D01*
X970000Y-219090D01*
X967727Y-221363D01*
X963181Y-223636D01*
D41*
X2233599Y-250000D02*
G01*
X2231400Y-245500D01*
X2224499Y-238600D01*
X2272299Y-238600D01*
X2231400Y-196399D02*
G01*
X2226800Y-198600D01*
X2224499Y-205500D01*
X2224499Y-210000D01*
X2226800Y-216799D01*
X2233599Y-221399D01*
X2245000Y-223600D01*
X2256400Y-223600D01*
X2265500Y-221399D01*
X2270000Y-216799D01*
X2272299Y-210000D01*
X2272299Y-207699D01*
X2270000Y-200900D01*
X2265500Y-196399D01*
X2258599Y-194099D01*
X2256400Y-194099D01*
X2249499Y-196399D01*
X2245000Y-200900D01*
X2242700Y-207699D01*
X2242700Y-210000D01*
X2245000Y-216799D01*
X2249499Y-221399D01*
X2256400Y-223600D01*
X2215500Y-138200D02*
G01*
X2288199Y-179099D01*
X2224499Y-107300D02*
G01*
X2272299Y-107300D01*
X2224499Y-123200D02*
G01*
X2224499Y-91399D01*
X2224499Y-76399D02*
G01*
X2272299Y-44499D01*
X2224499Y-44499D02*
G01*
X2272299Y-76399D01*
X2235900Y-27300D02*
G01*
X2233599Y-27300D01*
X2229099Y-25000D01*
X2226800Y-22699D01*
X2224499Y-18200D01*
X2224499Y-9099D01*
X2226800Y-4499D01*
X2229099Y-2300D01*
X2233599Y0D01*
X2238199Y0D01*
X2242700Y-2300D01*
X2249499Y-6799D01*
X2272299Y-29499D01*
X2272299Y2300D01*
X2333599Y-250000D02*
G01*
X2331400Y-245500D01*
X2324499Y-238600D01*
X2372299Y-238600D01*
X2324499Y-212300D02*
G01*
X2326800Y-219099D01*
X2331400Y-221399D01*
X2335900Y-221399D01*
X2340500Y-219099D01*
X2342700Y-214499D01*
X2345000Y-205500D01*
X2347299Y-198600D01*
X2351800Y-194099D01*
X2356400Y-191799D01*
X2363199Y-191799D01*
X2367700Y-194099D01*
X2370000Y-196399D01*
X2372299Y-203200D01*
X2372299Y-212300D01*
X2370000Y-219099D01*
X2367700Y-221399D01*
X2363199Y-223600D01*
X2356400Y-223600D01*
X2351800Y-221399D01*
X2347299Y-216799D01*
X2345000Y-210000D01*
X2342700Y-200900D01*
X2340500Y-196399D01*
X2335900Y-194099D01*
X2331400Y-194099D01*
X2326800Y-196399D01*
X2324499Y-203200D01*
X2324499Y-212300D01*
X2315500Y-135900D02*
G01*
X2388199Y-176799D01*
X2324499Y-105000D02*
G01*
X2372299Y-105000D01*
X2324499Y-120900D02*
G01*
X2324499Y-89099D01*
X2324499Y-74099D02*
G01*
X2372299Y-42300D01*
X2324499Y-42300D02*
G01*
X2372299Y-74099D01*
X2333599Y-27300D02*
G01*
X2331400Y-22699D01*
X2324499Y-15900D01*
X2372299Y-15900D01*
X2435900Y-247699D02*
G01*
X2433599Y-247699D01*
X2429099Y-245500D01*
X2426800Y-243200D01*
X2424499Y-238600D01*
X2424499Y-229499D01*
X2426800Y-225000D01*
X2429099Y-222699D01*
X2433599Y-220500D01*
X2438199Y-220500D01*
X2442700Y-222699D01*
X2449499Y-227300D01*
X2472299Y-250000D01*
X2472299Y-218200D01*
X2424499Y-189499D02*
G01*
X2426800Y-196399D01*
X2433599Y-200900D01*
X2445000Y-203200D01*
X2451800Y-203200D01*
X2463199Y-200900D01*
X2470000Y-196399D01*
X2472299Y-189499D01*
X2472299Y-185000D01*
X2470000Y-178200D01*
X2463199Y-173600D01*
X2451800Y-171399D01*
X2445000Y-171399D01*
X2433599Y-173600D01*
X2426800Y-178200D01*
X2424499Y-185000D01*
X2424499Y-189499D01*
X2415500Y-115500D02*
G01*
X2488199Y-156399D01*
X2431400Y-68600D02*
G01*
X2426800Y-73200D01*
X2424499Y-80000D01*
X2424499Y-89099D01*
X2426800Y-95900D01*
X2431400Y-100500D01*
X2435900Y-100500D01*
X2440500Y-98200D01*
X2442700Y-95900D01*
X2445000Y-91399D01*
X2449499Y-77699D01*
X2451800Y-73200D01*
X2454099Y-70900D01*
X2458599Y-68600D01*
X2465500Y-68600D01*
X2470000Y-73200D01*
X2472299Y-80000D01*
X2472299Y-89099D01*
X2470000Y-95900D01*
X2465500Y-100500D01*
X2424499Y-53600D02*
G01*
X2472299Y-53600D01*
X2424499Y-53600D02*
G01*
X2424499Y-37699D01*
X2426800Y-30900D01*
X2431400Y-26399D01*
X2435900Y-24099D01*
X2442700Y-21799D01*
X2454099Y-21799D01*
X2460900Y-24099D01*
X2465500Y-26399D01*
X2470000Y-30900D01*
X2472299Y-37699D01*
X2472299Y-53600D01*
X2424499Y11399D02*
G01*
X2472299Y-6799D01*
X2424499Y11399D02*
G01*
X2472299Y29499D01*
X2456400Y0D02*
G01*
X2456400Y22699D01*
D10*
X2535909Y-247726D02*
G01*
X2533635Y-247726D01*
X2529090Y-245455D01*
X2526818Y-243182D01*
X2524544Y-238636D01*
X2524544Y-229544D01*
X2526818Y-225000D01*
X2529090Y-222726D01*
X2533635Y-220455D01*
X2538181Y-220455D01*
X2542727Y-222726D01*
X2549544Y-227273D01*
X2572272Y-250000D01*
X2572272Y-218182D01*
X2535909Y-200909D02*
G01*
X2533635Y-200909D01*
X2529090Y-198636D01*
X2526818Y-196363D01*
X2524544Y-191817D01*
X2524544Y-182726D01*
X2526818Y-178182D01*
X2529090Y-175909D01*
X2533635Y-173636D01*
X2538181Y-173636D01*
X2542727Y-175909D01*
X2549544Y-180455D01*
X2572272Y-203182D01*
X2572272Y-171363D01*
X2635909Y-247726D02*
G01*
X2633635Y-247726D01*
X2629090Y-245455D01*
X2626818Y-243182D01*
X2624544Y-238636D01*
X2624544Y-229544D01*
X2626818Y-225000D01*
X2629090Y-222726D01*
X2633635Y-220455D01*
X2638181Y-220455D01*
X2642727Y-222726D01*
X2649544Y-227273D01*
X2672272Y-250000D01*
X2672272Y-218182D01*
X2624544Y-180455D02*
G01*
X2656364Y-203182D01*
X2656364Y-169090D01*
X2624544Y-180455D02*
G01*
X2672272Y-180455D01*
X2735909Y-247726D02*
G01*
X2733635Y-247726D01*
X2729090Y-245455D01*
X2726818Y-243182D01*
X2724544Y-238636D01*
X2724544Y-229544D01*
X2726818Y-225000D01*
X2729090Y-222726D01*
X2733635Y-220455D01*
X2738181Y-220455D01*
X2742727Y-222726D01*
X2749544Y-227273D01*
X2772272Y-250000D01*
X2772272Y-218182D01*
X2731364Y-175909D02*
G01*
X2726818Y-178182D01*
X2724544Y-185000D01*
X2724544Y-189544D01*
X2726818Y-196363D01*
X2733635Y-200909D01*
X2745000Y-203182D01*
X2756364Y-203182D01*
X2765455Y-200909D01*
X2770000Y-196363D01*
X2772272Y-189544D01*
X2772272Y-187273D01*
X2770000Y-180455D01*
X2765455Y-175909D01*
X2758635Y-173636D01*
X2756364Y-173636D01*
X2749544Y-175909D01*
X2745000Y-180455D01*
X2742727Y-187273D01*
X2742727Y-189544D01*
X2745000Y-196363D01*
X2749544Y-200909D01*
X2756364Y-203182D01*
X2835909Y-247726D02*
G01*
X2833635Y-247726D01*
X2829090Y-245455D01*
X2826818Y-243182D01*
X2824544Y-238636D01*
X2824544Y-229544D01*
X2826818Y-225000D01*
X2829090Y-222726D01*
X2833635Y-220455D01*
X2838181Y-220455D01*
X2842727Y-222726D01*
X2849544Y-227273D01*
X2872272Y-250000D01*
X2872272Y-218182D01*
X2824544Y-191817D02*
G01*
X2826818Y-198636D01*
X2831364Y-200909D01*
X2835909Y-200909D01*
X2840455Y-198636D01*
X2842727Y-194090D01*
X2845000Y-185000D01*
X2847272Y-178182D01*
X2851818Y-173636D01*
X2856364Y-171363D01*
X2863181Y-171363D01*
X2867727Y-173636D01*
X2870000Y-175909D01*
X2872272Y-182726D01*
X2872272Y-191817D01*
X2870000Y-198636D01*
X2867727Y-200909D01*
X2863181Y-203182D01*
X2856364Y-203182D01*
X2851818Y-200909D01*
X2847272Y-196363D01*
X2845000Y-189544D01*
X2842727Y-180455D01*
X2840455Y-175909D01*
X2835909Y-173636D01*
X2831364Y-173636D01*
X2826818Y-175909D01*
X2824544Y-182726D01*
X2824544Y-191817D01*
D41*
X1724544Y-250000D02*
G01*
X1772272Y-250000D01*
X1724544Y-250000D02*
G01*
X1724544Y-229544D01*
X1726818Y-222726D01*
X1729090Y-220455D01*
X1733635Y-218182D01*
X1738181Y-218182D01*
X1742727Y-220455D01*
X1745000Y-222726D01*
X1747272Y-229544D01*
X1747272Y-250000D01*
X1747272Y-234090D02*
G01*
X1772272Y-218182D01*
X1724544Y-203182D02*
G01*
X1772272Y-203182D01*
X1724544Y-203182D02*
G01*
X1724544Y-173636D01*
X1747272Y-203182D02*
G01*
X1747272Y-185000D01*
X1772272Y-203182D02*
G01*
X1772272Y-173636D01*
X1731364Y-126817D02*
G01*
X1726818Y-131363D01*
X1724544Y-138182D01*
X1724544Y-147273D01*
X1726818Y-154090D01*
X1731364Y-158636D01*
X1735909Y-158636D01*
X1740455Y-156363D01*
X1742727Y-154090D01*
X1745000Y-149544D01*
X1749544Y-135909D01*
X1751818Y-131363D01*
X1754090Y-129090D01*
X1758635Y-126817D01*
X1765455Y-126817D01*
X1770000Y-131363D01*
X1772272Y-138182D01*
X1772272Y-147273D01*
X1770000Y-154090D01*
X1765455Y-158636D01*
X1724544Y-111817D02*
G01*
X1772272Y-111817D01*
X1724544Y-111817D02*
G01*
X1724544Y-82273D01*
X1747272Y-111817D02*
G01*
X1747272Y-93636D01*
X1772272Y-111817D02*
G01*
X1772272Y-82273D01*
X1724544Y-51363D02*
G01*
X1772272Y-51363D01*
X1724544Y-67273D02*
G01*
X1724544Y-35455D01*
X1831364Y-218182D02*
G01*
X1826818Y-222726D01*
X1824544Y-229544D01*
X1824544Y-238636D01*
X1826818Y-245455D01*
X1831364Y-250000D01*
X1835909Y-250000D01*
X1840455Y-247726D01*
X1842727Y-245455D01*
X1845000Y-240909D01*
X1849544Y-227273D01*
X1851818Y-222726D01*
X1854090Y-220455D01*
X1858635Y-218182D01*
X1865455Y-218182D01*
X1870000Y-222726D01*
X1872272Y-229544D01*
X1872272Y-238636D01*
X1870000Y-245455D01*
X1865455Y-250000D01*
X1835909Y-169090D02*
G01*
X1831364Y-171363D01*
X1826818Y-175909D01*
X1824544Y-180455D01*
X1824544Y-189544D01*
X1826818Y-194090D01*
X1831364Y-198636D01*
X1835909Y-200909D01*
X1842727Y-203182D01*
X1854090Y-203182D01*
X1860909Y-200909D01*
X1865455Y-198636D01*
X1870000Y-194090D01*
X1872272Y-189544D01*
X1872272Y-180455D01*
X1870000Y-175909D01*
X1865455Y-171363D01*
X1860909Y-169090D01*
X1824544Y-154090D02*
G01*
X1872272Y-154090D01*
X1824544Y-122273D02*
G01*
X1856364Y-154090D01*
X1845000Y-142726D02*
G01*
X1872272Y-122273D01*
X1924544Y-250000D02*
G01*
X1972272Y-250000D01*
X1924544Y-250000D02*
G01*
X1972272Y-231817D01*
X1924544Y-213636D02*
G01*
X1972272Y-231817D01*
X1924544Y-213636D02*
G01*
X1972272Y-213636D01*
X1924544Y-198636D02*
G01*
X1972272Y-198636D01*
X1931364Y-151817D02*
G01*
X1926818Y-156363D01*
X1924544Y-163182D01*
X1924544Y-172273D01*
X1926818Y-179090D01*
X1931364Y-183636D01*
X1935909Y-183636D01*
X1940455Y-181363D01*
X1942727Y-179090D01*
X1945000Y-174544D01*
X1949544Y-160909D01*
X1951818Y-156363D01*
X1954090Y-154090D01*
X1958635Y-151817D01*
X1965455Y-151817D01*
X1970000Y-156363D01*
X1972272Y-163182D01*
X1972272Y-172273D01*
X1970000Y-179090D01*
X1965455Y-183636D01*
X1924544Y-123182D02*
G01*
X1926818Y-127726D01*
X1931364Y-132273D01*
X1935909Y-134544D01*
X1942727Y-136817D01*
X1954090Y-136817D01*
X1960909Y-134544D01*
X1965455Y-132273D01*
X1970000Y-127726D01*
X1972272Y-123182D01*
X1972272Y-114090D01*
X1970000Y-109544D01*
X1965455Y-105000D01*
X1960909Y-102726D01*
X1954090Y-100455D01*
X1942727Y-100455D01*
X1935909Y-102726D01*
X1931364Y-105000D01*
X1926818Y-109544D01*
X1924544Y-114090D01*
X1924544Y-123182D01*
X2024544Y-250000D02*
G01*
X2072272Y-250000D01*
X2024544Y-250000D02*
G01*
X2072272Y-231817D01*
X2024544Y-213636D02*
G01*
X2072272Y-231817D01*
X2024544Y-213636D02*
G01*
X2072272Y-213636D01*
X2024544Y-185000D02*
G01*
X2026818Y-189544D01*
X2031364Y-194090D01*
X2035909Y-196363D01*
X2042727Y-198636D01*
X2054090Y-198636D01*
X2060909Y-196363D01*
X2065455Y-194090D01*
X2070000Y-189544D01*
X2072272Y-185000D01*
X2072272Y-175909D01*
X2070000Y-171363D01*
X2065455Y-166817D01*
X2060909Y-164544D01*
X2054090Y-162273D01*
X2042727Y-162273D01*
X2035909Y-164544D01*
X2031364Y-166817D01*
X2026818Y-171363D01*
X2024544Y-175909D01*
X2024544Y-185000D01*
X2031364Y-115455D02*
G01*
X2026818Y-120000D01*
X2024544Y-126817D01*
X2024544Y-135909D01*
X2026818Y-142726D01*
X2031364Y-147273D01*
X2035909Y-147273D01*
X2040455Y-145000D01*
X2042727Y-142726D01*
X2045000Y-138182D01*
X2049544Y-124544D01*
X2051818Y-120000D01*
X2054090Y-117726D01*
X2058635Y-115455D01*
X2065455Y-115455D01*
X2070000Y-120000D01*
X2072272Y-126817D01*
X2072272Y-135909D01*
X2070000Y-142726D01*
X2065455Y-147273D01*
X2024544Y-100455D02*
G01*
X2072272Y-100455D01*
D40*
X1300000Y-1904591D02*
G01*
X1300000Y-1947545D01*
X1300000Y-1947545D02*
G01*
X1324544Y-1947545D01*
X1348272Y-1918908D02*
G01*
X1344182Y-1920954D01*
X1340091Y-1925045D01*
X1338045Y-1931181D01*
X1338045Y-1935273D01*
X1340091Y-1941408D01*
X1344182Y-1945500D01*
X1348272Y-1947545D01*
X1354408Y-1947545D01*
X1358500Y-1945500D01*
X1362591Y-1941408D01*
X1364636Y-1935273D01*
X1364636Y-1931181D01*
X1362591Y-1925045D01*
X1358500Y-1920954D01*
X1354408Y-1918908D01*
X1348272Y-1918908D01*
X1402682Y-1925045D02*
G01*
X1398590Y-1920954D01*
X1394499Y-1918908D01*
X1388364Y-1918908D01*
X1384273Y-1920954D01*
X1380182Y-1925045D01*
X1378136Y-1931181D01*
X1378136Y-1935273D01*
X1380182Y-1941408D01*
X1384273Y-1945500D01*
X1388364Y-1947545D01*
X1394499Y-1947545D01*
X1398590Y-1945500D01*
X1402682Y-1941408D01*
X1440726Y-1918908D02*
G01*
X1440726Y-1947545D01*
X1440726Y-1925045D02*
G01*
X1436635Y-1920954D01*
X1432545Y-1918908D01*
X1426409Y-1918908D01*
X1422317Y-1920954D01*
X1418226Y-1925045D01*
X1416181Y-1931181D01*
X1416181Y-1935273D01*
X1418226Y-1941408D01*
X1422317Y-1945500D01*
X1426409Y-1947545D01*
X1432545Y-1947545D01*
X1436635Y-1945500D01*
X1440726Y-1941408D01*
X1454227Y-1904591D02*
G01*
X1454227Y-1947545D01*
X1467727Y-1904591D02*
G01*
X1469772Y-1906635D01*
X1471818Y-1904591D01*
X1469772Y-1902545D01*
X1467727Y-1904591D01*
X1469772Y-1918908D02*
G01*
X1469772Y-1947545D01*
X1507817Y-1918908D02*
G01*
X1485317Y-1947545D01*
X1485317Y-1918908D02*
G01*
X1507817Y-1918908D01*
X1485317Y-1947545D02*
G01*
X1507817Y-1947545D01*
X1545864Y-1918908D02*
G01*
X1545864Y-1947545D01*
X1545864Y-1925045D02*
G01*
X1541773Y-1920954D01*
X1537682Y-1918908D01*
X1531544Y-1918908D01*
X1527455Y-1920954D01*
X1523364Y-1925045D01*
X1521318Y-1931181D01*
X1521318Y-1935273D01*
X1523364Y-1941408D01*
X1527455Y-1945500D01*
X1531544Y-1947545D01*
X1537682Y-1947545D01*
X1541773Y-1945500D01*
X1545864Y-1941408D01*
X1565500Y-1904591D02*
G01*
X1565500Y-1939364D01*
X1567545Y-1945500D01*
X1571635Y-1947545D01*
X1575726Y-1947545D01*
X1559363Y-1918908D02*
G01*
X1573681Y-1918908D01*
X1589227Y-1904591D02*
G01*
X1591273Y-1906635D01*
X1593317Y-1904591D01*
X1591273Y-1902545D01*
X1589227Y-1904591D01*
X1591273Y-1918908D02*
G01*
X1591273Y-1947545D01*
X1617044Y-1918908D02*
G01*
X1612955Y-1920954D01*
X1608864Y-1925045D01*
X1606818Y-1931181D01*
X1606818Y-1935273D01*
X1608864Y-1941408D01*
X1612955Y-1945500D01*
X1617044Y-1947545D01*
X1623181Y-1947545D01*
X1627272Y-1945500D01*
X1631364Y-1941408D01*
X1633409Y-1935273D01*
X1633409Y-1931181D01*
X1631364Y-1925045D01*
X1627272Y-1920954D01*
X1623181Y-1918908D01*
X1617044Y-1918908D01*
X1646908Y-1918908D02*
G01*
X1646908Y-1947545D01*
X1646908Y-1927091D02*
G01*
X1653045Y-1920954D01*
X1657136Y-1918908D01*
X1663272Y-1918908D01*
X1667363Y-1920954D01*
X1669408Y-1927091D01*
X1669408Y-1947545D01*
X1714408Y-1904591D02*
G01*
X1714408Y-1947545D01*
X1714408Y-1904591D02*
G01*
X1732817Y-1904591D01*
X1738954Y-1906635D01*
X1741000Y-1908681D01*
X1743045Y-1912773D01*
X1743045Y-1916864D01*
X1741000Y-1920954D01*
X1738954Y-1923000D01*
X1732817Y-1925045D01*
X1714408Y-1925045D02*
G01*
X1732817Y-1925045D01*
X1738954Y-1927091D01*
X1741000Y-1929135D01*
X1743045Y-1933227D01*
X1743045Y-1939364D01*
X1741000Y-1943454D01*
X1738954Y-1945500D01*
X1732817Y-1947545D01*
X1714408Y-1947545D01*
X1766773Y-1918908D02*
G01*
X1762682Y-1920954D01*
X1758590Y-1925045D01*
X1756544Y-1931181D01*
X1756544Y-1935273D01*
X1758590Y-1941408D01*
X1762682Y-1945500D01*
X1766773Y-1947545D01*
X1772908Y-1947545D01*
X1776999Y-1945500D01*
X1781090Y-1941408D01*
X1783136Y-1935273D01*
X1783136Y-1931181D01*
X1781090Y-1925045D01*
X1776999Y-1920954D01*
X1772908Y-1918908D01*
X1766773Y-1918908D01*
X1821181Y-1918908D02*
G01*
X1821181Y-1947545D01*
X1821181Y-1925045D02*
G01*
X1817091Y-1920954D01*
X1813000Y-1918908D01*
X1806863Y-1918908D01*
X1802772Y-1920954D01*
X1798681Y-1925045D01*
X1796635Y-1931181D01*
X1796635Y-1935273D01*
X1798681Y-1941408D01*
X1802772Y-1945500D01*
X1806863Y-1947545D01*
X1813000Y-1947545D01*
X1817091Y-1945500D01*
X1821181Y-1941408D01*
X1834682Y-1918908D02*
G01*
X1834682Y-1947545D01*
X1834682Y-1931181D02*
G01*
X1836727Y-1925045D01*
X1840817Y-1920954D01*
X1844908Y-1918908D01*
X1851045Y-1918908D01*
X1889090Y-1904591D02*
G01*
X1889090Y-1947545D01*
X1889090Y-1925045D02*
G01*
X1885000Y-1920954D01*
X1880909Y-1918908D01*
X1874772Y-1918908D01*
X1870681Y-1920954D01*
X1866590Y-1925045D01*
X1864544Y-1931181D01*
X1864544Y-1935273D01*
X1866590Y-1941408D01*
X1870681Y-1945500D01*
X1874772Y-1947545D01*
X1880909Y-1947545D01*
X1885000Y-1945500D01*
X1889090Y-1941408D01*
D43*
X4070500Y1895399D02*
G01*
X4070500Y1862699D01*
X4068400Y1856500D01*
X4066400Y1854499D01*
X4062299Y1852500D01*
X4058199Y1852500D01*
X4054099Y1854499D01*
X4051999Y1856500D01*
X4050000Y1862699D01*
X4050000Y1866799D01*
X4108500Y1889299D02*
G01*
X4106499Y1893400D01*
X4100299Y1895399D01*
X4096199Y1895399D01*
X4090100Y1893400D01*
X4086000Y1887199D01*
X4083999Y1876999D01*
X4083999Y1866799D01*
X4086000Y1858600D01*
X4090100Y1854499D01*
X4096199Y1852500D01*
X4098299Y1852500D01*
X4104399Y1854499D01*
X4108500Y1858600D01*
X4110500Y1864699D01*
X4110500Y1866799D01*
X4108500Y1872899D01*
X4104399Y1876999D01*
X4098299Y1879000D01*
X4096199Y1879000D01*
X4090100Y1876999D01*
X4086000Y1872899D01*
X4083999Y1866799D01*
X410500Y410399D02*
G01*
X410500Y377699D01*
X408400Y371500D01*
X406399Y369499D01*
X402300Y367500D01*
X398200Y367500D01*
X394099Y369499D01*
X391999Y371500D01*
X390000Y377699D01*
X390000Y381799D01*
X448499Y410399D02*
G01*
X428000Y410399D01*
X425999Y391999D01*
X428000Y394000D01*
X434200Y396100D01*
X440300Y396100D01*
X446500Y394000D01*
X450500Y390000D01*
X452600Y383800D01*
X452600Y379699D01*
X450500Y373600D01*
X446500Y369499D01*
X440300Y367500D01*
X434200Y367500D01*
X428000Y369499D01*
X425999Y371500D01*
X424000Y375599D01*
X370500Y1895399D02*
G01*
X370500Y1862699D01*
X368400Y1856500D01*
X366399Y1854499D01*
X362300Y1852500D01*
X358200Y1852500D01*
X354099Y1854499D01*
X351999Y1856500D01*
X350000Y1862699D01*
X350000Y1866799D01*
X384000Y1887199D02*
G01*
X388000Y1889299D01*
X394200Y1895399D01*
X394200Y1852500D01*
X370500Y1145399D02*
G01*
X370500Y1112699D01*
X368400Y1106500D01*
X366399Y1104499D01*
X362300Y1102500D01*
X358200Y1102500D01*
X354099Y1104499D01*
X351999Y1106500D01*
X350000Y1112699D01*
X350000Y1116799D01*
X385999Y1135199D02*
G01*
X385999Y1137199D01*
X388000Y1141300D01*
X390100Y1143400D01*
X394200Y1145399D01*
X402399Y1145399D01*
X406500Y1143400D01*
X408499Y1141300D01*
X410500Y1137199D01*
X410500Y1133099D01*
X408499Y1129000D01*
X404400Y1122899D01*
X384000Y1102500D01*
X412600Y1102500D01*
X370500Y-454600D02*
G01*
X370500Y-487300D01*
X368400Y-493499D01*
X366399Y-495500D01*
X362300Y-497500D01*
X358200Y-497500D01*
X354099Y-495500D01*
X351999Y-493499D01*
X350000Y-487300D01*
X350000Y-483200D01*
X388000Y-454600D02*
G01*
X410500Y-454600D01*
X398299Y-470999D01*
X404400Y-470999D01*
X408499Y-473000D01*
X410500Y-475000D01*
X412600Y-481199D01*
X412600Y-485300D01*
X410500Y-491399D01*
X406500Y-495500D01*
X400300Y-497500D01*
X394200Y-497500D01*
X388000Y-495500D01*
X385999Y-493499D01*
X384000Y-489400D01*
X370500Y-1204600D02*
G01*
X370500Y-1237300D01*
X368400Y-1243499D01*
X366399Y-1245500D01*
X362300Y-1247500D01*
X358200Y-1247500D01*
X354099Y-1245500D01*
X351999Y-1243499D01*
X350000Y-1237300D01*
X350000Y-1233200D01*
X404400Y-1204600D02*
G01*
X384000Y-1233200D01*
X414600Y-1233200D01*
X404400Y-1204600D02*
G01*
X404400Y-1247500D01*
X2170399Y1654499D02*
G01*
X2141800Y1675000D01*
X2141800Y1644299D01*
X2170399Y1654499D02*
G01*
X2127500Y1654499D01*
X2170399Y1602199D02*
G01*
X2127500Y1622600D01*
X2170399Y1630799D02*
G01*
X2170399Y1602199D01*
X2156099Y1588699D02*
G01*
X2135600Y1588699D01*
X2129499Y1586599D01*
X2127500Y1582500D01*
X2127500Y1576399D01*
X2129499Y1572300D01*
X2135600Y1566199D01*
X2156099Y1566199D02*
G01*
X2127500Y1566199D01*
X2170399Y1552699D02*
G01*
X2127500Y1552699D01*
X2170399Y1552699D02*
G01*
X2170399Y1526100D01*
X2150000Y1552699D02*
G01*
X2150000Y1536300D01*
X2310200Y1569299D02*
G01*
X2314300Y1571399D01*
X2318400Y1575500D01*
X2320399Y1579499D01*
X2320399Y1587699D01*
X2318400Y1591799D01*
X2314300Y1595900D01*
X2310200Y1598000D01*
X2303999Y1600000D01*
X2293800Y1600000D01*
X2287700Y1598000D01*
X2283599Y1595900D01*
X2279499Y1591799D01*
X2277500Y1587699D01*
X2277500Y1579499D01*
X2279499Y1575500D01*
X2283599Y1571399D01*
X2287700Y1569299D01*
X2312200Y1555799D02*
G01*
X2314300Y1551700D01*
X2320399Y1545599D01*
X2277500Y1545599D01*
X970399Y1654499D02*
G01*
X941800Y1675000D01*
X941800Y1644299D01*
X970399Y1654499D02*
G01*
X927500Y1654499D01*
X970399Y1602199D02*
G01*
X927500Y1622600D01*
X970399Y1630799D02*
G01*
X970399Y1602199D01*
X956099Y1588699D02*
G01*
X935600Y1588699D01*
X929499Y1586599D01*
X927500Y1582500D01*
X927500Y1576399D01*
X929499Y1572300D01*
X935600Y1566199D01*
X956099Y1566199D02*
G01*
X927500Y1566199D01*
X970399Y1552699D02*
G01*
X927500Y1552699D01*
X970399Y1552699D02*
G01*
X970399Y1526100D01*
X950000Y1552699D02*
G01*
X950000Y1536300D01*
X1110200Y1569299D02*
G01*
X1114300Y1571399D01*
X1118400Y1575500D01*
X1120399Y1579499D01*
X1120399Y1587699D01*
X1118400Y1591799D01*
X1114300Y1595900D01*
X1110200Y1598000D01*
X1103999Y1600000D01*
X1093800Y1600000D01*
X1087700Y1598000D01*
X1083599Y1595900D01*
X1079499Y1591799D01*
X1077500Y1587699D01*
X1077500Y1579499D01*
X1079499Y1575500D01*
X1083599Y1571399D01*
X1087700Y1569299D01*
X1110200Y1553800D02*
G01*
X1112200Y1553800D01*
X1116300Y1551700D01*
X1118400Y1549699D01*
X1120399Y1545599D01*
X1120399Y1537399D01*
X1118400Y1533299D01*
X1116300Y1531300D01*
X1112200Y1529200D01*
X1108100Y1529200D01*
X1103999Y1531300D01*
X1097899Y1535399D01*
X1077500Y1555799D01*
X1077500Y1527199D01*
X2029600Y-1754499D02*
G01*
X2058199Y-1775000D01*
X2058199Y-1744299D01*
X2029600Y-1754499D02*
G01*
X2072500Y-1754499D01*
X2029600Y-1702199D02*
G01*
X2072500Y-1722600D01*
X2029600Y-1730799D02*
G01*
X2029600Y-1702199D01*
X2043900Y-1688699D02*
G01*
X2064399Y-1688699D01*
X2070500Y-1686599D01*
X2072500Y-1682500D01*
X2072500Y-1676399D01*
X2070500Y-1672300D01*
X2064399Y-1666199D01*
X2043900Y-1666199D02*
G01*
X2072500Y-1666199D01*
X2029600Y-1652699D02*
G01*
X2072500Y-1652699D01*
X2029600Y-1652699D02*
G01*
X2029600Y-1626100D01*
X2050000Y-1652699D02*
G01*
X2050000Y-1636300D01*
X1889799Y-1669299D02*
G01*
X1885699Y-1671399D01*
X1881599Y-1675500D01*
X1879600Y-1679499D01*
X1879600Y-1687699D01*
X1881599Y-1691799D01*
X1885699Y-1695900D01*
X1889799Y-1698000D01*
X1896000Y-1700000D01*
X1906199Y-1700000D01*
X1912299Y-1698000D01*
X1916400Y-1695900D01*
X1920500Y-1691799D01*
X1922500Y-1687699D01*
X1922500Y-1679499D01*
X1920500Y-1675500D01*
X1916400Y-1671399D01*
X1912299Y-1669299D01*
X1879600Y-1651700D02*
G01*
X1879600Y-1629200D01*
X1896000Y-1641500D01*
X1896000Y-1635399D01*
X1898000Y-1631300D01*
X1900000Y-1629200D01*
X1906199Y-1627199D01*
X1910299Y-1627199D01*
X1916400Y-1629200D01*
X1920500Y-1633299D01*
X1922500Y-1639499D01*
X1922500Y-1645599D01*
X1920500Y-1651700D01*
X1918500Y-1653800D01*
X1914399Y-1655799D01*
X3229600Y-1754499D02*
G01*
X3258199Y-1775000D01*
X3258199Y-1744299D01*
X3229600Y-1754499D02*
G01*
X3272500Y-1754499D01*
X3229600Y-1702199D02*
G01*
X3272500Y-1722600D01*
X3229600Y-1730799D02*
G01*
X3229600Y-1702199D01*
X3243900Y-1688699D02*
G01*
X3264399Y-1688699D01*
X3270500Y-1686599D01*
X3272500Y-1682500D01*
X3272500Y-1676399D01*
X3270500Y-1672300D01*
X3264399Y-1666199D01*
X3243900Y-1666199D02*
G01*
X3272500Y-1666199D01*
X3229600Y-1652699D02*
G01*
X3272500Y-1652699D01*
X3229600Y-1652699D02*
G01*
X3229600Y-1626100D01*
X3250000Y-1652699D02*
G01*
X3250000Y-1636300D01*
X3089799Y-1669299D02*
G01*
X3085699Y-1671399D01*
X3081599Y-1675500D01*
X3079600Y-1679499D01*
X3079600Y-1687699D01*
X3081599Y-1691799D01*
X3085699Y-1695900D01*
X3089799Y-1698000D01*
X3096000Y-1700000D01*
X3106199Y-1700000D01*
X3112299Y-1698000D01*
X3116400Y-1695900D01*
X3120500Y-1691799D01*
X3122500Y-1687699D01*
X3122500Y-1679499D01*
X3120500Y-1675500D01*
X3116400Y-1671399D01*
X3112299Y-1669299D01*
X3079600Y-1635399D02*
G01*
X3108199Y-1655799D01*
X3108199Y-1625100D01*
X3079600Y-1635399D02*
G01*
X3122500Y-1635399D01*
X3800000Y1062199D02*
G01*
X3804099Y1064299D01*
X3810200Y1070399D01*
X3810200Y1027500D01*
X3823699Y1070399D02*
G01*
X3823699Y1027500D01*
X3852399Y1070399D02*
G01*
X3823699Y1041799D01*
X3833999Y1051999D02*
G01*
X3852399Y1027500D01*
X3654600Y1100000D02*
G01*
X3697500Y1100000D01*
X3654600Y1100000D02*
G01*
X3654600Y1118400D01*
X3656599Y1124499D01*
X3658699Y1126599D01*
X3662799Y1128600D01*
X3666899Y1128600D01*
X3671000Y1126599D01*
X3673000Y1124499D01*
X3675000Y1118400D01*
X3675000Y1100000D01*
X3675000Y1114299D02*
G01*
X3697500Y1128600D01*
X3662799Y1142100D02*
G01*
X3660699Y1146199D01*
X3654600Y1152399D01*
X3697500Y1152399D01*
X4075000Y1112199D02*
G01*
X4079099Y1114299D01*
X4085200Y1120399D01*
X4085200Y1077500D01*
X4111000Y1120399D02*
G01*
X4104899Y1118400D01*
X4100799Y1112199D01*
X4098699Y1101999D01*
X4098699Y1095900D01*
X4100799Y1085599D01*
X4104899Y1079499D01*
X4111000Y1077500D01*
X4115100Y1077500D01*
X4121199Y1079499D01*
X4125299Y1085599D01*
X4127399Y1095900D01*
X4127399Y1101999D01*
X4125299Y1112199D01*
X4121199Y1118400D01*
X4115100Y1120399D01*
X4111000Y1120399D01*
X4153100Y1120399D02*
G01*
X4146999Y1118400D01*
X4142899Y1112199D01*
X4140900Y1101999D01*
X4140900Y1095900D01*
X4142899Y1085599D01*
X4146999Y1079499D01*
X4153100Y1077500D01*
X4157200Y1077500D01*
X4163400Y1079499D01*
X4167500Y1085599D01*
X4169499Y1095900D01*
X4169499Y1101999D01*
X4167500Y1112199D01*
X4163400Y1118400D01*
X4157200Y1120399D01*
X4153100Y1120399D01*
X3954600Y1000000D02*
G01*
X3997500Y1000000D01*
X3954600Y1000000D02*
G01*
X3954600Y1018400D01*
X3956599Y1024499D01*
X3958699Y1026599D01*
X3962799Y1028600D01*
X3966899Y1028600D01*
X3971000Y1026599D01*
X3973000Y1024499D01*
X3975000Y1018400D01*
X3975000Y1000000D01*
X3975000Y1014299D02*
G01*
X3997500Y1028600D01*
X3964799Y1044200D02*
G01*
X3962799Y1044200D01*
X3958699Y1046199D01*
X3956599Y1048299D01*
X3954600Y1052399D01*
X3954600Y1060500D01*
X3956599Y1064600D01*
X3958699Y1066700D01*
X3962799Y1068699D01*
X3966899Y1068699D01*
X3971000Y1066700D01*
X3977100Y1062600D01*
X3997500Y1042100D01*
X3997500Y1070799D01*
X2075000Y87199D02*
G01*
X2079099Y89299D01*
X2085200Y95399D01*
X2085200Y52500D01*
X2098699Y95399D02*
G01*
X2098699Y52500D01*
X2127399Y95399D02*
G01*
X2098699Y66799D01*
X2108999Y76999D02*
G01*
X2127399Y52500D01*
X1929600Y-25000D02*
G01*
X1972500Y-25000D01*
X1929600Y-25000D02*
G01*
X1929600Y-6599D01*
X1931599Y-500D01*
X1933699Y1599D01*
X1937799Y3600D01*
X1941899Y3600D01*
X1946000Y1599D01*
X1948000Y-500D01*
X1950000Y-6599D01*
X1950000Y-25000D01*
X1950000Y-10700D02*
G01*
X1972500Y3600D01*
X1929600Y21199D02*
G01*
X1929600Y43699D01*
X1946000Y31500D01*
X1946000Y37600D01*
X1948000Y41700D01*
X1950000Y43699D01*
X1956199Y45799D01*
X1960299Y45799D01*
X1966400Y43699D01*
X1970500Y39600D01*
X1972500Y33499D01*
X1972500Y27399D01*
X1970500Y21199D01*
X1968500Y19200D01*
X1964399Y17100D01*
X2129600Y-1575000D02*
G01*
X2172500Y-1575000D01*
X2129600Y-1546399D02*
G01*
X2172500Y-1546399D01*
X2150000Y-1575000D02*
G01*
X2150000Y-1546399D01*
X2137799Y-1532899D02*
G01*
X2135699Y-1528800D01*
X2129600Y-1522600D01*
X2172500Y-1522600D01*
X2137799Y-1509099D02*
G01*
X2135699Y-1505000D01*
X2129600Y-1498899D01*
X2172500Y-1498899D01*
X2104600Y-925000D02*
G01*
X2147500Y-925000D01*
X2104600Y-896399D02*
G01*
X2147500Y-896399D01*
X2125000Y-925000D02*
G01*
X2125000Y-896399D01*
X2112799Y-882899D02*
G01*
X2110699Y-878800D01*
X2104600Y-872600D01*
X2147500Y-872600D01*
X2104600Y-846900D02*
G01*
X2106599Y-853000D01*
X2112799Y-857100D01*
X2123000Y-859099D01*
X2129099Y-859099D01*
X2139399Y-857100D01*
X2145500Y-853000D01*
X2147500Y-846900D01*
X2147500Y-842800D01*
X2145500Y-836599D01*
X2139399Y-832500D01*
X2129099Y-830500D01*
X2123000Y-830500D01*
X2112799Y-832500D01*
X2106599Y-836599D01*
X2104600Y-842800D01*
X2104600Y-846900D01*
X3295399Y900000D02*
G01*
X3252500Y900000D01*
X3295399Y871399D02*
G01*
X3252500Y871399D01*
X3275000Y900000D02*
G01*
X3275000Y871399D01*
X3295399Y837399D02*
G01*
X3266800Y857899D01*
X3266800Y827199D01*
X3295399Y837399D02*
G01*
X3252500Y837399D01*
X3270399Y1575000D02*
G01*
X3227500Y1575000D01*
X3270399Y1546399D02*
G01*
X3227500Y1546399D01*
X3250000Y1575000D02*
G01*
X3250000Y1546399D01*
X3270399Y1508299D02*
G01*
X3270399Y1528800D01*
X3251999Y1530799D01*
X3253999Y1528800D01*
X3256099Y1522600D01*
X3256099Y1516500D01*
X3253999Y1510399D01*
X3250000Y1506300D01*
X3243800Y1504200D01*
X3239700Y1504200D01*
X3233599Y1506300D01*
X3229499Y1510399D01*
X3227500Y1516500D01*
X3227500Y1522600D01*
X3229499Y1528800D01*
X3231499Y1530799D01*
X3235600Y1532899D01*
X2070399Y1575000D02*
G01*
X2027500Y1575000D01*
X2070399Y1546399D02*
G01*
X2027500Y1546399D01*
X2050000Y1575000D02*
G01*
X2050000Y1546399D01*
X2070399Y1504200D02*
G01*
X2027500Y1524699D01*
X2070399Y1532899D02*
G01*
X2070399Y1504200D01*
X929600Y-1575000D02*
G01*
X972500Y-1575000D01*
X929600Y-1546399D02*
G01*
X972500Y-1546399D01*
X950000Y-1575000D02*
G01*
X950000Y-1546399D01*
X943900Y-1506300D02*
G01*
X950000Y-1508299D01*
X954099Y-1512399D01*
X956199Y-1518499D01*
X956199Y-1520599D01*
X954099Y-1526700D01*
X950000Y-1530799D01*
X943900Y-1532899D01*
X941899Y-1532899D01*
X935699Y-1530799D01*
X931599Y-1526700D01*
X929600Y-1520599D01*
X929600Y-1518499D01*
X931599Y-1512399D01*
X935699Y-1508299D01*
X943900Y-1506300D01*
X954099Y-1506300D01*
X964399Y-1508299D01*
X970500Y-1512399D01*
X972500Y-1518499D01*
X972500Y-1522600D01*
X970500Y-1528800D01*
X966400Y-1530799D01*
X2095399Y900000D02*
G01*
X2052500Y900000D01*
X2095399Y871399D02*
G01*
X2052500Y871399D01*
X2075000Y900000D02*
G01*
X2075000Y871399D01*
X2089300Y833299D02*
G01*
X2093400Y835399D01*
X2095399Y841500D01*
X2095399Y845599D01*
X2093400Y851700D01*
X2087200Y855799D01*
X2076999Y857899D01*
X2066800Y857899D01*
X2058599Y855799D01*
X2054499Y851700D01*
X2052500Y845599D01*
X2052500Y843499D01*
X2054499Y837399D01*
X2058599Y833299D01*
X2064700Y831300D01*
X2066800Y831300D01*
X2072899Y833299D01*
X2076999Y837399D01*
X2078999Y843499D01*
X2078999Y845599D01*
X2076999Y851700D01*
X2072899Y855799D01*
X2066800Y857899D01*
X904600Y-900000D02*
G01*
X947500Y-900000D01*
X904600Y-871399D02*
G01*
X947500Y-871399D01*
X925000Y-900000D02*
G01*
X925000Y-871399D01*
X904600Y-847600D02*
G01*
X906599Y-853800D01*
X910699Y-855799D01*
X914799Y-855799D01*
X918900Y-853800D01*
X921000Y-849699D01*
X923000Y-841500D01*
X925000Y-835399D01*
X929099Y-831300D01*
X933199Y-829200D01*
X939399Y-829200D01*
X943500Y-831300D01*
X945500Y-833299D01*
X947500Y-839499D01*
X947500Y-847600D01*
X945500Y-853800D01*
X943500Y-855799D01*
X939399Y-857899D01*
X933199Y-857899D01*
X929099Y-855799D01*
X925000Y-851700D01*
X923000Y-845599D01*
X921000Y-837399D01*
X918900Y-833299D01*
X914799Y-831300D01*
X910699Y-831300D01*
X906599Y-833299D01*
X904600Y-839499D01*
X904600Y-847600D01*
X295500Y-2104600D02*
G01*
X295500Y-2137300D01*
X293400Y-2143499D01*
X291399Y-2145500D01*
X287300Y-2147500D01*
X283200Y-2147500D01*
X279099Y-2145500D01*
X276999Y-2143499D01*
X275000Y-2137300D01*
X275000Y-2133200D01*
X309000Y-2112800D02*
G01*
X313000Y-2110700D01*
X319200Y-2104600D01*
X319200Y-2147500D01*
X332699Y-2112800D02*
G01*
X336799Y-2110700D01*
X342899Y-2104600D01*
X342899Y-2147500D01*
X4254600Y1050000D02*
G01*
X4297500Y1050000D01*
X4297500Y1050000D02*
G01*
X4297500Y1074499D01*
X4254600Y1088000D02*
G01*
X4297500Y1088000D01*
X4254600Y1088000D02*
G01*
X4254600Y1114600D01*
X4275000Y1088000D02*
G01*
X4275000Y1104400D01*
X4297500Y1088000D02*
G01*
X4297500Y1114600D01*
X4254600Y1128099D02*
G01*
X4297500Y1128099D01*
X4254600Y1128099D02*
G01*
X4254600Y1142500D01*
X4256599Y1148600D01*
X4260699Y1152699D01*
X4264799Y1154699D01*
X4271000Y1156799D01*
X4281199Y1156799D01*
X4287299Y1154699D01*
X4291400Y1152699D01*
X4295500Y1148600D01*
X4297500Y1142500D01*
X4297500Y1128099D01*
X4262799Y1170300D02*
G01*
X4260699Y1174400D01*
X4254600Y1180500D01*
X4297500Y1180500D01*
X4254600Y800000D02*
G01*
X4297500Y800000D01*
X4297500Y800000D02*
G01*
X4297500Y824499D01*
X4254600Y838000D02*
G01*
X4297500Y838000D01*
X4254600Y838000D02*
G01*
X4254600Y864600D01*
X4275000Y838000D02*
G01*
X4275000Y854400D01*
X4297500Y838000D02*
G01*
X4297500Y864600D01*
X4254600Y878099D02*
G01*
X4297500Y878099D01*
X4254600Y878099D02*
G01*
X4254600Y892500D01*
X4256599Y898600D01*
X4260699Y902699D01*
X4264799Y904699D01*
X4271000Y906799D01*
X4281199Y906799D01*
X4287299Y904699D01*
X4291400Y902699D01*
X4295500Y898600D01*
X4297500Y892500D01*
X4297500Y878099D01*
X4264799Y922300D02*
G01*
X4262799Y922300D01*
X4258699Y924400D01*
X4256599Y926399D01*
X4254600Y930500D01*
X4254600Y938699D01*
X4256599Y942800D01*
X4258699Y944800D01*
X4262799Y946900D01*
X4266899Y946900D01*
X4271000Y944800D01*
X4277100Y940700D01*
X4297500Y920300D01*
X4297500Y948899D01*
G36*
X2106900Y1355320D02*
G01*
X2114760Y1335640D01*
X2130520Y1304139D01*
X2142320Y1288380D01*
X2158080Y1280520D01*
X2169880Y1268700D01*
X2185640Y1264760D01*
X2193500Y1260820D01*
X2193500Y1331699D01*
X2256500Y1331699D01*
X2256500Y1260820D01*
X2280120Y1268700D01*
X2295860Y1276580D01*
X2307680Y1288380D01*
X2315560Y1300200D01*
X2327360Y1312000D01*
X2335240Y1331699D01*
X2339180Y1355320D01*
G37*
G36*
X906900Y1355320D02*
G01*
X914760Y1335640D01*
X930520Y1304139D01*
X942320Y1288380D01*
X958080Y1280520D01*
X969880Y1268700D01*
X985639Y1264760D01*
X993500Y1260820D01*
X993500Y1331699D01*
X1056500Y1331699D01*
X1056500Y1260820D01*
X1080120Y1268700D01*
X1095860Y1276580D01*
X1107680Y1288380D01*
X1115560Y1300200D01*
X1127360Y1312000D01*
X1135240Y1331699D01*
X1139180Y1355320D01*
G37*
G36*
X1943500Y-1335820D02*
G01*
X1919880Y-1343700D01*
X1904139Y-1351579D01*
X1892320Y-1363380D01*
X1884440Y-1375200D01*
X1872640Y-1387000D01*
X1864760Y-1406699D01*
X1860820Y-1430320D01*
X2093100Y-1430320D01*
X2085240Y-1410640D01*
X2069480Y-1379139D01*
X2057680Y-1363380D01*
X2041920Y-1355520D01*
X2030120Y-1343700D01*
X2014360Y-1339760D01*
X2006500Y-1335820D01*
X2006500Y-1406699D01*
X1943500Y-1406699D01*
G37*
G36*
X3143500Y-1335820D02*
G01*
X3119880Y-1343700D01*
X3104140Y-1351579D01*
X3092320Y-1363380D01*
X3084440Y-1375200D01*
X3072640Y-1387000D01*
X3064760Y-1406699D01*
X3060820Y-1430320D01*
X3293100Y-1430320D01*
X3285240Y-1410640D01*
X3269480Y-1379139D01*
X3257679Y-1363380D01*
X3241920Y-1355520D01*
X3230120Y-1343700D01*
X3214360Y-1339760D01*
X3206500Y-1335820D01*
X3206500Y-1406699D01*
X3143500Y-1406699D01*
G37*
D35*
X2025000Y1075000D02*
G01*
X2025000Y825000D01*
X3225000Y1075000D02*
G01*
X3225000Y825000D01*
X975000Y-825000D02*
G01*
X975000Y-1075000D01*
X2175000Y-825000D02*
G01*
X2175000Y-1075000D01*
X4500000Y1900000D02*
G01*
X4175000Y1900000D01*
D10*
X4325000Y1000000D02*
G01*
X4350000Y1000000D01*
X4400000Y1000000D02*
G01*
X4375000Y1000000D01*
X4375000Y1025000D02*
G01*
X4375000Y975000D01*
X4350000Y1025000D02*
G01*
X4350000Y975000D01*
X4375000Y1000000D01*
X4350000Y1025000D01*
D35*
X375000Y-2200000D02*
G01*
X375000Y-2050000D01*
X325000Y-1200000D02*
G01*
X0Y-1200000D01*
X325000Y1900000D02*
G01*
X0Y1900000D01*
X325000Y1150000D02*
G01*
X0Y1150000D01*
X325000Y-450000D02*
G01*
X0Y-450000D01*
D36*
X4456300Y1319690D02*
G01*
X4485829Y1319690D01*
X4485829Y1780309D01*
X4485829Y1319690D01*
X4456300Y1319690D01*
X4190550Y1737010D02*
G01*
X4190550Y1780309D01*
X4190550Y1737010D01*
X4190550Y1319690D02*
G01*
X4190550Y1362989D01*
X4190550Y1319690D01*
X4485829Y1780309D02*
G01*
X4456300Y1780309D01*
X4485829Y1780309D01*
D37*
X165749Y177759D02*
G01*
X29920Y177759D01*
X29920Y-176570D01*
X165749Y-176570D01*
X600790Y118699D02*
G01*
X600790Y177759D01*
X429529Y177759D01*
X543699Y-176570D02*
G01*
X600790Y-176570D01*
X600790Y-97829D01*
D36*
X43699Y1780309D02*
G01*
X14169Y1780309D01*
X14169Y1319690D01*
X14169Y1780309D01*
X43699Y1780309D01*
X309450Y1362989D02*
G01*
X309450Y1319690D01*
X309450Y1362989D01*
X309450Y1780309D02*
G01*
X309450Y1737010D01*
X309450Y1780309D01*
X14169Y1319690D02*
G01*
X43699Y1319690D01*
X14169Y1319690D01*
X43699Y1030309D02*
G01*
X14169Y1030309D01*
X14169Y569690D01*
X14169Y1030309D01*
X43699Y1030309D01*
X309450Y612989D02*
G01*
X309450Y569690D01*
X309450Y612989D01*
X309450Y1030309D02*
G01*
X309450Y987010D01*
X309450Y1030309D01*
X14169Y569690D02*
G01*
X43699Y569690D01*
X14169Y569690D01*
X43699Y-569690D02*
G01*
X14169Y-569690D01*
X14169Y-1030309D01*
X14169Y-569690D01*
X43699Y-569690D01*
X309450Y-987010D02*
G01*
X309450Y-1030309D01*
X309450Y-987010D01*
X309450Y-569690D02*
G01*
X309450Y-612989D01*
X309450Y-569690D01*
X14169Y-1030309D02*
G01*
X43699Y-1030309D01*
X14169Y-1030309D01*
X43699Y-1319690D02*
G01*
X14169Y-1319690D01*
X14169Y-1780309D01*
X14169Y-1319690D01*
X43699Y-1319690D01*
X309450Y-1737010D02*
G01*
X309450Y-1780309D01*
X309450Y-1737010D01*
X309450Y-1319690D02*
G01*
X309450Y-1362989D01*
X309450Y-1319690D01*
X14169Y-1780309D02*
G01*
X43699Y-1780309D01*
X14169Y-1780309D01*
D10*
X2095100Y1245000D02*
G01*
X2095100Y1453600D01*
X2354899Y1453600D02*
G01*
X2354899Y1245000D01*
X2146300Y1504800D02*
G01*
X2095100Y1453600D01*
X2303699Y1504800D02*
G01*
X2354899Y1453600D01*
X2303699Y1504800D02*
G01*
X2253800Y1504800D01*
X2196199Y1504800D02*
G01*
X2146300Y1504800D01*
X2354899Y1245000D02*
G01*
X2253800Y1245000D01*
X2196199Y1245000D02*
G01*
X2095100Y1245000D01*
X895100Y1245000D02*
G01*
X895100Y1453600D01*
X1154899Y1453600D02*
G01*
X1154899Y1245000D01*
X946300Y1504800D02*
G01*
X895100Y1453600D01*
X1103699Y1504800D02*
G01*
X1154899Y1453600D01*
X1103699Y1504800D02*
G01*
X1053800Y1504800D01*
X996199Y1504800D02*
G01*
X946300Y1504800D01*
X1154899Y1245000D02*
G01*
X1053800Y1245000D01*
X996199Y1245000D02*
G01*
X895100Y1245000D01*
X2104899Y-1320000D02*
G01*
X2104899Y-1528600D01*
X1845100Y-1528600D02*
G01*
X1845100Y-1320000D01*
X2053699Y-1579800D02*
G01*
X2104899Y-1528600D01*
X1896300Y-1579800D02*
G01*
X1845100Y-1528600D01*
X1896300Y-1579800D02*
G01*
X1946199Y-1579800D01*
X2003800Y-1579800D02*
G01*
X2053699Y-1579800D01*
X1845100Y-1320000D02*
G01*
X1946199Y-1320000D01*
X2003800Y-1320000D02*
G01*
X2104899Y-1320000D01*
X3304899Y-1320000D02*
G01*
X3304899Y-1528600D01*
X3045100Y-1528600D02*
G01*
X3045100Y-1320000D01*
X3253699Y-1579800D02*
G01*
X3304899Y-1528600D01*
X3096300Y-1579800D02*
G01*
X3045100Y-1528600D01*
X3096300Y-1579800D02*
G01*
X3146199Y-1579800D01*
X3203800Y-1579800D02*
G01*
X3253699Y-1579800D01*
X3045100Y-1320000D02*
G01*
X3146199Y-1320000D01*
X3203800Y-1320000D02*
G01*
X3304899Y-1320000D01*
X3923427Y1077755D02*
G01*
X3923427Y1172244D01*
X3785631Y1172244D02*
G01*
X3726576Y1172244D01*
X3785631Y1077755D02*
G01*
X3726576Y1077755D01*
X3864372Y1172244D02*
G01*
X3923427Y1172244D01*
X3864372Y1077755D02*
G01*
X3923427Y1077755D01*
X3726576Y1077755D02*
G01*
X3726576Y1172244D01*
X4223427Y977755D02*
G01*
X4223427Y1072244D01*
X4085631Y1072244D02*
G01*
X4026576Y1072244D01*
X4085631Y977755D02*
G01*
X4026576Y977755D01*
X4164372Y1072244D02*
G01*
X4223427Y1072244D01*
X4164372Y977755D02*
G01*
X4223427Y977755D01*
X4026576Y977755D02*
G01*
X4026576Y1072244D01*
X2001572Y47244D02*
G01*
X2001572Y-47244D01*
X2139368Y-47244D02*
G01*
X2198423Y-47244D01*
X2139368Y47244D02*
G01*
X2198423Y47244D01*
X2060627Y-47244D02*
G01*
X2001572Y-47244D01*
X2060627Y47244D02*
G01*
X2001572Y47244D01*
X2198423Y47244D02*
G01*
X2198423Y-47244D01*
X2989530Y-1573009D02*
G01*
X2209530Y-1573009D01*
X2209530Y-1323009D01*
X2989530Y-1323009D01*
X2989530Y-1573009D01*
X2989530Y-1073009D02*
G01*
X2209530Y-1073009D01*
X2209530Y-823009D01*
X2989530Y-823009D01*
X2989530Y-1073009D01*
X2410469Y1073009D02*
G01*
X3190469Y1073009D01*
X3190469Y823009D01*
X2410469Y823009D01*
X2410469Y1073009D01*
X2410469Y1573009D02*
G01*
X3190469Y1573009D01*
X3190469Y1323009D01*
X2410469Y1323009D01*
X2410469Y1573009D01*
X1210469Y1573009D02*
G01*
X1990469Y1573009D01*
X1990469Y1323009D01*
X1210469Y1323009D01*
X1210469Y1573009D01*
X1789530Y-1573009D02*
G01*
X1009530Y-1573009D01*
X1009530Y-1323009D01*
X1789530Y-1323009D01*
X1789530Y-1573009D01*
X1210469Y1073009D02*
G01*
X1990469Y1073009D01*
X1990469Y823009D01*
X1210469Y823009D01*
X1210469Y1073009D01*
X1789530Y-1073009D02*
G01*
X1009530Y-1073009D01*
X1009530Y-823009D01*
X1789530Y-823009D01*
X1789530Y-1073009D01*
X415000Y-2065000D02*
G01*
X835000Y-2065000D01*
X835000Y-2185000D01*
X415000Y-2185000D01*
X415000Y-2065000D01*
X525000Y-2065000D02*
G01*
X525000Y-2185000D01*
X4468901Y1162402D02*
G01*
X4468901Y1162399D01*
X4482678Y1148622D01*
X4468901Y1087597D02*
G01*
X4468901Y1087600D01*
X4482678Y1101377D01*
X4380317Y1087597D02*
G01*
X4327165Y1087597D01*
X4380317Y1162402D02*
G01*
X4327165Y1162402D01*
X4419687Y1087597D02*
G01*
X4468901Y1087597D01*
X4419687Y1162402D02*
G01*
X4468901Y1162402D01*
X4327165Y1087597D02*
G01*
X4327165Y1162402D01*
X4482678Y1101377D02*
G01*
X4482678Y1148622D01*
X4388189Y1105315D02*
G01*
X4388189Y1144684D01*
X4388189Y1125198D02*
G01*
X4407874Y1125198D01*
X4468901Y912402D02*
G01*
X4468901Y912399D01*
X4482678Y898622D01*
X4468901Y837597D02*
G01*
X4468901Y837600D01*
X4482678Y851377D01*
X4380317Y837597D02*
G01*
X4327165Y837597D01*
X4380317Y912402D02*
G01*
X4327165Y912402D01*
X4419687Y837597D02*
G01*
X4468901Y837597D01*
X4419687Y912402D02*
G01*
X4468901Y912402D01*
X4327165Y837597D02*
G01*
X4327165Y912402D01*
X4482678Y851377D02*
G01*
X4482678Y898622D01*
X4388189Y855315D02*
G01*
X4388189Y894684D01*
X4388189Y875198D02*
G01*
X4407874Y875198D01*
D38*
G75*
G01*
X4058660Y1392520D02*
G03*
X4058660Y1396460I0J1970D01*
G75*
G01*
X4058660Y1396460D02*
G03*
X4058660Y1392520I0J-1970D01*
G75*
G01*
X4058660Y1392520D02*
G03*
X4058660Y1396460I0J1970D01*
D39*
G75*
G01*
X778350Y-22240D02*
G03*
X778340Y-22420I-7862J347D01*
D38*
G75*
G01*
X441340Y1707480D02*
G03*
X441340Y1703540I0J-1970D01*
G75*
G01*
X441340Y1703540D02*
G03*
X441340Y1707480I0J1970D01*
G75*
G01*
X441340Y1707480D02*
G03*
X441340Y1703540I0J-1970D01*
G75*
G01*
X441340Y957480D02*
G03*
X441340Y953540I0J-1970D01*
G75*
G01*
X441340Y953540D02*
G03*
X441340Y957480I0J1970D01*
G75*
G01*
X441340Y957480D02*
G03*
X441340Y953540I0J-1970D01*
G75*
G01*
X441340Y-642520D02*
G03*
X441340Y-646460I0J-1970D01*
G75*
G01*
X441340Y-646460D02*
G03*
X441340Y-642520I0J1970D01*
G75*
G01*
X441340Y-642520D02*
G03*
X441340Y-646460I0J-1970D01*
G75*
G01*
X441340Y-1392520D02*
G03*
X441340Y-1396460I0J-1970D01*
G75*
G01*
X441340Y-1396460D02*
G03*
X441340Y-1392520I0J1970D01*
G75*
G01*
X441340Y-1392520D02*
G03*
X441340Y-1396460I0J-1970D01*
D10*
G75*
G01*
X2256496Y1260827D02*
G03*
X2256496Y1489173I-31497J114173D01*
G75*
G01*
X2193504Y1489173D02*
G03*
X2193504Y1260827I31494J-114173D01*
G75*
G01*
X1056496Y1260827D02*
G03*
X1056496Y1489173I-31497J114173D01*
G75*
G01*
X993504Y1489173D02*
G03*
X993504Y1260827I31494J-114173D01*
G75*
G01*
X1943504Y-1335827D02*
G03*
X1943504Y-1564173I31497J-114173D01*
G75*
G01*
X2006496Y-1564173D02*
G03*
X2006496Y-1335827I-31494J114173D01*
G75*
G01*
X3143504Y-1335827D02*
G03*
X3143504Y-1564173I31497J-114173D01*
G75*
G01*
X3206496Y-1564173D02*
G03*
X3206496Y-1335827I-31494J114173D01*
M02*
