M48
INCH,LZ
;FILE_FORMAT=2:4
;TYPE=PLATED
;Layer: Drill PTH
;EasyEDA v6.4.17, 2021-03-06T13:06:27--8:00
;8048d1b9ce964284ad8fe1d85055880a,b5aacd518854429a9b9924e8a25dcfd8,10
;Gerber Generator version 0.2
;Holesize 1 = 0.0120 inch
T01C0.0120
;Holesize 2 = 0.0390 inch
T02C0.0390
;Holesize 3 = 0.0470 inch
T03C0.0470
%
G05
G90
T01
X023500Y-013000
X023500Y-011500
X020000Y-006000
X020000Y-007500
X020000Y-007500
X014500Y012000
X013500Y011000
X013000Y-007250
X016000Y-007500
X015000Y-007500
X011000Y-006000
X012000Y-006000
X004750Y-014750
X005750Y-016750
X006750Y-018750
X006750Y-020000
X005750Y-020000
X004750Y-018500
X000750Y-014000
X000750Y-015000
X000750Y-016000
X000750Y-017000
X000750Y-006500
X000750Y-007500
X000750Y-008500
X000750Y-009500
X000750Y006500
X000750Y007500
X000750Y008500
X000750Y009500
X000750Y017000
X000750Y016000
X000750Y015000
X000750Y014000
X036250Y011250
X034750Y012750
X011000Y-013000
X014500Y-010500
X009500Y-010750
X010250Y-015250
X028250Y-011750
X010100Y-013000
X014900Y-017100
X006500Y-011200
T02
X003252Y-000388G85X003252Y000400
T03
X028500Y003500
X028500Y004500
X027500Y003500
X027500Y004500
X026500Y003500
X026500Y004500
X025500Y003500
X025500Y004500
X024500Y003500
X024500Y004500
X023500Y003500
X023500Y004500
X022500Y003500
X022500Y004500
X021500Y003500
X021500Y004500
X020500Y003500
X020500Y004500
X019500Y003500
X019500Y004500
X018500Y003500
X018500Y004500
X017500Y003500
X017500Y004500
X016500Y003500
X016500Y004500
X015500Y003500
X015500Y004500
X014500Y003500
X014500Y004500
X013500Y003500
X013500Y004500
X012500Y003500
X012500Y004500
X011500Y003500
X011500Y004500
X010500Y003500
X010500Y004500
X009500Y003500
X009500Y004500
X028500Y-004500
X028500Y-003500
X027500Y-004500
X027500Y-003500
X026500Y-004500
X026500Y-003500
X025500Y-004500
X025500Y-003500
X024500Y-004500
X024500Y-003500
X023500Y-004500
X023500Y-003500
X022500Y-004500
X022500Y-003500
X021500Y-004500
X021500Y-003500
X020500Y-004500
X020500Y-003500
X019500Y-004500
X019500Y-003500
X018500Y-004500
X018500Y-003500
X017500Y-004500
X017500Y-003500
X016500Y-004500
X016500Y-003500
X015500Y-004500
X015500Y-003500
X014500Y-004500
X014500Y-003500
X013500Y-004500
X013500Y-003500
X012500Y-004500
X012500Y-003500
X011500Y-004500
X011500Y-003500
X010500Y-004500
X010500Y-003500
X009500Y-004500
X009500Y-003500
X039000Y009500
X038000Y009500
X039000Y008500
X038000Y008500
X039000Y007500
X038000Y007500
X039000Y006500
X038000Y006500
X039000Y005500
X038000Y005500
X039000Y004500
X038000Y004500
X039000Y003500
X038000Y003500
X039000Y002500
X038000Y002500
X039000Y001500
X038000Y001500
X039000Y000500
X038000Y000500
X039000Y-000500
X038000Y-000500
X039000Y-001500
X038000Y-001500
X039000Y-002500
X038000Y-002500
X039000Y-003500
X038000Y-003500
X039000Y-004500
X038000Y-004500
X039000Y-005500
X038000Y-005500
X039000Y-006500
X038000Y-006500
X039000Y-007500
X038000Y-007500
X039000Y-008500
X038000Y-008500
X039000Y-009500
X038000Y-009500
X004157Y-001884G85X004866Y-001884
X005732Y000380G85X005732Y000498
X004750Y-021250
X005750Y-021250
X006750Y-021250
X007750Y-021250
M30
