G04 Layer: BottomSilkLayer*
G04 EasyEDA v6.4.17, 2021-03-07T15:12:51--8:00*
G04 6c535f378de342b990020bc8b1c8526d,b5aacd518854429a9b9924e8a25dcfd8,10*
G04 Gerber Generator version 0.2*
G04 Scale: 100 percent, Rotated: No, Reflected: No *
G04 Dimensions in inches *
G04 leading zeros omitted , absolute positions ,3 integer and 6 decimal *
%FSLAX36Y36*%
%MOIN*%

%ADD10C,0.0100*%
%ADD25C,0.0060*%
%ADD29C,0.0059*%

%LPD*%
D25*
X460399Y705500D02*
G01*
X427699Y705500D01*
X421499Y703400D01*
X419499Y701400D01*
X417500Y697300D01*
X417500Y693200D01*
X419499Y689100D01*
X421499Y687000D01*
X427699Y685000D01*
X431799Y685000D01*
X460399Y743500D02*
G01*
X460399Y723000D01*
X441999Y721000D01*
X443999Y723000D01*
X446099Y729200D01*
X446099Y735300D01*
X443999Y741500D01*
X440000Y745500D01*
X433799Y747600D01*
X429699Y747600D01*
X423599Y745500D01*
X419499Y741500D01*
X417500Y735300D01*
X417500Y729200D01*
X419499Y723000D01*
X421499Y721000D01*
X425599Y719000D01*
D29*
X323999Y708200D02*
G01*
X302500Y708200D01*
X318599Y699300D02*
G01*
X307899Y717100D01*
X318599Y717100D02*
G01*
X307899Y699300D01*
D25*
X529343Y581834D02*
G01*
X529343Y538934D01*
X529343Y581834D02*
G01*
X510943Y581834D01*
X504843Y579834D01*
X502743Y577734D01*
X500743Y573634D01*
X500743Y569534D01*
X502743Y565434D01*
X504843Y563434D01*
X510943Y561434D01*
X529343Y561434D01*
X515043Y561434D02*
G01*
X500743Y538934D01*
X458543Y581834D02*
G01*
X479043Y538934D01*
X487243Y581834D02*
G01*
X458543Y581834D01*
X339959Y1855360D02*
G01*
X339959Y1812460D01*
X339959Y1855360D02*
G01*
X321559Y1855360D01*
X315459Y1853360D01*
X313359Y1851359D01*
X311359Y1847260D01*
X311359Y1843160D01*
X313359Y1839060D01*
X315459Y1836960D01*
X321559Y1834960D01*
X339959Y1834960D01*
X325659Y1834960D02*
G01*
X311359Y1812460D01*
X297859Y1847260D02*
G01*
X293759Y1849260D01*
X287659Y1855360D01*
X287659Y1812460D01*
X1894979Y2605449D02*
G01*
X1894979Y2562495D01*
X1894979Y2605449D02*
G01*
X1876570Y2605449D01*
X1870434Y2603404D01*
X1868388Y2601358D01*
X1866343Y2597267D01*
X1866343Y2593176D01*
X1868388Y2589085D01*
X1870434Y2587040D01*
X1876570Y2584995D01*
X1894979Y2584995D01*
X1880662Y2584995D02*
G01*
X1866343Y2562495D01*
X1848752Y2605449D02*
G01*
X1826252Y2605449D01*
X1838524Y2589085D01*
X1832388Y2589085D01*
X1828297Y2587040D01*
X1826252Y2584995D01*
X1824206Y2578858D01*
X1824206Y2574767D01*
X1826252Y2568631D01*
X1830343Y2564540D01*
X1836480Y2562495D01*
X1842615Y2562495D01*
X1848752Y2564540D01*
X1850797Y2566585D01*
X1852843Y2570676D01*
X1634994Y2610410D02*
G01*
X1634994Y2567456D01*
X1634994Y2610410D02*
G01*
X1616585Y2610410D01*
X1610450Y2608365D01*
X1608404Y2606319D01*
X1606359Y2602228D01*
X1606359Y2598137D01*
X1608404Y2594046D01*
X1610450Y2592001D01*
X1616585Y2589956D01*
X1634994Y2589956D01*
X1620676Y2589956D02*
G01*
X1606359Y2567456D01*
X1572403Y2610410D02*
G01*
X1592858Y2581774D01*
X1562177Y2581774D01*
X1572403Y2610410D02*
G01*
X1572403Y2567456D01*
X1934994Y2425410D02*
G01*
X1934994Y2382456D01*
X1934994Y2425410D02*
G01*
X1916585Y2425410D01*
X1910450Y2423365D01*
X1908404Y2421319D01*
X1906359Y2417228D01*
X1906359Y2413137D01*
X1908404Y2409046D01*
X1910450Y2407001D01*
X1916585Y2404956D01*
X1934994Y2404956D01*
X1920676Y2404956D02*
G01*
X1906359Y2382456D01*
X1868312Y2425410D02*
G01*
X1888768Y2425410D01*
X1890812Y2407001D01*
X1888768Y2409046D01*
X1882631Y2411092D01*
X1876494Y2411092D01*
X1870358Y2409046D01*
X1866268Y2404956D01*
X1864221Y2398819D01*
X1864221Y2394728D01*
X1866268Y2388592D01*
X1870358Y2384501D01*
X1876494Y2382456D01*
X1882631Y2382456D01*
X1888768Y2384501D01*
X1890812Y2386546D01*
X1892858Y2390637D01*
X1629994Y2425410D02*
G01*
X1629994Y2382456D01*
X1629994Y2425410D02*
G01*
X1611585Y2425410D01*
X1605450Y2423365D01*
X1603404Y2421319D01*
X1601359Y2417228D01*
X1601359Y2413137D01*
X1603404Y2409046D01*
X1605450Y2407001D01*
X1611585Y2404956D01*
X1629994Y2404956D01*
X1615676Y2404956D02*
G01*
X1601359Y2382456D01*
X1563312Y2419274D02*
G01*
X1565358Y2423365D01*
X1571494Y2425410D01*
X1575585Y2425410D01*
X1581721Y2423365D01*
X1585812Y2417228D01*
X1587858Y2407001D01*
X1587858Y2396774D01*
X1585812Y2388592D01*
X1581721Y2384501D01*
X1575585Y2382456D01*
X1573539Y2382456D01*
X1567403Y2384501D01*
X1563312Y2388592D01*
X1561268Y2394728D01*
X1561268Y2396774D01*
X1563312Y2402910D01*
X1567403Y2407001D01*
X1573539Y2409046D01*
X1575585Y2409046D01*
X1581721Y2407001D01*
X1585812Y2402910D01*
X1587858Y2396774D01*
X521445Y1326073D02*
G01*
X521445Y1283119D01*
X521445Y1326073D02*
G01*
X503036Y1326073D01*
X496900Y1324028D01*
X494854Y1321982D01*
X492809Y1317890D01*
X492809Y1313800D01*
X494854Y1309709D01*
X496900Y1307663D01*
X503036Y1305619D01*
X521445Y1305619D01*
X507127Y1305619D02*
G01*
X492809Y1283119D01*
X477263Y1315846D02*
G01*
X477263Y1317890D01*
X475218Y1321982D01*
X473172Y1324028D01*
X469081Y1326073D01*
X460900Y1326073D01*
X456809Y1324028D01*
X454763Y1321982D01*
X452718Y1317890D01*
X452718Y1313800D01*
X454763Y1309709D01*
X458854Y1303573D01*
X479309Y1283119D01*
X450672Y1283119D01*
X1544803Y1564303D02*
G01*
X1540703Y1566403D01*
X1536603Y1570503D01*
X1534603Y1574502D01*
X1534603Y1582703D01*
X1536603Y1586803D01*
X1540703Y1590903D01*
X1544803Y1593003D01*
X1551003Y1595003D01*
X1561203Y1595003D01*
X1567303Y1593003D01*
X1571404Y1590903D01*
X1575504Y1586803D01*
X1577503Y1582703D01*
X1577503Y1574502D01*
X1575504Y1570503D01*
X1571404Y1566403D01*
X1567303Y1564303D01*
X1534603Y1550803D02*
G01*
X1577503Y1550803D01*
X1534603Y1550803D02*
G01*
X1577503Y1522203D01*
X1534603Y1522203D02*
G01*
X1577503Y1522203D01*
X1542803Y1508703D02*
G01*
X1540703Y1504603D01*
X1534603Y1498503D01*
X1577503Y1498503D01*
X450396Y2225499D02*
G01*
X417696Y2225499D01*
X411496Y2223399D01*
X409496Y2221399D01*
X407496Y2217299D01*
X407496Y2213198D01*
X409496Y2209099D01*
X411496Y2206999D01*
X417696Y2204999D01*
X421796Y2204999D01*
X450396Y2242999D02*
G01*
X450396Y2265499D01*
X433996Y2253299D01*
X433996Y2259399D01*
X431996Y2263499D01*
X429996Y2265499D01*
X423796Y2267599D01*
X419696Y2267599D01*
X413596Y2265499D01*
X409496Y2261499D01*
X407496Y2255299D01*
X407496Y2249199D01*
X409496Y2242999D01*
X411496Y2240999D01*
X415596Y2238999D01*
X293724Y242535D02*
G01*
X293724Y209808D01*
X295770Y203671D01*
X297815Y201626D01*
X301906Y199581D01*
X305997Y199581D01*
X310088Y201626D01*
X312134Y203671D01*
X314179Y209808D01*
X314179Y213899D01*
X280224Y234353D02*
G01*
X276134Y236399D01*
X269997Y242535D01*
X269997Y199581D01*
X1129544Y245407D02*
G01*
X1129544Y212680D01*
X1131590Y206543D01*
X1133635Y204498D01*
X1137726Y202453D01*
X1141817Y202453D01*
X1145909Y204498D01*
X1147955Y206543D01*
X1150000Y212680D01*
X1150000Y216771D01*
X1113999Y235180D02*
G01*
X1113999Y237225D01*
X1111954Y241316D01*
X1109908Y243362D01*
X1105817Y245407D01*
X1097636Y245407D01*
X1093544Y243362D01*
X1091499Y241316D01*
X1089454Y237225D01*
X1089454Y233134D01*
X1091499Y229043D01*
X1095590Y222907D01*
X1116044Y202453D01*
X1087408Y202453D01*
X460399Y1445500D02*
G01*
X427699Y1445500D01*
X421499Y1443400D01*
X419499Y1441400D01*
X417500Y1437300D01*
X417500Y1433200D01*
X419499Y1429100D01*
X421499Y1427000D01*
X427699Y1425000D01*
X431799Y1425000D01*
X460399Y1479400D02*
G01*
X431799Y1459000D01*
X431799Y1489600D01*
X460399Y1479400D02*
G01*
X417500Y1479400D01*
D29*
X323999Y1448200D02*
G01*
X302500Y1448200D01*
X318599Y1439300D02*
G01*
X307899Y1457100D01*
X318599Y1457100D02*
G01*
X307899Y1439300D01*
G36*
X1957760Y1617440D02*
G01*
X1922720Y1599540D01*
X1957760Y1581620D01*
G37*
G36*
X378860Y2057840D02*
G01*
X323740Y2034220D01*
X378860Y2010600D01*
G37*
D25*
X398499Y936020D02*
G01*
X398499Y493980D01*
X191499Y800810D02*
G01*
X191499Y826040D01*
X191499Y603960D02*
G01*
X191499Y629190D01*
X191499Y702390D02*
G01*
X191499Y727609D01*
D10*
X525155Y435315D02*
G01*
X525155Y386102D01*
X444843Y435315D02*
G01*
X444843Y386102D01*
X525155Y474685D02*
G01*
X525155Y523898D01*
X444843Y474685D02*
G01*
X444843Y523898D01*
X525155Y386101D02*
G01*
X444843Y386102D01*
X525155Y523898D02*
G01*
X444843Y523898D01*
X155314Y1794844D02*
G01*
X106101Y1794844D01*
X155314Y1875156D02*
G01*
X106101Y1875156D01*
X194684Y1794844D02*
G01*
X243897Y1794844D01*
X194684Y1875156D02*
G01*
X243897Y1875156D01*
X106100Y1794844D02*
G01*
X106101Y1875156D01*
X243897Y1794844D02*
G01*
X243897Y1875156D01*
X1845315Y2464844D02*
G01*
X1796102Y2464844D01*
X1845315Y2545156D02*
G01*
X1796102Y2545156D01*
X1884684Y2464844D02*
G01*
X1933897Y2464844D01*
X1884684Y2545156D02*
G01*
X1933897Y2545156D01*
X1796100Y2464844D02*
G01*
X1796102Y2545156D01*
X1933897Y2464844D02*
G01*
X1933897Y2545156D01*
X1660315Y2469844D02*
G01*
X1611102Y2469844D01*
X1660315Y2550156D02*
G01*
X1611102Y2550156D01*
X1699684Y2469844D02*
G01*
X1748897Y2469844D01*
X1699684Y2550156D02*
G01*
X1748897Y2550156D01*
X1611100Y2469844D02*
G01*
X1611102Y2550156D01*
X1748897Y2469844D02*
G01*
X1748897Y2550156D01*
X1845315Y2289844D02*
G01*
X1796102Y2289844D01*
X1845315Y2370156D02*
G01*
X1796102Y2370156D01*
X1884684Y2289844D02*
G01*
X1933897Y2289844D01*
X1884684Y2370156D02*
G01*
X1933897Y2370156D01*
X1796100Y2289844D02*
G01*
X1796102Y2370156D01*
X1933897Y2289844D02*
G01*
X1933897Y2370156D01*
X1660315Y2284844D02*
G01*
X1611102Y2284844D01*
X1660315Y2365156D02*
G01*
X1611102Y2365156D01*
X1699684Y2284844D02*
G01*
X1748897Y2284844D01*
X1699684Y2365156D02*
G01*
X1748897Y2365156D01*
X1611100Y2284844D02*
G01*
X1611102Y2365156D01*
X1748897Y2284844D02*
G01*
X1748897Y2365156D01*
X520155Y1175315D02*
G01*
X520155Y1126102D01*
X439843Y1175315D02*
G01*
X439843Y1126102D01*
X520155Y1214685D02*
G01*
X520155Y1263898D01*
X439843Y1214685D02*
G01*
X439843Y1263898D01*
X520155Y1126101D02*
G01*
X439843Y1126102D01*
X520155Y1263898D02*
G01*
X439843Y1263898D01*
X1632952Y2063745D02*
G01*
X1632952Y2171772D01*
X1632952Y1985005D02*
G01*
X1632952Y2019955D01*
X1632952Y1906265D02*
G01*
X1632952Y1941215D01*
X1632952Y1827525D02*
G01*
X1632952Y1862475D01*
X1632952Y1748785D02*
G01*
X1632952Y1783735D01*
X1632952Y1670045D02*
G01*
X1632952Y1704995D01*
X1632952Y1518228D02*
G01*
X1632952Y1626255D01*
X1823154Y1518228D02*
G01*
X1877046Y1518228D01*
X1632952Y1518228D02*
G01*
X1686844Y1518228D01*
X1877046Y1626255D02*
G01*
X1877046Y1518228D01*
X1877046Y1704995D02*
G01*
X1877046Y1670045D01*
X1877046Y1783735D02*
G01*
X1877046Y1748785D01*
X1877046Y1862475D02*
G01*
X1877046Y1827525D01*
X1877046Y1941215D02*
G01*
X1877046Y1906265D01*
X1877046Y2019955D02*
G01*
X1877046Y1985005D01*
X1877046Y2171772D02*
G01*
X1877046Y2063745D01*
X1823154Y2171772D02*
G01*
X1877046Y2171772D01*
X1632952Y2171772D02*
G01*
X1686844Y2171772D01*
X389684Y2549961D02*
G01*
X389683Y1920039D01*
X389684Y2549961D02*
G01*
X357445Y2549961D01*
X221134Y2549961D02*
G01*
X184959Y2549961D01*
X389683Y1920039D02*
G01*
X357445Y1920039D01*
X221134Y1920039D02*
G01*
X184959Y1920039D01*
X184959Y2549961D02*
G01*
X184959Y2460635D01*
X184959Y2403065D02*
G01*
X184959Y2381895D01*
X184959Y2324325D02*
G01*
X184959Y2303155D01*
X184959Y2245585D02*
G01*
X184959Y2224415D01*
X184959Y2166845D02*
G01*
X184959Y2145675D01*
X184959Y2088105D02*
G01*
X184959Y2066935D01*
X184959Y2009365D02*
G01*
X184959Y1920039D01*
X889371Y629D02*
G01*
X889371Y83779D01*
X889371Y630D02*
G01*
X920000Y630D01*
X889371Y83779D02*
G01*
X405599Y83800D01*
X405589Y629D01*
X374408Y629D01*
X340077Y81260D02*
G01*
X340000Y240000D01*
X877763Y240000D02*
G01*
X957402Y240000D01*
X957402Y81260D01*
X818707Y240000D02*
G01*
X832002Y240000D01*
X759652Y240000D02*
G01*
X772948Y240000D01*
X700598Y240000D02*
G01*
X713894Y240000D01*
X641543Y240000D02*
G01*
X654839Y240000D01*
X582487Y240000D02*
G01*
X595783Y240000D01*
X523433Y240000D02*
G01*
X536725Y240000D01*
X464376Y240000D02*
G01*
X477670Y240000D01*
X340000Y240000D02*
G01*
X418617Y240000D01*
X1536260Y249920D02*
G01*
X1541298Y249920D01*
X1476180Y250000D02*
G01*
X1481219Y250000D01*
X1417911Y249843D02*
G01*
X1422950Y249843D01*
X1358267Y250000D02*
G01*
X1363306Y250000D01*
X1299054Y250000D02*
G01*
X1304093Y250000D01*
X1168031Y96299D02*
G01*
X1168031Y250000D01*
X1168031Y250000D02*
G01*
X1246140Y250000D01*
X1593859Y250000D02*
G01*
X1671968Y250000D01*
X1671968Y96299D01*
X1236062Y96299D02*
G01*
X1236053Y10611D01*
X1205825Y10629D01*
X1602164Y94724D02*
G01*
X1236062Y96299D01*
X1602164Y11575D02*
G01*
X1602164Y94724D01*
X1602164Y11575D02*
G01*
X1632794Y11575D01*
D25*
X398499Y1676020D02*
G01*
X398499Y1233980D01*
X191499Y1540810D02*
G01*
X191499Y1566040D01*
X191499Y1343960D02*
G01*
X191499Y1369190D01*
X191499Y1442390D02*
G01*
X191499Y1467609D01*
D10*
G75*
G01
X901485Y260159D02*
G03X901485Y260159I-7070J0D01*
G75*
G01
X1614285Y271109D02*
G03X1614285Y271109I-7070J0D01*
M02*
