G04 Layer: BottomPasteMaskLayer*
G04 EasyEDA v6.4.17, 2021-03-07T15:12:51--8:00*
G04 6c535f378de342b990020bc8b1c8526d,b5aacd518854429a9b9924e8a25dcfd8,10*
G04 Gerber Generator version 0.2*
G04 Scale: 100 percent, Rotated: No, Reflected: No *
G04 Dimensions in inches *
G04 leading zeros omitted , absolute positions ,3 integer and 6 decimal *
%FSLAX36Y36*%
%MOIN*%

%ADD10C,0.0001*%

%LPD*%
G36*
X275279Y543859D02*
G01*
X275279Y590860D01*
X102279Y590860D01*
X102279Y543859D01*
G37*
G36*
X275279Y642290D02*
G01*
X275279Y689290D01*
X102279Y689290D01*
X102279Y642290D01*
G37*
G36*
X275279Y740710D02*
G01*
X275279Y787710D01*
X102279Y787710D01*
X102279Y740710D01*
G37*
G36*
X275279Y839140D02*
G01*
X275279Y886140D01*
X102279Y886140D01*
X102279Y839140D01*
G37*
G36*
X397279Y393940D02*
G01*
X397279Y480940D01*
X177279Y480940D01*
X177279Y393940D01*
G37*
G36*
X397279Y949060D02*
G01*
X397279Y1036060D01*
X177279Y1036060D01*
X177279Y949060D01*
G37*
G36*
X515511Y474685D02*
G01*
X515511Y514055D01*
X454488Y514055D01*
X454488Y474685D01*
G37*
G36*
X515511Y395945D02*
G01*
X515511Y435315D01*
X454488Y435315D01*
X454488Y395945D01*
G37*
G36*
X194685Y1804488D02*
G01*
X234054Y1804488D01*
X234054Y1865512D01*
X194685Y1865512D01*
G37*
G36*
X115944Y1804488D02*
G01*
X155314Y1804488D01*
X155314Y1865512D01*
X115944Y1865512D01*
G37*
G36*
X1884684Y2474488D02*
G01*
X1924054Y2474488D01*
X1924054Y2535512D01*
X1884684Y2535512D01*
G37*
G36*
X1805945Y2474488D02*
G01*
X1845315Y2474488D01*
X1845315Y2535512D01*
X1805945Y2535512D01*
G37*
G36*
X1699684Y2479488D02*
G01*
X1739054Y2479488D01*
X1739054Y2540512D01*
X1699684Y2540512D01*
G37*
G36*
X1620945Y2479488D02*
G01*
X1660315Y2479488D01*
X1660315Y2540512D01*
X1620945Y2540512D01*
G37*
G36*
X1884684Y2299488D02*
G01*
X1924054Y2299488D01*
X1924054Y2360512D01*
X1884684Y2360512D01*
G37*
G36*
X1805945Y2299488D02*
G01*
X1845315Y2299488D01*
X1845315Y2360512D01*
X1805945Y2360512D01*
G37*
G36*
X1699684Y2294488D02*
G01*
X1739054Y2294488D01*
X1739054Y2355512D01*
X1699684Y2355512D01*
G37*
G36*
X1620945Y2294488D02*
G01*
X1660315Y2294488D01*
X1660315Y2355512D01*
X1620945Y2355512D01*
G37*
G36*
X510511Y1214685D02*
G01*
X510511Y1254055D01*
X449488Y1254055D01*
X449488Y1214685D01*
G37*
G36*
X510511Y1135945D02*
G01*
X510511Y1175315D01*
X449488Y1175315D01*
X449488Y1135945D01*
G37*
G36*
X1967599Y1660945D02*
G01*
X1877047Y1660945D01*
X1877047Y1635354D01*
X1967599Y1635354D01*
G37*
G36*
X1632951Y1660945D02*
G01*
X1542399Y1660945D01*
X1542399Y1635354D01*
X1632951Y1635354D01*
G37*
G36*
X1967599Y1739685D02*
G01*
X1877046Y1739685D01*
X1877046Y1714095D01*
X1967599Y1714095D01*
G37*
G36*
X1632951Y1739685D02*
G01*
X1542399Y1739685D01*
X1542399Y1714095D01*
X1632951Y1714095D01*
G37*
G36*
X1967599Y1818424D02*
G01*
X1877046Y1818424D01*
X1877046Y1792835D01*
X1967599Y1792835D01*
G37*
G36*
X1632951Y1818424D02*
G01*
X1542399Y1818424D01*
X1542399Y1792835D01*
X1632951Y1792835D01*
G37*
G36*
X1967599Y1897165D02*
G01*
X1877046Y1897165D01*
X1877046Y1871575D01*
X1967599Y1871575D01*
G37*
G36*
X1632951Y1897165D02*
G01*
X1542399Y1897165D01*
X1542399Y1871575D01*
X1632951Y1871575D01*
G37*
G36*
X1967599Y1975905D02*
G01*
X1877046Y1975905D01*
X1877046Y1950315D01*
X1967599Y1950315D01*
G37*
G36*
X1632951Y1975905D02*
G01*
X1542399Y1975905D01*
X1542399Y1950315D01*
X1632951Y1950315D01*
G37*
G36*
X1967599Y2054645D02*
G01*
X1877046Y2054645D01*
X1877046Y2029055D01*
X1967599Y2029055D01*
G37*
G36*
X1632951Y2054645D02*
G01*
X1542399Y2054645D01*
X1542399Y2029055D01*
X1632951Y2029055D01*
G37*
G36*
X1814054Y2238701D02*
G01*
X1695945Y2238701D01*
X1695945Y2159961D01*
X1814054Y2159961D01*
G37*
G36*
X1814054Y1530039D02*
G01*
X1695945Y1530039D01*
X1695945Y1451299D01*
X1814054Y1451299D01*
G37*
G36*
X92439Y2057835D02*
G01*
X92439Y2018465D01*
X308975Y2018465D01*
X308975Y2057835D01*
G37*
G36*
X92439Y2136575D02*
G01*
X92439Y2097205D01*
X308975Y2097205D01*
X308975Y2136575D01*
G37*
G36*
X92439Y2215315D02*
G01*
X92439Y2175945D01*
X308975Y2175945D01*
X308975Y2215315D01*
G37*
G36*
X92439Y2294055D02*
G01*
X92439Y2254685D01*
X308975Y2254685D01*
X308975Y2294055D01*
G37*
G36*
X92439Y2372795D02*
G01*
X92439Y2333424D01*
X308975Y2333424D01*
X308975Y2372795D01*
G37*
G36*
X92439Y2451535D02*
G01*
X92439Y2412165D01*
X308975Y2412165D01*
X308975Y2451535D01*
G37*
G36*
X226298Y2561772D02*
G01*
X226298Y2490906D01*
X352283Y2490906D01*
X352283Y2561772D01*
G37*
G36*
X226298Y1979094D02*
G01*
X226298Y1908228D01*
X352283Y1908228D01*
X352283Y1979094D01*
G37*
G36*
X841102Y218346D02*
G01*
X868662Y218346D01*
X868662Y261654D01*
X841102Y261654D01*
G37*
G36*
X782047Y218346D02*
G01*
X809607Y218346D01*
X809607Y261654D01*
X782047Y261654D01*
G37*
G36*
X663937Y218346D02*
G01*
X691498Y218346D01*
X691498Y261654D01*
X663937Y261654D01*
G37*
G36*
X722992Y218346D02*
G01*
X750552Y218346D01*
X750552Y261654D01*
X722992Y261654D01*
G37*
G36*
X604882Y218346D02*
G01*
X632442Y218346D01*
X632442Y261654D01*
X604882Y261654D01*
G37*
G36*
X545826Y218346D02*
G01*
X573386Y218346D01*
X573386Y261654D01*
X545826Y261654D01*
G37*
G36*
X486771Y218346D02*
G01*
X514331Y218346D01*
X514331Y261654D01*
X486771Y261654D01*
G37*
G36*
X427716Y218346D02*
G01*
X455276Y218346D01*
X455276Y261654D01*
X427716Y261654D01*
G37*
G36*
X931141Y-2442D02*
G01*
X982323Y-2442D01*
X982323Y72362D01*
X931141Y72362D01*
G37*
G36*
X314056Y-2442D02*
G01*
X365237Y-2442D01*
X365237Y72362D01*
X314056Y72362D01*
G37*
G36*
X1551926Y227323D02*
G01*
X1583422Y227323D01*
X1583422Y274567D01*
X1551926Y274567D01*
G37*
G36*
X1492876Y227323D02*
G01*
X1524372Y227323D01*
X1524372Y274567D01*
X1492876Y274567D01*
G37*
G36*
X1374767Y227323D02*
G01*
X1406262Y227323D01*
X1406262Y274567D01*
X1374767Y274567D01*
G37*
G36*
X1433816Y226928D02*
G01*
X1465312Y226928D01*
X1465312Y274961D01*
X1433816Y274961D01*
G37*
G36*
X1315707Y227323D02*
G01*
X1347202Y227323D01*
X1347202Y274567D01*
X1315707Y274567D01*
G37*
G36*
X1256656Y227323D02*
G01*
X1288153Y227323D01*
X1288153Y274567D01*
X1256656Y274567D01*
G37*
G36*
X1642992Y4566D02*
G01*
X1705985Y4566D01*
X1705985Y87244D01*
X1642992Y87244D01*
G37*
G36*
X1132597Y4566D02*
G01*
X1195590Y4566D01*
X1195590Y87244D01*
X1132597Y87244D01*
G37*
G36*
X275279Y1283859D02*
G01*
X275279Y1330860D01*
X102279Y1330860D01*
X102279Y1283859D01*
G37*
G36*
X275279Y1382290D02*
G01*
X275279Y1429290D01*
X102279Y1429290D01*
X102279Y1382290D01*
G37*
G36*
X275279Y1480710D02*
G01*
X275279Y1527710D01*
X102279Y1527710D01*
X102279Y1480710D01*
G37*
G36*
X275279Y1579140D02*
G01*
X275279Y1626140D01*
X102279Y1626140D01*
X102279Y1579140D01*
G37*
G36*
X397279Y1133940D02*
G01*
X397279Y1220940D01*
X177279Y1220940D01*
X177279Y1133940D01*
G37*
G36*
X397279Y1689060D02*
G01*
X397279Y1776060D01*
X177279Y1776060D01*
X177279Y1689060D01*
G37*
M02*
