M48
INCH,LZ
;FILE_FORMAT=2:4
;TYPE=PLATED
;Layer: Drill PTH
;EasyEDA v6.4.17, 2021-03-07T15:12:51--8:00
;6c535f378de342b990020bc8b1c8526d,b5aacd518854429a9b9924e8a25dcfd8,10
;Gerber Generator version 0.2
;Holesize 1 = 0.0120 inch
T01C0.0120
;Holesize 2 = 0.0430 inch
T02C0.0430
;Holesize 3 = 0.0510 inch
T03C0.0510
%
G05
G90
T01
X015800Y015700
X004415Y001700
X012800Y003200
X013200Y003600
X016700Y011800
X003250Y022750
X006750Y002900
X003200Y021150
X006150Y002900
X003200Y020400
X005600Y002900
X004100Y013100
X005000Y003000
X014300Y000900
X003400Y023550
X015700Y003150
X002650Y018350
X002800Y014450
X001650Y023150
X001550Y016500
X019050Y024400
X016550Y019750
X019050Y022800
X017000Y019350
X017150Y024300
X013650Y004100
X016850Y022700
X014200Y004250
X019223Y019631
X016500Y014700
X015450Y006450
T02
X010500Y022555
X011500Y022555
X009500Y022555
X010500Y012555
X011500Y012555
X009500Y012555
T03
X006000Y024000
X015000Y024000
X015000Y029984
X006000Y029984
X006000Y014000
X015000Y014000
X015000Y019984
X006000Y019984
M30
