G04 Layer: TopSilkLayer*
G04 EasyEDA v6.4.17, 2021-03-07T15:12:51--8:00*
G04 6c535f378de342b990020bc8b1c8526d,b5aacd518854429a9b9924e8a25dcfd8,10*
G04 Gerber Generator version 0.2*
G04 Scale: 100 percent, Rotated: No, Reflected: No *
G04 Dimensions in inches *
G04 leading zeros omitted , absolute positions ,3 integer and 6 decimal *
%FSLAX36Y36*%
%MOIN*%

%ADD10C,0.0100*%
%ADD25C,0.0060*%
%ADD26C,0.0120*%
%ADD27C,0.0040*%
%ADD28C,0.0080*%

%LPD*%
D26*
X352749Y721460D02*
G01*
X352749Y683260D01*
X352749Y713260D02*
G01*
X347249Y718760D01*
X341849Y721460D01*
X333649Y721460D01*
X328149Y718760D01*
X322749Y713260D01*
X319949Y705060D01*
X319949Y699660D01*
X322749Y691460D01*
X328149Y685960D01*
X333649Y683260D01*
X341849Y683260D01*
X347249Y685960D01*
X352749Y691460D01*
X370749Y721460D02*
G01*
X370749Y683260D01*
X370749Y710560D02*
G01*
X378949Y718760D01*
X384349Y721460D01*
X392549Y721460D01*
X397949Y718760D01*
X400749Y710560D01*
X400749Y683260D01*
X451449Y740560D02*
G01*
X451449Y683260D01*
X451449Y713260D02*
G01*
X445949Y718760D01*
X440549Y721460D01*
X432349Y721460D01*
X426949Y718760D01*
X421449Y713260D01*
X418750Y705060D01*
X418750Y699660D01*
X421449Y691460D01*
X426949Y685960D01*
X432349Y683260D01*
X440549Y683260D01*
X445949Y685960D01*
X451449Y691460D01*
X552349Y726960D02*
G01*
X549649Y732360D01*
X544149Y737860D01*
X538750Y740560D01*
X527849Y740560D01*
X522349Y737860D01*
X516949Y732360D01*
X514149Y726960D01*
X511449Y718760D01*
X511449Y705060D01*
X514149Y696960D01*
X516949Y691460D01*
X522349Y685960D01*
X527849Y683260D01*
X538750Y683260D01*
X544149Y685960D01*
X549649Y691460D01*
X552349Y696960D01*
X552349Y705060D01*
X538750Y705060D02*
G01*
X552349Y705060D01*
X570349Y721460D02*
G01*
X570349Y683260D01*
X570349Y705060D02*
G01*
X573049Y713260D01*
X578549Y718760D01*
X583949Y721460D01*
X592149Y721460D01*
X642950Y721460D02*
G01*
X642950Y683260D01*
X642950Y713260D02*
G01*
X637449Y718760D01*
X631949Y721460D01*
X623849Y721460D01*
X618349Y718760D01*
X612949Y713260D01*
X610149Y705060D01*
X610149Y699660D01*
X612949Y691460D01*
X618349Y685960D01*
X623849Y683260D01*
X631949Y683260D01*
X637449Y685960D01*
X642950Y691460D01*
X660949Y721460D02*
G01*
X677249Y683260D01*
X693649Y721460D02*
G01*
X677249Y683260D01*
X711649Y740560D02*
G01*
X714349Y737860D01*
X717049Y740560D01*
X714349Y743260D01*
X711649Y740560D01*
X714349Y721460D02*
G01*
X714349Y683260D01*
X743249Y740560D02*
G01*
X743249Y694160D01*
X745949Y685960D01*
X751449Y683260D01*
X756949Y683260D01*
X735050Y721460D02*
G01*
X754149Y721460D01*
X777649Y721460D02*
G01*
X793949Y683260D01*
X810349Y721460D02*
G01*
X793949Y683260D01*
X788549Y672360D01*
X783049Y666960D01*
X777649Y664160D01*
X774949Y664160D01*
X870349Y740560D02*
G01*
X870349Y683260D01*
X870349Y740560D02*
G01*
X892150Y683260D01*
X913949Y740560D02*
G01*
X892150Y683260D01*
X913949Y740560D02*
G01*
X913949Y683260D01*
X964749Y721460D02*
G01*
X964749Y683260D01*
X964749Y713260D02*
G01*
X959250Y718760D01*
X953850Y721460D01*
X945649Y721460D01*
X940149Y718760D01*
X934749Y713260D01*
X931949Y705060D01*
X931949Y699660D01*
X934749Y691460D01*
X940149Y685960D01*
X945649Y683260D01*
X953850Y683260D01*
X959250Y685960D01*
X964749Y691460D01*
X1015450Y713260D02*
G01*
X1009949Y718760D01*
X1004549Y721460D01*
X996350Y721460D01*
X990949Y718760D01*
X985450Y713260D01*
X982749Y705060D01*
X982749Y699660D01*
X985450Y691460D01*
X990949Y685960D01*
X996350Y683260D01*
X1004549Y683260D01*
X1009949Y685960D01*
X1015450Y691460D01*
X1033449Y740560D02*
G01*
X1033449Y683260D01*
X1033449Y710560D02*
G01*
X1041649Y718760D01*
X1047049Y721460D01*
X1055249Y721460D01*
X1060749Y718760D01*
X1063449Y710560D01*
X1063449Y683260D01*
X1081449Y740560D02*
G01*
X1084149Y737860D01*
X1086949Y740560D01*
X1084149Y743260D01*
X1081449Y740560D01*
X1084149Y721460D02*
G01*
X1084149Y683260D01*
X1104949Y721460D02*
G01*
X1104949Y683260D01*
X1104949Y710560D02*
G01*
X1113049Y718760D01*
X1118549Y721460D01*
X1126750Y721460D01*
X1132150Y718760D01*
X1134949Y710560D01*
X1134949Y683260D01*
X1152950Y705060D02*
G01*
X1185649Y705060D01*
X1185649Y710560D01*
X1182950Y715960D01*
X1180149Y718760D01*
X1174749Y721460D01*
X1166549Y721460D01*
X1161049Y718760D01*
X1155649Y713260D01*
X1152950Y705060D01*
X1152950Y699660D01*
X1155649Y691460D01*
X1161049Y685960D01*
X1166549Y683260D01*
X1174749Y683260D01*
X1180149Y685960D01*
X1185649Y691460D01*
D25*
X933762Y2102256D02*
G01*
X930063Y2100456D01*
X926462Y2096856D01*
X924663Y2093156D01*
X924663Y2085956D01*
X926462Y2082256D01*
X930063Y2078656D01*
X933762Y2076856D01*
X939162Y2074956D01*
X948262Y2074956D01*
X953762Y2076856D01*
X957362Y2078656D01*
X960963Y2082256D01*
X962762Y2085956D01*
X962762Y2093156D01*
X960963Y2096856D01*
X957362Y2100456D01*
X953762Y2102256D01*
X948262Y2102256D01*
X948262Y2093156D02*
G01*
X948262Y2102256D01*
X924663Y2114256D02*
G01*
X962762Y2114256D01*
X924663Y2114256D02*
G01*
X962762Y2139756D01*
X924663Y2139756D02*
G01*
X962762Y2139756D01*
X924663Y2151756D02*
G01*
X962762Y2151756D01*
X924663Y2151756D02*
G01*
X924663Y2164456D01*
X926462Y2169956D01*
X930063Y2173556D01*
X933762Y2175356D01*
X939162Y2177156D01*
X948262Y2177156D01*
X953762Y2175356D01*
X957362Y2173556D01*
X960963Y2169956D01*
X962762Y2164456D01*
X962762Y2151756D01*
X1019663Y2090956D02*
G01*
X1021462Y2087256D01*
X1025063Y2083656D01*
X1028762Y2081856D01*
X1034162Y2079956D01*
X1043262Y2079956D01*
X1048762Y2081856D01*
X1052362Y2083656D01*
X1055963Y2087256D01*
X1057762Y2090956D01*
X1057762Y2098156D01*
X1055963Y2101856D01*
X1052362Y2105456D01*
X1048762Y2107256D01*
X1043262Y2109056D01*
X1034162Y2109056D01*
X1028762Y2107256D01*
X1025063Y2105456D01*
X1021462Y2101856D01*
X1019663Y2098156D01*
X1019663Y2090956D01*
X1019663Y2121056D02*
G01*
X1046862Y2121056D01*
X1052362Y2122956D01*
X1055963Y2126556D01*
X1057762Y2131956D01*
X1057762Y2135656D01*
X1055963Y2141056D01*
X1052362Y2144756D01*
X1046862Y2146556D01*
X1019663Y2146556D01*
X1019663Y2171256D02*
G01*
X1057762Y2171256D01*
X1019663Y2158556D02*
G01*
X1019663Y2183956D01*
X1124663Y2058656D02*
G01*
X1124663Y2078656D01*
X1139162Y2067756D01*
X1139162Y2073156D01*
X1140963Y2076856D01*
X1142762Y2078656D01*
X1148262Y2080456D01*
X1151862Y2080456D01*
X1157362Y2078656D01*
X1160963Y2074956D01*
X1162762Y2069556D01*
X1162762Y2064056D01*
X1160963Y2058656D01*
X1159162Y2056856D01*
X1155563Y2054956D01*
X1153762Y2094256D02*
G01*
X1155563Y2092456D01*
X1157362Y2094256D01*
X1155563Y2096056D01*
X1153762Y2094256D01*
X1124663Y2111756D02*
G01*
X1124663Y2131756D01*
X1139162Y2120856D01*
X1139162Y2126256D01*
X1140963Y2129956D01*
X1142762Y2131756D01*
X1148262Y2133556D01*
X1151862Y2133556D01*
X1157362Y2131756D01*
X1160963Y2128056D01*
X1162762Y2122656D01*
X1162762Y2117156D01*
X1160963Y2111756D01*
X1159162Y2109956D01*
X1155563Y2108056D01*
X1124663Y2145556D02*
G01*
X1162762Y2160055D01*
X1124663Y2174656D02*
G01*
X1162762Y2160055D01*
X883768Y982255D02*
G01*
X880068Y980455D01*
X876467Y976855D01*
X874668Y973155D01*
X874668Y965955D01*
X876467Y962255D01*
X880068Y958655D01*
X883768Y956855D01*
X889167Y954954D01*
X898267Y954954D01*
X903768Y956855D01*
X907367Y958655D01*
X910967Y962255D01*
X912767Y965955D01*
X912767Y973155D01*
X910967Y976855D01*
X907367Y980455D01*
X903768Y982255D01*
X898267Y982255D01*
X898267Y973155D02*
G01*
X898267Y982255D01*
X874668Y994255D02*
G01*
X912767Y994255D01*
X874668Y994255D02*
G01*
X912767Y1019755D01*
X874668Y1019755D02*
G01*
X912767Y1019755D01*
X874668Y1031755D02*
G01*
X912767Y1031755D01*
X874668Y1031755D02*
G01*
X874668Y1044455D01*
X876467Y1049955D01*
X880068Y1053555D01*
X883768Y1055354D01*
X889167Y1057155D01*
X898267Y1057155D01*
X903768Y1055354D01*
X907367Y1053555D01*
X910967Y1049955D01*
X912767Y1044455D01*
X912767Y1031755D01*
X974668Y965955D02*
G01*
X976467Y962255D01*
X980068Y958655D01*
X983768Y956855D01*
X989167Y954954D01*
X998267Y954954D01*
X1003768Y956855D01*
X1007367Y958655D01*
X1010967Y962255D01*
X1012767Y965955D01*
X1012767Y973155D01*
X1010967Y976855D01*
X1007367Y980455D01*
X1003768Y982255D01*
X998267Y984055D01*
X989167Y984055D01*
X983768Y982255D01*
X980068Y980455D01*
X976467Y976855D01*
X974668Y973155D01*
X974668Y965955D01*
X974668Y996055D02*
G01*
X1001867Y996055D01*
X1007367Y997955D01*
X1010967Y1001555D01*
X1012767Y1006955D01*
X1012767Y1010655D01*
X1010967Y1016055D01*
X1007367Y1019755D01*
X1001867Y1021555D01*
X974668Y1021555D01*
X974668Y1046255D02*
G01*
X1012767Y1046255D01*
X974668Y1033555D02*
G01*
X974668Y1058955D01*
X1089668Y948655D02*
G01*
X1089668Y968655D01*
X1104167Y957755D01*
X1104167Y963155D01*
X1105967Y966855D01*
X1107767Y968655D01*
X1113267Y970455D01*
X1116867Y970455D01*
X1122367Y968655D01*
X1125967Y964954D01*
X1127767Y959555D01*
X1127767Y954055D01*
X1125967Y948655D01*
X1124167Y946855D01*
X1120567Y944954D01*
X1118768Y984255D02*
G01*
X1120567Y982454D01*
X1122367Y984255D01*
X1120567Y986055D01*
X1118768Y984255D01*
X1089668Y1001755D02*
G01*
X1089668Y1021755D01*
X1104167Y1010855D01*
X1104167Y1016255D01*
X1105967Y1019954D01*
X1107767Y1021755D01*
X1113267Y1023555D01*
X1116867Y1023555D01*
X1122367Y1021755D01*
X1125967Y1018055D01*
X1127767Y1012654D01*
X1127767Y1007155D01*
X1125967Y1001755D01*
X1124167Y999954D01*
X1120567Y998055D01*
X1089668Y1035555D02*
G01*
X1127767Y1050055D01*
X1089668Y1064655D02*
G01*
X1127767Y1050055D01*
D27*
X1904484Y1662702D02*
G01*
X1940884Y1662702D01*
X1947685Y1660502D01*
X1949984Y1658202D01*
X1952285Y1653602D01*
X1952285Y1649102D01*
X1949984Y1644502D01*
X1947685Y1642301D01*
X1940884Y1640002D01*
X1936385Y1640002D01*
X1920484Y1689102D02*
G01*
X1922685Y1684502D01*
X1927285Y1680002D01*
X1934084Y1677702D01*
X1938584Y1677702D01*
X1945484Y1680002D01*
X1949984Y1684502D01*
X1952285Y1689102D01*
X1952285Y1695902D01*
X1949984Y1700502D01*
X1945484Y1705002D01*
X1938584Y1707301D01*
X1934084Y1707301D01*
X1927285Y1705002D01*
X1922685Y1700502D01*
X1920484Y1695902D01*
X1920484Y1689102D01*
X1920484Y1724502D02*
G01*
X1952285Y1738202D01*
X1920484Y1751802D02*
G01*
X1952285Y1738202D01*
X1961385Y1733602D01*
X1965884Y1729102D01*
X1968184Y1724502D01*
X1968184Y1722301D01*
X1927285Y1791802D02*
G01*
X1922685Y1789502D01*
X1920484Y1782702D01*
X1920484Y1775902D01*
X1922685Y1769102D01*
X1927285Y1766802D01*
X1931784Y1769102D01*
X1934084Y1773602D01*
X1936385Y1785002D01*
X1938584Y1789502D01*
X1943184Y1791802D01*
X1945484Y1791802D01*
X1949984Y1789502D01*
X1952285Y1782702D01*
X1952285Y1775902D01*
X1949984Y1769102D01*
X1945484Y1766802D01*
X1904484Y1813602D02*
G01*
X1943184Y1813602D01*
X1949984Y1815902D01*
X1952285Y1820502D01*
X1952285Y1825002D01*
X1920484Y1806802D02*
G01*
X1920484Y1822702D01*
X1904484Y1840002D02*
G01*
X1906784Y1842301D01*
X1904484Y1844502D01*
X1902285Y1842301D01*
X1904484Y1840002D01*
X1920484Y1842301D02*
G01*
X1952285Y1842301D01*
X1927285Y1886802D02*
G01*
X1922685Y1882301D01*
X1920484Y1877702D01*
X1920484Y1870902D01*
X1922685Y1866402D01*
X1927285Y1861802D01*
X1934084Y1859502D01*
X1938584Y1859502D01*
X1945484Y1861802D01*
X1949984Y1866402D01*
X1952285Y1870902D01*
X1952285Y1877702D01*
X1949984Y1882301D01*
X1945484Y1886802D01*
X1904484Y1901802D02*
G01*
X1952285Y1901802D01*
X1920484Y1924502D02*
G01*
X1943184Y1901802D01*
X1934084Y1910902D02*
G01*
X1952285Y1926802D01*
X744979Y-19496D02*
G01*
X744979Y-67296D01*
X744979Y-19496D02*
G01*
X765479Y-19496D01*
X772280Y-21796D01*
X774479Y-24096D01*
X776779Y-28596D01*
X776779Y-35497D01*
X774479Y-39996D01*
X772280Y-42296D01*
X765479Y-44496D01*
X744979Y-44496D01*
X791779Y-35497D02*
G01*
X791779Y-67296D01*
X791779Y-49096D02*
G01*
X794079Y-42296D01*
X798580Y-37696D01*
X803180Y-35497D01*
X809979Y-35497D01*
X836379Y-35497D02*
G01*
X831779Y-37696D01*
X827280Y-42296D01*
X824979Y-49096D01*
X824979Y-53596D01*
X827280Y-60497D01*
X831779Y-64996D01*
X836379Y-67296D01*
X843180Y-67296D01*
X847680Y-64996D01*
X852280Y-60497D01*
X854479Y-53596D01*
X854479Y-49096D01*
X852280Y-42296D01*
X847680Y-37696D01*
X843180Y-35497D01*
X836379Y-35497D01*
X896779Y-42296D02*
G01*
X892280Y-37696D01*
X887680Y-35497D01*
X880879Y-35497D01*
X876379Y-37696D01*
X871779Y-42296D01*
X869479Y-49096D01*
X869479Y-53596D01*
X871779Y-60497D01*
X876379Y-64996D01*
X880879Y-67296D01*
X887680Y-67296D01*
X892280Y-64996D01*
X896779Y-60497D01*
X911779Y-49096D02*
G01*
X939079Y-49096D01*
X939079Y-44496D01*
X936779Y-39996D01*
X934479Y-37696D01*
X929979Y-35497D01*
X923180Y-35497D01*
X918580Y-37696D01*
X914079Y-42296D01*
X911779Y-49096D01*
X911779Y-53596D01*
X914079Y-60497D01*
X918580Y-64996D01*
X923180Y-67296D01*
X929979Y-67296D01*
X934479Y-64996D01*
X939079Y-60497D01*
X979079Y-42296D02*
G01*
X976779Y-37696D01*
X969979Y-35497D01*
X963180Y-35497D01*
X956379Y-37696D01*
X954079Y-42296D01*
X956379Y-46796D01*
X960879Y-49096D01*
X972280Y-51396D01*
X976779Y-53596D01*
X979079Y-58197D01*
X979079Y-60497D01*
X976779Y-64996D01*
X969979Y-67296D01*
X963180Y-67296D01*
X956379Y-64996D01*
X954079Y-60497D01*
X1019079Y-42296D02*
G01*
X1016779Y-37696D01*
X1009979Y-35497D01*
X1003180Y-35497D01*
X996379Y-37696D01*
X994079Y-42296D01*
X996379Y-46796D01*
X1000879Y-49096D01*
X1012280Y-51396D01*
X1016779Y-53596D01*
X1019079Y-58197D01*
X1019079Y-60497D01*
X1016779Y-64996D01*
X1009979Y-67296D01*
X1003180Y-67296D01*
X996379Y-64996D01*
X994079Y-60497D01*
X1034079Y-19496D02*
G01*
X1036379Y-21796D01*
X1038580Y-19496D01*
X1036379Y-17296D01*
X1034079Y-19496D01*
X1036379Y-35497D02*
G01*
X1036379Y-67296D01*
X1053580Y-35497D02*
G01*
X1053580Y-67296D01*
X1053580Y-44496D02*
G01*
X1060479Y-37696D01*
X1064979Y-35497D01*
X1071779Y-35497D01*
X1076379Y-37696D01*
X1078580Y-44496D01*
X1078580Y-67296D01*
X1120879Y-35497D02*
G01*
X1120879Y-71796D01*
X1118580Y-78596D01*
X1116379Y-80896D01*
X1111779Y-83197D01*
X1104979Y-83197D01*
X1100479Y-80896D01*
X1120879Y-42296D02*
G01*
X1116379Y-37696D01*
X1111779Y-35497D01*
X1104979Y-35497D01*
X1100479Y-37696D01*
X1095879Y-42296D01*
X1093580Y-49096D01*
X1093580Y-53596D01*
X1095879Y-60497D01*
X1100479Y-64996D01*
X1104979Y-67296D01*
X1111779Y-67296D01*
X1116379Y-64996D01*
X1120879Y-60497D01*
X1170879Y-19496D02*
G01*
X1170879Y-67296D01*
X1170879Y-19496D02*
G01*
X1191379Y-19496D01*
X1198180Y-21796D01*
X1200479Y-24096D01*
X1202680Y-28596D01*
X1202680Y-35497D01*
X1200479Y-39996D01*
X1198180Y-42296D01*
X1191379Y-44496D01*
X1170879Y-44496D01*
X1217680Y-19496D02*
G01*
X1217680Y-67296D01*
X1259979Y-35497D02*
G01*
X1259979Y-67296D01*
X1259979Y-42296D02*
G01*
X1255479Y-37696D01*
X1250879Y-35497D01*
X1244079Y-35497D01*
X1239479Y-37696D01*
X1234979Y-42296D01*
X1232680Y-49096D01*
X1232680Y-53596D01*
X1234979Y-60497D01*
X1239479Y-64996D01*
X1244079Y-67296D01*
X1250879Y-67296D01*
X1255479Y-64996D01*
X1259979Y-60497D01*
X1274979Y-35497D02*
G01*
X1274979Y-67296D01*
X1274979Y-44496D02*
G01*
X1281779Y-37696D01*
X1286379Y-35497D01*
X1293180Y-35497D01*
X1297680Y-37696D01*
X1299979Y-44496D01*
X1299979Y-67296D01*
X1314979Y-49096D02*
G01*
X1342280Y-49096D01*
X1342280Y-44496D01*
X1339979Y-39996D01*
X1337680Y-37696D01*
X1333180Y-35497D01*
X1326379Y-35497D01*
X1321779Y-37696D01*
X1317280Y-42296D01*
X1314979Y-49096D01*
X1314979Y-53596D01*
X1317280Y-60497D01*
X1321779Y-64996D01*
X1326379Y-67296D01*
X1333180Y-67296D01*
X1337680Y-64996D01*
X1342280Y-60497D01*
X36357Y1391857D02*
G01*
X31757Y1387256D01*
X29557Y1380457D01*
X29557Y1371357D01*
X31757Y1364556D01*
X36357Y1359957D01*
X40857Y1359957D01*
X45457Y1362256D01*
X47757Y1364556D01*
X49957Y1369057D01*
X54557Y1382757D01*
X56757Y1387256D01*
X59057Y1389556D01*
X63657Y1391857D01*
X70457Y1391857D01*
X74957Y1387256D01*
X77257Y1380457D01*
X77257Y1371357D01*
X74957Y1364556D01*
X70457Y1359957D01*
X45457Y1406857D02*
G01*
X77257Y1415957D01*
X45457Y1424957D02*
G01*
X77257Y1415957D01*
X45457Y1424957D02*
G01*
X77257Y1434057D01*
X45457Y1443157D02*
G01*
X77257Y1434057D01*
X29557Y1458157D02*
G01*
X31757Y1460457D01*
X29557Y1462757D01*
X27257Y1460457D01*
X29557Y1458157D01*
X45457Y1460457D02*
G01*
X77257Y1460457D01*
X29557Y1484556D02*
G01*
X68157Y1484556D01*
X74957Y1486857D01*
X77257Y1491357D01*
X77257Y1495957D01*
X45457Y1477757D02*
G01*
X45457Y1493657D01*
X52257Y1538157D02*
G01*
X47757Y1533657D01*
X45457Y1529057D01*
X45457Y1522256D01*
X47757Y1517757D01*
X52257Y1513157D01*
X59057Y1510957D01*
X63657Y1510957D01*
X70457Y1513157D01*
X74957Y1517757D01*
X77257Y1522256D01*
X77257Y1529057D01*
X74957Y1533657D01*
X70457Y1538157D01*
X29557Y1553157D02*
G01*
X77257Y1553157D01*
X54557Y1553157D02*
G01*
X47757Y1559957D01*
X45457Y1564556D01*
X45457Y1571357D01*
X47757Y1575957D01*
X54557Y1578157D01*
X77257Y1578157D01*
X34489Y2025001D02*
G01*
X82289Y2025001D01*
X34489Y2025001D02*
G01*
X34489Y2054501D01*
X57289Y2025001D02*
G01*
X57289Y2043201D01*
X50489Y2080901D02*
G01*
X52689Y2076401D01*
X57289Y2071801D01*
X64089Y2069501D01*
X68589Y2069501D01*
X75489Y2071801D01*
X79989Y2076401D01*
X82289Y2080901D01*
X82289Y2087701D01*
X79989Y2092301D01*
X75489Y2096801D01*
X68589Y2099101D01*
X64089Y2099101D01*
X57289Y2096801D01*
X52689Y2092301D01*
X50489Y2087701D01*
X50489Y2080901D01*
X57289Y2141401D02*
G01*
X52689Y2136801D01*
X50489Y2132301D01*
X50489Y2125501D01*
X52689Y2120901D01*
X57289Y2116401D01*
X64089Y2114101D01*
X68589Y2114101D01*
X75489Y2116401D01*
X79989Y2120901D01*
X82289Y2125501D01*
X82289Y2132301D01*
X79989Y2136801D01*
X75489Y2141401D01*
X50489Y2156401D02*
G01*
X73189Y2156401D01*
X79989Y2158601D01*
X82289Y2163201D01*
X82289Y2170001D01*
X79989Y2174501D01*
X73189Y2181401D01*
X50489Y2181401D02*
G01*
X82289Y2181401D01*
X57289Y2221401D02*
G01*
X52689Y2219101D01*
X50489Y2212301D01*
X50489Y2205501D01*
X52689Y2198601D01*
X57289Y2196401D01*
X61789Y2198601D01*
X64089Y2203201D01*
X66389Y2214501D01*
X68589Y2219101D01*
X73189Y2221401D01*
X75489Y2221401D01*
X79989Y2219101D01*
X82289Y2212301D01*
X82289Y2205501D01*
X79989Y2198601D01*
X75489Y2196401D01*
X34489Y2271401D02*
G01*
X82289Y2271401D01*
X34489Y2303201D02*
G01*
X66389Y2271401D01*
X54989Y2282701D02*
G01*
X82289Y2303201D01*
X50489Y2318201D02*
G01*
X82289Y2318201D01*
X59489Y2318201D02*
G01*
X52689Y2325001D01*
X50489Y2329501D01*
X50489Y2336401D01*
X52689Y2340901D01*
X59489Y2343201D01*
X82289Y2343201D01*
X50489Y2369501D02*
G01*
X52689Y2365001D01*
X57289Y2360501D01*
X64089Y2358201D01*
X68589Y2358201D01*
X75489Y2360501D01*
X79989Y2365001D01*
X82289Y2369501D01*
X82289Y2376401D01*
X79989Y2380901D01*
X75489Y2385501D01*
X68589Y2387701D01*
X64089Y2387701D01*
X57289Y2385501D01*
X52689Y2380901D01*
X50489Y2376401D01*
X50489Y2369501D01*
X34489Y2402701D02*
G01*
X82289Y2402701D01*
X57289Y2402701D02*
G01*
X52689Y2407301D01*
X50489Y2411801D01*
X50489Y2418601D01*
X52689Y2423201D01*
X57289Y2427701D01*
X64089Y2430001D01*
X68589Y2430001D01*
X75489Y2427701D01*
X79989Y2423201D01*
X82289Y2418601D01*
X82289Y2411801D01*
X79989Y2407301D01*
X75489Y2402701D01*
D26*
X320054Y841458D02*
G01*
X336354Y803259D01*
X352754Y841458D02*
G01*
X336354Y803259D01*
X387054Y860559D02*
G01*
X378954Y857859D01*
X373454Y849659D01*
X370754Y835959D01*
X370754Y827859D01*
X373454Y814158D01*
X378954Y805959D01*
X387054Y803259D01*
X392554Y803259D01*
X400754Y805959D01*
X406154Y814158D01*
X408954Y827859D01*
X408954Y835959D01*
X406154Y849659D01*
X400754Y857859D01*
X392554Y860559D01*
X387054Y860559D01*
X429654Y816859D02*
G01*
X426954Y814158D01*
X429654Y811458D01*
X432354Y814158D01*
X429654Y816859D01*
X455854Y860559D02*
G01*
X485854Y860559D01*
X469454Y838759D01*
X477654Y838759D01*
X483054Y835959D01*
X485854Y833259D01*
X488554Y825059D01*
X488554Y819659D01*
X485854Y811458D01*
X480354Y805959D01*
X472154Y803259D01*
X464054Y803259D01*
X455854Y805959D01*
X453054Y808759D01*
X450354Y814158D01*
X509254Y816859D02*
G01*
X506554Y814158D01*
X509254Y811458D01*
X512054Y814158D01*
X509254Y816859D01*
X546354Y860559D02*
G01*
X538154Y857859D01*
X532754Y849659D01*
X530054Y835959D01*
X530054Y827859D01*
X532754Y814158D01*
X538154Y805959D01*
X546354Y803259D01*
X551854Y803259D01*
X560054Y805959D01*
X565454Y814158D01*
X568154Y827859D01*
X568154Y835959D01*
X565454Y849659D01*
X560054Y857859D01*
X551854Y860559D01*
X546354Y860559D01*
X650055Y860559D02*
G01*
X644555Y860559D01*
X639054Y857859D01*
X636354Y849659D01*
X636354Y803259D01*
X628154Y841458D02*
G01*
X647254Y841458D01*
X681655Y841458D02*
G01*
X676154Y838759D01*
X670754Y833259D01*
X668054Y825059D01*
X668054Y819659D01*
X670754Y811458D01*
X676154Y805959D01*
X681655Y803259D01*
X689854Y803259D01*
X695254Y805959D01*
X700754Y811458D01*
X703454Y819659D01*
X703454Y825059D01*
X700754Y833259D01*
X695254Y838759D01*
X689854Y841458D01*
X681655Y841458D01*
X721454Y841458D02*
G01*
X721454Y803259D01*
X721454Y825059D02*
G01*
X724155Y833259D01*
X729654Y838759D01*
X735055Y841458D01*
X743254Y841458D01*
X819654Y860559D02*
G01*
X814155Y857859D01*
X808755Y852359D01*
X806054Y846859D01*
X803254Y838759D01*
X803254Y825059D01*
X806054Y816859D01*
X808755Y811458D01*
X814155Y805959D01*
X819654Y803259D01*
X830554Y803259D01*
X836054Y805959D01*
X841454Y811458D01*
X844155Y816859D01*
X846954Y825059D01*
X846954Y838759D01*
X844155Y846859D01*
X841454Y852359D01*
X836054Y857859D01*
X830554Y860559D01*
X819654Y860559D01*
X897654Y833259D02*
G01*
X892154Y838759D01*
X886754Y841458D01*
X878554Y841458D01*
X873054Y838759D01*
X867654Y833259D01*
X864954Y825059D01*
X864954Y819659D01*
X867654Y811458D01*
X873054Y805959D01*
X878554Y803259D01*
X886754Y803259D01*
X892154Y805959D01*
X897654Y811458D01*
X923854Y860559D02*
G01*
X923854Y814158D01*
X926554Y805959D01*
X932055Y803259D01*
X937454Y803259D01*
X915654Y841458D02*
G01*
X934754Y841458D01*
X969054Y841458D02*
G01*
X963654Y838759D01*
X958154Y833259D01*
X955455Y825059D01*
X955455Y819659D01*
X958154Y811458D01*
X963654Y805959D01*
X969054Y803259D01*
X977254Y803259D01*
X982754Y805959D01*
X988154Y811458D01*
X990954Y819659D01*
X990954Y825059D01*
X988154Y833259D01*
X982754Y838759D01*
X977254Y841458D01*
X969054Y841458D01*
X1008954Y841458D02*
G01*
X1008954Y784158D01*
X1008954Y833259D02*
G01*
X1014354Y838759D01*
X1019854Y841458D01*
X1028054Y841458D01*
X1033454Y838759D01*
X1038954Y833259D01*
X1041655Y825059D01*
X1041655Y819659D01*
X1038954Y811458D01*
X1033454Y805959D01*
X1028054Y803259D01*
X1019854Y803259D01*
X1014354Y805959D01*
X1008954Y811458D01*
X1059654Y860559D02*
G01*
X1062354Y857859D01*
X1065055Y860559D01*
X1062354Y863259D01*
X1059654Y860559D01*
X1062354Y841458D02*
G01*
X1062354Y803259D01*
X1088554Y814158D02*
G01*
X1085855Y811458D01*
X1083054Y814158D01*
X1085855Y816859D01*
X1088554Y814158D01*
X1088554Y808759D01*
X1083054Y803259D01*
X1186754Y852359D02*
G01*
X1181255Y857859D01*
X1173054Y860559D01*
X1162154Y860559D01*
X1153954Y857859D01*
X1148554Y852359D01*
X1148554Y846859D01*
X1151255Y841458D01*
X1153954Y838759D01*
X1159454Y835959D01*
X1175855Y830559D01*
X1181255Y827859D01*
X1183954Y825059D01*
X1186754Y819659D01*
X1186754Y811458D01*
X1181255Y805959D01*
X1173054Y803259D01*
X1162154Y803259D01*
X1153954Y805959D01*
X1148554Y811458D01*
X1237455Y841458D02*
G01*
X1237455Y784158D01*
X1237455Y833259D02*
G01*
X1231954Y838759D01*
X1226554Y841458D01*
X1218355Y841458D01*
X1212955Y838759D01*
X1207455Y833259D01*
X1204754Y825059D01*
X1204754Y819659D01*
X1207455Y811458D01*
X1212955Y805959D01*
X1218355Y803259D01*
X1226554Y803259D01*
X1231954Y805959D01*
X1237455Y811458D01*
X1255455Y841458D02*
G01*
X1255455Y814158D01*
X1258154Y805959D01*
X1263654Y803259D01*
X1271854Y803259D01*
X1277254Y805959D01*
X1285455Y814158D01*
X1285455Y841458D02*
G01*
X1285455Y803259D01*
X1303454Y860559D02*
G01*
X1306154Y857859D01*
X1308954Y860559D01*
X1306154Y863259D01*
X1303454Y860559D01*
X1306154Y841458D02*
G01*
X1306154Y803259D01*
X1359654Y860559D02*
G01*
X1359654Y803259D01*
X1359654Y833259D02*
G01*
X1354155Y838759D01*
X1348755Y841458D01*
X1340554Y841458D01*
X1335055Y838759D01*
X1329654Y833259D01*
X1326954Y825059D01*
X1326954Y819659D01*
X1329654Y811458D01*
X1335055Y805959D01*
X1340554Y803259D01*
X1348755Y803259D01*
X1354155Y805959D01*
X1359654Y811458D01*
X1383054Y814158D02*
G01*
X1380354Y811458D01*
X1377654Y814158D01*
X1380354Y816859D01*
X1383054Y814158D01*
X1383054Y808759D01*
X1377654Y803259D01*
D28*
X350484Y489902D02*
G01*
X346784Y493502D01*
X341384Y495402D01*
X334084Y495402D01*
X328584Y493502D01*
X324984Y489902D01*
X324984Y486302D01*
X326784Y482602D01*
X328584Y480802D01*
X332284Y479002D01*
X343184Y475402D01*
X346784Y473502D01*
X348584Y471702D01*
X350484Y468102D01*
X350484Y462602D01*
X346784Y459002D01*
X341384Y457202D01*
X334084Y457202D01*
X328584Y459002D01*
X324984Y462602D01*
X367884Y495402D02*
G01*
X367884Y464502D01*
X369684Y459002D01*
X373384Y457202D01*
X376984Y457202D01*
X362484Y482602D02*
G01*
X375184Y482602D01*
X410784Y482602D02*
G01*
X410784Y457202D01*
X410784Y477202D02*
G01*
X407184Y480802D01*
X403484Y482602D01*
X398084Y482602D01*
X394484Y480802D01*
X390784Y477202D01*
X388984Y471702D01*
X388984Y468102D01*
X390784Y462602D01*
X394484Y459002D01*
X398084Y457202D01*
X403484Y457202D01*
X407184Y459002D01*
X410784Y462602D01*
X422784Y482602D02*
G01*
X422784Y457202D01*
X422784Y475402D02*
G01*
X428284Y480802D01*
X431884Y482602D01*
X437384Y482602D01*
X440984Y480802D01*
X442784Y475402D01*
X442784Y457202D01*
X469384Y495402D02*
G01*
X465684Y495402D01*
X462084Y493502D01*
X460284Y488102D01*
X460284Y457202D01*
X454784Y482602D02*
G01*
X467484Y482602D01*
X490484Y482602D02*
G01*
X486784Y480802D01*
X483184Y477202D01*
X481384Y471702D01*
X481384Y468102D01*
X483184Y462602D01*
X486784Y459002D01*
X490484Y457202D01*
X495884Y457202D01*
X499484Y459002D01*
X503184Y462602D01*
X504984Y468102D01*
X504984Y471702D01*
X503184Y477202D01*
X499484Y480802D01*
X495884Y482602D01*
X490484Y482602D01*
X516984Y482602D02*
G01*
X516984Y457202D01*
X516984Y471702D02*
G01*
X518784Y477202D01*
X522484Y480802D01*
X526084Y482602D01*
X531484Y482602D01*
X565384Y495402D02*
G01*
X565384Y457202D01*
X565384Y477202D02*
G01*
X561684Y480802D01*
X558084Y482602D01*
X552584Y482602D01*
X548984Y480802D01*
X545384Y477202D01*
X543484Y471702D01*
X543484Y468102D01*
X545384Y462602D01*
X548984Y459002D01*
X552584Y457202D01*
X558084Y457202D01*
X561684Y459002D01*
X565384Y462602D01*
X605384Y495402D02*
G01*
X605384Y468102D01*
X607184Y462602D01*
X610784Y459002D01*
X616284Y457202D01*
X619884Y457202D01*
X625384Y459002D01*
X628984Y462602D01*
X630784Y468102D01*
X630784Y495402D01*
X642784Y482602D02*
G01*
X642784Y457202D01*
X642784Y475402D02*
G01*
X648284Y480802D01*
X651885Y482602D01*
X657384Y482602D01*
X660985Y480802D01*
X662784Y475402D01*
X662784Y457202D01*
X674785Y495402D02*
G01*
X676584Y493502D01*
X678485Y495402D01*
X676584Y497202D01*
X674785Y495402D01*
X676584Y482602D02*
G01*
X676584Y457202D01*
X690484Y482602D02*
G01*
X701385Y457202D01*
X712285Y482602D02*
G01*
X701385Y457202D01*
X724284Y471702D02*
G01*
X746084Y471702D01*
X746084Y475402D01*
X744284Y479002D01*
X742484Y480802D01*
X738784Y482602D01*
X733384Y482602D01*
X729684Y480802D01*
X726084Y477202D01*
X724284Y471702D01*
X724284Y468102D01*
X726084Y462602D01*
X729684Y459002D01*
X733384Y457202D01*
X738784Y457202D01*
X742484Y459002D01*
X746084Y462602D01*
X758085Y482602D02*
G01*
X758085Y457202D01*
X758085Y471702D02*
G01*
X759884Y477202D01*
X763485Y480802D01*
X767184Y482602D01*
X772584Y482602D01*
X804584Y477202D02*
G01*
X802784Y480802D01*
X797384Y482602D01*
X791885Y482602D01*
X786484Y480802D01*
X784584Y477202D01*
X786484Y473502D01*
X790084Y471702D01*
X799184Y469902D01*
X802784Y468102D01*
X804584Y464502D01*
X804584Y462602D01*
X802784Y459002D01*
X797384Y457202D01*
X791885Y457202D01*
X786484Y459002D01*
X784584Y462602D01*
X816584Y495402D02*
G01*
X818485Y493502D01*
X820284Y495402D01*
X818485Y497202D01*
X816584Y495402D01*
X818485Y482602D02*
G01*
X818485Y457202D01*
X837685Y495402D02*
G01*
X837685Y464502D01*
X839484Y459002D01*
X843184Y457202D01*
X846784Y457202D01*
X832285Y482602D02*
G01*
X844984Y482602D01*
X860585Y482602D02*
G01*
X871484Y457202D01*
X882484Y482602D02*
G01*
X871484Y457202D01*
X867884Y449902D01*
X864284Y446302D01*
X860585Y444502D01*
X858784Y444502D01*
X320044Y605361D02*
G01*
X320044Y567161D01*
X320044Y605361D02*
G01*
X336344Y605361D01*
X341844Y603560D01*
X343644Y601761D01*
X345444Y598061D01*
X345444Y592661D01*
X343644Y588961D01*
X341844Y587161D01*
X336344Y585361D01*
X320044Y585361D01*
X357444Y592661D02*
G01*
X357444Y567161D01*
X357444Y581761D02*
G01*
X359244Y587161D01*
X362944Y590860D01*
X366544Y592661D01*
X372044Y592661D01*
X405844Y592661D02*
G01*
X405844Y567161D01*
X405844Y587161D02*
G01*
X402144Y590860D01*
X398544Y592661D01*
X393044Y592661D01*
X389444Y590860D01*
X385844Y587161D01*
X384044Y581761D01*
X384044Y578061D01*
X385844Y572661D01*
X389444Y568961D01*
X393044Y567161D01*
X398544Y567161D01*
X402144Y568961D01*
X405844Y572661D01*
X417844Y605361D02*
G01*
X417844Y567161D01*
X436044Y592661D02*
G01*
X417844Y574461D01*
X425044Y581761D02*
G01*
X437844Y567161D01*
X471644Y592661D02*
G01*
X471644Y567161D01*
X471644Y587161D02*
G01*
X468044Y590860D01*
X464344Y592661D01*
X458944Y592661D01*
X455244Y590860D01*
X451644Y587161D01*
X449844Y581761D01*
X449844Y578061D01*
X451644Y572661D01*
X455244Y568961D01*
X458944Y567161D01*
X464344Y567161D01*
X468044Y568961D01*
X471644Y572661D01*
X503644Y587161D02*
G01*
X501844Y590860D01*
X496344Y592661D01*
X490944Y592661D01*
X485444Y590860D01*
X483644Y587161D01*
X485444Y583560D01*
X489044Y581761D01*
X498144Y579861D01*
X501844Y578061D01*
X503644Y574461D01*
X503644Y572661D01*
X501844Y568961D01*
X496344Y567161D01*
X490944Y567161D01*
X485444Y568961D01*
X483644Y572661D01*
X515644Y605361D02*
G01*
X515644Y567161D01*
X515644Y585361D02*
G01*
X521044Y590860D01*
X524744Y592661D01*
X530144Y592661D01*
X533844Y590860D01*
X535644Y585361D01*
X535644Y567161D01*
X575644Y605361D02*
G01*
X575644Y567161D01*
X575644Y567161D02*
G01*
X597444Y567161D01*
X631244Y592661D02*
G01*
X631244Y567161D01*
X631244Y587161D02*
G01*
X627644Y590860D01*
X624044Y592661D01*
X618544Y592661D01*
X614944Y590860D01*
X611244Y587161D01*
X609444Y581761D01*
X609444Y578061D01*
X611244Y572661D01*
X614944Y568961D01*
X618544Y567161D01*
X624044Y567161D01*
X627644Y568961D01*
X631244Y572661D01*
X643244Y605361D02*
G01*
X643244Y567161D01*
X643244Y587161D02*
G01*
X646944Y590860D01*
X650545Y592661D01*
X656044Y592661D01*
X659645Y590860D01*
X663244Y587161D01*
X665045Y581761D01*
X665045Y578061D01*
X663244Y572661D01*
X659645Y568961D01*
X656044Y567161D01*
X650545Y567161D01*
X646944Y568961D01*
X643244Y572661D01*
D26*
X329989Y985501D02*
G01*
X329989Y928301D01*
X368189Y985501D02*
G01*
X368189Y928301D01*
X329989Y958301D02*
G01*
X368189Y958301D01*
X386189Y985501D02*
G01*
X386189Y928301D01*
X386189Y985501D02*
G01*
X407989Y928301D01*
X429789Y985501D02*
G01*
X407989Y928301D01*
X429789Y985501D02*
G01*
X429789Y928301D01*
X447789Y985501D02*
G01*
X447789Y928301D01*
D27*
X24540Y609954D02*
G01*
X72240Y609954D01*
X24540Y609954D02*
G01*
X24540Y630455D01*
X26840Y637255D01*
X29040Y639555D01*
X33640Y641855D01*
X38140Y641855D01*
X42740Y639555D01*
X45040Y637255D01*
X47240Y630455D01*
X47240Y609954D02*
G01*
X47240Y630455D01*
X49540Y637255D01*
X51840Y639555D01*
X56340Y641855D01*
X63140Y641855D01*
X67740Y639555D01*
X70040Y637255D01*
X72240Y630455D01*
X72240Y609954D01*
X40440Y656855D02*
G01*
X63140Y656855D01*
X70040Y659055D01*
X72240Y663655D01*
X72240Y670455D01*
X70040Y674954D01*
X63140Y681855D01*
X40440Y681855D02*
G01*
X72240Y681855D01*
X24540Y703655D02*
G01*
X63140Y703655D01*
X70040Y705955D01*
X72240Y710455D01*
X72240Y714954D01*
X40440Y696855D02*
G01*
X40440Y712755D01*
X24540Y736855D02*
G01*
X63140Y736855D01*
X70040Y739055D01*
X72240Y743655D01*
X72240Y748155D01*
X40440Y729954D02*
G01*
X40440Y745955D01*
X40440Y774555D02*
G01*
X42740Y769954D01*
X47240Y765455D01*
X54040Y763155D01*
X58640Y763155D01*
X65440Y765455D01*
X70040Y769954D01*
X72240Y774555D01*
X72240Y781355D01*
X70040Y785955D01*
X65440Y790455D01*
X58640Y792755D01*
X54040Y792755D01*
X47240Y790455D01*
X42740Y785955D01*
X40440Y781355D01*
X40440Y774555D01*
X40440Y807755D02*
G01*
X72240Y807755D01*
X49540Y807755D02*
G01*
X42740Y814555D01*
X40440Y819055D01*
X40440Y825955D01*
X42740Y830455D01*
X49540Y832755D01*
X72240Y832755D01*
D25*
X504596Y2799990D02*
G01*
X535296Y2799990D01*
X541396Y2801990D01*
X545496Y2806090D01*
X547496Y2812290D01*
X547496Y2816390D01*
X545496Y2822490D01*
X541396Y2826590D01*
X535296Y2828590D01*
X504596Y2828590D01*
X512796Y2842090D02*
G01*
X510696Y2846190D01*
X504596Y2852390D01*
X547496Y2852390D01*
X484596Y1794990D02*
G01*
X515296Y1794990D01*
X521396Y1796990D01*
X525496Y1801090D01*
X527496Y1807290D01*
X527496Y1811390D01*
X525496Y1817490D01*
X521396Y1821590D01*
X515296Y1823590D01*
X484596Y1823590D01*
X494796Y1839190D02*
G01*
X492796Y1839190D01*
X488696Y1841190D01*
X486596Y1843290D01*
X484596Y1847390D01*
X484596Y1855489D01*
X486596Y1859590D01*
X488696Y1861690D01*
X492796Y1863690D01*
X496896Y1863690D01*
X500996Y1861690D01*
X507096Y1857590D01*
X527496Y1837090D01*
X527496Y1865790D01*
D10*
X590000Y3035000D02*
G01*
X1510079Y3035000D01*
X1510079Y2362950D01*
X590000Y2362950D01*
X590000Y3035000D01*
X660000Y2365000D02*
G01*
X1435000Y2365000D01*
X1435000Y2200000D01*
X660000Y2200000D01*
X660000Y2365000D01*
X590000Y2035000D02*
G01*
X1510079Y2035000D01*
X1510079Y1362950D01*
X590000Y1362950D01*
X590000Y2035000D01*
X660000Y1365000D02*
G01*
X1435000Y1365000D01*
X1435000Y1200000D01*
X660000Y1200000D01*
X660000Y1365000D01*
D25*
G75*
G01*
X188780Y357360D02*
G02*
X188620Y357360I-80J-15000D01*
G75*
G01*
X188780Y1097360D02*
G02*
X188620Y1097360I-80J-15000D01*
D10*
G75*
G01
X1244925Y2729999D02*
G03X1244925Y2729999I-179920J0D01*
G75*
G01
X752365Y2704999D02*
G03X752365Y2704999I-62600J0D01*
G75*
G01
X1244925Y1729999D02*
G03X1244925Y1729999I-179920J0D01*
G75*
G01
X752365Y1704999D02*
G03X752365Y1704999I-62600J0D01*
M02*
