G04 Layer: BottomLayer*
G04 EasyEDA v6.4.17, 2021-03-07T15:12:51--8:00*
G04 6c535f378de342b990020bc8b1c8526d,b5aacd518854429a9b9924e8a25dcfd8,10*
G04 Gerber Generator version 0.2*
G04 Scale: 100 percent, Rotated: No, Reflected: No *
G04 Dimensions in inches *
G04 leading zeros omitted , absolute positions ,3 integer and 6 decimal *
%FSLAX36Y36*%
%MOIN*%

%ADD10C,0.0100*%
%ADD11C,0.0240*%
%ADD12C,0.0748*%
%ADD13C,0.0827*%

%LPD*%
G36*
X212600Y-95000D02*
G01*
X211820Y-94920D01*
X206400Y-93840D01*
X193340Y-90460D01*
X180500Y-86359D01*
X167900Y-81560D01*
X166140Y-80760D01*
X164940Y-79940D01*
X39560Y45439D01*
X38740Y46640D01*
X37860Y48620D01*
X33060Y61220D01*
X28980Y74060D01*
X25620Y87120D01*
X22980Y100340D01*
X21120Y113699D01*
X20099Y125780D01*
X24980Y3047320D01*
X25059Y3048100D01*
X26160Y3053600D01*
X29540Y3066660D01*
X32920Y3077300D01*
X33320Y3078159D01*
X33900Y3078900D01*
X181600Y3226600D01*
X182340Y3227180D01*
X183220Y3227580D01*
X194060Y3231019D01*
X207120Y3234400D01*
X220340Y3237020D01*
X233700Y3238900D01*
X247000Y3240000D01*
X1753020Y3240000D01*
X1766540Y3238860D01*
X1779880Y3236980D01*
X1782620Y3236440D01*
X1783720Y3236040D01*
X1784660Y3235340D01*
X1974840Y3045160D01*
X1975540Y3044220D01*
X1975940Y3043120D01*
X1976519Y3040160D01*
X1978400Y3026800D01*
X1979520Y3013360D01*
X1979900Y2999800D01*
X1979900Y2065980D01*
X1979540Y2064319D01*
X1978540Y2062960D01*
X1977060Y2062140D01*
X1975360Y2062020D01*
X1973779Y2062600D01*
X1971980Y2063720D01*
X1969840Y2064460D01*
X1967380Y2064740D01*
X1877280Y2064740D01*
X1874820Y2064460D01*
X1872680Y2063720D01*
X1870780Y2062520D01*
X1869180Y2060920D01*
X1867980Y2059019D01*
X1867240Y2056879D01*
X1866960Y2054420D01*
X1866960Y2029280D01*
X1867240Y2026819D01*
X1867980Y2024680D01*
X1869180Y2022780D01*
X1870780Y2021180D01*
X1872680Y2019980D01*
X1874820Y2019240D01*
X1877280Y2018959D01*
X1967380Y2018959D01*
X1969840Y2019240D01*
X1971980Y2019980D01*
X1973779Y2021120D01*
X1975360Y2021680D01*
X1977060Y2021560D01*
X1978540Y2020740D01*
X1979540Y2019379D01*
X1979900Y2017720D01*
X1979900Y1987240D01*
X1979540Y1985580D01*
X1978540Y1984220D01*
X1977060Y1983400D01*
X1975360Y1983280D01*
X1973779Y1983860D01*
X1971980Y1984980D01*
X1969840Y1985720D01*
X1967380Y1986000D01*
X1877280Y1986000D01*
X1874820Y1985720D01*
X1872680Y1984980D01*
X1870780Y1983779D01*
X1869180Y1982180D01*
X1867980Y1980280D01*
X1867240Y1978140D01*
X1866960Y1975680D01*
X1866960Y1950540D01*
X1867240Y1948080D01*
X1867980Y1945940D01*
X1869180Y1944040D01*
X1870780Y1942440D01*
X1872380Y1941420D01*
X1873440Y1940460D01*
X1874079Y1939199D01*
X1874240Y1937780D01*
X1873899Y1936380D01*
X1873080Y1935220D01*
X1649880Y1712020D01*
X1648580Y1711160D01*
X1647060Y1710840D01*
X1645520Y1711160D01*
X1644220Y1712020D01*
X1643360Y1713320D01*
X1643060Y1715040D01*
X1643360Y1716579D01*
X1644220Y1717860D01*
X1710540Y1784180D01*
X1712540Y1786620D01*
X1713940Y1789220D01*
X1714800Y1792060D01*
X1715100Y1795200D01*
X1715100Y1917320D01*
X1715400Y1918860D01*
X1716279Y1920160D01*
X1716920Y1920800D01*
X1719139Y1923959D01*
X1720760Y1927440D01*
X1721759Y1931160D01*
X1722100Y1935000D01*
X1721759Y1938839D01*
X1720760Y1942560D01*
X1719139Y1946040D01*
X1716920Y1949199D01*
X1714199Y1951920D01*
X1711060Y1954120D01*
X1707560Y1955760D01*
X1703839Y1956740D01*
X1700020Y1957080D01*
X1696180Y1956740D01*
X1692460Y1955760D01*
X1688959Y1954120D01*
X1685820Y1951920D01*
X1683100Y1949199D01*
X1680880Y1946040D01*
X1679259Y1942560D01*
X1678260Y1938839D01*
X1678080Y1936879D01*
X1677560Y1935220D01*
X1677560Y1934780D01*
X1678080Y1933120D01*
X1678260Y1931160D01*
X1679259Y1927440D01*
X1680880Y1923959D01*
X1683100Y1920800D01*
X1683740Y1920160D01*
X1684600Y1918860D01*
X1684900Y1917340D01*
X1684900Y1802920D01*
X1684600Y1801380D01*
X1683740Y1800080D01*
X1634600Y1750960D01*
X1633300Y1750100D01*
X1631780Y1749780D01*
X1542640Y1749780D01*
X1540160Y1749500D01*
X1538040Y1748760D01*
X1536120Y1747560D01*
X1534520Y1745960D01*
X1533320Y1744060D01*
X1532580Y1741920D01*
X1532300Y1739460D01*
X1532300Y1714319D01*
X1532580Y1711860D01*
X1533320Y1709720D01*
X1534520Y1707820D01*
X1536120Y1706220D01*
X1538040Y1705020D01*
X1540160Y1704280D01*
X1542640Y1704000D01*
X1632740Y1704000D01*
X1634680Y1703839D01*
X1636160Y1702960D01*
X1637120Y1701519D01*
X1637400Y1699820D01*
X1636920Y1698160D01*
X1636080Y1696560D01*
X1635220Y1693720D01*
X1634900Y1690580D01*
X1634900Y1675040D01*
X1634600Y1673520D01*
X1633740Y1672220D01*
X1632440Y1671360D01*
X1630900Y1671040D01*
X1542640Y1671040D01*
X1540160Y1670760D01*
X1538040Y1670020D01*
X1536120Y1668820D01*
X1534520Y1667220D01*
X1533320Y1665320D01*
X1532580Y1663180D01*
X1532300Y1660720D01*
X1532300Y1635580D01*
X1532580Y1633120D01*
X1533320Y1630980D01*
X1534520Y1629079D01*
X1536120Y1627480D01*
X1538040Y1626279D01*
X1540160Y1625540D01*
X1542640Y1625260D01*
X1568580Y1625260D01*
X1570120Y1624960D01*
X1571399Y1624079D01*
X1572280Y1622780D01*
X1572580Y1621260D01*
X1572580Y1593360D01*
X1572300Y1591879D01*
X1571480Y1590620D01*
X1570280Y1589740D01*
X1568959Y1589120D01*
X1565820Y1586920D01*
X1563100Y1584199D01*
X1560880Y1581040D01*
X1559259Y1577560D01*
X1558260Y1573839D01*
X1557920Y1570000D01*
X1558260Y1566160D01*
X1559259Y1562440D01*
X1560880Y1558959D01*
X1563100Y1555800D01*
X1565820Y1553080D01*
X1568959Y1550880D01*
X1572460Y1549240D01*
X1576180Y1548260D01*
X1580020Y1547920D01*
X1583839Y1548260D01*
X1587560Y1549240D01*
X1591060Y1550880D01*
X1594199Y1553080D01*
X1596920Y1555800D01*
X1599139Y1558959D01*
X1600760Y1562440D01*
X1601759Y1566160D01*
X1602100Y1570000D01*
X1601920Y1571940D01*
X1602080Y1573460D01*
X1602480Y1574740D01*
X1602780Y1577880D01*
X1602780Y1621260D01*
X1603080Y1622780D01*
X1603959Y1624079D01*
X1605240Y1624960D01*
X1606780Y1625260D01*
X1630900Y1625260D01*
X1632440Y1624960D01*
X1633740Y1624079D01*
X1634600Y1622780D01*
X1634900Y1621260D01*
X1634900Y1487660D01*
X1634600Y1486140D01*
X1633740Y1484840D01*
X1633100Y1484199D01*
X1630880Y1481040D01*
X1629259Y1477560D01*
X1628260Y1473839D01*
X1627920Y1470000D01*
X1628260Y1466160D01*
X1629259Y1462440D01*
X1630880Y1458959D01*
X1633100Y1455800D01*
X1635820Y1453080D01*
X1638959Y1450880D01*
X1642460Y1449240D01*
X1646180Y1448260D01*
X1650020Y1447920D01*
X1653839Y1448260D01*
X1657560Y1449240D01*
X1661060Y1450880D01*
X1664199Y1453080D01*
X1666920Y1455800D01*
X1669139Y1458959D01*
X1670760Y1462440D01*
X1671759Y1466160D01*
X1672100Y1470000D01*
X1671759Y1473839D01*
X1670760Y1477560D01*
X1669139Y1481040D01*
X1666920Y1484199D01*
X1666279Y1484840D01*
X1665400Y1486140D01*
X1665100Y1487680D01*
X1665100Y1682880D01*
X1665400Y1684400D01*
X1666279Y1685700D01*
X1860120Y1879540D01*
X1861420Y1880420D01*
X1862960Y1880720D01*
X1864480Y1880420D01*
X1865780Y1879540D01*
X1866639Y1878260D01*
X1866960Y1876720D01*
X1866960Y1871800D01*
X1867240Y1869340D01*
X1867980Y1867200D01*
X1869180Y1865300D01*
X1870780Y1863700D01*
X1872680Y1862500D01*
X1874820Y1861759D01*
X1877280Y1861480D01*
X1967380Y1861480D01*
X1969840Y1861759D01*
X1971980Y1862500D01*
X1973779Y1863640D01*
X1975360Y1864199D01*
X1977060Y1864079D01*
X1978540Y1863260D01*
X1979540Y1861900D01*
X1979900Y1860240D01*
X1979900Y1829760D01*
X1979540Y1828100D01*
X1978540Y1826740D01*
X1977060Y1825920D01*
X1975360Y1825800D01*
X1973779Y1826380D01*
X1971980Y1827500D01*
X1969840Y1828240D01*
X1967380Y1828520D01*
X1877280Y1828520D01*
X1874820Y1828240D01*
X1872680Y1827500D01*
X1870780Y1826300D01*
X1869180Y1824700D01*
X1867980Y1822800D01*
X1867240Y1820660D01*
X1866960Y1818200D01*
X1866960Y1793060D01*
X1867240Y1790600D01*
X1867980Y1788460D01*
X1869180Y1786560D01*
X1870780Y1784960D01*
X1872680Y1783760D01*
X1874820Y1783020D01*
X1877280Y1782740D01*
X1967380Y1782740D01*
X1969840Y1783020D01*
X1971980Y1783760D01*
X1973779Y1784900D01*
X1975360Y1785460D01*
X1977060Y1785340D01*
X1978540Y1784520D01*
X1979540Y1783160D01*
X1979900Y1781500D01*
X1979900Y1751020D01*
X1979540Y1749360D01*
X1978540Y1748000D01*
X1977060Y1747180D01*
X1975360Y1747060D01*
X1973779Y1747640D01*
X1971980Y1748760D01*
X1969840Y1749500D01*
X1967380Y1749780D01*
X1877280Y1749780D01*
X1874820Y1749500D01*
X1872680Y1748760D01*
X1870780Y1747560D01*
X1869180Y1745960D01*
X1867980Y1744060D01*
X1867240Y1741920D01*
X1866960Y1739460D01*
X1866960Y1714319D01*
X1867240Y1711860D01*
X1867980Y1709720D01*
X1869180Y1707820D01*
X1870780Y1706220D01*
X1872680Y1705020D01*
X1874820Y1704280D01*
X1877280Y1704000D01*
X1967380Y1704000D01*
X1969840Y1704280D01*
X1971980Y1705020D01*
X1973779Y1706160D01*
X1975360Y1706720D01*
X1977060Y1706600D01*
X1978540Y1705780D01*
X1979540Y1704420D01*
X1979900Y1702760D01*
X1979900Y1672280D01*
X1979540Y1670620D01*
X1978540Y1669259D01*
X1977060Y1668440D01*
X1975360Y1668320D01*
X1973779Y1668899D01*
X1971980Y1670020D01*
X1969840Y1670760D01*
X1967380Y1671040D01*
X1947460Y1671040D01*
X1947460Y1657040D01*
X1975900Y1657040D01*
X1977440Y1656740D01*
X1978740Y1655880D01*
X1979600Y1654580D01*
X1979900Y1653040D01*
X1979900Y1643260D01*
X1979600Y1641720D01*
X1978740Y1640420D01*
X1977440Y1639560D01*
X1975900Y1639259D01*
X1947460Y1639259D01*
X1947460Y1625260D01*
X1967380Y1625260D01*
X1969840Y1625540D01*
X1971980Y1626279D01*
X1973779Y1627420D01*
X1975360Y1627980D01*
X1977060Y1627860D01*
X1978540Y1627040D01*
X1979540Y1625680D01*
X1979900Y1624019D01*
X1979900Y140200D01*
X1979520Y126400D01*
X1978380Y112980D01*
X1976480Y99620D01*
X1973839Y86400D01*
X1970480Y73340D01*
X1966380Y60500D01*
X1961560Y47900D01*
X1960760Y46140D01*
X1959940Y44940D01*
X1834560Y-80440D01*
X1833380Y-81260D01*
X1831399Y-82140D01*
X1818800Y-86940D01*
X1805940Y-91020D01*
X1792880Y-94400D01*
X1790220Y-94920D01*
X1789440Y-95000D01*
G37*

%LPC*%
G36*
X314280Y-12540D02*
G01*
X365020Y-12540D01*
X367480Y-12260D01*
X369620Y-11520D01*
X371520Y-10320D01*
X373120Y-8720D01*
X374320Y-6820D01*
X375060Y-4680D01*
X375340Y-2220D01*
X375340Y72140D01*
X375060Y74600D01*
X374320Y76740D01*
X373120Y78640D01*
X371520Y80239D01*
X369620Y81440D01*
X367480Y82180D01*
X365020Y82460D01*
X314280Y82460D01*
X311820Y82180D01*
X309700Y81440D01*
X307780Y80239D01*
X306180Y78640D01*
X304980Y76740D01*
X304240Y74600D01*
X303960Y72140D01*
X303960Y-2220D01*
X304240Y-4680D01*
X304980Y-6820D01*
X306180Y-8720D01*
X307780Y-10320D01*
X309700Y-11520D01*
X311820Y-12260D01*
G37*
G36*
X931380Y-12540D02*
G01*
X982099Y-12540D01*
X984580Y-12260D01*
X986700Y-11520D01*
X988620Y-10320D01*
X990200Y-8720D01*
X991400Y-6820D01*
X992159Y-4680D01*
X992420Y-2220D01*
X992420Y72140D01*
X992159Y74600D01*
X991400Y76740D01*
X990200Y78640D01*
X988620Y80239D01*
X986700Y81440D01*
X984580Y82180D01*
X982099Y82460D01*
X931380Y82460D01*
X928900Y82180D01*
X926780Y81440D01*
X924860Y80239D01*
X923280Y78640D01*
X922080Y76740D01*
X921320Y74600D01*
X921040Y72140D01*
X921040Y-2220D01*
X921320Y-4680D01*
X922080Y-6820D01*
X923280Y-8720D01*
X924860Y-10320D01*
X926780Y-11520D01*
X928900Y-12260D01*
G37*
G36*
X1132820Y-5540D02*
G01*
X1195360Y-5540D01*
X1197840Y-5260D01*
X1199960Y-4500D01*
X1201880Y-3300D01*
X1203460Y-1719D01*
X1204660Y200D01*
X1205420Y2320D01*
X1205700Y4800D01*
X1205700Y87020D01*
X1205420Y89480D01*
X1204660Y91620D01*
X1203460Y93520D01*
X1201880Y95120D01*
X1199960Y96320D01*
X1197840Y97060D01*
X1195360Y97340D01*
X1132820Y97340D01*
X1130360Y97060D01*
X1128220Y96320D01*
X1126320Y95120D01*
X1124720Y93520D01*
X1123520Y91620D01*
X1122780Y89480D01*
X1122500Y87020D01*
X1122500Y4800D01*
X1122780Y2320D01*
X1123520Y200D01*
X1124720Y-1719D01*
X1126320Y-3300D01*
X1128220Y-4500D01*
X1130360Y-5260D01*
G37*
G36*
X1643220Y-5540D02*
G01*
X1705760Y-5540D01*
X1708240Y-5260D01*
X1710360Y-4500D01*
X1712280Y-3300D01*
X1713860Y-1719D01*
X1715080Y200D01*
X1715820Y2320D01*
X1716100Y4800D01*
X1716100Y87020D01*
X1715820Y89480D01*
X1715080Y91620D01*
X1713860Y93520D01*
X1712280Y95120D01*
X1710360Y96320D01*
X1708240Y97060D01*
X1705760Y97340D01*
X1643220Y97340D01*
X1640760Y97060D01*
X1638620Y96320D01*
X1636720Y95120D01*
X1635120Y93520D01*
X1633920Y91620D01*
X1633180Y89480D01*
X1632900Y87020D01*
X1632900Y4800D01*
X1633180Y2320D01*
X1633920Y200D01*
X1635120Y-1719D01*
X1636720Y-3300D01*
X1638620Y-4500D01*
X1640760Y-5260D01*
G37*
G36*
X225020Y39900D02*
G01*
X231040Y40279D01*
X237000Y41360D01*
X242780Y43160D01*
X248280Y45640D01*
X253460Y48780D01*
X258220Y52500D01*
X262500Y56780D01*
X266240Y61540D01*
X269360Y66720D01*
X271840Y72240D01*
X273640Y78020D01*
X274740Y83960D01*
X275100Y90000D01*
X274740Y96039D01*
X273640Y101980D01*
X271840Y107760D01*
X269360Y113280D01*
X266240Y118460D01*
X262500Y123219D01*
X258220Y127500D01*
X253460Y131220D01*
X248280Y134360D01*
X242780Y136840D01*
X237000Y138640D01*
X231040Y139720D01*
X225020Y140100D01*
X218980Y139720D01*
X213020Y138640D01*
X207240Y136840D01*
X201740Y134360D01*
X196560Y131220D01*
X191800Y127500D01*
X187520Y123219D01*
X183780Y118460D01*
X180660Y113280D01*
X178180Y107760D01*
X176380Y101980D01*
X175280Y96039D01*
X174920Y90000D01*
X175280Y83960D01*
X176380Y78020D01*
X178180Y72240D01*
X180660Y66720D01*
X183780Y61540D01*
X187520Y56780D01*
X191800Y52500D01*
X196560Y48780D01*
X201740Y45640D01*
X207240Y43160D01*
X213020Y41360D01*
X218980Y40279D01*
G37*
G36*
X1775020Y39900D02*
G01*
X1781040Y40279D01*
X1787000Y41360D01*
X1792780Y43160D01*
X1798280Y45640D01*
X1803460Y48780D01*
X1808220Y52500D01*
X1812500Y56780D01*
X1816240Y61540D01*
X1819360Y66720D01*
X1821840Y72240D01*
X1823640Y78020D01*
X1824740Y83960D01*
X1825100Y90000D01*
X1824740Y96039D01*
X1823640Y101980D01*
X1821840Y107760D01*
X1819360Y113280D01*
X1816240Y118460D01*
X1812500Y123219D01*
X1808220Y127500D01*
X1803460Y131220D01*
X1798280Y134360D01*
X1792780Y136840D01*
X1787000Y138640D01*
X1781040Y139720D01*
X1775020Y140100D01*
X1768980Y139720D01*
X1763020Y138640D01*
X1757240Y136840D01*
X1751740Y134360D01*
X1746560Y131220D01*
X1741800Y127500D01*
X1737520Y123219D01*
X1733779Y118460D01*
X1730660Y113280D01*
X1728180Y107760D01*
X1726380Y101980D01*
X1725280Y96039D01*
X1724920Y90000D01*
X1725280Y83960D01*
X1726380Y78020D01*
X1728180Y72240D01*
X1730660Y66720D01*
X1733779Y61540D01*
X1737520Y56780D01*
X1741800Y52500D01*
X1746560Y48780D01*
X1751740Y45640D01*
X1757240Y43160D01*
X1763020Y41360D01*
X1768980Y40279D01*
G37*
G36*
X420200Y64900D02*
G01*
X694700Y64900D01*
X697840Y65220D01*
X700660Y66060D01*
X703259Y67460D01*
X705699Y69460D01*
X843319Y207079D01*
X844620Y207940D01*
X846140Y208240D01*
X868439Y208240D01*
X870900Y208520D01*
X873040Y209280D01*
X874940Y210479D01*
X876540Y212060D01*
X877740Y213980D01*
X878480Y216100D01*
X878760Y218580D01*
X878760Y261420D01*
X878480Y263900D01*
X877740Y266020D01*
X876540Y267940D01*
X874940Y269540D01*
X873040Y270740D01*
X870900Y271480D01*
X868439Y271760D01*
X841340Y271760D01*
X838860Y271480D01*
X836740Y270740D01*
X834820Y269540D01*
X833240Y267940D01*
X832039Y266020D01*
X831280Y263900D01*
X831000Y261420D01*
X831000Y239120D01*
X830699Y237600D01*
X829840Y236300D01*
X826540Y233000D01*
X825240Y232140D01*
X823720Y231840D01*
X822180Y232140D01*
X820879Y233000D01*
X820020Y234300D01*
X819720Y235840D01*
X819720Y261420D01*
X819440Y263900D01*
X818680Y266020D01*
X817480Y267940D01*
X815900Y269540D01*
X813980Y270740D01*
X811860Y271480D01*
X809380Y271760D01*
X782280Y271760D01*
X779820Y271480D01*
X777680Y270740D01*
X775780Y269540D01*
X774180Y267940D01*
X772980Y266020D01*
X772240Y263900D01*
X771960Y261420D01*
X771960Y239140D01*
X771640Y237600D01*
X770780Y236300D01*
X767480Y233020D01*
X766180Y232140D01*
X764659Y231840D01*
X763120Y232140D01*
X761820Y233020D01*
X760960Y234300D01*
X760660Y235840D01*
X760660Y261420D01*
X760380Y263900D01*
X759640Y266020D01*
X758439Y267940D01*
X756840Y269540D01*
X753439Y271600D01*
X752500Y272940D01*
X752159Y274540D01*
X752159Y279140D01*
X752460Y280680D01*
X753340Y281980D01*
X1100040Y628680D01*
X1101340Y629560D01*
X1102880Y629860D01*
X1527380Y629860D01*
X1528920Y629560D01*
X1530200Y628680D01*
X1530820Y628080D01*
X1533959Y625880D01*
X1537460Y624240D01*
X1541180Y623260D01*
X1545020Y622920D01*
X1548839Y623260D01*
X1552560Y624240D01*
X1556060Y625880D01*
X1559199Y628080D01*
X1561920Y630800D01*
X1564139Y633960D01*
X1565760Y637440D01*
X1566759Y641160D01*
X1567100Y645000D01*
X1566759Y648840D01*
X1565760Y652560D01*
X1564139Y656040D01*
X1561920Y659200D01*
X1559199Y661919D01*
X1556060Y664120D01*
X1552560Y665759D01*
X1548839Y666740D01*
X1545020Y667080D01*
X1541180Y666740D01*
X1537460Y665759D01*
X1533959Y664120D01*
X1530820Y661919D01*
X1530120Y661240D01*
X1528839Y660360D01*
X1527300Y660060D01*
X1095160Y660060D01*
X1092020Y659760D01*
X1089180Y658900D01*
X1086580Y657500D01*
X1084140Y655500D01*
X726520Y297880D01*
X724520Y295440D01*
X723120Y292840D01*
X722260Y290000D01*
X721960Y286860D01*
X721960Y274740D01*
X721620Y273140D01*
X720680Y271800D01*
X719280Y270960D01*
X718620Y270740D01*
X716720Y269540D01*
X715120Y267940D01*
X713920Y266020D01*
X713180Y263900D01*
X712900Y261420D01*
X712900Y218580D01*
X713180Y216100D01*
X713920Y213980D01*
X715120Y212060D01*
X716720Y210479D01*
X718620Y209280D01*
X720759Y208520D01*
X723220Y208240D01*
X733060Y208240D01*
X734599Y207940D01*
X735900Y207079D01*
X736760Y205780D01*
X737060Y204240D01*
X736760Y202719D01*
X735900Y201420D01*
X675740Y141280D01*
X674460Y140400D01*
X672920Y140100D01*
X443800Y140100D01*
X442120Y140480D01*
X440740Y141520D01*
X439940Y143060D01*
X439860Y144800D01*
X440540Y146400D01*
X441800Y147560D01*
X443459Y148080D01*
X445340Y148260D01*
X449060Y149240D01*
X452560Y150880D01*
X455700Y153080D01*
X458420Y155800D01*
X460640Y158960D01*
X462260Y162440D01*
X463260Y166160D01*
X463600Y170000D01*
X463260Y173840D01*
X462260Y177560D01*
X460640Y181040D01*
X458420Y184200D01*
X457780Y184840D01*
X456900Y186140D01*
X456599Y187680D01*
X456599Y205360D01*
X456940Y206960D01*
X457879Y208299D01*
X459660Y209280D01*
X461560Y210479D01*
X463160Y212060D01*
X464360Y213980D01*
X465100Y216100D01*
X465379Y218580D01*
X465379Y261420D01*
X465100Y263900D01*
X464360Y266020D01*
X463160Y267940D01*
X461560Y269540D01*
X459660Y270740D01*
X457520Y271480D01*
X455060Y271760D01*
X427939Y271760D01*
X425480Y271480D01*
X423360Y270740D01*
X421440Y269540D01*
X419840Y267940D01*
X418640Y266020D01*
X417879Y263840D01*
X417060Y262480D01*
X415780Y261520D01*
X414240Y261160D01*
X412660Y261420D01*
X411320Y262280D01*
X410420Y263600D01*
X410100Y265160D01*
X410100Y317720D01*
X410400Y319260D01*
X411280Y320540D01*
X475400Y384680D01*
X476700Y385540D01*
X478240Y385840D01*
X515300Y385840D01*
X517760Y386120D01*
X519880Y386860D01*
X521800Y388060D01*
X523400Y389660D01*
X524600Y391580D01*
X525340Y393700D01*
X525620Y396180D01*
X525620Y435100D01*
X525340Y437560D01*
X524600Y439680D01*
X523400Y441599D01*
X521800Y443200D01*
X519880Y444400D01*
X517760Y445140D01*
X515300Y445420D01*
X454720Y445420D01*
X452260Y445140D01*
X450120Y444400D01*
X448220Y443200D01*
X446620Y441599D01*
X445420Y439680D01*
X444680Y437560D01*
X444400Y435100D01*
X444400Y398040D01*
X444080Y396500D01*
X443220Y395200D01*
X384460Y336440D01*
X382460Y334000D01*
X381079Y331400D01*
X380220Y328579D01*
X379900Y325439D01*
X379900Y165200D01*
X380220Y162060D01*
X381079Y159220D01*
X382460Y156620D01*
X384460Y154180D01*
X424180Y114460D01*
X426620Y112460D01*
X429240Y111060D01*
X432060Y110220D01*
X435200Y109900D01*
X680639Y109900D01*
X683780Y110220D01*
X686600Y111060D01*
X689200Y112460D01*
X691640Y114460D01*
X784260Y207079D01*
X785560Y207940D01*
X787080Y208240D01*
X792120Y208240D01*
X793660Y207940D01*
X794960Y207079D01*
X795819Y205780D01*
X796120Y204240D01*
X795819Y202719D01*
X794960Y201420D01*
X689800Y96280D01*
X688520Y95399D01*
X686979Y95100D01*
X427920Y95100D01*
X426380Y95399D01*
X425080Y96280D01*
X76280Y445080D01*
X75400Y446380D01*
X75100Y447920D01*
X75100Y687080D01*
X75400Y688620D01*
X76280Y689920D01*
X115800Y729440D01*
X117100Y730300D01*
X118620Y730620D01*
X275060Y730620D01*
X277520Y730879D01*
X279660Y731640D01*
X281560Y732840D01*
X283160Y734419D01*
X284360Y736340D01*
X285100Y738460D01*
X285380Y740939D01*
X285380Y787480D01*
X285100Y789960D01*
X284360Y792080D01*
X283160Y794000D01*
X281560Y795580D01*
X279660Y796780D01*
X277520Y797540D01*
X275060Y797820D01*
X102500Y797820D01*
X100040Y797540D01*
X97920Y796780D01*
X96000Y795580D01*
X94400Y794000D01*
X93200Y792080D01*
X92460Y789960D01*
X92180Y787480D01*
X92180Y750200D01*
X91880Y748660D01*
X91020Y747360D01*
X49460Y705819D01*
X47460Y703379D01*
X46080Y700780D01*
X45220Y697940D01*
X44900Y694800D01*
X44900Y440200D01*
X45220Y437060D01*
X46080Y434219D01*
X47460Y431620D01*
X49460Y429180D01*
X409180Y69460D01*
X411620Y67460D01*
X414240Y66060D01*
X417060Y65220D01*
G37*
G36*
X546060Y208240D02*
G01*
X573160Y208240D01*
X575640Y208520D01*
X577760Y209280D01*
X579680Y210479D01*
X581260Y212060D01*
X582460Y213980D01*
X583220Y216100D01*
X583500Y218580D01*
X583500Y261420D01*
X583220Y263900D01*
X582460Y266020D01*
X581260Y267940D01*
X579680Y269540D01*
X578280Y270400D01*
X577120Y271520D01*
X576480Y273000D01*
X576480Y274620D01*
X577120Y276080D01*
X579140Y278960D01*
X580760Y282440D01*
X581760Y286160D01*
X582100Y290000D01*
X581760Y293840D01*
X580760Y297560D01*
X579140Y301040D01*
X576920Y304200D01*
X574200Y306920D01*
X571060Y309120D01*
X567560Y310760D01*
X563840Y311740D01*
X560020Y312080D01*
X556180Y311740D01*
X552460Y310760D01*
X548960Y309120D01*
X545820Y306920D01*
X543100Y304200D01*
X540880Y301040D01*
X539260Y297560D01*
X538260Y293840D01*
X537920Y290000D01*
X538260Y286160D01*
X539260Y282440D01*
X540880Y278960D01*
X542640Y276440D01*
X543280Y274960D01*
X543300Y273360D01*
X542660Y271860D01*
X541500Y270760D01*
X539560Y269540D01*
X537960Y267940D01*
X536760Y266020D01*
X536020Y263900D01*
X535740Y261420D01*
X535740Y218580D01*
X536020Y216100D01*
X536760Y213980D01*
X537960Y212060D01*
X539560Y210479D01*
X541460Y209280D01*
X543600Y208520D01*
G37*
G36*
X664160Y208240D02*
G01*
X691280Y208240D01*
X693740Y208520D01*
X695879Y209280D01*
X697780Y210479D01*
X699380Y212060D01*
X700580Y213980D01*
X701320Y216100D01*
X701600Y218580D01*
X701600Y261420D01*
X701320Y263900D01*
X700580Y266020D01*
X699380Y267940D01*
X697780Y269540D01*
X695879Y270740D01*
X694840Y271100D01*
X693560Y271820D01*
X692640Y272960D01*
X692180Y274360D01*
X692280Y275820D01*
X692880Y277160D01*
X694140Y278960D01*
X695759Y282440D01*
X696760Y286160D01*
X697099Y290000D01*
X696760Y293840D01*
X695759Y297560D01*
X694140Y301040D01*
X691919Y304200D01*
X689200Y306920D01*
X686060Y309120D01*
X682560Y310760D01*
X678840Y311740D01*
X675020Y312080D01*
X671180Y311740D01*
X667460Y310760D01*
X663960Y309120D01*
X660819Y306920D01*
X658100Y304200D01*
X655879Y301040D01*
X654260Y297560D01*
X653259Y293840D01*
X652920Y290000D01*
X653259Y286160D01*
X654260Y282440D01*
X655879Y278960D01*
X658300Y275520D01*
X659040Y273640D01*
X659140Y272280D01*
X658760Y270960D01*
X657980Y269840D01*
X656060Y267940D01*
X654860Y266020D01*
X654120Y263900D01*
X653840Y261420D01*
X653840Y218580D01*
X654120Y216100D01*
X654860Y213980D01*
X656060Y212060D01*
X657660Y210479D01*
X659580Y209280D01*
X661700Y208520D01*
G37*
G36*
X605120Y208240D02*
G01*
X632220Y208240D01*
X634680Y208520D01*
X636820Y209280D01*
X638720Y210479D01*
X640320Y212060D01*
X641520Y213980D01*
X642260Y216100D01*
X642540Y218580D01*
X642540Y261420D01*
X642260Y263900D01*
X641520Y266020D01*
X640320Y267940D01*
X638720Y269540D01*
X635360Y271600D01*
X634420Y272920D01*
X634080Y274520D01*
X634080Y277960D01*
X634460Y279660D01*
X635760Y282440D01*
X636760Y286160D01*
X637100Y290000D01*
X636760Y293840D01*
X635760Y297560D01*
X634140Y301040D01*
X631920Y304200D01*
X629200Y306920D01*
X626060Y309120D01*
X622560Y310760D01*
X618840Y311740D01*
X615020Y312080D01*
X611180Y311740D01*
X607460Y310760D01*
X603960Y309120D01*
X600820Y306920D01*
X598100Y304200D01*
X595880Y301040D01*
X594260Y297560D01*
X593260Y293840D01*
X592920Y290000D01*
X593260Y286160D01*
X594260Y282440D01*
X595880Y278960D01*
X598100Y275800D01*
X598660Y275240D01*
X599520Y273940D01*
X599820Y272420D01*
X599520Y270880D01*
X598660Y269580D01*
X597020Y267940D01*
X595820Y266020D01*
X595060Y263900D01*
X594780Y261420D01*
X594780Y218580D01*
X595060Y216100D01*
X595820Y213980D01*
X597020Y212060D01*
X598600Y210479D01*
X600520Y209280D01*
X602640Y208520D01*
G37*
G36*
X487000Y208240D02*
G01*
X514120Y208240D01*
X516580Y208520D01*
X518700Y209280D01*
X520620Y210479D01*
X522220Y212060D01*
X523420Y213980D01*
X524159Y216100D01*
X524440Y218580D01*
X524440Y261420D01*
X524159Y263900D01*
X523420Y266020D01*
X522220Y267940D01*
X520620Y269540D01*
X518700Y270740D01*
X516940Y271700D01*
X515980Y273000D01*
X515640Y274560D01*
X515460Y282580D01*
X515740Y284160D01*
X519140Y288960D01*
X520760Y292440D01*
X521760Y296160D01*
X522100Y300000D01*
X521760Y303840D01*
X520760Y307560D01*
X519140Y311040D01*
X516920Y314200D01*
X514200Y316920D01*
X511060Y319120D01*
X507560Y320760D01*
X503840Y321740D01*
X500020Y322080D01*
X496180Y321740D01*
X492460Y320760D01*
X488960Y319120D01*
X485820Y316920D01*
X483100Y314200D01*
X480880Y311040D01*
X479260Y307560D01*
X478260Y303840D01*
X477920Y300000D01*
X478260Y296160D01*
X479260Y292440D01*
X480880Y288960D01*
X483100Y285800D01*
X484080Y284820D01*
X484940Y283560D01*
X485260Y282080D01*
X485420Y274720D01*
X485120Y273080D01*
X484159Y271720D01*
X482400Y270740D01*
X480500Y269540D01*
X478900Y267940D01*
X477700Y266020D01*
X476960Y263900D01*
X476680Y261420D01*
X476680Y218580D01*
X476960Y216100D01*
X477700Y213980D01*
X478900Y212060D01*
X480500Y210479D01*
X482400Y209280D01*
X484540Y208520D01*
G37*
G36*
X1434040Y216840D02*
G01*
X1465100Y216840D01*
X1467560Y217100D01*
X1469700Y217860D01*
X1471600Y219060D01*
X1473200Y220640D01*
X1474400Y222560D01*
X1475180Y224840D01*
X1475840Y226460D01*
X1477120Y227640D01*
X1478800Y228180D01*
X1480520Y227940D01*
X1481980Y226980D01*
X1482900Y225500D01*
X1483800Y222960D01*
X1485000Y221040D01*
X1486600Y219440D01*
X1488500Y218240D01*
X1490640Y217500D01*
X1493100Y217220D01*
X1524160Y217220D01*
X1526620Y217500D01*
X1528740Y218240D01*
X1530660Y219440D01*
X1532260Y221040D01*
X1533460Y222960D01*
X1534340Y225500D01*
X1535180Y226900D01*
X1536500Y227840D01*
X1538080Y228180D01*
X1539680Y227880D01*
X1541000Y226960D01*
X1541879Y225580D01*
X1542840Y222979D01*
X1544060Y221040D01*
X1545660Y219440D01*
X1547560Y218240D01*
X1549700Y217500D01*
X1552160Y217220D01*
X1583200Y217220D01*
X1585680Y217500D01*
X1587800Y218240D01*
X1589720Y219440D01*
X1591300Y221040D01*
X1592500Y222960D01*
X1593260Y225080D01*
X1593540Y227540D01*
X1593540Y274340D01*
X1593260Y276800D01*
X1592500Y278940D01*
X1591300Y280840D01*
X1589720Y282440D01*
X1587800Y283640D01*
X1586360Y284140D01*
X1584960Y285000D01*
X1584019Y286320D01*
X1583680Y287920D01*
X1583680Y295900D01*
X1583980Y297440D01*
X1584860Y298740D01*
X1586920Y300800D01*
X1589139Y303960D01*
X1590760Y307440D01*
X1591759Y311160D01*
X1592100Y315000D01*
X1591759Y318840D01*
X1590760Y322560D01*
X1589139Y326040D01*
X1586920Y329200D01*
X1584199Y331920D01*
X1581060Y334120D01*
X1577560Y335760D01*
X1573839Y336740D01*
X1570020Y337080D01*
X1566180Y336740D01*
X1562460Y335760D01*
X1558959Y334120D01*
X1555820Y331920D01*
X1553100Y329200D01*
X1550880Y326040D01*
X1549259Y322560D01*
X1548260Y318840D01*
X1547920Y315000D01*
X1548260Y311160D01*
X1549259Y307440D01*
X1550880Y303960D01*
X1552760Y301280D01*
X1553300Y300180D01*
X1553480Y298980D01*
X1553480Y288400D01*
X1553220Y286960D01*
X1552460Y285720D01*
X1551320Y284840D01*
X1549700Y284400D01*
X1547560Y283640D01*
X1545660Y282440D01*
X1544060Y280840D01*
X1542860Y278940D01*
X1541960Y276380D01*
X1541120Y275000D01*
X1539820Y274040D01*
X1538220Y273700D01*
X1536639Y274020D01*
X1535300Y274940D01*
X1534440Y276320D01*
X1533480Y278900D01*
X1532260Y280840D01*
X1530660Y282440D01*
X1528740Y283640D01*
X1527320Y284140D01*
X1525920Y284980D01*
X1524980Y286320D01*
X1524640Y287920D01*
X1524640Y335260D01*
X1524340Y338400D01*
X1523480Y341240D01*
X1522080Y343840D01*
X1520080Y346280D01*
X1443200Y423160D01*
X1442400Y424300D01*
X1442040Y425640D01*
X1441759Y428840D01*
X1440760Y432560D01*
X1439139Y436040D01*
X1436920Y439200D01*
X1434199Y441920D01*
X1431060Y444120D01*
X1427560Y445760D01*
X1423839Y446740D01*
X1420020Y447080D01*
X1416180Y446740D01*
X1412460Y445760D01*
X1408959Y444120D01*
X1405820Y441920D01*
X1403100Y439200D01*
X1400880Y436040D01*
X1399259Y432560D01*
X1398260Y428840D01*
X1397920Y425000D01*
X1398260Y421160D01*
X1399259Y417440D01*
X1400880Y413960D01*
X1403100Y410800D01*
X1405820Y408080D01*
X1408959Y405880D01*
X1412460Y404240D01*
X1416180Y403260D01*
X1419360Y402980D01*
X1420700Y402620D01*
X1421840Y401820D01*
X1493280Y330379D01*
X1494139Y329080D01*
X1494440Y327540D01*
X1494440Y288400D01*
X1494180Y286960D01*
X1493420Y285720D01*
X1492280Y284840D01*
X1490640Y284400D01*
X1488500Y283640D01*
X1486600Y282440D01*
X1485000Y280840D01*
X1483820Y278960D01*
X1482900Y276320D01*
X1482140Y274980D01*
X1480940Y274040D01*
X1479460Y273620D01*
X1477940Y273780D01*
X1476579Y274520D01*
X1475600Y275700D01*
X1474400Y279340D01*
X1473200Y281240D01*
X1471600Y282840D01*
X1469700Y284040D01*
X1468260Y284540D01*
X1466860Y285380D01*
X1465900Y286720D01*
X1465580Y288320D01*
X1465580Y324340D01*
X1465260Y327480D01*
X1464400Y330300D01*
X1463020Y332920D01*
X1461020Y335360D01*
X1388200Y408180D01*
X1387400Y409300D01*
X1387040Y410660D01*
X1386759Y413840D01*
X1385760Y417560D01*
X1384139Y421040D01*
X1381920Y424200D01*
X1379199Y426920D01*
X1376060Y429120D01*
X1372560Y430760D01*
X1368839Y431740D01*
X1365020Y432080D01*
X1361180Y431740D01*
X1357460Y430760D01*
X1353959Y429120D01*
X1350820Y426920D01*
X1348100Y424200D01*
X1345880Y421040D01*
X1344259Y417560D01*
X1343260Y413840D01*
X1342920Y410000D01*
X1343260Y406160D01*
X1344259Y402440D01*
X1345880Y398960D01*
X1348100Y395800D01*
X1350820Y393080D01*
X1353959Y390880D01*
X1357460Y389240D01*
X1361180Y388260D01*
X1364360Y387980D01*
X1365700Y387620D01*
X1366840Y386820D01*
X1434199Y319460D01*
X1435080Y318160D01*
X1435380Y316620D01*
X1435380Y288780D01*
X1435120Y287360D01*
X1434360Y286120D01*
X1433220Y285240D01*
X1431579Y284780D01*
X1429460Y284040D01*
X1427540Y282840D01*
X1425940Y281240D01*
X1424740Y279340D01*
X1423959Y277040D01*
X1423300Y275420D01*
X1422020Y274240D01*
X1420340Y273720D01*
X1418620Y273960D01*
X1417160Y274900D01*
X1416240Y276380D01*
X1415340Y278940D01*
X1414139Y280840D01*
X1412540Y282440D01*
X1410640Y283640D01*
X1408300Y284460D01*
X1406900Y285300D01*
X1405960Y286640D01*
X1405620Y288240D01*
X1405620Y289280D01*
X1405320Y292420D01*
X1404460Y295260D01*
X1403060Y297860D01*
X1401060Y300300D01*
X1343200Y358160D01*
X1342400Y359300D01*
X1342040Y360640D01*
X1341759Y363840D01*
X1340760Y367560D01*
X1339139Y371040D01*
X1336920Y374200D01*
X1334199Y376920D01*
X1331060Y379120D01*
X1327560Y380760D01*
X1323839Y381740D01*
X1320020Y382080D01*
X1316180Y381740D01*
X1312460Y380760D01*
X1308959Y379120D01*
X1305820Y376920D01*
X1303100Y374200D01*
X1300880Y371040D01*
X1299259Y367560D01*
X1298260Y363840D01*
X1297920Y360000D01*
X1298260Y356160D01*
X1299259Y352440D01*
X1300880Y348960D01*
X1303100Y345800D01*
X1305820Y343080D01*
X1308959Y340880D01*
X1312460Y339240D01*
X1316180Y338260D01*
X1319360Y337980D01*
X1320700Y337620D01*
X1321840Y336820D01*
X1369680Y288980D01*
X1370500Y287800D01*
X1370840Y286420D01*
X1370680Y285000D01*
X1370040Y283720D01*
X1368480Y282440D01*
X1366900Y280840D01*
X1365700Y278940D01*
X1364800Y276380D01*
X1363959Y275000D01*
X1362640Y274040D01*
X1361060Y273700D01*
X1359480Y274020D01*
X1358140Y274940D01*
X1357280Y276320D01*
X1356300Y278900D01*
X1355080Y280840D01*
X1353500Y282440D01*
X1351579Y283640D01*
X1349460Y284400D01*
X1346980Y284660D01*
X1338340Y284660D01*
X1336819Y284980D01*
X1335520Y285840D01*
X1303200Y318160D01*
X1302400Y319300D01*
X1302040Y320640D01*
X1301759Y323840D01*
X1300760Y327560D01*
X1299139Y331040D01*
X1296920Y334200D01*
X1294199Y336920D01*
X1291060Y339120D01*
X1287560Y340760D01*
X1283839Y341740D01*
X1280020Y342080D01*
X1276180Y341740D01*
X1272460Y340760D01*
X1268960Y339120D01*
X1265820Y336920D01*
X1263100Y334200D01*
X1260880Y331040D01*
X1259260Y327560D01*
X1258260Y323840D01*
X1257920Y320000D01*
X1258260Y316160D01*
X1259260Y312440D01*
X1260880Y308960D01*
X1263100Y305800D01*
X1265820Y303080D01*
X1268960Y300880D01*
X1272460Y299240D01*
X1276180Y298260D01*
X1279360Y297980D01*
X1280700Y297620D01*
X1281840Y296820D01*
X1287160Y291500D01*
X1288020Y290200D01*
X1288320Y288660D01*
X1288020Y287140D01*
X1287160Y285840D01*
X1285860Y284980D01*
X1284319Y284660D01*
X1282780Y284660D01*
X1282780Y265260D01*
X1301620Y265260D01*
X1303140Y264960D01*
X1304440Y264080D01*
X1305300Y262780D01*
X1305620Y261260D01*
X1305620Y240640D01*
X1305300Y239100D01*
X1304440Y237800D01*
X1303140Y236940D01*
X1301620Y236640D01*
X1282780Y236640D01*
X1282780Y217220D01*
X1287940Y217220D01*
X1290400Y217500D01*
X1292520Y218240D01*
X1294440Y219440D01*
X1296040Y221040D01*
X1297240Y222960D01*
X1298120Y225500D01*
X1298959Y226900D01*
X1300280Y227840D01*
X1301860Y228180D01*
X1303460Y227880D01*
X1304780Y226960D01*
X1305660Y225580D01*
X1306620Y222979D01*
X1307840Y221040D01*
X1309440Y219440D01*
X1311339Y218240D01*
X1313480Y217500D01*
X1315940Y217220D01*
X1346980Y217220D01*
X1349460Y217500D01*
X1351579Y218240D01*
X1353500Y219440D01*
X1355080Y221040D01*
X1356279Y222960D01*
X1357180Y225500D01*
X1358020Y226900D01*
X1359340Y227840D01*
X1360920Y228180D01*
X1362500Y227880D01*
X1363839Y226960D01*
X1364700Y225580D01*
X1365680Y222979D01*
X1366900Y221040D01*
X1368480Y219440D01*
X1370400Y218240D01*
X1372520Y217500D01*
X1375000Y217220D01*
X1406040Y217220D01*
X1408500Y217500D01*
X1410640Y218240D01*
X1412540Y219440D01*
X1414139Y221040D01*
X1415340Y222940D01*
X1416240Y225580D01*
X1417000Y226920D01*
X1418220Y227860D01*
X1419680Y228280D01*
X1421220Y228100D01*
X1422560Y227380D01*
X1423540Y226200D01*
X1424740Y222560D01*
X1425940Y220640D01*
X1427540Y219060D01*
X1429460Y217860D01*
X1431579Y217100D01*
G37*
G36*
X1256880Y217220D02*
G01*
X1262040Y217220D01*
X1262040Y236640D01*
X1246560Y236640D01*
X1246560Y227540D01*
X1246840Y225080D01*
X1247580Y222960D01*
X1248780Y221040D01*
X1250380Y219440D01*
X1252280Y218240D01*
X1254420Y217500D01*
G37*
G36*
X1246560Y265260D02*
G01*
X1262040Y265260D01*
X1262040Y284660D01*
X1256880Y284660D01*
X1254420Y284400D01*
X1252280Y283640D01*
X1250380Y282440D01*
X1248780Y280840D01*
X1247580Y278940D01*
X1246840Y276800D01*
X1246560Y274340D01*
G37*
G36*
X177500Y383840D02*
G01*
X397060Y383840D01*
X399520Y384120D01*
X401659Y384860D01*
X403560Y386060D01*
X405160Y387660D01*
X406360Y389560D01*
X407100Y391700D01*
X407380Y394159D01*
X407380Y480720D01*
X407100Y483180D01*
X406360Y485319D01*
X405160Y487220D01*
X403560Y488820D01*
X401659Y490020D01*
X399520Y490760D01*
X397060Y491040D01*
X233280Y491040D01*
X231640Y491400D01*
X230300Y492380D01*
X229460Y493840D01*
X229300Y495500D01*
X229840Y497080D01*
X231060Y499120D01*
X232740Y503320D01*
X233780Y507740D01*
X234120Y512260D01*
X233780Y516760D01*
X232740Y521180D01*
X231060Y525380D01*
X229660Y527720D01*
X229120Y529300D01*
X229280Y530960D01*
X230120Y532420D01*
X231460Y533420D01*
X233100Y533760D01*
X275060Y533760D01*
X277520Y534040D01*
X279660Y534780D01*
X281560Y535980D01*
X283160Y537580D01*
X284360Y539480D01*
X285100Y541620D01*
X285380Y544080D01*
X285380Y548260D01*
X285680Y549800D01*
X286560Y551080D01*
X287860Y551960D01*
X289380Y552260D01*
X419739Y552260D01*
X421280Y551960D01*
X422560Y551080D01*
X447120Y526500D01*
X447980Y525200D01*
X448280Y523660D01*
X447980Y522140D01*
X447120Y520840D01*
X446620Y520340D01*
X445420Y518420D01*
X444680Y516300D01*
X444400Y513840D01*
X444400Y474920D01*
X444680Y472440D01*
X445420Y470319D01*
X446620Y468400D01*
X448220Y466800D01*
X450120Y465600D01*
X452260Y464860D01*
X454720Y464580D01*
X515300Y464580D01*
X517760Y464860D01*
X519880Y465600D01*
X521800Y466800D01*
X523400Y468400D01*
X524600Y470319D01*
X525340Y472440D01*
X525620Y474920D01*
X525620Y513840D01*
X525340Y516300D01*
X524600Y518420D01*
X523400Y520340D01*
X521800Y521940D01*
X519880Y523140D01*
X517760Y523880D01*
X515300Y524159D01*
X493780Y524159D01*
X492260Y524460D01*
X490959Y525320D01*
X438480Y577880D01*
X436040Y579900D01*
X433440Y581280D01*
X430620Y582140D01*
X427480Y582460D01*
X289380Y582460D01*
X287860Y582760D01*
X286560Y583640D01*
X285680Y584920D01*
X285380Y586460D01*
X285380Y590640D01*
X285100Y593100D01*
X284360Y595240D01*
X283160Y597140D01*
X281560Y598740D01*
X279660Y599940D01*
X277520Y600680D01*
X275060Y600960D01*
X102500Y600960D01*
X100040Y600680D01*
X97920Y599940D01*
X96000Y598740D01*
X94400Y597140D01*
X93200Y595240D01*
X92460Y593100D01*
X92180Y590640D01*
X92180Y544080D01*
X92460Y541620D01*
X93200Y539480D01*
X94400Y537580D01*
X96000Y535980D01*
X97920Y534780D01*
X100040Y534040D01*
X102500Y533760D01*
X175900Y533760D01*
X177580Y533380D01*
X178960Y532320D01*
X179760Y530800D01*
X179840Y529060D01*
X179100Y527380D01*
X177100Y523320D01*
X175720Y519000D01*
X175040Y514520D01*
X175040Y509980D01*
X175720Y505500D01*
X177079Y501200D01*
X179380Y496680D01*
X179780Y495200D01*
X179620Y493680D01*
X178880Y492340D01*
X177700Y491360D01*
X176240Y490900D01*
X175040Y490760D01*
X172920Y490020D01*
X171000Y488820D01*
X169400Y487220D01*
X168200Y485319D01*
X167460Y483180D01*
X167180Y480720D01*
X167180Y394159D01*
X167460Y391700D01*
X168200Y389560D01*
X169400Y387660D01*
X171000Y386060D01*
X172920Y384860D01*
X175040Y384120D01*
G37*
G36*
X102500Y632200D02*
G01*
X275060Y632200D01*
X277520Y632460D01*
X279660Y633220D01*
X281560Y634420D01*
X283160Y636000D01*
X284360Y637920D01*
X285100Y640040D01*
X285380Y642520D01*
X285380Y689060D01*
X285100Y691540D01*
X284360Y693660D01*
X283160Y695580D01*
X281560Y697159D01*
X279660Y698360D01*
X277520Y699120D01*
X275060Y699400D01*
X102500Y699400D01*
X100040Y699120D01*
X97920Y698360D01*
X96000Y697159D01*
X94400Y695580D01*
X93200Y693660D01*
X92460Y691540D01*
X92180Y689060D01*
X92180Y642520D01*
X92460Y640040D01*
X93200Y637920D01*
X94400Y636000D01*
X96000Y634420D01*
X97920Y633220D01*
X100040Y632460D01*
G37*
G36*
X102500Y829040D02*
G01*
X275060Y829040D01*
X277520Y829320D01*
X279660Y830060D01*
X281560Y831260D01*
X283160Y832860D01*
X284360Y834760D01*
X285100Y836900D01*
X285380Y839360D01*
X285380Y885920D01*
X285100Y888379D01*
X284360Y890520D01*
X283160Y892420D01*
X281560Y894020D01*
X279660Y895220D01*
X277520Y895960D01*
X275060Y896240D01*
X233100Y896240D01*
X231460Y896600D01*
X230120Y897580D01*
X229280Y899040D01*
X229120Y900699D01*
X229660Y902280D01*
X231060Y904620D01*
X232740Y908820D01*
X233780Y913240D01*
X234120Y917760D01*
X233780Y922260D01*
X232740Y926680D01*
X231060Y930879D01*
X229840Y932920D01*
X229300Y934500D01*
X229460Y936160D01*
X230300Y937620D01*
X231640Y938620D01*
X233280Y938960D01*
X397060Y938960D01*
X399520Y939240D01*
X401659Y939980D01*
X403560Y941180D01*
X405160Y942780D01*
X406360Y944680D01*
X407100Y946820D01*
X407380Y949280D01*
X407380Y1035840D01*
X407100Y1038300D01*
X406360Y1040440D01*
X405160Y1042340D01*
X403560Y1043940D01*
X401659Y1045140D01*
X399520Y1045879D01*
X397060Y1046160D01*
X177500Y1046160D01*
X175040Y1045879D01*
X172920Y1045140D01*
X171000Y1043940D01*
X169400Y1042340D01*
X168200Y1040440D01*
X167460Y1038300D01*
X167180Y1035840D01*
X167180Y949280D01*
X167460Y946820D01*
X168200Y944680D01*
X169400Y942780D01*
X171000Y941180D01*
X172920Y939980D01*
X175040Y939240D01*
X176240Y939100D01*
X177700Y938640D01*
X178880Y937660D01*
X179620Y936320D01*
X179780Y934800D01*
X179380Y933319D01*
X177079Y928800D01*
X175720Y924500D01*
X175040Y920020D01*
X175040Y915480D01*
X175720Y911000D01*
X177100Y906700D01*
X179160Y902540D01*
X179840Y900939D01*
X179760Y899220D01*
X178960Y897680D01*
X177580Y896620D01*
X175900Y896240D01*
X102500Y896240D01*
X100040Y895960D01*
X97920Y895220D01*
X96000Y894020D01*
X94400Y892420D01*
X93200Y890520D01*
X92460Y888379D01*
X92180Y885920D01*
X92180Y839360D01*
X92460Y836900D01*
X93200Y834760D01*
X94400Y832860D01*
X96000Y831260D01*
X97920Y830060D01*
X100040Y829320D01*
G37*
G36*
X177500Y1123840D02*
G01*
X397060Y1123840D01*
X399520Y1124120D01*
X401659Y1124860D01*
X403560Y1126060D01*
X405160Y1127660D01*
X406360Y1129560D01*
X407100Y1131700D01*
X407380Y1134160D01*
X407380Y1220720D01*
X407100Y1223180D01*
X406360Y1225320D01*
X405160Y1227220D01*
X403560Y1228820D01*
X401659Y1230020D01*
X399520Y1230760D01*
X397060Y1231040D01*
X233280Y1231040D01*
X231640Y1231400D01*
X230300Y1232380D01*
X229480Y1233840D01*
X229320Y1235500D01*
X229840Y1237080D01*
X231060Y1239120D01*
X232740Y1243320D01*
X233780Y1247740D01*
X234120Y1252240D01*
X233780Y1256760D01*
X232740Y1261180D01*
X231060Y1265380D01*
X229660Y1267720D01*
X229140Y1269300D01*
X229300Y1270960D01*
X230120Y1272420D01*
X231460Y1273420D01*
X233100Y1273760D01*
X275060Y1273760D01*
X277520Y1274040D01*
X279660Y1274780D01*
X281560Y1275980D01*
X283160Y1277580D01*
X284360Y1279480D01*
X285100Y1281620D01*
X285380Y1284079D01*
X285380Y1290900D01*
X285680Y1292440D01*
X286560Y1293720D01*
X287860Y1294600D01*
X289380Y1294900D01*
X392340Y1294900D01*
X393860Y1294600D01*
X395160Y1293720D01*
X395800Y1293080D01*
X398960Y1290880D01*
X402460Y1289240D01*
X406180Y1288260D01*
X410000Y1287920D01*
X413840Y1288260D01*
X416780Y1289040D01*
X418160Y1289160D01*
X419500Y1288800D01*
X420640Y1288000D01*
X442140Y1266520D01*
X443000Y1265220D01*
X443300Y1263680D01*
X443000Y1262160D01*
X442140Y1260860D01*
X441620Y1260340D01*
X440420Y1258420D01*
X439680Y1256300D01*
X439400Y1253840D01*
X439400Y1214920D01*
X439680Y1212440D01*
X440420Y1210320D01*
X441620Y1208400D01*
X443220Y1206800D01*
X445120Y1205600D01*
X447260Y1204860D01*
X449720Y1204580D01*
X510300Y1204580D01*
X512760Y1204860D01*
X514880Y1205600D01*
X516800Y1206800D01*
X518400Y1208400D01*
X519600Y1210320D01*
X520340Y1212440D01*
X520620Y1214920D01*
X520620Y1253840D01*
X520340Y1256300D01*
X519600Y1258420D01*
X518400Y1260340D01*
X516800Y1261940D01*
X514880Y1263140D01*
X512760Y1263880D01*
X510300Y1264160D01*
X488860Y1264160D01*
X487340Y1264460D01*
X486040Y1265320D01*
X430820Y1320540D01*
X428100Y1322780D01*
X426920Y1324199D01*
X424200Y1326920D01*
X421040Y1329120D01*
X417560Y1330760D01*
X413840Y1331759D01*
X410000Y1332080D01*
X406180Y1331759D01*
X402460Y1330760D01*
X398960Y1329120D01*
X395800Y1326920D01*
X395160Y1326279D01*
X393860Y1325400D01*
X392340Y1325100D01*
X289380Y1325100D01*
X287860Y1325400D01*
X286560Y1326279D01*
X285680Y1327580D01*
X285380Y1329100D01*
X285380Y1330640D01*
X285100Y1333100D01*
X284360Y1335240D01*
X283160Y1337140D01*
X281560Y1338740D01*
X279660Y1339940D01*
X277520Y1340680D01*
X275060Y1340960D01*
X102500Y1340960D01*
X100040Y1340680D01*
X97920Y1339940D01*
X96000Y1338740D01*
X94400Y1337140D01*
X93200Y1335240D01*
X92460Y1333100D01*
X92180Y1330640D01*
X92180Y1284079D01*
X92460Y1281620D01*
X93200Y1279480D01*
X94400Y1277580D01*
X96000Y1275980D01*
X97920Y1274780D01*
X100040Y1274040D01*
X102500Y1273760D01*
X175900Y1273760D01*
X177600Y1273380D01*
X178960Y1272320D01*
X179760Y1270800D01*
X179840Y1269060D01*
X179100Y1267380D01*
X177100Y1263320D01*
X175740Y1259000D01*
X175040Y1254520D01*
X175040Y1249980D01*
X175740Y1245500D01*
X177100Y1241200D01*
X179380Y1236680D01*
X179780Y1235200D01*
X179620Y1233680D01*
X178900Y1232340D01*
X177719Y1231360D01*
X176260Y1230900D01*
X175040Y1230760D01*
X172920Y1230020D01*
X171000Y1228820D01*
X169400Y1227220D01*
X168200Y1225320D01*
X167460Y1223180D01*
X167180Y1220720D01*
X167180Y1134160D01*
X167460Y1131700D01*
X168200Y1129560D01*
X169400Y1127660D01*
X171000Y1126060D01*
X172920Y1124860D01*
X175040Y1124120D01*
G37*
G36*
X449720Y1125840D02*
G01*
X462239Y1125840D01*
X462239Y1143280D01*
X439400Y1143280D01*
X439400Y1136180D01*
X439680Y1133700D01*
X440420Y1131580D01*
X441620Y1129660D01*
X443220Y1128060D01*
X445120Y1126860D01*
X447260Y1126120D01*
G37*
G36*
X497760Y1125840D02*
G01*
X510300Y1125840D01*
X512760Y1126120D01*
X514880Y1126860D01*
X516800Y1128060D01*
X518400Y1129660D01*
X519600Y1131580D01*
X520340Y1133700D01*
X520620Y1136180D01*
X520620Y1143280D01*
X497760Y1143280D01*
G37*
G36*
X1670020Y1157920D02*
G01*
X1673839Y1158260D01*
X1677560Y1159260D01*
X1681060Y1160880D01*
X1684199Y1163100D01*
X1686920Y1165820D01*
X1689139Y1168960D01*
X1690760Y1172460D01*
X1691759Y1176180D01*
X1692100Y1180000D01*
X1691759Y1183840D01*
X1690760Y1187560D01*
X1689139Y1191060D01*
X1686920Y1194200D01*
X1684199Y1196920D01*
X1681060Y1199140D01*
X1677560Y1200760D01*
X1673839Y1201760D01*
X1670020Y1202100D01*
X1666180Y1201760D01*
X1662460Y1200760D01*
X1658959Y1199140D01*
X1655820Y1196920D01*
X1655160Y1196280D01*
X1653880Y1195420D01*
X1652340Y1195100D01*
X1233420Y1195100D01*
X1231900Y1195420D01*
X1230600Y1196280D01*
X1194440Y1232440D01*
X1193560Y1233780D01*
X1193280Y1235360D01*
X1193640Y1236940D01*
X1194300Y1238360D01*
X1196060Y1243920D01*
X1197140Y1249680D01*
X1197500Y1255520D01*
X1197140Y1261340D01*
X1196060Y1267100D01*
X1194300Y1272660D01*
X1191840Y1277980D01*
X1188760Y1282960D01*
X1185100Y1287500D01*
X1180900Y1291579D01*
X1176240Y1295100D01*
X1171180Y1298020D01*
X1165780Y1300300D01*
X1160160Y1301900D01*
X1154380Y1302800D01*
X1148540Y1302980D01*
X1142720Y1302440D01*
X1137020Y1301200D01*
X1131060Y1299060D01*
X1129580Y1298839D01*
X1128120Y1299160D01*
X1126880Y1300000D01*
X912120Y1514740D01*
X909680Y1516740D01*
X907080Y1518140D01*
X904260Y1519000D01*
X901120Y1519300D01*
X289380Y1519300D01*
X287860Y1519620D01*
X286560Y1520480D01*
X285680Y1521780D01*
X285380Y1523300D01*
X285380Y1527480D01*
X285100Y1529960D01*
X284360Y1532080D01*
X283160Y1534000D01*
X281560Y1535580D01*
X279660Y1536780D01*
X277520Y1537540D01*
X275060Y1537820D01*
X207900Y1537820D01*
X206360Y1538120D01*
X205060Y1538980D01*
X204200Y1540280D01*
X203900Y1541819D01*
X203900Y1565040D01*
X204200Y1566579D01*
X205060Y1567860D01*
X206360Y1568740D01*
X207900Y1569040D01*
X275060Y1569040D01*
X277520Y1569319D01*
X279660Y1570060D01*
X281560Y1571260D01*
X283160Y1572860D01*
X284360Y1574760D01*
X285100Y1576900D01*
X285380Y1579360D01*
X285380Y1625920D01*
X285100Y1628380D01*
X284360Y1630520D01*
X283160Y1632420D01*
X281560Y1634019D01*
X279660Y1635220D01*
X277520Y1635960D01*
X275060Y1636240D01*
X233100Y1636240D01*
X231460Y1636600D01*
X230120Y1637580D01*
X229300Y1639040D01*
X229140Y1640700D01*
X229660Y1642280D01*
X231060Y1644620D01*
X232740Y1648820D01*
X233780Y1653240D01*
X234120Y1657740D01*
X233780Y1662260D01*
X232740Y1666680D01*
X231060Y1670880D01*
X229840Y1672920D01*
X229300Y1674500D01*
X229460Y1676160D01*
X230300Y1677620D01*
X231640Y1678620D01*
X233280Y1678959D01*
X397060Y1678959D01*
X399520Y1679240D01*
X401659Y1679980D01*
X403560Y1681180D01*
X405160Y1682780D01*
X406360Y1684680D01*
X407100Y1686819D01*
X407380Y1689280D01*
X407380Y1775840D01*
X407100Y1778300D01*
X406360Y1780440D01*
X405160Y1782340D01*
X403560Y1783940D01*
X401659Y1785140D01*
X399520Y1785880D01*
X397060Y1786160D01*
X177500Y1786160D01*
X175040Y1785880D01*
X172920Y1785140D01*
X171000Y1783940D01*
X169400Y1782340D01*
X168200Y1780440D01*
X167460Y1778300D01*
X167180Y1775840D01*
X167180Y1689280D01*
X167460Y1686819D01*
X168200Y1684680D01*
X169400Y1682780D01*
X171000Y1681180D01*
X172920Y1679980D01*
X175040Y1679240D01*
X176260Y1679100D01*
X177719Y1678640D01*
X178900Y1677660D01*
X179620Y1676320D01*
X179800Y1674800D01*
X179380Y1673320D01*
X177100Y1668800D01*
X176740Y1667660D01*
X175940Y1666240D01*
X174640Y1665260D01*
X173060Y1664860D01*
X171460Y1665140D01*
X170080Y1666040D01*
X169200Y1666920D01*
X166060Y1669120D01*
X162560Y1670760D01*
X158840Y1671740D01*
X155020Y1672080D01*
X151180Y1671740D01*
X147460Y1670760D01*
X143960Y1669120D01*
X140820Y1666920D01*
X138100Y1664199D01*
X135880Y1661040D01*
X134260Y1657560D01*
X133260Y1653839D01*
X132920Y1650000D01*
X133260Y1646160D01*
X134860Y1640380D01*
X134600Y1638800D01*
X133740Y1637460D01*
X132440Y1636560D01*
X130879Y1636240D01*
X102500Y1636240D01*
X100040Y1635960D01*
X97920Y1635220D01*
X96000Y1634019D01*
X94400Y1632420D01*
X93200Y1630520D01*
X92460Y1628380D01*
X92180Y1625920D01*
X92180Y1579360D01*
X92460Y1576900D01*
X93200Y1574760D01*
X94400Y1572860D01*
X96000Y1571260D01*
X97920Y1570060D01*
X100040Y1569319D01*
X102500Y1569040D01*
X169700Y1569040D01*
X171220Y1568740D01*
X172520Y1567860D01*
X173380Y1566579D01*
X173700Y1565040D01*
X173700Y1541819D01*
X173380Y1540280D01*
X172520Y1538980D01*
X171220Y1538120D01*
X169700Y1537820D01*
X102500Y1537820D01*
X100040Y1537540D01*
X97920Y1536780D01*
X96000Y1535580D01*
X94400Y1534000D01*
X93200Y1532080D01*
X92460Y1529960D01*
X92180Y1527480D01*
X92180Y1480940D01*
X92460Y1478460D01*
X93200Y1476339D01*
X94400Y1474420D01*
X96000Y1472840D01*
X97920Y1471639D01*
X100040Y1470880D01*
X102500Y1470620D01*
X265540Y1470620D01*
X267180Y1470260D01*
X268540Y1469280D01*
X269360Y1467820D01*
X269520Y1466140D01*
X268980Y1464560D01*
X267840Y1463340D01*
X265820Y1461920D01*
X263100Y1459199D01*
X260880Y1456040D01*
X259259Y1452560D01*
X258260Y1448839D01*
X257979Y1445660D01*
X257620Y1444319D01*
X256820Y1443180D01*
X254220Y1440560D01*
X252920Y1439700D01*
X251380Y1439400D01*
X102500Y1439400D01*
X100040Y1439120D01*
X97920Y1438360D01*
X96000Y1437160D01*
X94400Y1435580D01*
X93200Y1433660D01*
X92460Y1431540D01*
X92180Y1429060D01*
X92180Y1382520D01*
X92460Y1380040D01*
X93200Y1377920D01*
X94400Y1376000D01*
X96000Y1374420D01*
X97920Y1373220D01*
X100040Y1372460D01*
X102500Y1372200D01*
X275060Y1372200D01*
X277520Y1372460D01*
X279660Y1373220D01*
X281560Y1374420D01*
X283160Y1376000D01*
X284360Y1377920D01*
X285100Y1380040D01*
X285380Y1382520D01*
X285380Y1420680D01*
X285660Y1422160D01*
X286480Y1423420D01*
X287700Y1424300D01*
X291060Y1425880D01*
X294200Y1428080D01*
X296920Y1430800D01*
X299140Y1433959D01*
X300760Y1437440D01*
X301760Y1441160D01*
X302100Y1445000D01*
X301760Y1448839D01*
X300760Y1452560D01*
X299140Y1456040D01*
X296920Y1459199D01*
X294200Y1461920D01*
X291060Y1464120D01*
X287560Y1465760D01*
X283940Y1466720D01*
X282460Y1467480D01*
X281420Y1468779D01*
X280980Y1470380D01*
X281240Y1472020D01*
X282140Y1473420D01*
X283160Y1474420D01*
X284360Y1476339D01*
X285100Y1478460D01*
X285380Y1480940D01*
X285380Y1485100D01*
X285680Y1486639D01*
X286560Y1487940D01*
X287860Y1488800D01*
X289380Y1489100D01*
X893400Y1489100D01*
X894940Y1488800D01*
X896220Y1487940D01*
X1105560Y1278600D01*
X1106420Y1277340D01*
X1106720Y1275840D01*
X1106460Y1274340D01*
X1104740Y1269920D01*
X1103920Y1266620D01*
X1103260Y1265240D01*
X1102140Y1264180D01*
X1100680Y1263660D01*
X1099140Y1263700D01*
X1097740Y1264320D01*
X1096680Y1265440D01*
X1096060Y1267100D01*
X1094300Y1272660D01*
X1091840Y1277980D01*
X1088760Y1282960D01*
X1085100Y1287500D01*
X1080900Y1291579D01*
X1076240Y1295100D01*
X1071180Y1298020D01*
X1065780Y1300300D01*
X1060160Y1301900D01*
X1054380Y1302800D01*
X1048540Y1302980D01*
X1042720Y1302440D01*
X1037000Y1301200D01*
X1031500Y1299259D01*
X1026260Y1296639D01*
X1021380Y1293420D01*
X1016940Y1289600D01*
X1013000Y1285280D01*
X1009620Y1280520D01*
X1006860Y1275360D01*
X1004740Y1269920D01*
X1003319Y1264240D01*
X1002600Y1258440D01*
X1002600Y1252580D01*
X1003319Y1246780D01*
X1004740Y1241120D01*
X1006860Y1235660D01*
X1009620Y1230520D01*
X1013000Y1225740D01*
X1016940Y1221420D01*
X1021380Y1217620D01*
X1026260Y1214380D01*
X1031500Y1211780D01*
X1037000Y1209840D01*
X1042720Y1208580D01*
X1048540Y1208040D01*
X1054380Y1208220D01*
X1060160Y1209120D01*
X1065780Y1210720D01*
X1071180Y1213000D01*
X1076240Y1215920D01*
X1080900Y1219440D01*
X1085100Y1223520D01*
X1088760Y1228080D01*
X1091840Y1233040D01*
X1094300Y1238360D01*
X1096100Y1244160D01*
X1096680Y1245600D01*
X1097740Y1246700D01*
X1099140Y1247320D01*
X1100680Y1247380D01*
X1102140Y1246840D01*
X1103260Y1245800D01*
X1103920Y1244400D01*
X1104740Y1241120D01*
X1106860Y1235660D01*
X1109620Y1230520D01*
X1113000Y1225740D01*
X1116940Y1221420D01*
X1121380Y1217620D01*
X1126260Y1214380D01*
X1131500Y1211780D01*
X1137000Y1209840D01*
X1142720Y1208580D01*
X1148540Y1208040D01*
X1154380Y1208220D01*
X1160160Y1209120D01*
X1165780Y1210720D01*
X1168680Y1211940D01*
X1170220Y1212260D01*
X1171760Y1211960D01*
X1173080Y1211100D01*
X1214700Y1169480D01*
X1217140Y1167480D01*
X1219740Y1166080D01*
X1222560Y1165220D01*
X1225700Y1164900D01*
X1652340Y1164900D01*
X1653880Y1164600D01*
X1655160Y1163740D01*
X1655820Y1163100D01*
X1658959Y1160880D01*
X1662460Y1159260D01*
X1666180Y1158260D01*
G37*
G36*
X439400Y1167980D02*
G01*
X462239Y1167980D01*
X462239Y1185420D01*
X449720Y1185420D01*
X447260Y1185140D01*
X445120Y1184400D01*
X443220Y1183200D01*
X441620Y1181600D01*
X440420Y1179680D01*
X439680Y1177560D01*
X439400Y1175100D01*
G37*
G36*
X497760Y1167980D02*
G01*
X520620Y1167980D01*
X520620Y1175100D01*
X520340Y1177560D01*
X519600Y1179680D01*
X518400Y1181600D01*
X516800Y1183200D01*
X514880Y1184400D01*
X512760Y1185140D01*
X510300Y1185420D01*
X497760Y1185420D01*
G37*
G36*
X971200Y1213020D02*
G01*
X976240Y1215920D01*
X980900Y1219440D01*
X985100Y1223520D01*
X988760Y1228080D01*
X991840Y1233040D01*
X992440Y1234320D01*
X971200Y1234320D01*
G37*
G36*
X928800Y1213120D02*
G01*
X928800Y1234320D01*
X907580Y1234320D01*
X909620Y1230520D01*
X913000Y1225740D01*
X916940Y1221420D01*
X921380Y1217620D01*
X926260Y1214380D01*
G37*
G36*
X907580Y1276720D02*
G01*
X928800Y1276720D01*
X928800Y1297920D01*
X926260Y1296639D01*
X921380Y1293420D01*
X916940Y1289600D01*
X913000Y1285280D01*
X909620Y1280520D01*
G37*
G36*
X971200Y1276720D02*
G01*
X992440Y1276720D01*
X991840Y1277980D01*
X988760Y1282960D01*
X985100Y1287500D01*
X980900Y1291579D01*
X976240Y1295100D01*
X971200Y1298000D01*
G37*
G36*
X601520Y1348600D02*
G01*
X607600Y1349139D01*
X613560Y1350380D01*
X619340Y1352340D01*
X624840Y1354960D01*
X629980Y1358220D01*
X634720Y1362060D01*
X638960Y1366420D01*
X642660Y1371260D01*
X645759Y1376519D01*
X648220Y1382100D01*
X650000Y1387920D01*
X651080Y1393920D01*
X651440Y1400000D01*
X651080Y1406080D01*
X650000Y1412080D01*
X648220Y1417900D01*
X645759Y1423480D01*
X642660Y1428740D01*
X638960Y1433580D01*
X634720Y1437940D01*
X629980Y1441780D01*
X624840Y1445040D01*
X619340Y1447660D01*
X613560Y1449620D01*
X607600Y1450860D01*
X601520Y1451399D01*
X595440Y1451220D01*
X589420Y1450320D01*
X583540Y1448720D01*
X577880Y1446440D01*
X572540Y1443500D01*
X567600Y1439940D01*
X563100Y1435820D01*
X559120Y1431200D01*
X555720Y1426160D01*
X552940Y1420740D01*
X550820Y1415020D01*
X549380Y1409100D01*
X548660Y1403040D01*
X548660Y1396960D01*
X549380Y1390900D01*
X550820Y1384980D01*
X552940Y1379259D01*
X555720Y1373839D01*
X559120Y1368800D01*
X563100Y1364180D01*
X567600Y1360060D01*
X572540Y1356519D01*
X577880Y1353560D01*
X583540Y1351279D01*
X589420Y1349680D01*
X595440Y1348779D01*
G37*
G36*
X1501519Y1348600D02*
G01*
X1507600Y1349139D01*
X1513560Y1350380D01*
X1519340Y1352340D01*
X1524840Y1354960D01*
X1529980Y1358220D01*
X1534720Y1362060D01*
X1538959Y1366420D01*
X1542660Y1371260D01*
X1545760Y1376519D01*
X1548220Y1382100D01*
X1550000Y1387920D01*
X1551080Y1393920D01*
X1551440Y1400000D01*
X1551080Y1406080D01*
X1550000Y1412080D01*
X1548220Y1417900D01*
X1545760Y1423480D01*
X1542660Y1428740D01*
X1538959Y1433580D01*
X1534720Y1437940D01*
X1529980Y1441780D01*
X1524840Y1445040D01*
X1519340Y1447660D01*
X1513560Y1449620D01*
X1507600Y1450860D01*
X1501519Y1451399D01*
X1495440Y1451220D01*
X1489420Y1450320D01*
X1483540Y1448720D01*
X1477880Y1446440D01*
X1472540Y1443500D01*
X1467600Y1439940D01*
X1463100Y1435820D01*
X1459120Y1431200D01*
X1455720Y1426160D01*
X1452940Y1420740D01*
X1450820Y1415020D01*
X1449379Y1409100D01*
X1448660Y1403040D01*
X1448660Y1396960D01*
X1449379Y1390900D01*
X1450820Y1384980D01*
X1452940Y1379259D01*
X1455720Y1373839D01*
X1459120Y1368800D01*
X1463100Y1364180D01*
X1467600Y1360060D01*
X1472540Y1356519D01*
X1477880Y1353560D01*
X1483540Y1351279D01*
X1489420Y1349680D01*
X1495440Y1348779D01*
G37*
G36*
X1696180Y1441200D02*
G01*
X1813839Y1441200D01*
X1816300Y1441480D01*
X1818440Y1442220D01*
X1820340Y1443420D01*
X1821940Y1445020D01*
X1823140Y1446920D01*
X1823880Y1449060D01*
X1824160Y1451519D01*
X1824160Y1529820D01*
X1823880Y1532280D01*
X1823140Y1534420D01*
X1821940Y1536320D01*
X1820340Y1537920D01*
X1818440Y1539120D01*
X1816300Y1539860D01*
X1813839Y1540140D01*
X1696180Y1540140D01*
X1693700Y1539860D01*
X1691579Y1539120D01*
X1689660Y1537920D01*
X1688080Y1536320D01*
X1686879Y1534420D01*
X1686120Y1532280D01*
X1685860Y1529820D01*
X1685860Y1451519D01*
X1686120Y1449060D01*
X1686879Y1446920D01*
X1688080Y1445020D01*
X1689660Y1443420D01*
X1691579Y1442220D01*
X1693700Y1441480D01*
G37*
G36*
X1877280Y1625260D02*
G01*
X1897200Y1625260D01*
X1897200Y1639259D01*
X1866960Y1639259D01*
X1866960Y1635580D01*
X1867240Y1633120D01*
X1867980Y1630980D01*
X1869180Y1629079D01*
X1870780Y1627480D01*
X1872680Y1626279D01*
X1874820Y1625540D01*
G37*
G36*
X1866960Y1657040D02*
G01*
X1897200Y1657040D01*
X1897200Y1671040D01*
X1877280Y1671040D01*
X1874820Y1670760D01*
X1872680Y1670020D01*
X1870780Y1668820D01*
X1869180Y1667220D01*
X1867980Y1665320D01*
X1867240Y1663180D01*
X1866960Y1660720D01*
G37*
G36*
X1542640Y1782740D02*
G01*
X1632740Y1782740D01*
X1635200Y1783020D01*
X1637320Y1783760D01*
X1639240Y1784960D01*
X1640840Y1786560D01*
X1642040Y1788460D01*
X1642780Y1790600D01*
X1643060Y1793060D01*
X1643060Y1805040D01*
X1643360Y1806579D01*
X1644220Y1807860D01*
X1665540Y1829180D01*
X1667540Y1831620D01*
X1668940Y1834220D01*
X1669800Y1837060D01*
X1670100Y1840200D01*
X1670100Y1932780D01*
X1670480Y1934460D01*
X1670900Y1935000D01*
X1670480Y1935540D01*
X1670100Y1937220D01*
X1670100Y1957320D01*
X1670400Y1958860D01*
X1671279Y1960160D01*
X1671920Y1960800D01*
X1674139Y1963959D01*
X1675760Y1967440D01*
X1676759Y1971160D01*
X1677100Y1975000D01*
X1676759Y1978839D01*
X1675760Y1982560D01*
X1674139Y1986040D01*
X1671920Y1989199D01*
X1669199Y1991920D01*
X1666060Y1994120D01*
X1662560Y1995760D01*
X1658839Y1996740D01*
X1655020Y1997080D01*
X1651180Y1996740D01*
X1647460Y1995760D01*
X1643959Y1994120D01*
X1640820Y1991920D01*
X1638100Y1989199D01*
X1637000Y1987620D01*
X1635980Y1986620D01*
X1634680Y1986040D01*
X1612820Y1986000D01*
X1612820Y1972000D01*
X1629960Y1972000D01*
X1631660Y1971639D01*
X1633020Y1970580D01*
X1633820Y1969040D01*
X1634259Y1967440D01*
X1635880Y1963959D01*
X1638300Y1960500D01*
X1638959Y1958899D01*
X1638899Y1957180D01*
X1638100Y1955640D01*
X1636720Y1954580D01*
X1635020Y1954220D01*
X1612820Y1954220D01*
X1612820Y1940220D01*
X1632740Y1940220D01*
X1635460Y1940520D01*
X1637120Y1940360D01*
X1638580Y1939540D01*
X1639560Y1938180D01*
X1639900Y1936540D01*
X1639900Y1910940D01*
X1639560Y1909300D01*
X1638580Y1907960D01*
X1637120Y1907120D01*
X1635460Y1906960D01*
X1632740Y1907260D01*
X1542640Y1907260D01*
X1540160Y1906980D01*
X1538040Y1906240D01*
X1536120Y1905040D01*
X1534520Y1903440D01*
X1533320Y1901540D01*
X1532580Y1899400D01*
X1532300Y1896940D01*
X1532300Y1871800D01*
X1532580Y1869340D01*
X1533320Y1867200D01*
X1534520Y1865300D01*
X1536120Y1863700D01*
X1538040Y1862500D01*
X1540160Y1861759D01*
X1542640Y1861480D01*
X1632740Y1861480D01*
X1635460Y1861780D01*
X1637120Y1861620D01*
X1638580Y1860800D01*
X1639560Y1859440D01*
X1639900Y1857800D01*
X1639900Y1847920D01*
X1639600Y1846380D01*
X1638740Y1845080D01*
X1623340Y1829700D01*
X1622040Y1828839D01*
X1620520Y1828520D01*
X1542640Y1828520D01*
X1540160Y1828240D01*
X1538040Y1827500D01*
X1536120Y1826300D01*
X1534520Y1824700D01*
X1533320Y1822800D01*
X1532580Y1820660D01*
X1532300Y1818200D01*
X1532300Y1793060D01*
X1532580Y1790600D01*
X1533320Y1788460D01*
X1534520Y1786560D01*
X1536120Y1784960D01*
X1538040Y1783760D01*
X1540160Y1783020D01*
G37*
G36*
X147980Y1794379D02*
G01*
X155100Y1794379D01*
X157560Y1794660D01*
X159700Y1795420D01*
X161600Y1796620D01*
X163200Y1798200D01*
X164400Y1800120D01*
X165140Y1802240D01*
X165420Y1804720D01*
X165420Y1817240D01*
X147980Y1817240D01*
G37*
G36*
X116180Y1794379D02*
G01*
X123300Y1794379D01*
X123300Y1817240D01*
X105860Y1817240D01*
X105860Y1804720D01*
X106120Y1802240D01*
X106880Y1800120D01*
X108080Y1798200D01*
X109660Y1796620D01*
X111580Y1795420D01*
X113699Y1794660D01*
G37*
G36*
X194920Y1794379D02*
G01*
X233840Y1794379D01*
X236300Y1794660D01*
X238440Y1795420D01*
X240340Y1796620D01*
X241940Y1798200D01*
X243140Y1800120D01*
X243880Y1802240D01*
X244160Y1804720D01*
X244160Y1815080D01*
X244540Y1816780D01*
X245600Y1818140D01*
X247140Y1818940D01*
X248860Y1819019D01*
X250460Y1818340D01*
X253980Y1815880D01*
X257460Y1814240D01*
X261180Y1813260D01*
X265020Y1812920D01*
X268840Y1813260D01*
X272560Y1814240D01*
X276060Y1815880D01*
X279200Y1818080D01*
X281920Y1820800D01*
X284140Y1823959D01*
X285760Y1827440D01*
X286760Y1831160D01*
X287100Y1835000D01*
X286760Y1838839D01*
X285760Y1842560D01*
X284140Y1846040D01*
X281920Y1849199D01*
X279200Y1851920D01*
X276060Y1854120D01*
X272560Y1855760D01*
X268840Y1856740D01*
X265020Y1857080D01*
X261180Y1856740D01*
X257460Y1855760D01*
X253980Y1854120D01*
X250460Y1851660D01*
X248860Y1850980D01*
X247140Y1851060D01*
X245600Y1851860D01*
X244540Y1853220D01*
X244160Y1854920D01*
X244160Y1865280D01*
X243880Y1867760D01*
X243140Y1869880D01*
X241940Y1871800D01*
X240340Y1873380D01*
X238440Y1874580D01*
X236300Y1875340D01*
X233840Y1875620D01*
X194920Y1875620D01*
X192440Y1875340D01*
X190320Y1874580D01*
X188400Y1873380D01*
X186820Y1871800D01*
X185620Y1869880D01*
X184860Y1867760D01*
X184600Y1865280D01*
X184600Y1804720D01*
X184860Y1802240D01*
X185620Y1800120D01*
X186820Y1798200D01*
X188400Y1796620D01*
X190320Y1795420D01*
X192440Y1794660D01*
G37*
G36*
X147980Y1852760D02*
G01*
X165420Y1852760D01*
X165420Y1865280D01*
X165140Y1867760D01*
X164400Y1869880D01*
X163200Y1871800D01*
X161600Y1873380D01*
X159700Y1874580D01*
X157560Y1875340D01*
X155100Y1875620D01*
X147980Y1875620D01*
G37*
G36*
X105860Y1852760D02*
G01*
X123300Y1852760D01*
X123300Y1875620D01*
X116180Y1875620D01*
X113699Y1875340D01*
X111580Y1874580D01*
X109660Y1873380D01*
X108080Y1871800D01*
X106880Y1869880D01*
X106120Y1867760D01*
X105860Y1865280D01*
G37*
G36*
X226520Y1898120D02*
G01*
X352060Y1898120D01*
X354520Y1898400D01*
X356659Y1899160D01*
X358560Y1900360D01*
X360160Y1901940D01*
X361360Y1903860D01*
X362120Y1905980D01*
X362380Y1908460D01*
X362380Y1978880D01*
X362120Y1981339D01*
X361360Y1983460D01*
X360160Y1985380D01*
X358560Y1986980D01*
X356659Y1988180D01*
X354520Y1988920D01*
X352060Y1989199D01*
X226520Y1989199D01*
X224060Y1988920D01*
X221940Y1988180D01*
X220020Y1986980D01*
X218420Y1985380D01*
X217220Y1983460D01*
X216480Y1981339D01*
X216200Y1978880D01*
X216200Y1908460D01*
X216480Y1905980D01*
X217220Y1903860D01*
X218420Y1901940D01*
X220020Y1900360D01*
X221940Y1899160D01*
X224060Y1898400D01*
G37*
G36*
X1542640Y1940220D02*
G01*
X1562540Y1940220D01*
X1562540Y1954220D01*
X1538100Y1954220D01*
X1536579Y1954520D01*
X1535280Y1955380D01*
X1534420Y1956660D01*
X1534100Y1958180D01*
X1534379Y1959700D01*
X1535220Y1961000D01*
X1538959Y1964860D01*
X1543760Y1971080D01*
X1544960Y1971780D01*
X1546320Y1972000D01*
X1562540Y1972000D01*
X1562540Y1986000D01*
X1554720Y1986000D01*
X1553020Y1986380D01*
X1551660Y1987440D01*
X1550860Y1988980D01*
X1550780Y1990720D01*
X1551080Y1992340D01*
X1551440Y1998420D01*
X1551080Y2004500D01*
X1550000Y2010500D01*
X1549000Y2013779D01*
X1548839Y2015260D01*
X1549220Y2016699D01*
X1550100Y2017900D01*
X1551360Y2018680D01*
X1552820Y2018959D01*
X1632740Y2018959D01*
X1635200Y2019240D01*
X1637320Y2019980D01*
X1639240Y2021180D01*
X1640840Y2022780D01*
X1642040Y2024680D01*
X1642780Y2026819D01*
X1643060Y2029280D01*
X1643060Y2054420D01*
X1642780Y2056879D01*
X1642040Y2059019D01*
X1640840Y2060920D01*
X1639240Y2062520D01*
X1637320Y2063720D01*
X1635200Y2064460D01*
X1632740Y2064740D01*
X1542640Y2064740D01*
X1540160Y2064460D01*
X1538040Y2063720D01*
X1536120Y2062520D01*
X1534520Y2060920D01*
X1533320Y2059019D01*
X1532580Y2056879D01*
X1532300Y2054420D01*
X1532300Y2046000D01*
X1531940Y2044360D01*
X1530940Y2043000D01*
X1529460Y2042180D01*
X1527760Y2042040D01*
X1526180Y2042620D01*
X1524840Y2043460D01*
X1519340Y2046080D01*
X1513560Y2048040D01*
X1507600Y2049300D01*
X1501519Y2049840D01*
X1495440Y2049660D01*
X1489420Y2048760D01*
X1483540Y2047140D01*
X1477880Y2044860D01*
X1472540Y2041920D01*
X1467600Y2038360D01*
X1463100Y2034259D01*
X1459120Y2029640D01*
X1455720Y2024580D01*
X1452940Y2019160D01*
X1450820Y2013440D01*
X1449379Y2007520D01*
X1448660Y2001480D01*
X1448660Y1995380D01*
X1449379Y1989319D01*
X1450820Y1983400D01*
X1452940Y1977700D01*
X1455720Y1972280D01*
X1459120Y1967220D01*
X1463100Y1962600D01*
X1467600Y1958480D01*
X1472540Y1954940D01*
X1477880Y1952000D01*
X1483540Y1949700D01*
X1489420Y1948100D01*
X1495440Y1947200D01*
X1501519Y1947020D01*
X1507600Y1947560D01*
X1513560Y1948820D01*
X1519340Y1950760D01*
X1524840Y1953380D01*
X1526180Y1954220D01*
X1527680Y1954800D01*
X1529300Y1954720D01*
X1530760Y1954000D01*
X1531800Y1952780D01*
X1532280Y1951220D01*
X1532600Y1948040D01*
X1533320Y1945940D01*
X1534520Y1944040D01*
X1536120Y1942440D01*
X1538040Y1941240D01*
X1540160Y1940500D01*
G37*
G36*
X601520Y1947020D02*
G01*
X607600Y1947560D01*
X613560Y1948820D01*
X619340Y1950760D01*
X624840Y1953380D01*
X629980Y1956639D01*
X634720Y1960480D01*
X638960Y1964860D01*
X642660Y1969700D01*
X645759Y1974940D01*
X648220Y1980520D01*
X650000Y1986339D01*
X651080Y1992340D01*
X651440Y1998420D01*
X651080Y2004500D01*
X650000Y2010500D01*
X648220Y2016339D01*
X645759Y2021920D01*
X642660Y2027160D01*
X638960Y2032000D01*
X634720Y2036380D01*
X629980Y2040220D01*
X624840Y2043460D01*
X619340Y2046080D01*
X613560Y2048040D01*
X607600Y2049300D01*
X601520Y2049840D01*
X595440Y2049660D01*
X589420Y2048760D01*
X583540Y2047140D01*
X577880Y2044860D01*
X572540Y2041920D01*
X567600Y2038360D01*
X563100Y2034259D01*
X559120Y2029640D01*
X555720Y2024580D01*
X552940Y2019160D01*
X550820Y2013440D01*
X549380Y2007520D01*
X548660Y2001480D01*
X548660Y1995380D01*
X549380Y1989319D01*
X550820Y1983400D01*
X552940Y1977700D01*
X555720Y1972280D01*
X559120Y1967220D01*
X563100Y1962600D01*
X567600Y1958480D01*
X572540Y1954940D01*
X577880Y1952000D01*
X583540Y1949700D01*
X589420Y1948100D01*
X595440Y1947200D01*
G37*
G36*
X92680Y2008360D02*
G01*
X308760Y2008360D01*
X311220Y2008640D01*
X313360Y2009379D01*
X315260Y2010580D01*
X316860Y2012180D01*
X318060Y2014100D01*
X318520Y2015420D01*
X319280Y2016740D01*
X320480Y2017660D01*
X321940Y2018080D01*
X323840Y2018260D01*
X327560Y2019240D01*
X331060Y2020880D01*
X334200Y2023080D01*
X336920Y2025800D01*
X339140Y2028959D01*
X340760Y2032440D01*
X341760Y2036160D01*
X342100Y2040000D01*
X341760Y2043839D01*
X340760Y2047560D01*
X339140Y2051040D01*
X336920Y2054199D01*
X334200Y2056920D01*
X331060Y2059120D01*
X327560Y2060760D01*
X323840Y2061740D01*
X320000Y2062080D01*
X318820Y2062380D01*
X317780Y2063020D01*
X316860Y2064120D01*
X315260Y2065720D01*
X313360Y2066920D01*
X311220Y2067660D01*
X308760Y2067940D01*
X92680Y2067940D01*
X90200Y2067660D01*
X88080Y2066920D01*
X86160Y2065720D01*
X84560Y2064120D01*
X83360Y2062200D01*
X82620Y2060080D01*
X82340Y2057620D01*
X82340Y2018700D01*
X82620Y2016220D01*
X83360Y2014100D01*
X84560Y2012180D01*
X86160Y2010580D01*
X88080Y2009379D01*
X90200Y2008640D01*
G37*
G36*
X92680Y2087100D02*
G01*
X308760Y2087100D01*
X311220Y2087380D01*
X313360Y2088120D01*
X315260Y2089319D01*
X317740Y2091980D01*
X318780Y2092620D01*
X319980Y2092920D01*
X323840Y2093260D01*
X327560Y2094240D01*
X331060Y2095880D01*
X334200Y2098080D01*
X336920Y2100800D01*
X339140Y2103960D01*
X340760Y2107440D01*
X341760Y2111160D01*
X342100Y2115000D01*
X341760Y2118840D01*
X340760Y2122560D01*
X339140Y2126040D01*
X336920Y2129200D01*
X334200Y2131920D01*
X331060Y2134120D01*
X327560Y2135760D01*
X323840Y2136740D01*
X321960Y2136920D01*
X320500Y2137340D01*
X319300Y2138260D01*
X318540Y2139580D01*
X318060Y2140940D01*
X316860Y2142860D01*
X315260Y2144460D01*
X313360Y2145660D01*
X311220Y2146400D01*
X308760Y2146680D01*
X92680Y2146680D01*
X90200Y2146400D01*
X88080Y2145660D01*
X86160Y2144460D01*
X84560Y2142860D01*
X83360Y2140940D01*
X82620Y2138820D01*
X82340Y2136360D01*
X82340Y2097440D01*
X82620Y2094960D01*
X83360Y2092840D01*
X84560Y2090920D01*
X86160Y2089319D01*
X88080Y2088120D01*
X90200Y2087380D01*
G37*
G36*
X1696180Y2149860D02*
G01*
X1813839Y2149860D01*
X1816300Y2150140D01*
X1818440Y2150880D01*
X1820340Y2152080D01*
X1821940Y2153680D01*
X1823140Y2155600D01*
X1823880Y2157720D01*
X1824160Y2160180D01*
X1824160Y2238480D01*
X1823880Y2240940D01*
X1823140Y2243080D01*
X1821940Y2244980D01*
X1820340Y2246580D01*
X1818440Y2247780D01*
X1816300Y2248520D01*
X1813839Y2248800D01*
X1704580Y2248800D01*
X1703060Y2249100D01*
X1701759Y2249980D01*
X1700880Y2251280D01*
X1700580Y2252800D01*
X1700880Y2254340D01*
X1704139Y2258960D01*
X1705760Y2262440D01*
X1706759Y2266160D01*
X1707100Y2270000D01*
X1706759Y2273840D01*
X1705760Y2277560D01*
X1705220Y2278700D01*
X1704860Y2280240D01*
X1705120Y2281820D01*
X1705980Y2283160D01*
X1707300Y2284080D01*
X1708860Y2284380D01*
X1738839Y2284380D01*
X1741300Y2284660D01*
X1743440Y2285420D01*
X1745340Y2286620D01*
X1746940Y2288200D01*
X1748140Y2290120D01*
X1748880Y2292240D01*
X1749160Y2294720D01*
X1749160Y2310900D01*
X1749460Y2312440D01*
X1750340Y2313720D01*
X1751620Y2314600D01*
X1753160Y2314900D01*
X1791860Y2314900D01*
X1793380Y2314600D01*
X1794680Y2313720D01*
X1795540Y2312440D01*
X1795860Y2310900D01*
X1795860Y2299720D01*
X1796120Y2297240D01*
X1796879Y2295120D01*
X1798080Y2293200D01*
X1799660Y2291620D01*
X1801579Y2290420D01*
X1803700Y2289660D01*
X1806180Y2289380D01*
X1845100Y2289380D01*
X1847560Y2289660D01*
X1849700Y2290420D01*
X1851600Y2291620D01*
X1853200Y2293200D01*
X1854400Y2295120D01*
X1855140Y2297240D01*
X1855420Y2299720D01*
X1855420Y2360280D01*
X1855140Y2362760D01*
X1854400Y2364880D01*
X1853200Y2366800D01*
X1851600Y2368380D01*
X1849700Y2369580D01*
X1847560Y2370340D01*
X1845100Y2370620D01*
X1806180Y2370620D01*
X1803700Y2370340D01*
X1801579Y2369580D01*
X1799660Y2368380D01*
X1798080Y2366800D01*
X1796879Y2364880D01*
X1796120Y2362760D01*
X1795860Y2360280D01*
X1795860Y2349100D01*
X1795540Y2347560D01*
X1794680Y2346280D01*
X1793380Y2345400D01*
X1791860Y2345100D01*
X1753160Y2345100D01*
X1751620Y2345400D01*
X1750340Y2346280D01*
X1749460Y2347560D01*
X1749160Y2349100D01*
X1749160Y2355280D01*
X1748880Y2357760D01*
X1748140Y2359880D01*
X1746940Y2361800D01*
X1745340Y2363380D01*
X1743440Y2364580D01*
X1741300Y2365340D01*
X1738660Y2365640D01*
X1737260Y2366060D01*
X1736120Y2366940D01*
X1735360Y2368180D01*
X1735100Y2369600D01*
X1735100Y2394800D01*
X1734800Y2397940D01*
X1733940Y2400780D01*
X1732540Y2403380D01*
X1730640Y2405700D01*
X1729160Y2406980D01*
X1728180Y2408280D01*
X1727780Y2409860D01*
X1728060Y2411480D01*
X1728959Y2412840D01*
X1731920Y2415800D01*
X1734139Y2418960D01*
X1735760Y2422440D01*
X1736759Y2426160D01*
X1737100Y2430000D01*
X1736759Y2433840D01*
X1735760Y2437560D01*
X1734139Y2441040D01*
X1731920Y2444200D01*
X1731279Y2444840D01*
X1730400Y2446140D01*
X1730100Y2447680D01*
X1730100Y2465380D01*
X1730400Y2466920D01*
X1731279Y2468220D01*
X1732580Y2469080D01*
X1734100Y2469380D01*
X1738839Y2469380D01*
X1741300Y2469660D01*
X1743440Y2470420D01*
X1745340Y2471620D01*
X1746940Y2473200D01*
X1748140Y2475120D01*
X1748880Y2477240D01*
X1749160Y2479720D01*
X1749160Y2485900D01*
X1749460Y2487440D01*
X1750340Y2488720D01*
X1751620Y2489600D01*
X1753160Y2489900D01*
X1791860Y2489900D01*
X1793380Y2489600D01*
X1794680Y2488720D01*
X1795540Y2487440D01*
X1795860Y2485900D01*
X1795860Y2474720D01*
X1796120Y2472240D01*
X1796879Y2470120D01*
X1798080Y2468200D01*
X1799660Y2466620D01*
X1801579Y2465420D01*
X1803700Y2464660D01*
X1806180Y2464380D01*
X1845100Y2464380D01*
X1847560Y2464660D01*
X1849700Y2465420D01*
X1851600Y2466620D01*
X1853200Y2468200D01*
X1854400Y2470120D01*
X1855140Y2472240D01*
X1855420Y2474720D01*
X1855420Y2535280D01*
X1855140Y2537760D01*
X1854400Y2539880D01*
X1853200Y2541800D01*
X1851600Y2543380D01*
X1849700Y2544580D01*
X1847560Y2545340D01*
X1845100Y2545620D01*
X1806180Y2545620D01*
X1803700Y2545340D01*
X1801579Y2544580D01*
X1799660Y2543380D01*
X1798080Y2541800D01*
X1796879Y2539880D01*
X1796120Y2537760D01*
X1795860Y2535280D01*
X1795860Y2524100D01*
X1795540Y2522560D01*
X1794680Y2521280D01*
X1793380Y2520400D01*
X1791860Y2520100D01*
X1753160Y2520100D01*
X1751620Y2520400D01*
X1750340Y2521280D01*
X1749460Y2522560D01*
X1749160Y2524100D01*
X1749160Y2540280D01*
X1748880Y2542760D01*
X1748140Y2544880D01*
X1746940Y2546800D01*
X1745340Y2548380D01*
X1743440Y2549580D01*
X1741300Y2550340D01*
X1738839Y2550620D01*
X1699920Y2550620D01*
X1697440Y2550340D01*
X1695320Y2549580D01*
X1693400Y2548380D01*
X1691819Y2546800D01*
X1690620Y2544880D01*
X1689860Y2542760D01*
X1689600Y2540280D01*
X1689600Y2479720D01*
X1689860Y2477240D01*
X1690620Y2475120D01*
X1691819Y2473200D01*
X1693400Y2471620D01*
X1695320Y2470420D01*
X1697220Y2469740D01*
X1698620Y2468900D01*
X1699580Y2467560D01*
X1699900Y2465960D01*
X1699900Y2447660D01*
X1699600Y2446140D01*
X1698740Y2444840D01*
X1698100Y2444200D01*
X1695880Y2441040D01*
X1694259Y2437560D01*
X1693260Y2433840D01*
X1692920Y2430000D01*
X1693260Y2426160D01*
X1694259Y2422440D01*
X1695880Y2418960D01*
X1698100Y2415800D01*
X1700820Y2413080D01*
X1703959Y2410880D01*
X1706279Y2409800D01*
X1707460Y2408960D01*
X1708260Y2407760D01*
X1708580Y2406340D01*
X1708380Y2404900D01*
X1707460Y2403380D01*
X1706080Y2400780D01*
X1705220Y2397940D01*
X1704900Y2394800D01*
X1704900Y2369620D01*
X1704600Y2368080D01*
X1703740Y2366780D01*
X1702440Y2365920D01*
X1700900Y2365620D01*
X1699920Y2365620D01*
X1697440Y2365340D01*
X1695320Y2364580D01*
X1693400Y2363380D01*
X1691819Y2361800D01*
X1690620Y2359880D01*
X1689860Y2357760D01*
X1689600Y2355280D01*
X1689600Y2318220D01*
X1689280Y2316700D01*
X1688420Y2315400D01*
X1677240Y2304220D01*
X1675960Y2303360D01*
X1674420Y2303060D01*
X1672880Y2303360D01*
X1671600Y2304220D01*
X1670720Y2305520D01*
X1670420Y2307240D01*
X1652980Y2307240D01*
X1652980Y2284380D01*
X1660100Y2284380D01*
X1660760Y2284460D01*
X1662440Y2284300D01*
X1663899Y2283460D01*
X1664880Y2282080D01*
X1665220Y2280440D01*
X1664840Y2278800D01*
X1664259Y2277560D01*
X1663260Y2273840D01*
X1662920Y2270000D01*
X1663260Y2266160D01*
X1664259Y2262440D01*
X1665880Y2258960D01*
X1668100Y2255800D01*
X1670820Y2253080D01*
X1673959Y2250880D01*
X1677460Y2249240D01*
X1681180Y2248260D01*
X1683340Y2248060D01*
X1684740Y2247680D01*
X1685900Y2246820D01*
X1686680Y2245600D01*
X1686980Y2244180D01*
X1686759Y2242760D01*
X1686120Y2240940D01*
X1685860Y2238480D01*
X1685860Y2160180D01*
X1686120Y2157720D01*
X1686879Y2155600D01*
X1688080Y2153680D01*
X1689660Y2152080D01*
X1691579Y2150880D01*
X1693700Y2150140D01*
G37*
G36*
X257340Y2165840D02*
G01*
X308760Y2165840D01*
X311220Y2166120D01*
X313360Y2166860D01*
X315260Y2168060D01*
X316860Y2169660D01*
X318060Y2171580D01*
X318800Y2173700D01*
X319080Y2176180D01*
X319080Y2183280D01*
X257340Y2183280D01*
G37*
G36*
X92680Y2165840D02*
G01*
X144080Y2165840D01*
X144080Y2183280D01*
X82340Y2183280D01*
X82340Y2176180D01*
X82620Y2173700D01*
X83360Y2171580D01*
X84560Y2169660D01*
X86160Y2168060D01*
X88080Y2166860D01*
X90200Y2166120D01*
G37*
G36*
X257340Y2207980D02*
G01*
X319080Y2207980D01*
X319080Y2215100D01*
X318800Y2217560D01*
X318060Y2219680D01*
X316860Y2221600D01*
X315260Y2223200D01*
X313360Y2224400D01*
X311220Y2225140D01*
X308760Y2225420D01*
X257340Y2225420D01*
G37*
G36*
X82340Y2207980D02*
G01*
X144080Y2207980D01*
X144080Y2225420D01*
X92680Y2225420D01*
X90200Y2225140D01*
X88080Y2224400D01*
X86160Y2223200D01*
X84560Y2221600D01*
X83360Y2219680D01*
X82620Y2217560D01*
X82340Y2215100D01*
G37*
G36*
X1048540Y2208040D02*
G01*
X1054380Y2208220D01*
X1060160Y2209120D01*
X1065780Y2210720D01*
X1071180Y2213000D01*
X1076240Y2215920D01*
X1080900Y2219440D01*
X1085100Y2223520D01*
X1088760Y2228080D01*
X1091840Y2233040D01*
X1094300Y2238360D01*
X1096100Y2244160D01*
X1096680Y2245600D01*
X1097740Y2246700D01*
X1099140Y2247320D01*
X1100680Y2247380D01*
X1102140Y2246840D01*
X1103260Y2245800D01*
X1103920Y2244400D01*
X1104740Y2241120D01*
X1106860Y2235660D01*
X1109620Y2230520D01*
X1113000Y2225740D01*
X1116940Y2221420D01*
X1121380Y2217620D01*
X1126260Y2214380D01*
X1131500Y2211780D01*
X1137000Y2209840D01*
X1142720Y2208580D01*
X1148540Y2208040D01*
X1154380Y2208220D01*
X1160160Y2209120D01*
X1165780Y2210720D01*
X1171180Y2213000D01*
X1176240Y2215920D01*
X1180900Y2219440D01*
X1185100Y2223520D01*
X1188760Y2228080D01*
X1191840Y2233040D01*
X1194300Y2238360D01*
X1196060Y2243920D01*
X1197140Y2249680D01*
X1197500Y2255520D01*
X1197140Y2261340D01*
X1196060Y2267100D01*
X1194300Y2272660D01*
X1191840Y2277980D01*
X1188760Y2282960D01*
X1185100Y2287500D01*
X1180900Y2291580D01*
X1176240Y2295100D01*
X1171180Y2298020D01*
X1165780Y2300300D01*
X1160160Y2301900D01*
X1154380Y2302800D01*
X1148540Y2302980D01*
X1142720Y2302440D01*
X1137000Y2301200D01*
X1131500Y2299260D01*
X1126260Y2296640D01*
X1121380Y2293420D01*
X1116940Y2289600D01*
X1113000Y2285280D01*
X1109620Y2280520D01*
X1106860Y2275360D01*
X1104740Y2269920D01*
X1103920Y2266620D01*
X1103260Y2265240D01*
X1102140Y2264180D01*
X1100680Y2263660D01*
X1099140Y2263700D01*
X1097740Y2264320D01*
X1096680Y2265440D01*
X1096060Y2267100D01*
X1094300Y2272660D01*
X1091840Y2277980D01*
X1088760Y2282960D01*
X1085100Y2287500D01*
X1080900Y2291580D01*
X1076240Y2295100D01*
X1071180Y2298020D01*
X1065780Y2300300D01*
X1060160Y2301900D01*
X1054380Y2302800D01*
X1048540Y2302980D01*
X1042720Y2302440D01*
X1037000Y2301200D01*
X1031500Y2299260D01*
X1026260Y2296640D01*
X1021380Y2293420D01*
X1016940Y2289600D01*
X1013000Y2285280D01*
X1009620Y2280520D01*
X1006860Y2275360D01*
X1004740Y2269920D01*
X1003319Y2264240D01*
X1002600Y2258440D01*
X1002600Y2252580D01*
X1003319Y2246780D01*
X1004740Y2241120D01*
X1006860Y2235660D01*
X1009620Y2230520D01*
X1013000Y2225740D01*
X1016940Y2221420D01*
X1021380Y2217620D01*
X1026260Y2214380D01*
X1031500Y2211780D01*
X1037000Y2209840D01*
X1042720Y2208580D01*
G37*
G36*
X971200Y2213020D02*
G01*
X976240Y2215920D01*
X980900Y2219440D01*
X985100Y2223520D01*
X988760Y2228080D01*
X991840Y2233040D01*
X992440Y2234320D01*
X971200Y2234320D01*
G37*
G36*
X928800Y2213120D02*
G01*
X928800Y2234320D01*
X907580Y2234320D01*
X909620Y2230520D01*
X913000Y2225740D01*
X916940Y2221420D01*
X921380Y2217620D01*
X926260Y2214380D01*
G37*
G36*
X92680Y2244580D02*
G01*
X308760Y2244580D01*
X311220Y2244860D01*
X313360Y2245600D01*
X315260Y2246800D01*
X316860Y2248400D01*
X319040Y2251980D01*
X320520Y2252920D01*
X322239Y2253160D01*
X325020Y2252920D01*
X328840Y2253260D01*
X332560Y2254240D01*
X336060Y2255880D01*
X339200Y2258080D01*
X341920Y2260800D01*
X344140Y2263960D01*
X345760Y2267440D01*
X346760Y2271160D01*
X347100Y2275000D01*
X346760Y2278840D01*
X345760Y2282560D01*
X344140Y2286040D01*
X341920Y2289200D01*
X339200Y2291920D01*
X336060Y2294120D01*
X332560Y2295760D01*
X328840Y2296740D01*
X325020Y2297080D01*
X321659Y2296800D01*
X320200Y2296920D01*
X318900Y2297580D01*
X317920Y2298640D01*
X316860Y2300340D01*
X315260Y2301940D01*
X313360Y2303140D01*
X311220Y2303880D01*
X308760Y2304160D01*
X190100Y2304160D01*
X188660Y2304420D01*
X187420Y2305180D01*
X186540Y2306340D01*
X186119Y2307740D01*
X186240Y2309200D01*
X186759Y2311160D01*
X187100Y2315000D01*
X187000Y2316020D01*
X187240Y2317740D01*
X188160Y2319200D01*
X191100Y2322160D01*
X192399Y2323020D01*
X193939Y2323320D01*
X308760Y2323320D01*
X311220Y2323600D01*
X313360Y2324340D01*
X315260Y2325540D01*
X316860Y2327140D01*
X318060Y2329060D01*
X318800Y2331180D01*
X319080Y2333660D01*
X319080Y2335160D01*
X319460Y2336860D01*
X320520Y2338240D01*
X322060Y2339020D01*
X323800Y2339100D01*
X325400Y2338420D01*
X328980Y2335860D01*
X332460Y2334240D01*
X336180Y2333260D01*
X340020Y2332920D01*
X343840Y2333260D01*
X347560Y2334240D01*
X351060Y2335880D01*
X354200Y2338080D01*
X356920Y2340800D01*
X359140Y2343960D01*
X360760Y2347440D01*
X361760Y2351160D01*
X362100Y2355000D01*
X361760Y2358840D01*
X360760Y2362560D01*
X359140Y2366040D01*
X356920Y2369200D01*
X354200Y2371920D01*
X351060Y2374120D01*
X347560Y2375760D01*
X343840Y2376740D01*
X340020Y2377080D01*
X336180Y2376740D01*
X332460Y2375760D01*
X328960Y2374120D01*
X324480Y2370960D01*
X323020Y2370640D01*
X321560Y2370860D01*
X320260Y2371600D01*
X319340Y2372760D01*
X318900Y2374180D01*
X318800Y2375040D01*
X318060Y2377160D01*
X316860Y2379080D01*
X315260Y2380680D01*
X313360Y2381880D01*
X311220Y2382620D01*
X308760Y2382900D01*
X92680Y2382900D01*
X90200Y2382620D01*
X88080Y2381880D01*
X86160Y2380680D01*
X84560Y2379080D01*
X83360Y2377160D01*
X82620Y2375040D01*
X82340Y2372580D01*
X82340Y2333660D01*
X82620Y2331180D01*
X83360Y2329060D01*
X84560Y2327140D01*
X86160Y2325540D01*
X88080Y2324340D01*
X90200Y2323600D01*
X92680Y2323320D01*
X139280Y2323320D01*
X140900Y2322980D01*
X142240Y2322020D01*
X143080Y2320620D01*
X143280Y2318980D01*
X142920Y2315000D01*
X143260Y2311160D01*
X143780Y2309200D01*
X143900Y2307740D01*
X143500Y2306340D01*
X142600Y2305180D01*
X141360Y2304420D01*
X139920Y2304160D01*
X92680Y2304160D01*
X90200Y2303880D01*
X88080Y2303140D01*
X86160Y2301940D01*
X84560Y2300340D01*
X83360Y2298420D01*
X82620Y2296300D01*
X82340Y2293840D01*
X82340Y2254920D01*
X82620Y2252440D01*
X83360Y2250320D01*
X84560Y2248400D01*
X86160Y2246800D01*
X88080Y2245600D01*
X90200Y2244860D01*
G37*
G36*
X1905020Y2257920D02*
G01*
X1908839Y2258260D01*
X1912560Y2259240D01*
X1916060Y2260880D01*
X1919199Y2263080D01*
X1921920Y2265800D01*
X1924139Y2268960D01*
X1925760Y2272440D01*
X1926759Y2276160D01*
X1927100Y2280000D01*
X1926759Y2283840D01*
X1926260Y2285720D01*
X1926160Y2287420D01*
X1926780Y2288980D01*
X1928000Y2290160D01*
X1930340Y2291620D01*
X1931940Y2293200D01*
X1933140Y2295120D01*
X1933880Y2297240D01*
X1934160Y2299720D01*
X1934160Y2360280D01*
X1933880Y2362760D01*
X1933140Y2364880D01*
X1931940Y2366800D01*
X1930340Y2368380D01*
X1928440Y2369580D01*
X1926300Y2370340D01*
X1923839Y2370620D01*
X1884920Y2370620D01*
X1882440Y2370340D01*
X1880320Y2369580D01*
X1878400Y2368380D01*
X1876819Y2366800D01*
X1875620Y2364880D01*
X1874860Y2362760D01*
X1874600Y2360280D01*
X1874600Y2299720D01*
X1874860Y2297240D01*
X1875620Y2295120D01*
X1876819Y2293200D01*
X1878400Y2291620D01*
X1880320Y2290420D01*
X1881120Y2290140D01*
X1882400Y2289380D01*
X1883340Y2288220D01*
X1883779Y2286800D01*
X1883660Y2285320D01*
X1883260Y2283840D01*
X1882920Y2280000D01*
X1883260Y2276160D01*
X1884259Y2272440D01*
X1885880Y2268960D01*
X1888100Y2265800D01*
X1890820Y2263080D01*
X1893959Y2260880D01*
X1897460Y2259240D01*
X1901180Y2258260D01*
G37*
G36*
X907580Y2276720D02*
G01*
X928800Y2276720D01*
X928800Y2297920D01*
X926260Y2296640D01*
X921380Y2293420D01*
X916940Y2289600D01*
X913000Y2285280D01*
X909620Y2280520D01*
G37*
G36*
X971200Y2276720D02*
G01*
X992440Y2276720D01*
X991840Y2277980D01*
X988760Y2282960D01*
X985100Y2287500D01*
X980900Y2291580D01*
X976240Y2295100D01*
X971200Y2298000D01*
G37*
G36*
X1621180Y2284380D02*
G01*
X1628300Y2284380D01*
X1628300Y2307240D01*
X1610860Y2307240D01*
X1610860Y2294720D01*
X1611120Y2292240D01*
X1611879Y2290120D01*
X1613080Y2288200D01*
X1614660Y2286620D01*
X1616579Y2285420D01*
X1618700Y2284660D01*
G37*
G36*
X1610860Y2342760D02*
G01*
X1628300Y2342760D01*
X1628300Y2365620D01*
X1621180Y2365620D01*
X1618700Y2365340D01*
X1616579Y2364580D01*
X1614660Y2363380D01*
X1613080Y2361800D01*
X1611879Y2359880D01*
X1611120Y2357760D01*
X1610860Y2355280D01*
G37*
G36*
X1652980Y2342760D02*
G01*
X1670420Y2342760D01*
X1670420Y2355280D01*
X1670140Y2357760D01*
X1669400Y2359880D01*
X1668200Y2361800D01*
X1666600Y2363380D01*
X1664700Y2364580D01*
X1662560Y2365340D01*
X1660100Y2365620D01*
X1652980Y2365620D01*
G37*
G36*
X601520Y2348600D02*
G01*
X607600Y2349140D01*
X613560Y2350380D01*
X619340Y2352340D01*
X624840Y2354960D01*
X629980Y2358220D01*
X634720Y2362060D01*
X638960Y2366420D01*
X642660Y2371260D01*
X645759Y2376520D01*
X648220Y2382100D01*
X650000Y2387920D01*
X651080Y2393920D01*
X651440Y2400000D01*
X651080Y2406080D01*
X650000Y2412080D01*
X648220Y2417900D01*
X645759Y2423480D01*
X642660Y2428740D01*
X638960Y2433580D01*
X634720Y2437940D01*
X629980Y2441780D01*
X624840Y2445040D01*
X619340Y2447660D01*
X613560Y2449620D01*
X607600Y2450860D01*
X601520Y2451400D01*
X595440Y2451220D01*
X589420Y2450320D01*
X583540Y2448720D01*
X577880Y2446440D01*
X572540Y2443500D01*
X567600Y2439940D01*
X563100Y2435820D01*
X559120Y2431200D01*
X555720Y2426160D01*
X552940Y2420740D01*
X550820Y2415020D01*
X549380Y2409100D01*
X548660Y2403040D01*
X548660Y2396960D01*
X549380Y2390900D01*
X550820Y2384980D01*
X552940Y2379260D01*
X555720Y2373840D01*
X559120Y2368800D01*
X563100Y2364180D01*
X567600Y2360060D01*
X572540Y2356520D01*
X577880Y2353560D01*
X583540Y2351280D01*
X589420Y2349680D01*
X595440Y2348780D01*
G37*
G36*
X1501519Y2348600D02*
G01*
X1507600Y2349140D01*
X1513560Y2350380D01*
X1519340Y2352340D01*
X1524840Y2354960D01*
X1529980Y2358220D01*
X1534720Y2362060D01*
X1538959Y2366420D01*
X1542660Y2371260D01*
X1545760Y2376520D01*
X1548220Y2382100D01*
X1550000Y2387920D01*
X1551080Y2393920D01*
X1551440Y2400000D01*
X1551080Y2406080D01*
X1550000Y2412080D01*
X1548220Y2417900D01*
X1545760Y2423480D01*
X1542660Y2428740D01*
X1538959Y2433580D01*
X1534720Y2437940D01*
X1529980Y2441780D01*
X1524840Y2445040D01*
X1519340Y2447660D01*
X1513560Y2449620D01*
X1507600Y2450860D01*
X1501519Y2451400D01*
X1495440Y2451220D01*
X1489420Y2450320D01*
X1483540Y2448720D01*
X1477880Y2446440D01*
X1472540Y2443500D01*
X1467600Y2439940D01*
X1463100Y2435820D01*
X1459120Y2431200D01*
X1455720Y2426160D01*
X1452940Y2420740D01*
X1450820Y2415020D01*
X1449379Y2409100D01*
X1448660Y2403040D01*
X1448660Y2396960D01*
X1449379Y2390900D01*
X1450820Y2384980D01*
X1452940Y2379260D01*
X1455720Y2373840D01*
X1459120Y2368800D01*
X1463100Y2364180D01*
X1467600Y2360060D01*
X1472540Y2356520D01*
X1477880Y2353560D01*
X1483540Y2351280D01*
X1489420Y2349680D01*
X1495440Y2348780D01*
G37*
G36*
X92680Y2402060D02*
G01*
X144080Y2402060D01*
X144080Y2419500D01*
X82340Y2419500D01*
X82340Y2412400D01*
X82620Y2409920D01*
X83360Y2407800D01*
X84560Y2405880D01*
X86160Y2404280D01*
X88080Y2403080D01*
X90200Y2402340D01*
G37*
G36*
X257340Y2402060D02*
G01*
X308760Y2402060D01*
X311220Y2402340D01*
X313360Y2403080D01*
X315260Y2404280D01*
X316860Y2405880D01*
X318060Y2407800D01*
X318800Y2409920D01*
X319080Y2412400D01*
X319080Y2419500D01*
X257340Y2419500D01*
G37*
G36*
X1905020Y2417920D02*
G01*
X1908839Y2418260D01*
X1912560Y2419240D01*
X1916060Y2420880D01*
X1919199Y2423080D01*
X1921920Y2425800D01*
X1924139Y2428960D01*
X1925760Y2432440D01*
X1926759Y2436160D01*
X1927100Y2440000D01*
X1926759Y2443840D01*
X1925760Y2447560D01*
X1924139Y2451040D01*
X1921920Y2454200D01*
X1921279Y2454840D01*
X1920400Y2456140D01*
X1920100Y2457680D01*
X1920100Y2460400D01*
X1920360Y2461820D01*
X1921120Y2463060D01*
X1922260Y2463940D01*
X1923660Y2464360D01*
X1926300Y2464660D01*
X1928440Y2465420D01*
X1930340Y2466620D01*
X1931940Y2468200D01*
X1933140Y2470120D01*
X1933880Y2472240D01*
X1934160Y2474720D01*
X1934160Y2535280D01*
X1933880Y2537760D01*
X1933140Y2539880D01*
X1931940Y2541800D01*
X1930340Y2543380D01*
X1928440Y2544580D01*
X1926300Y2545340D01*
X1923839Y2545620D01*
X1884920Y2545620D01*
X1882440Y2545340D01*
X1880320Y2544580D01*
X1878400Y2543380D01*
X1876819Y2541800D01*
X1875620Y2539880D01*
X1874860Y2537760D01*
X1874600Y2535280D01*
X1874600Y2474720D01*
X1874860Y2472240D01*
X1875620Y2470120D01*
X1876819Y2468200D01*
X1878400Y2466620D01*
X1880320Y2465420D01*
X1882440Y2464660D01*
X1884920Y2464380D01*
X1885900Y2464380D01*
X1887440Y2464080D01*
X1888740Y2463220D01*
X1889600Y2461920D01*
X1889900Y2460380D01*
X1889900Y2457660D01*
X1889600Y2456140D01*
X1888740Y2454840D01*
X1888100Y2454200D01*
X1885880Y2451040D01*
X1884259Y2447560D01*
X1883260Y2443840D01*
X1882920Y2440000D01*
X1883260Y2436160D01*
X1884259Y2432440D01*
X1885880Y2428960D01*
X1888100Y2425800D01*
X1890820Y2423080D01*
X1893959Y2420880D01*
X1897460Y2419240D01*
X1901180Y2418260D01*
G37*
G36*
X257340Y2444200D02*
G01*
X319080Y2444200D01*
X319080Y2451320D01*
X318800Y2453780D01*
X318060Y2455900D01*
X316860Y2457820D01*
X315260Y2459420D01*
X313360Y2460620D01*
X311220Y2461360D01*
X308760Y2461640D01*
X257340Y2461640D01*
G37*
G36*
X82340Y2444200D02*
G01*
X144080Y2444200D01*
X144080Y2461640D01*
X92680Y2461640D01*
X90200Y2461360D01*
X88080Y2460620D01*
X86160Y2459420D01*
X84560Y2457820D01*
X83360Y2455900D01*
X82620Y2453780D01*
X82340Y2451320D01*
G37*
G36*
X1652980Y2469380D02*
G01*
X1660100Y2469380D01*
X1662560Y2469660D01*
X1664700Y2470420D01*
X1666600Y2471620D01*
X1668200Y2473200D01*
X1669400Y2475120D01*
X1670140Y2477240D01*
X1670420Y2479720D01*
X1670420Y2492240D01*
X1652980Y2492240D01*
G37*
G36*
X1621180Y2469380D02*
G01*
X1628300Y2469380D01*
X1628300Y2492240D01*
X1610860Y2492240D01*
X1610860Y2479720D01*
X1611120Y2477240D01*
X1611879Y2475120D01*
X1613080Y2473200D01*
X1614660Y2471620D01*
X1616579Y2470420D01*
X1618700Y2469660D01*
G37*
G36*
X226520Y2480800D02*
G01*
X352060Y2480800D01*
X354520Y2481080D01*
X356659Y2481820D01*
X358560Y2483040D01*
X360160Y2484620D01*
X361360Y2486540D01*
X362120Y2488660D01*
X362380Y2491140D01*
X362380Y2561540D01*
X362120Y2564020D01*
X361360Y2566139D01*
X360160Y2568060D01*
X358560Y2569640D01*
X356659Y2570840D01*
X354520Y2571600D01*
X352060Y2571880D01*
X226520Y2571880D01*
X224060Y2571600D01*
X221940Y2570840D01*
X220020Y2569640D01*
X218420Y2568060D01*
X217220Y2566139D01*
X216480Y2564020D01*
X216200Y2561540D01*
X216200Y2491140D01*
X216480Y2488660D01*
X217220Y2486540D01*
X218420Y2484620D01*
X220020Y2483040D01*
X221940Y2481820D01*
X224060Y2481080D01*
G37*
G36*
X1652980Y2527760D02*
G01*
X1670420Y2527760D01*
X1670420Y2540280D01*
X1670140Y2542760D01*
X1669400Y2544880D01*
X1668200Y2546800D01*
X1666600Y2548380D01*
X1664700Y2549580D01*
X1662560Y2550340D01*
X1660100Y2550620D01*
X1652980Y2550620D01*
G37*
G36*
X1610860Y2527760D02*
G01*
X1628300Y2527760D01*
X1628300Y2550620D01*
X1621180Y2550620D01*
X1618700Y2550340D01*
X1616579Y2549580D01*
X1614660Y2548380D01*
X1613080Y2546800D01*
X1611879Y2544880D01*
X1611120Y2542760D01*
X1610860Y2540280D01*
G37*
G36*
X601520Y2947020D02*
G01*
X607600Y2947559D01*
X613560Y2948820D01*
X619340Y2950760D01*
X624840Y2953380D01*
X629980Y2956640D01*
X634720Y2960480D01*
X638960Y2964860D01*
X642660Y2969700D01*
X645759Y2974940D01*
X648220Y2980520D01*
X650000Y2986340D01*
X651080Y2992340D01*
X651440Y2998420D01*
X651080Y3004500D01*
X650000Y3010500D01*
X648220Y3016340D01*
X645759Y3021920D01*
X642660Y3027160D01*
X638960Y3032000D01*
X634720Y3036380D01*
X629980Y3040220D01*
X624840Y3043460D01*
X619340Y3046080D01*
X613560Y3048039D01*
X607600Y3049300D01*
X601520Y3049840D01*
X595440Y3049660D01*
X589420Y3048759D01*
X583540Y3047140D01*
X577880Y3044860D01*
X572540Y3041920D01*
X567600Y3038360D01*
X563100Y3034260D01*
X559120Y3029640D01*
X555720Y3024580D01*
X552940Y3019160D01*
X550820Y3013440D01*
X549380Y3007520D01*
X548660Y3001480D01*
X548660Y2995380D01*
X549380Y2989320D01*
X550820Y2983399D01*
X552940Y2977700D01*
X555720Y2972280D01*
X559120Y2967220D01*
X563100Y2962600D01*
X567600Y2958480D01*
X572540Y2954940D01*
X577880Y2952000D01*
X583540Y2949700D01*
X589420Y2948100D01*
X595440Y2947200D01*
G37*
G36*
X1501519Y2947020D02*
G01*
X1507600Y2947559D01*
X1513560Y2948820D01*
X1519340Y2950760D01*
X1524840Y2953380D01*
X1529980Y2956640D01*
X1534720Y2960480D01*
X1538959Y2964860D01*
X1542660Y2969700D01*
X1545760Y2974940D01*
X1548220Y2980520D01*
X1550000Y2986340D01*
X1551080Y2992340D01*
X1551440Y2998420D01*
X1551080Y3004500D01*
X1550000Y3010500D01*
X1548220Y3016340D01*
X1545760Y3021920D01*
X1542660Y3027160D01*
X1538959Y3032000D01*
X1534720Y3036380D01*
X1529980Y3040220D01*
X1524840Y3043460D01*
X1519340Y3046080D01*
X1513560Y3048039D01*
X1507600Y3049300D01*
X1501519Y3049840D01*
X1495440Y3049660D01*
X1489420Y3048759D01*
X1483540Y3047140D01*
X1477880Y3044860D01*
X1472540Y3041920D01*
X1467600Y3038360D01*
X1463100Y3034260D01*
X1459120Y3029640D01*
X1455720Y3024580D01*
X1452940Y3019160D01*
X1450820Y3013440D01*
X1449379Y3007520D01*
X1448660Y3001480D01*
X1448660Y2995380D01*
X1449379Y2989320D01*
X1450820Y2983399D01*
X1452940Y2977700D01*
X1455720Y2972280D01*
X1459120Y2967220D01*
X1463100Y2962600D01*
X1467600Y2958480D01*
X1472540Y2954940D01*
X1477880Y2952000D01*
X1483540Y2949700D01*
X1489420Y2948100D01*
X1495440Y2947200D01*
G37*
G36*
X225020Y3039900D02*
G01*
X231040Y3040280D01*
X237000Y3041360D01*
X242780Y3043159D01*
X248280Y3045640D01*
X253460Y3048780D01*
X258220Y3052500D01*
X262500Y3056780D01*
X266240Y3061540D01*
X269360Y3066720D01*
X271840Y3072240D01*
X273640Y3078020D01*
X274740Y3083960D01*
X275100Y3090000D01*
X274740Y3096040D01*
X273640Y3101980D01*
X271840Y3107760D01*
X269360Y3113279D01*
X266240Y3118460D01*
X262500Y3123220D01*
X258220Y3127500D01*
X253460Y3131220D01*
X248280Y3134360D01*
X242780Y3136840D01*
X237000Y3138639D01*
X231040Y3139720D01*
X225020Y3140100D01*
X218980Y3139720D01*
X213020Y3138639D01*
X207240Y3136840D01*
X201740Y3134360D01*
X196560Y3131220D01*
X191800Y3127500D01*
X187520Y3123220D01*
X183780Y3118460D01*
X180660Y3113279D01*
X178180Y3107760D01*
X176380Y3101980D01*
X175280Y3096040D01*
X174920Y3090000D01*
X175280Y3083960D01*
X176380Y3078020D01*
X178180Y3072240D01*
X180660Y3066720D01*
X183780Y3061540D01*
X187520Y3056780D01*
X191800Y3052500D01*
X196560Y3048780D01*
X201740Y3045640D01*
X207240Y3043159D01*
X213020Y3041360D01*
X218980Y3040280D01*
G37*
G36*
X1725020Y3039900D02*
G01*
X1731040Y3040280D01*
X1737000Y3041360D01*
X1742780Y3043159D01*
X1748280Y3045640D01*
X1753460Y3048780D01*
X1758220Y3052500D01*
X1762500Y3056780D01*
X1766240Y3061540D01*
X1769360Y3066720D01*
X1771840Y3072240D01*
X1773640Y3078020D01*
X1774740Y3083960D01*
X1775100Y3090000D01*
X1774740Y3096040D01*
X1773640Y3101980D01*
X1771840Y3107760D01*
X1769360Y3113279D01*
X1766240Y3118460D01*
X1762500Y3123220D01*
X1758220Y3127500D01*
X1753460Y3131220D01*
X1748280Y3134360D01*
X1742780Y3136840D01*
X1737000Y3138639D01*
X1731040Y3139720D01*
X1725020Y3140100D01*
X1718980Y3139720D01*
X1713020Y3138639D01*
X1707240Y3136840D01*
X1701740Y3134360D01*
X1696560Y3131220D01*
X1691800Y3127500D01*
X1687520Y3123220D01*
X1683779Y3118460D01*
X1680660Y3113279D01*
X1678180Y3107760D01*
X1676380Y3101980D01*
X1675280Y3096040D01*
X1674920Y3090000D01*
X1675280Y3083960D01*
X1676380Y3078020D01*
X1678180Y3072240D01*
X1680660Y3066720D01*
X1683779Y3061540D01*
X1687520Y3056780D01*
X1691800Y3052500D01*
X1696560Y3048780D01*
X1701740Y3045640D01*
X1707240Y3043159D01*
X1713020Y3041360D01*
X1718980Y3040280D01*
G37*

%LPD*%
G36*
X188740Y839500D02*
G01*
X187200Y839800D01*
X185900Y840660D01*
X185040Y841960D01*
X184740Y843500D01*
X184740Y858600D01*
X169640Y858600D01*
X168100Y858900D01*
X166800Y859760D01*
X165940Y861060D01*
X165640Y862700D01*
X165940Y864220D01*
X166800Y865520D01*
X168100Y866380D01*
X169640Y866700D01*
X184740Y866700D01*
X184740Y881800D01*
X185040Y883319D01*
X185900Y884620D01*
X187200Y885480D01*
X188840Y885800D01*
X190360Y885480D01*
X191660Y884620D01*
X192540Y883319D01*
X192840Y881800D01*
X192840Y866700D01*
X207940Y866700D01*
X209460Y866380D01*
X210760Y865520D01*
X211640Y864220D01*
X211940Y862600D01*
X211640Y861060D01*
X210760Y859760D01*
X209460Y858900D01*
X207940Y858600D01*
X192840Y858600D01*
X192840Y843500D01*
X192540Y841960D01*
X191660Y840660D01*
X190360Y839800D01*
G37*

%LPD*%
G36*
X188740Y642640D02*
G01*
X187200Y642940D01*
X185900Y643820D01*
X185040Y645120D01*
X184740Y646640D01*
X184740Y661740D01*
X169640Y661740D01*
X168100Y662039D01*
X166800Y662920D01*
X165940Y664220D01*
X165640Y665840D01*
X165940Y667380D01*
X166800Y668660D01*
X168100Y669539D01*
X169640Y669840D01*
X184740Y669840D01*
X184740Y684940D01*
X185040Y686480D01*
X185900Y687760D01*
X187200Y688640D01*
X188840Y688940D01*
X190360Y688640D01*
X191660Y687760D01*
X192540Y686480D01*
X192840Y684940D01*
X192840Y669840D01*
X207940Y669840D01*
X209460Y669539D01*
X210760Y668660D01*
X211640Y667380D01*
X211940Y665740D01*
X211640Y664220D01*
X210760Y662920D01*
X209460Y662039D01*
X207940Y661740D01*
X192840Y661740D01*
X192840Y646640D01*
X192540Y645120D01*
X191660Y643820D01*
X190360Y642940D01*
G37*

%LPD*%
D10*
X1544955Y644959D02*
G01*
X1094955Y644959D01*
X737055Y287059D01*
X737055Y259659D01*
X854884Y239999D02*
G01*
X694885Y80000D01*
X420000Y80000D01*
X60000Y440000D01*
X60000Y695000D01*
X129209Y764210D01*
X188779Y764210D01*
X302954Y862659D02*
G01*
X302954Y677959D01*
X290754Y665759D01*
X188754Y665759D01*
X485000Y415630D02*
G01*
X395000Y325630D01*
X395000Y165000D01*
X435000Y125000D01*
X680825Y125000D01*
X795824Y239999D01*
X484954Y494359D02*
G01*
X484954Y509959D01*
X427654Y567359D01*
X188754Y567359D01*
X188779Y862640D02*
G01*
X352639Y862640D01*
X480000Y990000D01*
X480000Y1155635D01*
X480000Y1234375D02*
G01*
X480000Y1249999D01*
X420000Y1310000D01*
X191425Y1310000D01*
X188784Y1307359D01*
X280000Y1445000D02*
G01*
X241608Y1406609D01*
X188654Y1406609D01*
X214373Y1834999D02*
G01*
X214373Y1834999D01*
X265004Y1834999D01*
X1580000Y1570000D02*
G01*
X1587674Y1577675D01*
X1587674Y1648149D01*
X441499Y240000D02*
G01*
X441499Y170000D01*
X1331459Y250950D02*
G01*
X1331459Y268540D01*
X1280000Y320000D01*
X1390519Y250950D02*
G01*
X1390519Y289480D01*
X1320000Y360000D01*
X188784Y1504209D02*
G01*
X901305Y1504209D01*
X1150005Y1255509D01*
X1922325Y1963109D02*
G01*
X1650000Y1690784D01*
X1650000Y1470000D01*
X1150005Y1255509D02*
G01*
X1225504Y1180009D01*
X1670005Y1180009D01*
X1420000Y425000D02*
G01*
X1509539Y335460D01*
X1509539Y264682D01*
X1719375Y2324999D02*
G01*
X1685000Y2290624D01*
X1685000Y2270000D01*
X1719375Y2324999D02*
G01*
X1720000Y2325624D01*
X1720000Y2395000D01*
X1365005Y409999D02*
G01*
X1450469Y324534D01*
X1450469Y264681D01*
X1719375Y2509999D02*
G01*
X1715000Y2505624D01*
X1715000Y2430000D01*
X1700000Y1935000D02*
G01*
X1700000Y1795000D01*
X1631889Y1726889D01*
X1587674Y1726889D01*
X1904375Y2329999D02*
G01*
X1905000Y2329374D01*
X1905000Y2280000D01*
X1655000Y1975000D02*
G01*
X1655000Y1840000D01*
X1620628Y1805629D01*
X1587674Y1805629D01*
X1904375Y2504999D02*
G01*
X1905000Y2504374D01*
X1905000Y2440000D01*
X1640635Y2509999D02*
G01*
X1640635Y2324999D01*
X155004Y1649999D02*
G01*
X188785Y1616218D01*
X188785Y1504210D01*
X200704Y2353109D02*
G01*
X165000Y2317404D01*
X165000Y2315000D01*
X1719375Y2324999D02*
G01*
X1724375Y2329999D01*
X1825635Y2329999D01*
X1719375Y2509999D02*
G01*
X1724375Y2504999D01*
X1825635Y2504999D01*
X1570000Y315000D02*
G01*
X1568580Y313580D01*
X1568580Y264682D01*
X200704Y2431849D02*
G01*
X198855Y2430000D01*
X80000Y2430000D01*
X200704Y2353109D02*
G01*
X202595Y2355000D01*
X340000Y2355000D01*
X499954Y299959D02*
G01*
X500854Y259659D01*
X559954Y289959D02*
G01*
X559954Y259659D01*
X200704Y2038149D02*
G01*
X202555Y2040000D01*
X320000Y2040000D01*
X615000Y290000D02*
G01*
X618979Y286020D01*
X618979Y259682D01*
X200704Y2116889D02*
G01*
X202593Y2115000D01*
X320000Y2115000D01*
X678029Y259682D02*
G01*
X675000Y262712D01*
X675000Y290000D01*
X200704Y2274369D02*
G01*
X201335Y2275000D01*
X325000Y2275000D01*
G36*
X275279Y543859D02*
G01*
X275279Y590860D01*
X102279Y590860D01*
X102279Y543859D01*
G37*
G36*
X275279Y642290D02*
G01*
X275279Y689290D01*
X102279Y689290D01*
X102279Y642290D01*
G37*
G36*
X275279Y740710D02*
G01*
X275279Y787710D01*
X102279Y787710D01*
X102279Y740710D01*
G37*
G36*
X275279Y839140D02*
G01*
X275279Y886140D01*
X102279Y886140D01*
X102279Y839140D01*
G37*
G36*
X397279Y393940D02*
G01*
X397279Y480940D01*
X177279Y480940D01*
X177279Y393940D01*
G37*
G36*
X397279Y949060D02*
G01*
X397279Y1036060D01*
X177279Y1036060D01*
X177279Y949060D01*
G37*
G36*
X515511Y474685D02*
G01*
X515511Y514055D01*
X454487Y514055D01*
X454487Y474685D01*
G37*
G36*
X515511Y395945D02*
G01*
X515511Y435315D01*
X454487Y435315D01*
X454487Y395945D01*
G37*
G36*
X194684Y1804488D02*
G01*
X234054Y1804488D01*
X234054Y1865512D01*
X194684Y1865512D01*
G37*
G36*
X115944Y1804488D02*
G01*
X155314Y1804488D01*
X155314Y1865512D01*
X115944Y1865512D01*
G37*
G36*
X1884684Y2474488D02*
G01*
X1924054Y2474488D01*
X1924054Y2535512D01*
X1884684Y2535512D01*
G37*
G36*
X1805945Y2474488D02*
G01*
X1845315Y2474488D01*
X1845315Y2535512D01*
X1805945Y2535512D01*
G37*
G36*
X1699684Y2479488D02*
G01*
X1739054Y2479488D01*
X1739054Y2540512D01*
X1699684Y2540512D01*
G37*
G36*
X1620945Y2479488D02*
G01*
X1660315Y2479488D01*
X1660315Y2540512D01*
X1620945Y2540512D01*
G37*
G36*
X1884684Y2299488D02*
G01*
X1924054Y2299488D01*
X1924054Y2360512D01*
X1884684Y2360512D01*
G37*
G36*
X1805945Y2299488D02*
G01*
X1845315Y2299488D01*
X1845315Y2360512D01*
X1805945Y2360512D01*
G37*
G36*
X1699684Y2294488D02*
G01*
X1739054Y2294488D01*
X1739054Y2355512D01*
X1699684Y2355512D01*
G37*
G36*
X1620945Y2294488D02*
G01*
X1660315Y2294488D01*
X1660315Y2355512D01*
X1620945Y2355512D01*
G37*
G36*
X510511Y1214685D02*
G01*
X510511Y1254055D01*
X449487Y1254055D01*
X449487Y1214685D01*
G37*
G36*
X510511Y1135945D02*
G01*
X510511Y1175315D01*
X449487Y1175315D01*
X449487Y1135945D01*
G37*
G36*
X1967599Y1660945D02*
G01*
X1877047Y1660945D01*
X1877047Y1635354D01*
X1967599Y1635354D01*
G37*
G36*
X1632951Y1660945D02*
G01*
X1542399Y1660945D01*
X1542399Y1635354D01*
X1632951Y1635354D01*
G37*
G36*
X1967599Y1739685D02*
G01*
X1877046Y1739685D01*
X1877046Y1714095D01*
X1967599Y1714095D01*
G37*
G36*
X1632951Y1739685D02*
G01*
X1542399Y1739685D01*
X1542399Y1714095D01*
X1632951Y1714095D01*
G37*
G36*
X1967599Y1818425D02*
G01*
X1877046Y1818425D01*
X1877046Y1792835D01*
X1967599Y1792835D01*
G37*
G36*
X1632951Y1818425D02*
G01*
X1542399Y1818425D01*
X1542399Y1792835D01*
X1632951Y1792835D01*
G37*
G36*
X1967599Y1897165D02*
G01*
X1877046Y1897165D01*
X1877046Y1871575D01*
X1967599Y1871575D01*
G37*
G36*
X1632951Y1897165D02*
G01*
X1542399Y1897165D01*
X1542399Y1871575D01*
X1632951Y1871575D01*
G37*
G36*
X1967599Y1975905D02*
G01*
X1877046Y1975905D01*
X1877046Y1950315D01*
X1967599Y1950315D01*
G37*
G36*
X1632951Y1975905D02*
G01*
X1542399Y1975905D01*
X1542399Y1950315D01*
X1632951Y1950315D01*
G37*
G36*
X1967599Y2054645D02*
G01*
X1877046Y2054645D01*
X1877046Y2029055D01*
X1967599Y2029055D01*
G37*
G36*
X1632951Y2054645D02*
G01*
X1542399Y2054645D01*
X1542399Y2029055D01*
X1632951Y2029055D01*
G37*
G36*
X1814054Y2238701D02*
G01*
X1695945Y2238701D01*
X1695945Y2159961D01*
X1814054Y2159961D01*
G37*
G36*
X1814054Y1530039D02*
G01*
X1695945Y1530039D01*
X1695945Y1451299D01*
X1814054Y1451299D01*
G37*
G36*
X92439Y2057835D02*
G01*
X92439Y2018465D01*
X308975Y2018465D01*
X308975Y2057835D01*
G37*
G36*
X92439Y2136575D02*
G01*
X92439Y2097205D01*
X308975Y2097205D01*
X308975Y2136575D01*
G37*
G36*
X92439Y2215315D02*
G01*
X92439Y2175945D01*
X308975Y2175945D01*
X308975Y2215315D01*
G37*
G36*
X92439Y2294055D02*
G01*
X92439Y2254685D01*
X308975Y2254685D01*
X308975Y2294055D01*
G37*
G36*
X92439Y2372795D02*
G01*
X92439Y2333425D01*
X308975Y2333425D01*
X308975Y2372795D01*
G37*
G36*
X92439Y2451535D02*
G01*
X92439Y2412165D01*
X308975Y2412165D01*
X308975Y2451535D01*
G37*
G36*
X226298Y2561772D02*
G01*
X226298Y2490906D01*
X352282Y2490906D01*
X352282Y2561772D01*
G37*
G36*
X226298Y1979094D02*
G01*
X226298Y1908228D01*
X352282Y1908228D01*
X352282Y1979094D01*
G37*
G36*
X841102Y218346D02*
G01*
X868662Y218346D01*
X868662Y261654D01*
X841102Y261654D01*
G37*
G36*
X782047Y218346D02*
G01*
X809607Y218346D01*
X809607Y261654D01*
X782047Y261654D01*
G37*
G36*
X663937Y218346D02*
G01*
X691498Y218346D01*
X691498Y261654D01*
X663937Y261654D01*
G37*
G36*
X722992Y218346D02*
G01*
X750552Y218346D01*
X750552Y261654D01*
X722992Y261654D01*
G37*
G36*
X604882Y218346D02*
G01*
X632442Y218346D01*
X632442Y261654D01*
X604882Y261654D01*
G37*
G36*
X545826Y218346D02*
G01*
X573386Y218346D01*
X573386Y261654D01*
X545826Y261654D01*
G37*
G36*
X486771Y218346D02*
G01*
X514331Y218346D01*
X514331Y261654D01*
X486771Y261654D01*
G37*
G36*
X427716Y218346D02*
G01*
X455276Y218346D01*
X455276Y261654D01*
X427716Y261654D01*
G37*
G36*
X931141Y-2441D02*
G01*
X982323Y-2441D01*
X982323Y72362D01*
X931141Y72362D01*
G37*
G36*
X314055Y-2441D02*
G01*
X365237Y-2441D01*
X365237Y72362D01*
X314055Y72362D01*
G37*
G36*
X1551926Y227323D02*
G01*
X1583422Y227323D01*
X1583422Y274567D01*
X1551926Y274567D01*
G37*
G36*
X1492876Y227323D02*
G01*
X1524372Y227323D01*
X1524372Y274567D01*
X1492876Y274567D01*
G37*
G36*
X1374767Y227323D02*
G01*
X1406262Y227323D01*
X1406262Y274567D01*
X1374767Y274567D01*
G37*
G36*
X1433816Y226929D02*
G01*
X1465312Y226929D01*
X1465312Y274961D01*
X1433816Y274961D01*
G37*
G36*
X1315707Y227323D02*
G01*
X1347202Y227323D01*
X1347202Y274567D01*
X1315707Y274567D01*
G37*
G36*
X1256656Y227323D02*
G01*
X1288153Y227323D01*
X1288153Y274567D01*
X1256656Y274567D01*
G37*
G36*
X1642992Y4565D02*
G01*
X1705985Y4565D01*
X1705985Y87244D01*
X1642992Y87244D01*
G37*
G36*
X1132597Y4565D02*
G01*
X1195590Y4565D01*
X1195590Y87244D01*
X1132597Y87244D01*
G37*
G36*
X275279Y1283859D02*
G01*
X275279Y1330860D01*
X102279Y1330860D01*
X102279Y1283859D01*
G37*
G36*
X275279Y1382290D02*
G01*
X275279Y1429290D01*
X102279Y1429290D01*
X102279Y1382290D01*
G37*
G36*
X275279Y1480710D02*
G01*
X275279Y1527710D01*
X102279Y1527710D01*
X102279Y1480710D01*
G37*
G36*
X275279Y1579140D02*
G01*
X275279Y1626140D01*
X102279Y1626140D01*
X102279Y1579140D01*
G37*
G36*
X397279Y1133940D02*
G01*
X397279Y1220940D01*
X177279Y1220940D01*
X177279Y1133940D01*
G37*
G36*
X397279Y1689060D02*
G01*
X397279Y1776060D01*
X177279Y1776060D01*
X177279Y1689060D01*
G37*
D12*
G01*
X1050005Y2255509D03*
G01*
X1150005Y2255509D03*
G01*
X950005Y2255509D03*
D13*
G01*
X600004Y2399999D03*
G01*
X1500005Y2399999D03*
G01*
X1500005Y2998419D03*
G01*
X600004Y2998419D03*
D12*
G01*
X1050005Y1255509D03*
G01*
X1150005Y1255509D03*
G01*
X950005Y1255509D03*
D13*
G01*
X600004Y1399999D03*
G01*
X1500005Y1399999D03*
G01*
X1500005Y1998419D03*
G01*
X600004Y1998419D03*
D11*
G01*
X1580005Y1569999D03*
G01*
X441504Y169999D03*
G01*
X1280005Y319999D03*
G01*
X1320005Y359999D03*
G01*
X1670005Y1180009D03*
G01*
X325004Y2274999D03*
G01*
X675005Y289999D03*
G01*
X320004Y2114999D03*
G01*
X615004Y289999D03*
G01*
X320004Y2039999D03*
G01*
X560004Y289999D03*
G01*
X410000Y1310000D03*
G01*
X500004Y299999D03*
G01*
X1430005Y89999D03*
G01*
X340004Y2354999D03*
G01*
X1570005Y314999D03*
G01*
X265004Y1834999D03*
G01*
X280004Y1444999D03*
G01*
X165004Y2314999D03*
G01*
X155004Y1649999D03*
G01*
X1905005Y2439999D03*
G01*
X1655005Y1974999D03*
G01*
X1905005Y2279999D03*
G01*
X1700005Y1934999D03*
G01*
X1715005Y2429999D03*
G01*
X1365005Y409999D03*
G01*
X1685005Y2269999D03*
G01*
X1420005Y424999D03*
G01*
X1922325Y1963109D03*
G01*
X1650005Y1469999D03*
G01*
X1545005Y644999D03*
M02*
